<?xml version="1.0" encoding="UTF-8"?>
<svg xmlns="http://www.w3.org/2000/svg" xmlns:xlink="http://www.w3.org/1999/xlink" width="328pt" height="432pt" viewBox="0 0 328 432" version="1.1">
<g id="surface20736">
<rect x="0" y="0" width="328" height="432" style="fill:rgb(99.998474%,99.998474%,99.998474%);fill-opacity:1;stroke:none;"/>
<path style="fill:none;stroke-width:0.03;stroke-linecap:square;stroke-linejoin:miter;stroke:rgb(99.998474%,99.998474%,99.998474%);stroke-opacity:1;stroke-miterlimit:10;" d="M 0 214 L 328 214 L 328 -218 L 0 -218 Z M 0 214 " transform="matrix(1,0,0,1,0,218)"/>
<path style="fill:none;stroke-width:1;stroke-linecap:square;stroke-linejoin:miter;stroke:rgb(0%,0%,0%);stroke-opacity:1;stroke-miterlimit:3.25;" d="M 80.539063 437.722656 L 80.539063 19.277344 " transform="matrix(1,0,0,1,-74,-13)"/>
<path style="fill:none;stroke-width:0.2;stroke-linecap:square;stroke-linejoin:miter;stroke:rgb(0%,0%,0%);stroke-opacity:1;stroke-miterlimit:3.25;" d="M 185.148438 437.722656 L 185.148438 19.277344 " transform="matrix(1,0,0,1,-74,-13)"/>
<path style="fill:none;stroke-width:2;stroke-linecap:square;stroke-linejoin:miter;stroke:rgb(0%,0%,0%);stroke-opacity:1;stroke-miterlimit:3.25;" d="M 289.761719 437.722656 L 289.761719 19.277344 " transform="matrix(1,0,0,1,-74,-13)"/>
<path style="fill:none;stroke-width:3;stroke-linecap:square;stroke-linejoin:miter;stroke:rgb(0%,0%,0%);stroke-opacity:1;stroke-miterlimit:3.25;" d="M 394.375 437.722656 L 394.375 19.277344 " transform="matrix(1,0,0,1,-74,-13)"/>
</g>
</svg>
