<?xml version="1.0" encoding="UTF-8"?>
<svg xmlns="http://www.w3.org/2000/svg" xmlns:xlink="http://www.w3.org/1999/xlink" width="350pt" height="81pt" viewBox="0 0 350 81" version="1.1">
<g id="surface20756">
<rect x="0" y="0" width="350" height="81" style="fill:rgb(99.998474%,99.998474%,99.998474%);fill-opacity:1;stroke:none;"/>
<path style="fill:none;stroke-width:0.03;stroke-linecap:square;stroke-linejoin:miter;stroke:rgb(99.998474%,99.998474%,99.998474%);stroke-opacity:1;stroke-miterlimit:10;" d="M 0 39 L 350 39 L 350 -42 L 0 -42 Z M 0 39 " transform="matrix(1,0,0,1,0,42)"/>
<path style="fill:none;stroke-width:1;stroke-linecap:butt;stroke-linejoin:miter;stroke:rgb(0%,0%,0%);stroke-opacity:1;stroke-miterlimit:3.25;" d="M 96.820313 19.699219 L 400.179688 19.699219 " transform="matrix(1,0,0,1,-74,-13)"/>
<path style="fill-rule:nonzero;fill:rgb(0%,0%,0%);fill-opacity:1;stroke-width:0.03;stroke-linecap:square;stroke-linejoin:miter;stroke:rgb(0%,0%,0%);stroke-opacity:1;stroke-miterlimit:3.25;" d="M 98.429688 24.292969 L 98.175781 23.769531 L 97.613281 22.519531 L 97.316406 21.765625 L 97.058594 21.003906 L 96.878906 20.296875 L 96.820313 19.699219 L 96.878906 19.160156 L 97.058594 18.464844 L 97.316406 17.679688 L 97.613281 16.875 L 98.175781 15.507813 L 98.429688 14.925781 L 80.980469 19.699219 Z M 98.429688 24.292969 " transform="matrix(1,0,0,1,-74,-13)"/>
<path style="fill-rule:nonzero;fill:rgb(0%,0%,0%);fill-opacity:1;stroke-width:0.03;stroke-linecap:square;stroke-linejoin:miter;stroke:rgb(0%,0%,0%);stroke-opacity:1;stroke-miterlimit:3.25;" d="M 398.570313 15.109375 L 398.824219 15.632813 L 399.386719 16.882813 L 399.683594 17.636719 L 399.941406 18.398438 L 400.121094 19.105469 L 400.179688 19.699219 L 400.121094 20.242188 L 399.941406 20.9375 L 399.683594 21.722656 L 399.386719 22.523438 L 398.824219 23.894531 L 398.570313 24.476563 L 416.019531 19.699219 Z M 398.570313 15.109375 " transform="matrix(1,0,0,1,-74,-13)"/>
<path style="fill:none;stroke-width:1;stroke-linecap:butt;stroke-linejoin:miter;stroke:rgb(0%,0%,0%);stroke-opacity:1;stroke-miterlimit:3.25;" d="M 80.980469 86.707031 L 400.179688 86.707031 " transform="matrix(1,0,0,1,-74,-13)"/>
<path style="fill:none;stroke-width:0.03;stroke-linecap:square;stroke-linejoin:miter;stroke:rgb(0%,0%,0%);stroke-opacity:1;stroke-miterlimit:3.25;" d="M 80.980469 86.707031 Z M 80.980469 86.707031 " transform="matrix(1,0,0,1,-74,-13)"/>
<path style="fill-rule:nonzero;fill:rgb(0%,0%,0%);fill-opacity:1;stroke-width:0.03;stroke-linecap:square;stroke-linejoin:miter;stroke:rgb(0%,0%,0%);stroke-opacity:1;stroke-miterlimit:3.25;" d="M 147.289063 82.117188 L 147.546875 82.640625 L 148.105469 83.890625 L 148.402344 84.644531 L 148.660156 85.40625 L 148.839844 86.113281 L 148.902344 86.707031 L 148.839844 87.25 L 148.660156 87.945313 L 148.402344 88.730469 L 148.105469 89.535156 L 147.546875 90.902344 L 147.289063 91.484375 L 164.738281 86.707031 Z M 147.289063 82.117188 " transform="matrix(1,0,0,1,-74,-13)"/>
<path style="fill-rule:nonzero;fill:rgb(0%,0%,0%);fill-opacity:1;stroke-width:0.03;stroke-linecap:square;stroke-linejoin:miter;stroke:rgb(0%,0%,0%);stroke-opacity:1;stroke-miterlimit:3.25;" d="M 231.050781 82.117188 L 231.304688 82.640625 L 231.867188 83.890625 L 232.164063 84.644531 L 232.421875 85.40625 L 232.597656 86.113281 L 232.660156 86.707031 L 232.597656 87.25 L 232.421875 87.945313 L 232.164063 88.730469 L 231.867188 89.535156 L 231.304688 90.902344 L 231.050781 91.484375 L 248.5 86.707031 Z M 231.050781 82.117188 " transform="matrix(1,0,0,1,-74,-13)"/>
<path style="fill-rule:nonzero;fill:rgb(0%,0%,0%);fill-opacity:1;stroke-width:0.03;stroke-linecap:square;stroke-linejoin:miter;stroke:rgb(0%,0%,0%);stroke-opacity:1;stroke-miterlimit:3.25;" d="M 314.808594 82.117188 L 315.066406 82.640625 L 315.625 83.890625 L 315.921875 84.644531 L 316.179688 85.40625 L 316.359375 86.113281 L 316.421875 86.707031 L 316.359375 87.25 L 316.179688 87.945313 L 315.921875 88.730469 L 315.625 89.535156 L 315.066406 90.902344 L 314.808594 91.484375 L 332.261719 86.707031 Z M 314.808594 82.117188 " transform="matrix(1,0,0,1,-74,-13)"/>
<path style="fill-rule:nonzero;fill:rgb(0%,0%,0%);fill-opacity:1;stroke-width:0.03;stroke-linecap:square;stroke-linejoin:miter;stroke:rgb(0%,0%,0%);stroke-opacity:1;stroke-miterlimit:3.25;" d="M 398.570313 82.117188 L 398.824219 82.640625 L 399.386719 83.890625 L 399.683594 84.644531 L 399.941406 85.40625 L 400.121094 86.113281 L 400.179688 86.707031 L 400.121094 87.25 L 399.941406 87.945313 L 399.683594 88.730469 L 399.386719 89.535156 L 398.824219 90.902344 L 398.570313 91.484375 L 416.019531 86.707031 Z M 398.570313 82.117188 " transform="matrix(1,0,0,1,-74,-13)"/>
</g>
</svg>
