<?xml version="1.0" encoding="UTF-8"?>
<svg xmlns="http://www.w3.org/2000/svg" xmlns:xlink="http://www.w3.org/1999/xlink" width="450pt" height="260pt" viewBox="0 0 450 260" version="1.1">
<defs>
<clipPath id="clip1">
  <path d="M 75 12 L 150 12 L 150 87 L 75 87 Z M 75 12 "/>
</clipPath>
<clipPath id="clip2">
  <path d="M 75 96 L 150 96 L 150 161 L 75 161 Z M 75 96 "/>
</clipPath>
<clipPath id="clip3">
  <path d="M 75 171 L 150 171 L 150 246 L 75 246 Z M 75 171 "/>
</clipPath>
<clipPath id="clip4">
  <path d="M 235 97 L 299 97 L 299 161 L 235 161 Z M 235 97 "/>
</clipPath>
<clipPath id="clip5">
  <path d="M 303 101 L 367 101 L 367 157 L 303 157 Z M 303 101 "/>
</clipPath>
<clipPath id="clip6">
  <path d="M 371 97 L 435 97 L 435 161 L 371 161 Z M 371 97 "/>
</clipPath>
</defs>
<g id="surface8">
<rect x="0" y="0" width="450" height="260" style="fill:rgb(99.998474%,99.998474%,99.998474%);fill-opacity:1;stroke:none;"/>
<path style="fill:none;stroke-width:0.03;stroke-linecap:square;stroke-linejoin:miter;stroke:rgb(99.998474%,99.998474%,99.998474%);stroke-opacity:1;stroke-miterlimit:10;" d="M 0 128 L 450 128 L 450 -132 L 0 -132 Z M 0 128 " transform="matrix(1,0,0,1,0,132)"/>
<path style="fill-rule:nonzero;fill:rgb(99.998474%,99.998474%,84.999084%);fill-opacity:1;stroke-width:0.03;stroke-linecap:square;stroke-linejoin:miter;stroke:rgb(99.998474%,99.998474%,84.999084%);stroke-opacity:1;stroke-miterlimit:3.25;" d="M 186.492188 26.753906 L 151.414063 61.828125 L 186.492188 96.90625 L 221.566406 61.828125 Z M 186.492188 26.753906 " transform="matrix(1,0,0,1,-74,-13)"/>
<g clip-path="url(#clip1)" clip-rule="nonzero">
<path style="fill:none;stroke-width:1;stroke-linecap:square;stroke-linejoin:miter;stroke:rgb(0%,0%,0%);stroke-opacity:1;stroke-miterlimit:3.25;" d="M 186.492188 26.753906 L 151.414063 61.828125 L 186.492188 96.90625 L 221.566406 61.828125 Z M 186.492188 26.753906 " transform="matrix(1,0,0,1,-74,-13)"/>
</g>
<path style="fill-rule:nonzero;fill:rgb(99.998474%,99.998474%,84.999084%);fill-opacity:1;stroke-width:0.03;stroke-linecap:square;stroke-linejoin:miter;stroke:rgb(99.998474%,99.998474%,84.999084%);stroke-opacity:1;stroke-miterlimit:3.25;" d="M 203.878906 111.347656 L 169.027344 111.347656 L 151.601563 141.527344 L 169.027344 171.710938 L 203.878906 171.710938 L 221.304688 141.527344 Z M 203.878906 111.347656 " transform="matrix(1,0,0,1,-74,-13)"/>
<g clip-path="url(#clip2)" clip-rule="nonzero">
<path style="fill:none;stroke-width:1;stroke-linecap:square;stroke-linejoin:miter;stroke:rgb(0%,0%,0%);stroke-opacity:1;stroke-miterlimit:3.25;" d="M 203.878906 111.347656 L 169.027344 111.347656 L 151.601563 141.527344 L 169.027344 171.710938 L 203.878906 171.710938 L 221.304688 141.527344 Z M 203.878906 111.347656 " transform="matrix(1,0,0,1,-74,-13)"/>
</g>
<path style="fill-rule:nonzero;fill:rgb(99.998474%,99.998474%,84.999084%);fill-opacity:1;stroke-width:0.03;stroke-linecap:square;stroke-linejoin:miter;stroke:rgb(99.998474%,99.998474%,84.999084%);stroke-opacity:1;stroke-miterlimit:3.25;" d="M 211.292969 196.292969 L 186.492188 186.015625 L 161.6875 196.292969 L 151.414063 221.09375 L 161.6875 245.898438 L 186.492188 256.171875 L 211.292969 245.898438 L 221.566406 221.09375 Z M 211.292969 196.292969 " transform="matrix(1,0,0,1,-74,-13)"/>
<g clip-path="url(#clip3)" clip-rule="nonzero">
<path style="fill:none;stroke-width:1;stroke-linecap:square;stroke-linejoin:miter;stroke:rgb(0%,0%,0%);stroke-opacity:1;stroke-miterlimit:3.25;" d="M 211.292969 196.292969 L 186.492188 186.015625 L 161.6875 196.292969 L 151.414063 221.09375 L 161.6875 245.898438 L 186.492188 256.171875 L 211.292969 245.898438 L 221.566406 221.09375 Z M 211.292969 196.292969 " transform="matrix(1,0,0,1,-74,-13)"/>
</g>
<path style="fill:none;stroke-width:1;stroke-linecap:square;stroke-linejoin:miter;stroke:rgb(0%,0%,0%);stroke-opacity:1;stroke-miterlimit:3.25;" d="M 148.0625 22.503906 L 148.0625 102.136719 " transform="matrix(1,0,0,1,-74,-13)"/>
<path style="fill:none;stroke-width:1;stroke-linecap:square;stroke-linejoin:miter;stroke:rgb(0%,0%,0%);stroke-opacity:1;stroke-miterlimit:3.25;" d="M 148.0625 102.136719 L 148.0625 181.769531 " transform="matrix(1,0,0,1,-74,-13)"/>
<path style="fill:none;stroke-width:1;stroke-linecap:square;stroke-linejoin:miter;stroke:rgb(0%,0%,0%);stroke-opacity:1;stroke-miterlimit:3.25;" d="M 148.0625 181.769531 L 148.0625 261.402344 " transform="matrix(1,0,0,1,-74,-13)"/>
<path style="fill:none;stroke-width:1;stroke-linecap:square;stroke-linejoin:miter;stroke:rgb(0%,0%,0%);stroke-opacity:1;stroke-miterlimit:3.25;" d="M 225.84375 22.503906 L 225.84375 102.136719 " transform="matrix(1,0,0,1,-74,-13)"/>
<path style="fill:none;stroke-width:1;stroke-linecap:square;stroke-linejoin:miter;stroke:rgb(0%,0%,0%);stroke-opacity:1;stroke-miterlimit:3.25;" d="M 225.84375 102.136719 L 225.84375 181.769531 " transform="matrix(1,0,0,1,-74,-13)"/>
<path style="fill:none;stroke-width:1;stroke-linecap:square;stroke-linejoin:miter;stroke:rgb(0%,0%,0%);stroke-opacity:1;stroke-miterlimit:3.25;" d="M 225.84375 181.769531 L 225.84375 261.402344 " transform="matrix(1,0,0,1,-74,-13)"/>
<path style="fill:none;stroke-width:1;stroke-linecap:square;stroke-linejoin:miter;stroke:rgb(0%,0%,0%);stroke-opacity:1;stroke-miterlimit:3.25;" d="M 148.0625 22.503906 L 225.84375 22.503906 " transform="matrix(1,0,0,1,-74,-13)"/>
<path style="fill:none;stroke-width:1;stroke-linecap:square;stroke-linejoin:miter;stroke:rgb(0%,0%,0%);stroke-opacity:1;stroke-miterlimit:3.25;" d="M 148.0625 261.402344 L 225.84375 261.402344 " transform="matrix(1,0,0,1,-74,-13)"/>
<path style="fill-rule:nonzero;fill:rgb(99.998474%,99.998474%,84.999084%);fill-opacity:1;stroke-width:0.03;stroke-linecap:square;stroke-linejoin:miter;stroke:rgb(99.998474%,99.998474%,84.999084%);stroke-opacity:1;stroke-miterlimit:3.25;" d="M 340.871094 111.75 L 311.019531 141.601563 L 340.871094 171.453125 L 370.722656 141.601563 Z M 340.871094 111.75 " transform="matrix(1,0,0,1,-74,-13)"/>
<g clip-path="url(#clip4)" clip-rule="nonzero">
<path style="fill:none;stroke-width:1;stroke-linecap:square;stroke-linejoin:miter;stroke:rgb(0%,0%,0%);stroke-opacity:1;stroke-miterlimit:3.25;" d="M 340.871094 111.75 L 311.019531 141.601563 L 340.871094 171.453125 L 370.722656 141.601563 Z M 340.871094 111.75 " transform="matrix(1,0,0,1,-74,-13)"/>
</g>
<path style="fill-rule:nonzero;fill:rgb(99.998474%,99.998474%,84.999084%);fill-opacity:1;stroke-width:0.03;stroke-linecap:square;stroke-linejoin:miter;stroke:rgb(99.998474%,99.998474%,84.999084%);stroke-opacity:1;stroke-miterlimit:3.25;" d="M 423.53125 115.855469 L 393.882813 115.855469 L 379.058594 141.53125 L 393.882813 167.207031 L 423.53125 167.207031 L 438.355469 141.53125 Z M 423.53125 115.855469 " transform="matrix(1,0,0,1,-74,-13)"/>
<g clip-path="url(#clip5)" clip-rule="nonzero">
<path style="fill:none;stroke-width:1;stroke-linecap:square;stroke-linejoin:miter;stroke:rgb(0%,0%,0%);stroke-opacity:1;stroke-miterlimit:3.25;" d="M 423.53125 115.855469 L 393.882813 115.855469 L 379.058594 141.53125 L 393.882813 167.207031 L 423.53125 167.207031 L 438.355469 141.53125 Z M 423.53125 115.855469 " transform="matrix(1,0,0,1,-74,-13)"/>
</g>
<path style="fill-rule:nonzero;fill:rgb(99.998474%,99.998474%,84.999084%);fill-opacity:1;stroke-width:0.03;stroke-linecap:square;stroke-linejoin:miter;stroke:rgb(99.998474%,99.998474%,84.999084%);stroke-opacity:1;stroke-miterlimit:3.25;" d="M 497.84375 120.492188 L 476.734375 111.75 L 455.625 120.492188 L 446.882813 141.601563 L 455.625 162.710938 L 476.734375 171.453125 L 497.84375 162.710938 L 506.585938 141.601563 Z M 497.84375 120.492188 " transform="matrix(1,0,0,1,-74,-13)"/>
<g clip-path="url(#clip6)" clip-rule="nonzero">
<path style="fill:none;stroke-width:1;stroke-linecap:square;stroke-linejoin:miter;stroke:rgb(0%,0%,0%);stroke-opacity:1;stroke-miterlimit:3.25;" d="M 497.84375 120.492188 L 476.734375 111.75 L 455.625 120.492188 L 446.882813 141.601563 L 455.625 162.710938 L 476.734375 171.453125 L 497.84375 162.710938 L 506.585938 141.601563 Z M 497.84375 120.492188 " transform="matrix(1,0,0,1,-74,-13)"/>
</g>
<path style="fill:none;stroke-width:1;stroke-linecap:square;stroke-linejoin:miter;stroke:rgb(0%,0%,0%);stroke-opacity:1;stroke-miterlimit:3.25;" d="M 307.308594 108.855469 L 307.308594 175.207031 " transform="matrix(1,0,0,1,-74,-13)"/>
<path style="fill:none;stroke-width:1;stroke-linecap:square;stroke-linejoin:miter;stroke:rgb(0%,0%,0%);stroke-opacity:1;stroke-miterlimit:3.25;" d="M 511.105469 108.855469 L 511.105469 175.207031 " transform="matrix(1,0,0,1,-74,-13)"/>
<path style="fill:none;stroke-width:1;stroke-linecap:square;stroke-linejoin:miter;stroke:rgb(0%,0%,0%);stroke-opacity:1;stroke-miterlimit:3.25;" d="M 307.308594 108.855469 L 375.242188 108.855469 " transform="matrix(1,0,0,1,-74,-13)"/>
<path style="fill:none;stroke-width:1;stroke-linecap:square;stroke-linejoin:miter;stroke:rgb(0%,0%,0%);stroke-opacity:1;stroke-miterlimit:3.25;" d="M 375.242188 108.855469 L 443.171875 108.855469 " transform="matrix(1,0,0,1,-74,-13)"/>
<path style="fill:none;stroke-width:1;stroke-linecap:square;stroke-linejoin:miter;stroke:rgb(0%,0%,0%);stroke-opacity:1;stroke-miterlimit:3.25;" d="M 443.171875 108.855469 L 511.105469 108.855469 " transform="matrix(1,0,0,1,-74,-13)"/>
<path style="fill:none;stroke-width:1;stroke-linecap:square;stroke-linejoin:miter;stroke:rgb(0%,0%,0%);stroke-opacity:1;stroke-miterlimit:3.25;" d="M 307.308594 175.207031 L 375.242188 175.207031 " transform="matrix(1,0,0,1,-74,-13)"/>
<path style="fill:none;stroke-width:1;stroke-linecap:square;stroke-linejoin:miter;stroke:rgb(0%,0%,0%);stroke-opacity:1;stroke-miterlimit:3.25;" d="M 375.242188 175.207031 L 443.171875 175.207031 " transform="matrix(1,0,0,1,-74,-13)"/>
<path style="fill:none;stroke-width:1;stroke-linecap:square;stroke-linejoin:miter;stroke:rgb(0%,0%,0%);stroke-opacity:1;stroke-miterlimit:3.25;" d="M 443.171875 175.207031 L 511.105469 175.207031 " transform="matrix(1,0,0,1,-74,-13)"/>
<path style="fill:none;stroke-width:1;stroke-linecap:square;stroke-linejoin:miter;stroke:rgb(0%,0%,0%);stroke-opacity:1;stroke-miterlimit:3.25;" d="M 76.085938 14.738281 L 76.085938 270.167969 " transform="matrix(1,0,0,1,-74,-13)"/>
<path style="fill:none;stroke-width:1;stroke-linecap:square;stroke-linejoin:miter;stroke:rgb(0%,0%,0%);stroke-opacity:1;stroke-miterlimit:3.25;" d="M 298.5 14.738281 L 298.5 270.167969 " transform="matrix(1,0,0,1,-74,-13)"/>
<path style="fill:none;stroke-width:1;stroke-linecap:square;stroke-linejoin:miter;stroke:rgb(0%,0%,0%);stroke-opacity:1;stroke-miterlimit:3.25;" d="M 520.914063 14.738281 L 520.914063 270.167969 " transform="matrix(1,0,0,1,-74,-13)"/>
<path style="fill:none;stroke-width:1;stroke-linecap:square;stroke-linejoin:miter;stroke:rgb(0%,0%,0%);stroke-opacity:1;stroke-miterlimit:3.25;" d="M 76.085938 14.738281 L 298.5 14.738281 " transform="matrix(1,0,0,1,-74,-13)"/>
<path style="fill:none;stroke-width:1;stroke-linecap:square;stroke-linejoin:miter;stroke:rgb(0%,0%,0%);stroke-opacity:1;stroke-miterlimit:3.25;" d="M 298.5 14.738281 L 520.914063 14.738281 " transform="matrix(1,0,0,1,-74,-13)"/>
<path style="fill:none;stroke-width:1;stroke-linecap:square;stroke-linejoin:miter;stroke:rgb(0%,0%,0%);stroke-opacity:1;stroke-miterlimit:3.25;" d="M 76.085938 270.167969 L 298.5 270.167969 " transform="matrix(1,0,0,1,-74,-13)"/>
<path style="fill:none;stroke-width:1;stroke-linecap:square;stroke-linejoin:miter;stroke:rgb(0%,0%,0%);stroke-opacity:1;stroke-miterlimit:3.25;" d="M 298.5 270.167969 L 520.914063 270.167969 " transform="matrix(1,0,0,1,-74,-13)"/>
</g>
</svg>
