<?xml version="1.0" encoding="UTF-8"?>
<svg xmlns="http://www.w3.org/2000/svg" xmlns:xlink="http://www.w3.org/1999/xlink" width="350pt" height="161pt" viewBox="0 0 350 161" version="1.1">
<defs>
<g>
<symbol overflow="visible" id="glyph0-0">
<path style="stroke:none;" d="M 1.25 0 L 1.25 -6.25 L 6.25 -6.25 L 6.25 0 Z M 1.40625 -0.15625 L 6.09375 -0.15625 L 6.09375 -6.09375 L 1.40625 -6.09375 Z M 1.40625 -0.15625 "/>
</symbol>
<symbol overflow="visible" id="glyph0-1">
<path style="stroke:none;" d="M 3.726563 0 L 2.847656 0 L 2.847656 -5.601563 C 2.636719 -5.398438 2.359375 -5.195313 2.015625 -4.992188 C 1.671875 -4.789063 1.363281 -4.636719 1.089844 -4.539063 L 1.089844 -5.390625 C 1.582031 -5.621094 2.011719 -5.898438 2.378906 -6.230469 C 2.746094 -6.554688 3.003906 -6.875 3.160156 -7.1875 L 3.726563 -7.1875 Z M 3.726563 0 "/>
</symbol>
<symbol overflow="visible" id="glyph0-2">
<path style="stroke:none;" d="M 5.035156 -0.84375 L 5.035156 0 L 0.304688 0 C 0.296875 -0.210938 0.328125 -0.414063 0.40625 -0.609375 C 0.523438 -0.929688 0.71875 -1.246094 0.984375 -1.5625 C 1.25 -1.871094 1.632813 -2.234375 2.132813 -2.648438 C 2.910156 -3.28125 3.433594 -3.785156 3.710938 -4.160156 C 3.980469 -4.535156 4.117188 -4.886719 4.121094 -5.21875 C 4.117188 -5.566406 3.992188 -5.859375 3.746094 -6.101563 C 3.496094 -6.335938 3.171875 -6.457031 2.773438 -6.460938 C 2.347656 -6.457031 2.011719 -6.328125 1.757813 -6.078125 C 1.5 -5.820313 1.371094 -5.46875 1.371094 -5.023438 L 0.46875 -5.117188 C 0.53125 -5.789063 0.761719 -6.304688 1.167969 -6.65625 C 1.566406 -7.007813 2.109375 -7.183594 2.792969 -7.1875 C 3.476563 -7.183594 4.019531 -6.992188 4.421875 -6.617188 C 4.820313 -6.234375 5.019531 -5.761719 5.023438 -5.199219 C 5.019531 -4.910156 4.960938 -4.628906 4.847656 -4.355469 C 4.726563 -4.074219 4.535156 -3.785156 4.265625 -3.480469 C 3.992188 -3.175781 3.539063 -2.753906 2.910156 -2.222656 C 2.378906 -1.777344 2.039063 -1.476563 1.894531 -1.320313 C 1.742188 -1.160156 1.621094 -1.003906 1.523438 -0.84375 Z M 5.035156 -0.84375 "/>
</symbol>
<symbol overflow="visible" id="glyph0-3">
<path style="stroke:none;" d="M 0.421875 -1.890625 L 1.296875 -2.007813 C 1.394531 -1.503906 1.566406 -1.144531 1.8125 -0.929688 C 2.054688 -0.707031 2.351563 -0.597656 2.699219 -0.601563 C 3.109375 -0.597656 3.457031 -0.742188 3.746094 -1.03125 C 4.027344 -1.316406 4.171875 -1.667969 4.175781 -2.09375 C 4.171875 -2.492188 4.039063 -2.824219 3.777344 -3.089844 C 3.511719 -3.347656 3.175781 -3.480469 2.773438 -3.484375 C 2.601563 -3.480469 2.394531 -3.449219 2.152344 -3.390625 L 2.25 -4.160156 C 2.308594 -4.152344 2.355469 -4.148438 2.390625 -4.148438 C 2.765625 -4.148438 3.101563 -4.246094 3.402344 -4.441406 C 3.699219 -4.636719 3.847656 -4.9375 3.851563 -5.347656 C 3.847656 -5.664063 3.738281 -5.929688 3.523438 -6.144531 C 3.304688 -6.355469 3.023438 -6.460938 2.679688 -6.464844 C 2.335938 -6.460938 2.050781 -6.355469 1.824219 -6.140625 C 1.59375 -5.925781 1.449219 -5.601563 1.386719 -5.175781 L 0.507813 -5.332031 C 0.613281 -5.917969 0.855469 -6.371094 1.238281 -6.699219 C 1.617188 -7.019531 2.09375 -7.183594 2.660156 -7.1875 C 3.050781 -7.183594 3.410156 -7.097656 3.738281 -6.933594 C 4.066406 -6.761719 4.316406 -6.535156 4.496094 -6.25 C 4.667969 -5.957031 4.757813 -5.648438 4.757813 -5.328125 C 4.757813 -5.015625 4.671875 -4.734375 4.507813 -4.480469 C 4.335938 -4.226563 4.089844 -4.023438 3.769531 -3.875 C 4.191406 -3.773438 4.523438 -3.574219 4.757813 -3.269531 C 4.992188 -2.960938 5.109375 -2.574219 5.109375 -2.113281 C 5.109375 -1.484375 4.878906 -0.953125 4.425781 -0.523438 C 3.964844 -0.0898438 3.390625 0.121094 2.695313 0.125 C 2.066406 0.121094 1.542969 -0.0625 1.128906 -0.433594 C 0.710938 -0.808594 0.476563 -1.292969 0.421875 -1.890625 Z M 0.421875 -1.890625 "/>
</symbol>
<symbol overflow="visible" id="glyph0-4">
<path style="stroke:none;" d="M 3.234375 0 L 3.234375 -1.714844 L 0.125 -1.714844 L 0.125 -2.519531 L 3.394531 -7.15625 L 4.109375 -7.15625 L 4.109375 -2.519531 L 5.078125 -2.519531 L 5.078125 -1.714844 L 4.109375 -1.714844 L 4.109375 0 Z M 3.234375 -2.519531 L 3.234375 -5.746094 L 0.992188 -2.519531 Z M 3.234375 -2.519531 "/>
</symbol>
<symbol overflow="visible" id="glyph0-5">
<path style="stroke:none;" d="M 0.414063 -1.875 L 1.335938 -1.953125 C 1.40625 -1.5 1.5625 -1.164063 1.8125 -0.941406 C 2.058594 -0.710938 2.359375 -0.597656 2.714844 -0.601563 C 3.136719 -0.597656 3.496094 -0.757813 3.789063 -1.078125 C 4.078125 -1.398438 4.222656 -1.820313 4.226563 -2.347656 C 4.222656 -2.847656 4.082031 -3.242188 3.804688 -3.535156 C 3.519531 -3.820313 3.152344 -3.964844 2.699219 -3.96875 C 2.414063 -3.964844 2.160156 -3.902344 1.933594 -3.777344 C 1.707031 -3.648438 1.527344 -3.480469 1.398438 -3.277344 L 0.570313 -3.382813 L 1.265625 -7.0625 L 4.824219 -7.0625 L 4.824219 -6.21875 L 1.96875 -6.21875 L 1.582031 -4.296875 C 2.011719 -4.59375 2.460938 -4.746094 2.933594 -4.746094 C 3.554688 -4.746094 4.082031 -4.527344 4.515625 -4.09375 C 4.941406 -3.660156 5.15625 -3.105469 5.160156 -2.425781 C 5.15625 -1.777344 4.96875 -1.214844 4.59375 -0.746094 C 4.132813 -0.167969 3.503906 0.117188 2.714844 0.121094 C 2.058594 0.117188 1.527344 -0.0625 1.121094 -0.425781 C 0.707031 -0.789063 0.472656 -1.273438 0.414063 -1.875 Z M 0.414063 -1.875 "/>
</symbol>
<symbol overflow="visible" id="glyph0-6">
<path style="stroke:none;" d="M 4.976563 -5.40625 L 4.101563 -5.335938 C 4.023438 -5.679688 3.910156 -5.929688 3.769531 -6.089844 C 3.527344 -6.335938 3.234375 -6.460938 2.890625 -6.464844 C 2.605469 -6.460938 2.359375 -6.382813 2.152344 -6.230469 C 1.871094 -6.027344 1.652344 -5.734375 1.496094 -5.347656 C 1.332031 -4.957031 1.25 -4.40625 1.25 -3.691406 C 1.457031 -4.011719 1.714844 -4.25 2.023438 -4.410156 C 2.328125 -4.5625 2.652344 -4.640625 2.988281 -4.644531 C 3.574219 -4.640625 4.070313 -4.425781 4.484375 -3.996094 C 4.890625 -3.566406 5.097656 -3.007813 5.101563 -2.324219 C 5.097656 -1.871094 5 -1.453125 4.8125 -1.070313 C 4.617188 -0.683594 4.351563 -0.386719 4.015625 -0.183594 C 3.671875 0.0195313 3.289063 0.117188 2.859375 0.121094 C 2.125 0.117188 1.527344 -0.148438 1.066406 -0.683594 C 0.605469 -1.21875 0.375 -2.109375 0.375 -3.351563 C 0.375 -4.734375 0.628906 -5.738281 1.140625 -6.367188 C 1.585938 -6.910156 2.1875 -7.183594 2.945313 -7.1875 C 3.503906 -7.183594 3.964844 -7.027344 4.328125 -6.714844 C 4.683594 -6.398438 4.898438 -5.960938 4.976563 -5.40625 Z M 1.386719 -2.320313 C 1.382813 -2.015625 1.445313 -1.722656 1.578125 -1.449219 C 1.703125 -1.167969 1.882813 -0.957031 2.117188 -0.816406 C 2.34375 -0.667969 2.589844 -0.597656 2.847656 -0.601563 C 3.214844 -0.597656 3.53125 -0.746094 3.800781 -1.050781 C 4.066406 -1.347656 4.199219 -1.753906 4.203125 -2.269531 C 4.199219 -2.761719 4.070313 -3.152344 3.808594 -3.4375 C 3.542969 -3.722656 3.210938 -3.867188 2.8125 -3.867188 C 2.414063 -3.867188 2.074219 -3.722656 1.800781 -3.4375 C 1.519531 -3.152344 1.382813 -2.78125 1.386719 -2.320313 Z M 1.386719 -2.320313 "/>
</symbol>
<symbol overflow="visible" id="glyph0-7">
<path style="stroke:none;" d="M 0.90625 0 L 0.90625 -1 L 1.910156 -1 L 1.910156 0 Z M 0.90625 0 "/>
</symbol>
<symbol overflow="visible" id="glyph0-8">
<path style="stroke:none;" d="M 0.414063 -3.53125 C 0.410156 -4.375 0.496094 -5.054688 0.675781 -5.574219 C 0.847656 -6.085938 1.109375 -6.484375 1.453125 -6.765625 C 1.796875 -7.042969 2.226563 -7.183594 2.75 -7.1875 C 3.128906 -7.183594 3.464844 -7.105469 3.757813 -6.953125 C 4.046875 -6.796875 4.289063 -6.574219 4.476563 -6.285156 C 4.664063 -5.992188 4.8125 -5.636719 4.921875 -5.222656 C 5.027344 -4.800781 5.078125 -4.238281 5.082031 -3.53125 C 5.078125 -2.6875 4.992188 -2.007813 4.824219 -1.496094 C 4.648438 -0.976563 4.390625 -0.578125 4.050781 -0.300781 C 3.703125 -0.0195313 3.269531 0.117188 2.75 0.121094 C 2.054688 0.117188 1.515625 -0.128906 1.125 -0.621094 C 0.648438 -1.214844 0.410156 -2.183594 0.414063 -3.53125 Z M 1.320313 -3.53125 C 1.316406 -2.351563 1.453125 -1.570313 1.730469 -1.183594 C 2.003906 -0.792969 2.34375 -0.597656 2.75 -0.601563 C 3.148438 -0.597656 3.488281 -0.792969 3.765625 -1.1875 C 4.039063 -1.574219 4.175781 -2.355469 4.179688 -3.53125 C 4.175781 -4.707031 4.039063 -5.488281 3.765625 -5.878906 C 3.488281 -6.261719 3.144531 -6.457031 2.738281 -6.460938 C 2.332031 -6.457031 2.011719 -6.285156 1.773438 -5.945313 C 1.46875 -5.507813 1.316406 -4.703125 1.320313 -3.53125 Z M 1.320313 -3.53125 "/>
</symbol>
<symbol overflow="visible" id="glyph0-9">
<path style="stroke:none;" d="M 5.878906 -2.507813 L 6.828125 -2.269531 C 6.625 -1.488281 6.269531 -0.894531 5.753906 -0.488281 C 5.238281 -0.0820313 4.605469 0.117188 3.863281 0.121094 C 3.085938 0.117188 2.457031 -0.0351563 1.976563 -0.347656 C 1.492188 -0.660156 1.125 -1.117188 0.875 -1.714844 C 0.621094 -2.308594 0.496094 -2.949219 0.5 -3.632813 C 0.496094 -4.375 0.640625 -5.023438 0.925781 -5.582031 C 1.207031 -6.132813 1.609375 -6.554688 2.140625 -6.847656 C 2.664063 -7.132813 3.242188 -7.277344 3.875 -7.28125 C 4.589844 -7.277344 5.195313 -7.09375 5.683594 -6.734375 C 6.167969 -6.367188 6.507813 -5.855469 6.703125 -5.195313 L 5.773438 -4.976563 C 5.601563 -5.492188 5.359375 -5.871094 5.046875 -6.113281 C 4.726563 -6.347656 4.332031 -6.46875 3.859375 -6.46875 C 3.304688 -6.46875 2.84375 -6.335938 2.476563 -6.074219 C 2.105469 -5.808594 1.847656 -5.453125 1.699219 -5.011719 C 1.550781 -4.5625 1.476563 -4.105469 1.476563 -3.636719 C 1.476563 -3.027344 1.5625 -2.496094 1.742188 -2.042969 C 1.914063 -1.585938 2.191406 -1.246094 2.566406 -1.023438 C 2.941406 -0.796875 3.347656 -0.683594 3.785156 -0.6875 C 4.3125 -0.683594 4.757813 -0.835938 5.128906 -1.144531 C 5.496094 -1.449219 5.746094 -1.90625 5.878906 -2.507813 Z M 5.878906 -2.507813 "/>
</symbol>
<symbol overflow="visible" id="glyph0-10">
<path style="stroke:none;" d="M 0.332031 -2.59375 C 0.328125 -3.550781 0.59375 -4.261719 1.132813 -4.726563 C 1.574219 -5.109375 2.121094 -5.300781 2.765625 -5.304688 C 3.476563 -5.300781 4.058594 -5.066406 4.511719 -4.601563 C 4.964844 -4.132813 5.191406 -3.488281 5.191406 -2.664063 C 5.191406 -1.996094 5.089844 -1.472656 4.890625 -1.089844 C 4.6875 -0.707031 4.394531 -0.410156 4.015625 -0.199219 C 3.628906 0.0117188 3.214844 0.117188 2.765625 0.117188 C 2.039063 0.117188 1.449219 -0.113281 1.003906 -0.582031 C 0.550781 -1.042969 0.328125 -1.714844 0.332031 -2.59375 Z M 1.234375 -2.59375 C 1.230469 -1.925781 1.375 -1.429688 1.667969 -1.101563 C 1.957031 -0.769531 2.324219 -0.601563 2.765625 -0.605469 C 3.199219 -0.601563 3.558594 -0.769531 3.851563 -1.101563 C 4.140625 -1.433594 4.289063 -1.9375 4.289063 -2.621094 C 4.289063 -3.261719 4.140625 -3.75 3.851563 -4.078125 C 3.554688 -4.40625 3.195313 -4.570313 2.765625 -4.574219 C 2.324219 -4.570313 1.957031 -4.40625 1.667969 -4.082031 C 1.375 -3.75 1.230469 -3.253906 1.234375 -2.59375 Z M 1.234375 -2.59375 "/>
</symbol>
<symbol overflow="visible" id="glyph0-11">
<path style="stroke:none;" d="M 0.308594 -1.546875 L 1.175781 -1.683594 C 1.222656 -1.332031 1.359375 -1.066406 1.582031 -0.882813 C 1.804688 -0.695313 2.117188 -0.601563 2.519531 -0.605469 C 2.921875 -0.601563 3.21875 -0.683594 3.417969 -0.851563 C 3.609375 -1.011719 3.707031 -1.207031 3.710938 -1.429688 C 3.707031 -1.625 3.621094 -1.78125 3.453125 -1.898438 C 3.328125 -1.976563 3.03125 -2.074219 2.554688 -2.195313 C 1.90625 -2.355469 1.457031 -2.496094 1.210938 -2.617188 C 0.960938 -2.734375 0.773438 -2.898438 0.644531 -3.113281 C 0.515625 -3.320313 0.449219 -3.554688 0.453125 -3.808594 C 0.449219 -4.039063 0.503906 -4.25 0.613281 -4.449219 C 0.71875 -4.644531 0.863281 -4.808594 1.046875 -4.941406 C 1.179688 -5.039063 1.363281 -5.125 1.601563 -5.199219 C 1.835938 -5.265625 2.089844 -5.300781 2.363281 -5.304688 C 2.765625 -5.300781 3.125 -5.242188 3.433594 -5.128906 C 3.742188 -5.007813 3.96875 -4.851563 4.117188 -4.652344 C 4.261719 -4.449219 4.363281 -4.179688 4.417969 -3.847656 L 3.558594 -3.730469 C 3.515625 -3.996094 3.402344 -4.203125 3.21875 -4.355469 C 3.027344 -4.5 2.765625 -4.574219 2.425781 -4.578125 C 2.019531 -4.574219 1.730469 -4.507813 1.5625 -4.378906 C 1.386719 -4.242188 1.300781 -4.085938 1.304688 -3.910156 C 1.300781 -3.792969 1.335938 -3.691406 1.410156 -3.601563 C 1.480469 -3.503906 1.59375 -3.425781 1.75 -3.367188 C 1.832031 -3.332031 2.089844 -3.257813 2.523438 -3.144531 C 3.144531 -2.976563 3.578125 -2.839844 3.824219 -2.734375 C 4.070313 -2.628906 4.261719 -2.476563 4.402344 -2.273438 C 4.539063 -2.070313 4.609375 -1.820313 4.613281 -1.523438 C 4.609375 -1.230469 4.523438 -0.953125 4.355469 -0.695313 C 4.183594 -0.433594 3.9375 -0.234375 3.617188 -0.09375 C 3.289063 0.046875 2.925781 0.117188 2.523438 0.117188 C 1.847656 0.117188 1.335938 -0.0195313 0.984375 -0.300781 C 0.628906 -0.578125 0.402344 -0.996094 0.308594 -1.546875 Z M 0.308594 -1.546875 "/>
</symbol>
<symbol overflow="visible" id="glyph0-12">
<path style="stroke:none;" d="M 0.449219 -2.300781 L 1.34375 -2.378906 C 1.382813 -2.019531 1.480469 -1.722656 1.636719 -1.496094 C 1.789063 -1.261719 2.03125 -1.078125 2.359375 -0.9375 C 2.683594 -0.796875 3.050781 -0.726563 3.457031 -0.726563 C 3.816406 -0.726563 4.132813 -0.777344 4.414063 -0.886719 C 4.6875 -0.992188 4.894531 -1.140625 5.03125 -1.328125 C 5.164063 -1.511719 5.230469 -1.71875 5.234375 -1.945313 C 5.230469 -2.167969 5.167969 -2.363281 5.039063 -2.53125 C 4.90625 -2.695313 4.691406 -2.835938 4.394531 -2.953125 C 4.199219 -3.027344 3.773438 -3.140625 3.117188 -3.300781 C 2.460938 -3.457031 2 -3.609375 1.738281 -3.75 C 1.394531 -3.929688 1.140625 -4.148438 0.972656 -4.414063 C 0.804688 -4.675781 0.71875 -4.976563 0.722656 -5.308594 C 0.71875 -5.667969 0.820313 -6.003906 1.027344 -6.320313 C 1.230469 -6.632813 1.53125 -6.871094 1.925781 -7.035156 C 2.320313 -7.195313 2.757813 -7.277344 3.242188 -7.28125 C 3.769531 -7.277344 4.238281 -7.191406 4.644531 -7.023438 C 5.046875 -6.847656 5.359375 -6.597656 5.578125 -6.269531 C 5.796875 -5.9375 5.914063 -5.558594 5.933594 -5.140625 L 5.023438 -5.074219 C 4.972656 -5.523438 4.808594 -5.863281 4.527344 -6.097656 C 4.242188 -6.328125 3.828125 -6.445313 3.28125 -6.445313 C 2.707031 -6.445313 2.289063 -6.339844 2.027344 -6.128906 C 1.765625 -5.917969 1.632813 -5.664063 1.636719 -5.371094 C 1.632813 -5.109375 1.726563 -4.898438 1.914063 -4.734375 C 2.09375 -4.570313 2.570313 -4.398438 3.339844 -4.226563 C 4.109375 -4.046875 4.636719 -3.894531 4.925781 -3.769531 C 5.339844 -3.574219 5.648438 -3.332031 5.847656 -3.039063 C 6.046875 -2.742188 6.144531 -2.402344 6.148438 -2.023438 C 6.144531 -1.636719 6.035156 -1.277344 5.820313 -0.941406 C 5.597656 -0.601563 5.285156 -0.339844 4.878906 -0.15625 C 4.46875 0.0273438 4.007813 0.117188 3.5 0.121094 C 2.851563 0.117188 2.308594 0.0273438 1.871094 -0.160156 C 1.429688 -0.347656 1.085938 -0.632813 0.839844 -1.011719 C 0.589844 -1.390625 0.460938 -1.820313 0.449219 -2.300781 Z M 0.449219 -2.300781 "/>
</symbol>
<symbol overflow="visible" id="glyph0-13">
<path style="stroke:none;" d="M 0.664063 -6.148438 L 0.664063 -7.15625 L 1.542969 -7.15625 L 1.542969 -6.148438 Z M 0.664063 0 L 0.664063 -5.1875 L 1.542969 -5.1875 L 1.542969 0 Z M 0.664063 0 "/>
</symbol>
<symbol overflow="visible" id="glyph0-14">
<path style="stroke:none;" d="M 0.660156 0 L 0.660156 -5.1875 L 1.449219 -5.1875 L 1.449219 -4.449219 C 1.828125 -5.015625 2.378906 -5.300781 3.101563 -5.304688 C 3.410156 -5.300781 3.699219 -5.246094 3.960938 -5.132813 C 4.222656 -5.019531 4.417969 -4.871094 4.550781 -4.691406 C 4.679688 -4.507813 4.769531 -4.292969 4.824219 -4.042969 C 4.855469 -3.878906 4.875 -3.59375 4.875 -3.1875 L 4.875 0 L 3.992188 0 L 3.992188 -3.15625 C 3.988281 -3.511719 3.957031 -3.777344 3.890625 -3.957031 C 3.820313 -4.128906 3.699219 -4.269531 3.527344 -4.378906 C 3.351563 -4.480469 3.144531 -4.535156 2.914063 -4.539063 C 2.535156 -4.535156 2.214844 -4.417969 1.945313 -4.183594 C 1.671875 -3.945313 1.535156 -3.492188 1.539063 -2.832031 L 1.539063 0 Z M 0.660156 0 "/>
</symbol>
<symbol overflow="visible" id="glyph1-0">
<path style="stroke:none;" d="M 0.625 0 L 0.625 -8 L 4.375 -8 L 4.375 0 Z M 1.25 -0.625 L 3.75 -0.625 L 3.75 -7.375 L 1.25 -7.375 Z M 1.25 -0.625 "/>
</symbol>
<symbol overflow="visible" id="glyph1-1">
<path style="stroke:none;" d="M 5.289063 -2.191406 L 0.550781 -2.191406 L 0.550781 -3.011719 L 5.289063 -3.011719 Z M 5.289063 -2.191406 "/>
</symbol>
<symbol overflow="visible" id="glyph2-0">
<path style="stroke:none;" d="M 1.25 0 L 1.25 -6.25 L 6.25 -6.25 L 6.25 0 Z M 1.40625 -0.15625 L 6.09375 -0.15625 L 6.09375 -6.09375 L 1.40625 -6.09375 Z M 1.40625 -0.15625 "/>
</symbol>
<symbol overflow="visible" id="glyph2-1">
<path style="stroke:none;" d="M -0.015625 0 L 2.242188 -2.632813 L 0.945313 -5.1875 L 1.921875 -5.1875 L 2.363281 -4.261719 C 2.523438 -3.914063 2.671875 -3.585938 2.804688 -3.273438 L 4.296875 -5.1875 L 5.375 -5.1875 L 3.199219 -2.5625 L 4.507813 0 L 3.53125 0 L 3.011719 -1.054688 C 2.902344 -1.277344 2.777344 -1.554688 2.636719 -1.890625 L 1.09375 0 Z M -0.015625 0 "/>
</symbol>
</g>
<clipPath id="clip1">
  <path d="M 24 11 L 255 11 L 255 154 L 24 154 Z M 24 11 "/>
</clipPath>
</defs>
<g id="surface7812">
<rect x="0" y="0" width="350" height="161" style="fill:rgb(99.998474%,99.998474%,99.998474%);fill-opacity:1;stroke:none;"/>
<path style="fill:none;stroke-width:0.03;stroke-linecap:square;stroke-linejoin:miter;stroke:rgb(99.998474%,99.998474%,99.998474%);stroke-opacity:1;stroke-miterlimit:10;" d="M 0 79 L 350 79 L 350 -82 L 0 -82 Z M 0 79 " transform="matrix(1,0,0,1,0,82)"/>
<g clip-path="url(#clip1)" clip-rule="nonzero">
<path style="fill:none;stroke-width:1.6;stroke-linecap:square;stroke-linejoin:miter;stroke:rgb(0%,0%,0%);stroke-opacity:1;stroke-dasharray:1,4;stroke-miterlimit:3.25;" d="M 103.980469 95.351563 L 104.046875 95.230469 L 104.113281 95.105469 L 104.25 94.863281 L 104.519531 94.371094 L 105.054688 93.394531 L 106.128906 91.441406 L 108.28125 87.542969 L 112.945313 79.214844 L 117.296875 71.695313 L 121.566406 64.679688 L 126.195313 57.59375 L 130.515625 51.578125 L 135.199219 45.816406 L 135.269531 45.734375 L 135.34375 45.652344 L 135.488281 45.492188 L 135.773438 45.167969 L 136.347656 44.535156 L 137.5 43.308594 L 139.796875 41.027344 L 139.929688 40.902344 L 140.066406 40.777344 L 140.332031 40.53125 L 140.867188 40.042969 L 141.941406 39.113281 L 142.007813 39.054688 L 142.074219 39 L 142.210938 38.886719 L 142.476563 38.667969 L 143.011719 38.234375 L 144.085938 37.410156 L 144.15625 37.355469 L 144.230469 37.300781 L 144.375 37.195313 L 144.667969 36.984375 L 145.246094 36.578125 L 146.410156 35.8125 L 146.484375 35.765625 L 146.554688 35.71875 L 146.699219 35.628906 L 146.992188 35.453125 L 147.574219 35.109375 L 148.734375 34.476563 L 148.804688 34.441406 L 148.871094 34.40625 L 149.007813 34.339844 L 149.277344 34.203125 L 149.820313 33.945313 L 149.886719 33.914063 L 149.957031 33.886719 L 150.09375 33.824219 L 150.363281 33.703125 L 150.90625 33.476563 L 150.972656 33.449219 L 151.042969 33.421875 L 151.175781 33.367188 L 151.449219 33.261719 L 151.992188 33.066406 L 152.058594 33.042969 L 152.128906 33.019531 L 152.261719 32.972656 L 152.535156 32.882813 L 153.078125 32.714844 L 153.34375 32.636719 L 153.609375 32.566406 L 153.675781 32.546875 L 153.742188 32.53125 L 153.875 32.496094 L 154.140625 32.429688 L 154.40625 32.367188 L 154.671875 32.308594 L 155.203125 32.203125 L 155.46875 32.15625 L 155.738281 32.113281 L 155.871094 32.089844 L 156.003906 32.070313 L 156.269531 32.035156 L 156.800781 31.972656 L 156.867188 31.96875 L 156.933594 31.960938 L 157.066406 31.949219 L 157.132813 31.941406 L 157.199219 31.9375 L 157.332031 31.925781 L 157.40625 31.921875 L 157.476563 31.917969 L 157.550781 31.910156 L 157.691406 31.902344 L 157.765625 31.898438 L 157.910156 31.890625 L 157.980469 31.890625 L 158.054688 31.886719 L 158.125 31.882813 L 158.199219 31.882813 L 158.269531 31.878906 L 158.34375 31.878906 L 158.414063 31.875 L 159.0625 31.875 L 159.136719 31.878906 L 159.28125 31.878906 L 159.351563 31.882813 L 159.425781 31.886719 L 159.496094 31.886719 L 159.570313 31.890625 L 159.640625 31.894531 L 159.714844 31.898438 L 159.785156 31.902344 L 159.859375 31.90625 L 159.929688 31.910156 L 160.003906 31.914063 L 160.074219 31.917969 L 160.21875 31.929688 L 160.289063 31.933594 L 160.363281 31.941406 L 160.507813 31.953125 L 160.796875 31.980469 L 160.867188 31.988281 L 160.941406 31.996094 L 161.085938 32.015625 L 161.371094 32.050781 L 161.445313 32.0625 L 161.515625 32.070313 L 161.949219 32.140625 L 162.015625 32.152344 L 162.085938 32.164063 L 162.21875 32.1875 L 162.488281 32.238281 L 162.554688 32.25 L 162.625 32.261719 L 162.757813 32.289063 L 163.027344 32.347656 L 163.160156 32.378906 L 163.296875 32.410156 L 163.566406 32.476563 L 164.105469 32.617188 L 164.238281 32.65625 L 164.375 32.695313 L 164.644531 32.773438 L 165.179688 32.949219 L 166.257813 33.335938 L 166.332031 33.363281 L 166.40625 33.394531 L 166.550781 33.453125 L 166.84375 33.570313 L 167.425781 33.824219 L 168.59375 34.382813 L 168.667969 34.417969 L 168.738281 34.457031 L 168.886719 34.53125 L 169.175781 34.6875 L 169.761719 35.007813 L 170.929688 35.699219 L 171 35.746094 L 171.070313 35.789063 L 171.214844 35.882813 L 171.503906 36.066406 L 172.074219 36.445313 L 173.222656 37.253906 L 175.515625 39.0625 L 175.582031 39.117188 L 175.648438 39.175781 L 176.046875 39.515625 L 176.582031 39.988281 L 177.652344 40.964844 L 179.789063 43.070313 L 179.863281 43.148438 L 179.933594 43.222656 L 180.078125 43.375 L 180.371094 43.679688 L 180.949219 44.296875 L 182.109375 45.578125 L 184.425781 48.308594 L 188.757813 53.945313 L 193.445313 60.773438 L 198.050781 68.082031 L 202.347656 75.332031 L 207.007813 83.535156 L 211.355469 91.382813 L 215.617188 99.140625 L 220.242188 107.484375 L 224.558594 115.085938 L 229.238281 122.976563 L 233.832031 130.242188 L 238.113281 136.476563 L 242.761719 142.535156 L 242.894531 142.699219 L 243.03125 142.863281 L 243.300781 143.1875 L 243.84375 143.832031 L 244.929688 145.082031 L 247.097656 147.4375 L 247.164063 147.507813 L 247.230469 147.574219 L 247.628906 147.984375 L 248.160156 148.519531 L 249.222656 149.550781 L 249.488281 149.800781 L 249.753906 150.046875 L 250.285156 150.53125 L 251.347656 151.460938 L 251.417969 151.523438 L 251.492188 151.585938 L 251.636719 151.707031 L 251.925781 151.945313 L 252.5 152.414063 L 253.652344 153.300781 L 253.726563 153.355469 L 253.796875 153.410156 L 253.941406 153.515625 L 254.230469 153.722656 L 254.808594 154.125 L 255.960938 154.886719 L 256.09375 154.972656 L 256.230469 155.054688 L 256.5 155.21875 L 257.035156 155.539063 L 258.113281 156.132813 L 258.246094 156.203125 L 258.382813 156.269531 L 258.648438 156.40625 L 259.1875 156.667969 L 260.265625 157.144531 L 260.335938 157.175781 L 260.410156 157.207031 L 260.554688 157.265625 L 260.847656 157.378906 L 261.429688 157.597656 L 261.503906 157.621094 L 261.578125 157.648438 L 261.722656 157.699219 L 262.011719 157.796875 L 262.597656 157.976563 L 262.667969 158 L 262.742188 158.019531 L 262.886719 158.0625 L 263.179688 158.140625 L 263.253906 158.160156 L 263.324219 158.179688 L 263.472656 158.21875 L 263.761719 158.289063 L 263.835938 158.304688 L 263.910156 158.324219 L 264.054688 158.355469 L 264.347656 158.417969 L 264.929688 158.53125 L 264.996094 158.542969 L 265.066406 158.554688 L 265.203125 158.578125 L 265.472656 158.617188 L 265.542969 158.628906 L 265.609375 158.636719 L 265.746094 158.65625 L 266.019531 158.691406 L 266.085938 158.699219 L 266.15625 158.707031 L 266.292969 158.722656 L 266.359375 158.730469 L 266.425781 158.734375 L 266.5625 158.75 L 266.632813 158.753906 L 266.699219 158.761719 L 266.835938 158.773438 L 266.902344 158.777344 L 266.972656 158.78125 L 267.109375 158.792969 L 267.242188 158.800781 L 267.3125 158.804688 L 267.378906 158.804688 L 267.449219 158.808594 L 267.515625 158.8125 L 267.585938 158.816406 L 267.652344 158.816406 L 267.71875 158.820313 L 267.789063 158.820313 L 267.855469 158.824219 L 267.925781 158.824219 L 267.992188 158.828125 L 268.605469 158.828125 L 268.671875 158.824219 L 268.808594 158.824219 L 268.878906 158.820313 L 268.945313 158.820313 L 269.015625 158.816406 L 269.082031 158.8125 L 269.148438 158.8125 L 269.285156 158.804688 L 269.417969 158.796875 L 269.554688 158.789063 L 269.6875 158.78125 L 269.820313 158.769531 L 269.886719 158.765625 L 269.953125 158.757813 L 270.085938 158.746094 L 270.355469 158.722656 L 270.621094 158.691406 L 270.886719 158.65625 L 270.953125 158.648438 L 271.019531 158.636719 L 271.15625 158.617188 L 271.421875 158.578125 L 271.6875 158.53125 L 271.957031 158.484375 L 272.023438 158.472656 L 272.089844 158.457031 L 272.488281 158.375 L 272.554688 158.359375 L 272.625 158.34375 L 272.757813 158.316406 L 273.023438 158.25 L 273.558594 158.113281 L 273.628906 158.09375 L 273.703125 158.074219 L 274.136719 157.945313 L 274.714844 157.761719 L 274.789063 157.738281 L 274.859375 157.714844 L 275.292969 157.5625 L 275.875 157.34375 L 275.945313 157.316406 L 276.019531 157.285156 L 276.453125 157.109375 L 277.03125 156.855469 L 278.191406 156.300781 L 278.324219 156.230469 L 278.460938 156.160156 L 278.730469 156.019531 L 279.269531 155.722656 L 280.351563 155.085938 L 280.421875 155.042969 L 280.488281 155 L 280.621094 154.917969 L 280.894531 154.746094 L 281.433594 154.390625 L 282.515625 153.640625 L 282.585938 153.585938 L 282.660156 153.53125 L 282.808594 153.425781 L 283.101563 153.207031 L 283.6875 152.761719 L 284.855469 151.820313 L 287.199219 149.746094 L 287.273438 149.679688 L 287.34375 149.609375 L 287.488281 149.472656 L 287.773438 149.199219 L 288.351563 148.636719 L 289.5 147.472656 L 291.800781 144.96875 L 296.09375 139.734375 L 300.746094 133.304688 L 305.089844 126.6875 L 309.347656 119.726563 L 313.96875 111.773438 L 318.28125 104.085938 L 318.429688 103.8125 L 318.582031 103.542969 L 318.882813 103 L 319.484375 101.910156 L 320.6875 99.726563 L 320.761719 99.59375 L 320.835938 99.457031 L 320.988281 99.183594 L 321.890625 97.542969 L 322.039063 97.269531 L 322.191406 96.992188 L 322.492188 96.445313 L 322.640625 96.171875 L 322.792969 95.898438 L 322.941406 95.625 L 323.019531 95.488281 L 323.09375 95.351563 " transform="matrix(1,0,0,1,-74,-13)"/>
<path style="fill:none;stroke-width:1.6;stroke-linecap:square;stroke-linejoin:miter;stroke:rgb(0%,0%,0%);stroke-opacity:1;stroke-dasharray:4,4;stroke-miterlimit:3.25;" d="M 103.980469 31.875 L 104.316406 31.875 L 104.382813 31.878906 L 104.449219 31.878906 L 104.519531 31.882813 L 104.585938 31.882813 L 104.652344 31.886719 L 104.71875 31.886719 L 104.785156 31.890625 L 104.855469 31.894531 L 104.921875 31.898438 L 105.054688 31.902344 L 105.121094 31.90625 L 105.191406 31.910156 L 105.324219 31.921875 L 105.457031 31.929688 L 105.59375 31.941406 L 105.660156 31.949219 L 105.726563 31.953125 L 105.863281 31.964844 L 106.128906 31.996094 L 106.199219 32.003906 L 106.398438 32.027344 L 106.667969 32.0625 L 106.734375 32.070313 L 106.800781 32.082031 L 106.9375 32.101563 L 107.207031 32.144531 L 107.472656 32.191406 L 107.742188 32.242188 L 108.28125 32.355469 L 108.355469 32.371094 L 108.425781 32.390625 L 108.574219 32.421875 L 108.863281 32.496094 L 109.445313 32.652344 L 109.519531 32.671875 L 109.59375 32.695313 L 109.738281 32.738281 L 110.03125 32.828125 L 110.613281 33.019531 L 110.683594 33.042969 L 110.757813 33.070313 L 110.902344 33.121094 L 111.195313 33.226563 L 111.777344 33.453125 L 112.945313 33.960938 L 113.078125 34.023438 L 113.214844 34.085938 L 113.488281 34.21875 L 114.03125 34.492188 L 115.121094 35.085938 L 115.1875 35.125 L 115.257813 35.164063 L 115.390625 35.242188 L 115.664063 35.402344 L 116.207031 35.738281 L 117.296875 36.445313 L 117.429688 36.539063 L 117.5625 36.628906 L 117.832031 36.816406 L 118.363281 37.199219 L 119.429688 38.003906 L 121.566406 39.773438 L 121.636719 39.839844 L 121.710938 39.902344 L 121.855469 40.03125 L 122.144531 40.292969 L 122.722656 40.824219 L 123.878906 41.933594 L 126.195313 44.324219 L 130.515625 49.382813 L 135.199219 55.65625 L 139.796875 62.511719 L 144.085938 69.425781 L 148.734375 77.359375 L 153.078125 85.054688 L 157.332031 92.757813 L 161.949219 101.152344 L 166.257813 108.898438 L 170.929688 117.058594 L 175.515625 124.691406 L 179.789063 131.355469 L 184.425781 137.96875 L 188.757813 143.464844 L 188.828125 143.554688 L 189.050781 143.8125 L 189.34375 144.15625 L 189.929688 144.832031 L 191.101563 146.140625 L 193.445313 148.585938 L 193.519531 148.65625 L 193.589844 148.726563 L 194.023438 149.148438 L 194.597656 149.695313 L 195.75 150.75 L 195.820313 150.8125 L 195.894531 150.878906 L 196.039063 151.003906 L 196.324219 151.253906 L 196.902344 151.742188 L 198.050781 152.671875 L 198.121094 152.726563 L 198.1875 152.777344 L 198.320313 152.882813 L 198.589844 153.085938 L 199.125 153.484375 L 200.199219 154.242188 L 200.265625 154.289063 L 200.335938 154.335938 L 200.46875 154.425781 L 200.738281 154.601563 L 201.273438 154.945313 L 202.347656 155.589844 L 202.421875 155.632813 L 202.492188 155.671875 L 202.640625 155.753906 L 202.929688 155.914063 L 203.511719 156.226563 L 203.585938 156.261719 L 203.65625 156.300781 L 203.804688 156.371094 L 204.09375 156.515625 L 204.675781 156.792969 L 204.75 156.824219 L 204.824219 156.859375 L 204.96875 156.921875 L 205.257813 157.050781 L 205.839844 157.289063 L 207.007813 157.71875 L 207.140625 157.765625 L 207.550781 157.894531 L 208.09375 158.058594 L 208.160156 158.078125 L 208.230469 158.09375 L 208.363281 158.132813 L 208.636719 158.203125 L 209.179688 158.335938 L 209.25 158.351563 L 209.316406 158.363281 L 209.453125 158.394531 L 209.722656 158.449219 L 209.792969 158.464844 L 209.859375 158.476563 L 209.996094 158.503906 L 210.269531 158.550781 L 210.402344 158.574219 L 210.539063 158.59375 L 210.8125 158.636719 L 210.878906 158.644531 L 210.945313 158.65625 L 211.355469 158.703125 L 211.621094 158.734375 L 211.6875 158.738281 L 211.753906 158.746094 L 211.886719 158.757813 L 211.953125 158.765625 L 212.019531 158.769531 L 212.15625 158.78125 L 212.621094 158.808594 L 212.6875 158.808594 L 212.820313 158.816406 L 212.886719 158.816406 L 213.019531 158.824219 L 213.152344 158.824219 L 213.21875 158.828125 L 213.820313 158.828125 L 213.886719 158.824219 L 214.019531 158.824219 L 214.085938 158.820313 L 214.152344 158.820313 L 214.21875 158.816406 L 214.285156 158.816406 L 214.550781 158.800781 L 214.621094 158.796875 L 214.953125 158.777344 L 215.085938 158.765625 L 215.152344 158.761719 L 215.21875 158.753906 L 215.351563 158.742188 L 215.617188 158.714844 L 215.691406 158.707031 L 215.761719 158.699219 L 215.90625 158.683594 L 216.195313 158.644531 L 216.269531 158.632813 L 216.339844 158.625 L 216.773438 158.554688 L 216.847656 158.542969 L 216.917969 158.53125 L 217.351563 158.449219 L 217.929688 158.324219 L 218.003906 158.308594 L 218.074219 158.292969 L 218.21875 158.257813 L 218.507813 158.183594 L 219.085938 158.027344 L 219.160156 158.003906 L 219.230469 157.984375 L 219.375 157.941406 L 219.664063 157.851563 L 220.242188 157.660156 L 220.3125 157.636719 L 220.378906 157.613281 L 220.511719 157.5625 L 220.785156 157.464844 L 221.324219 157.253906 L 222.402344 156.789063 L 222.535156 156.726563 L 222.671875 156.664063 L 222.941406 156.535156 L 223.480469 156.265625 L 224.558594 155.683594 L 224.632813 155.644531 L 224.707031 155.601563 L 224.851563 155.515625 L 225.144531 155.34375 L 225.730469 154.988281 L 226.898438 154.226563 L 227.046875 154.125 L 227.191406 154.023438 L 227.484375 153.820313 L 228.070313 153.398438 L 229.238281 152.503906 L 229.308594 152.445313 L 229.382813 152.386719 L 229.523438 152.273438 L 229.8125 152.039063 L 230.386719 151.5625 L 231.535156 150.5625 L 233.832031 148.378906 L 233.964844 148.246094 L 234.097656 148.109375 L 234.367188 147.839844 L 234.902344 147.285156 L 235.972656 146.140625 L 238.113281 143.707031 L 242.761719 137.816406 L 247.097656 131.636719 L 251.347656 125.03125 L 255.960938 117.371094 L 260.265625 109.875 L 264.929688 101.503906 L 269.285156 93.582031 L 273.558594 85.84375 L 278.191406 77.613281 L 282.515625 70.210938 L 287.199219 62.628906 L 291.800781 55.761719 L 296.09375 49.96875 L 300.746094 44.46875 L 300.878906 44.320313 L 301.015625 44.175781 L 301.289063 43.882813 L 301.832031 43.3125 L 302.917969 42.203125 L 305.089844 40.148438 L 305.15625 40.085938 L 305.621094 39.675781 L 306.152344 39.214844 L 307.21875 38.335938 L 307.285156 38.285156 L 307.351563 38.230469 L 307.484375 38.125 L 307.75 37.917969 L 308.285156 37.511719 L 309.347656 36.742188 L 309.421875 36.691406 L 309.492188 36.640625 L 309.636719 36.539063 L 309.925781 36.34375 L 310.503906 35.964844 L 311.65625 35.253906 L 311.730469 35.214844 L 311.800781 35.171875 L 312.234375 34.925781 L 312.8125 34.613281 L 313.96875 34.035156 L 314.101563 33.972656 L 314.238281 33.910156 L 314.507813 33.789063 L 315.046875 33.554688 L 315.179688 33.5 L 315.316406 33.445313 L 315.585938 33.339844 L 316.125 33.136719 L 316.257813 33.089844 L 316.394531 33.042969 L 316.664063 32.949219 L 317.203125 32.777344 L 317.335938 32.738281 L 317.472656 32.695313 L 317.742188 32.621094 L 318.28125 32.476563 L 318.355469 32.457031 L 318.429688 32.441406 L 318.582031 32.402344 L 318.882813 32.335938 L 319.03125 32.304688 L 319.183594 32.273438 L 319.484375 32.214844 L 319.558594 32.199219 L 319.632813 32.1875 L 319.785156 32.160156 L 320.085938 32.109375 L 320.234375 32.085938 L 320.386719 32.066406 L 320.6875 32.023438 L 320.835938 32.007813 L 320.988281 31.988281 L 321.136719 31.972656 L 321.289063 31.957031 L 321.363281 31.953125 L 321.4375 31.945313 L 321.589844 31.933594 L 321.664063 31.925781 L 321.738281 31.921875 L 321.890625 31.910156 L 322.039063 31.902344 L 322.117188 31.898438 L 322.339844 31.886719 L 322.417969 31.886719 L 322.492188 31.882813 L 322.566406 31.882813 L 322.640625 31.878906 L 322.71875 31.878906 L 322.792969 31.875 L 323.09375 31.875 " transform="matrix(1,0,0,1,-74,-13)"/>
</g>
<path style="fill:none;stroke-width:0.2;stroke-linecap:butt;stroke-linejoin:miter;stroke:rgb(39.99939%,39.99939%,39.99939%);stroke-opacity:1;stroke-miterlimit:3.25;" d="M 103.980469 95.351563 L 103.980469 92.640625 " transform="matrix(1,0,0,1,-74,-13)"/>
<path style="fill:none;stroke-width:0.2;stroke-linecap:butt;stroke-linejoin:miter;stroke:rgb(39.99939%,39.99939%,39.99939%);stroke-opacity:1;stroke-miterlimit:3.25;" d="M 110.953125 95.351563 L 110.953125 93.726563 " transform="matrix(1,0,0,1,-74,-13)"/>
<path style="fill:none;stroke-width:0.2;stroke-linecap:butt;stroke-linejoin:miter;stroke:rgb(39.99939%,39.99939%,39.99939%);stroke-opacity:1;stroke-miterlimit:3.25;" d="M 117.929688 95.351563 L 117.929688 93.726563 " transform="matrix(1,0,0,1,-74,-13)"/>
<path style="fill:none;stroke-width:0.2;stroke-linecap:butt;stroke-linejoin:miter;stroke:rgb(39.99939%,39.99939%,39.99939%);stroke-opacity:1;stroke-miterlimit:3.25;" d="M 124.902344 95.351563 L 124.902344 93.726563 " transform="matrix(1,0,0,1,-74,-13)"/>
<path style="fill:none;stroke-width:0.2;stroke-linecap:butt;stroke-linejoin:miter;stroke:rgb(39.99939%,39.99939%,39.99939%);stroke-opacity:1;stroke-miterlimit:3.25;" d="M 131.878906 95.351563 L 131.878906 93.726563 " transform="matrix(1,0,0,1,-74,-13)"/>
<path style="fill:none;stroke-width:0.2;stroke-linecap:butt;stroke-linejoin:miter;stroke:rgb(39.99939%,39.99939%,39.99939%);stroke-opacity:1;stroke-miterlimit:3.25;" d="M 138.851563 95.351563 L 138.851563 92.640625 " transform="matrix(1,0,0,1,-74,-13)"/>
<g style="fill:rgb(39.99939%,39.99939%,39.99939%);fill-opacity:1;">
  <use xlink:href="#glyph0-1" x="61.852905" y="95.351454"/>
</g>
<path style="fill:none;stroke-width:0.2;stroke-linecap:butt;stroke-linejoin:miter;stroke:rgb(39.99939%,39.99939%,39.99939%);stroke-opacity:1;stroke-miterlimit:3.25;" d="M 145.828125 95.351563 L 145.828125 93.726563 " transform="matrix(1,0,0,1,-74,-13)"/>
<path style="fill:none;stroke-width:0.2;stroke-linecap:butt;stroke-linejoin:miter;stroke:rgb(39.99939%,39.99939%,39.99939%);stroke-opacity:1;stroke-miterlimit:3.25;" d="M 152.800781 95.351563 L 152.800781 93.726563 " transform="matrix(1,0,0,1,-74,-13)"/>
<path style="fill:none;stroke-width:0.2;stroke-linecap:butt;stroke-linejoin:miter;stroke:rgb(39.99939%,39.99939%,39.99939%);stroke-opacity:1;stroke-miterlimit:3.25;" d="M 159.777344 95.351563 L 159.777344 93.726563 " transform="matrix(1,0,0,1,-74,-13)"/>
<path style="fill:none;stroke-width:0.2;stroke-linecap:butt;stroke-linejoin:miter;stroke:rgb(39.99939%,39.99939%,39.99939%);stroke-opacity:1;stroke-miterlimit:3.25;" d="M 166.75 95.351563 L 166.75 93.726563 " transform="matrix(1,0,0,1,-74,-13)"/>
<path style="fill:none;stroke-width:0.2;stroke-linecap:butt;stroke-linejoin:miter;stroke:rgb(39.99939%,39.99939%,39.99939%);stroke-opacity:1;stroke-miterlimit:3.25;" d="M 173.726563 95.351563 L 173.726563 92.640625 " transform="matrix(1,0,0,1,-74,-13)"/>
<g style="fill:rgb(39.99939%,39.99939%,39.99939%);fill-opacity:1;">
  <use xlink:href="#glyph0-2" x="96.72581" y="95.351454"/>
</g>
<path style="fill:none;stroke-width:0.2;stroke-linecap:butt;stroke-linejoin:miter;stroke:rgb(39.99939%,39.99939%,39.99939%);stroke-opacity:1;stroke-miterlimit:3.25;" d="M 180.699219 95.351563 L 180.699219 93.726563 " transform="matrix(1,0,0,1,-74,-13)"/>
<path style="fill:none;stroke-width:0.2;stroke-linecap:butt;stroke-linejoin:miter;stroke:rgb(39.99939%,39.99939%,39.99939%);stroke-opacity:1;stroke-miterlimit:3.25;" d="M 187.675781 95.351563 L 187.675781 93.726563 " transform="matrix(1,0,0,1,-74,-13)"/>
<path style="fill:none;stroke-width:0.2;stroke-linecap:butt;stroke-linejoin:miter;stroke:rgb(39.99939%,39.99939%,39.99939%);stroke-opacity:1;stroke-miterlimit:3.25;" d="M 194.648438 95.351563 L 194.648438 93.726563 " transform="matrix(1,0,0,1,-74,-13)"/>
<path style="fill:none;stroke-width:0.2;stroke-linecap:butt;stroke-linejoin:miter;stroke:rgb(39.99939%,39.99939%,39.99939%);stroke-opacity:1;stroke-miterlimit:3.25;" d="M 201.625 95.351563 L 201.625 93.726563 " transform="matrix(1,0,0,1,-74,-13)"/>
<path style="fill:none;stroke-width:0.2;stroke-linecap:butt;stroke-linejoin:miter;stroke:rgb(39.99939%,39.99939%,39.99939%);stroke-opacity:1;stroke-miterlimit:3.25;" d="M 208.597656 95.351563 L 208.597656 92.640625 " transform="matrix(1,0,0,1,-74,-13)"/>
<g style="fill:rgb(39.99939%,39.99939%,39.99939%);fill-opacity:1;">
  <use xlink:href="#glyph0-3" x="131.598715" y="95.351454"/>
</g>
<path style="fill:none;stroke-width:0.2;stroke-linecap:butt;stroke-linejoin:miter;stroke:rgb(39.99939%,39.99939%,39.99939%);stroke-opacity:1;stroke-miterlimit:3.25;" d="M 215.574219 95.351563 L 215.574219 93.726563 " transform="matrix(1,0,0,1,-74,-13)"/>
<path style="fill:none;stroke-width:0.2;stroke-linecap:butt;stroke-linejoin:miter;stroke:rgb(39.99939%,39.99939%,39.99939%);stroke-opacity:1;stroke-miterlimit:3.25;" d="M 222.546875 95.351563 L 222.546875 93.726563 " transform="matrix(1,0,0,1,-74,-13)"/>
<path style="fill:none;stroke-width:0.2;stroke-linecap:butt;stroke-linejoin:miter;stroke:rgb(39.99939%,39.99939%,39.99939%);stroke-opacity:1;stroke-miterlimit:3.25;" d="M 229.523438 95.351563 L 229.523438 93.726563 " transform="matrix(1,0,0,1,-74,-13)"/>
<path style="fill:none;stroke-width:0.2;stroke-linecap:butt;stroke-linejoin:miter;stroke:rgb(39.99939%,39.99939%,39.99939%);stroke-opacity:1;stroke-miterlimit:3.25;" d="M 236.496094 95.351563 L 236.496094 93.726563 " transform="matrix(1,0,0,1,-74,-13)"/>
<path style="fill:none;stroke-width:0.2;stroke-linecap:butt;stroke-linejoin:miter;stroke:rgb(39.99939%,39.99939%,39.99939%);stroke-opacity:1;stroke-miterlimit:3.25;" d="M 243.472656 95.351563 L 243.472656 92.640625 " transform="matrix(1,0,0,1,-74,-13)"/>
<g style="fill:rgb(39.99939%,39.99939%,39.99939%);fill-opacity:1;">
  <use xlink:href="#glyph0-4" x="166.471621" y="95.351454"/>
</g>
<path style="fill:none;stroke-width:0.2;stroke-linecap:butt;stroke-linejoin:miter;stroke:rgb(39.99939%,39.99939%,39.99939%);stroke-opacity:1;stroke-miterlimit:3.25;" d="M 250.445313 95.351563 L 250.445313 93.726563 " transform="matrix(1,0,0,1,-74,-13)"/>
<path style="fill:none;stroke-width:0.2;stroke-linecap:butt;stroke-linejoin:miter;stroke:rgb(39.99939%,39.99939%,39.99939%);stroke-opacity:1;stroke-miterlimit:3.25;" d="M 257.421875 95.351563 L 257.421875 93.726563 " transform="matrix(1,0,0,1,-74,-13)"/>
<path style="fill:none;stroke-width:0.2;stroke-linecap:butt;stroke-linejoin:miter;stroke:rgb(39.99939%,39.99939%,39.99939%);stroke-opacity:1;stroke-miterlimit:3.25;" d="M 264.394531 95.351563 L 264.394531 93.726563 " transform="matrix(1,0,0,1,-74,-13)"/>
<path style="fill:none;stroke-width:0.2;stroke-linecap:butt;stroke-linejoin:miter;stroke:rgb(39.99939%,39.99939%,39.99939%);stroke-opacity:1;stroke-miterlimit:3.25;" d="M 271.371094 95.351563 L 271.371094 93.726563 " transform="matrix(1,0,0,1,-74,-13)"/>
<path style="fill:none;stroke-width:0.2;stroke-linecap:butt;stroke-linejoin:miter;stroke:rgb(39.99939%,39.99939%,39.99939%);stroke-opacity:1;stroke-miterlimit:3.25;" d="M 278.34375 95.351563 L 278.34375 92.640625 " transform="matrix(1,0,0,1,-74,-13)"/>
<g style="fill:rgb(39.99939%,39.99939%,39.99939%);fill-opacity:1;">
  <use xlink:href="#glyph0-5" x="201.344526" y="95.351454"/>
</g>
<path style="fill:none;stroke-width:0.2;stroke-linecap:butt;stroke-linejoin:miter;stroke:rgb(39.99939%,39.99939%,39.99939%);stroke-opacity:1;stroke-miterlimit:3.25;" d="M 285.320313 95.351563 L 285.320313 93.726563 " transform="matrix(1,0,0,1,-74,-13)"/>
<path style="fill:none;stroke-width:0.2;stroke-linecap:butt;stroke-linejoin:miter;stroke:rgb(39.99939%,39.99939%,39.99939%);stroke-opacity:1;stroke-miterlimit:3.25;" d="M 292.292969 95.351563 L 292.292969 93.726563 " transform="matrix(1,0,0,1,-74,-13)"/>
<path style="fill:none;stroke-width:0.2;stroke-linecap:butt;stroke-linejoin:miter;stroke:rgb(39.99939%,39.99939%,39.99939%);stroke-opacity:1;stroke-miterlimit:3.25;" d="M 299.269531 95.351563 L 299.269531 93.726563 " transform="matrix(1,0,0,1,-74,-13)"/>
<path style="fill:none;stroke-width:0.2;stroke-linecap:butt;stroke-linejoin:miter;stroke:rgb(39.99939%,39.99939%,39.99939%);stroke-opacity:1;stroke-miterlimit:3.25;" d="M 306.242188 95.351563 L 306.242188 93.726563 " transform="matrix(1,0,0,1,-74,-13)"/>
<path style="fill:none;stroke-width:0.2;stroke-linecap:butt;stroke-linejoin:miter;stroke:rgb(39.99939%,39.99939%,39.99939%);stroke-opacity:1;stroke-miterlimit:3.25;" d="M 313.21875 95.351563 L 313.21875 92.640625 " transform="matrix(1,0,0,1,-74,-13)"/>
<g style="fill:rgb(39.99939%,39.99939%,39.99939%);fill-opacity:1;">
  <use xlink:href="#glyph0-6" x="236.217431" y="95.351454"/>
</g>
<path style="fill:none;stroke-width:0.2;stroke-linecap:butt;stroke-linejoin:miter;stroke:rgb(39.99939%,39.99939%,39.99939%);stroke-opacity:1;stroke-miterlimit:3.25;" d="M 320.191406 95.351563 L 320.191406 93.726563 " transform="matrix(1,0,0,1,-74,-13)"/>
<path style="fill:none;stroke-width:0.2;stroke-linecap:butt;stroke-linejoin:miter;stroke:rgb(39.99939%,39.99939%,39.99939%);stroke-opacity:1;stroke-miterlimit:3.25;" d="M 327.167969 95.351563 L 327.167969 93.726563 " transform="matrix(1,0,0,1,-74,-13)"/>
<path style="fill:none;stroke-width:0.2;stroke-linecap:butt;stroke-linejoin:miter;stroke:rgb(39.99939%,39.99939%,39.99939%);stroke-opacity:1;stroke-miterlimit:3.25;" d="M 99.414063 95.351563 L 327.65625 95.351563 " transform="matrix(1,0,0,1,-74,-13)"/>
<path style="fill:none;stroke-width:0.2;stroke-linecap:butt;stroke-linejoin:miter;stroke:rgb(39.99939%,39.99939%,39.99939%);stroke-opacity:1;stroke-miterlimit:3.25;" d="M 103.980469 165.175781 L 105.605469 165.175781 " transform="matrix(1,0,0,1,-74,-13)"/>
<path style="fill:none;stroke-width:0.2;stroke-linecap:butt;stroke-linejoin:miter;stroke:rgb(39.99939%,39.99939%,39.99939%);stroke-opacity:1;stroke-miterlimit:3.25;" d="M 103.980469 158.828125 L 106.691406 158.828125 " transform="matrix(1,0,0,1,-74,-13)"/>
<g style="fill:rgb(39.99939%,39.99939%,39.99939%);fill-opacity:1;">
  <use xlink:href="#glyph1-1" x="6.98" y="149.329224"/>
</g>
<g style="fill:rgb(39.99939%,39.99939%,39.99939%);fill-opacity:1;">
  <use xlink:href="#glyph0-1" x="12.98" y="149.329224"/>
  <use xlink:href="#glyph0-7" x="18.541523" y="149.329224"/>
  <use xlink:href="#glyph0-8" x="21.319844" y="149.329224"/>
</g>
<path style="fill:none;stroke-width:0.2;stroke-linecap:butt;stroke-linejoin:miter;stroke:rgb(39.99939%,39.99939%,39.99939%);stroke-opacity:1;stroke-miterlimit:3.25;" d="M 103.980469 152.480469 L 105.605469 152.480469 " transform="matrix(1,0,0,1,-74,-13)"/>
<path style="fill:none;stroke-width:0.2;stroke-linecap:butt;stroke-linejoin:miter;stroke:rgb(39.99939%,39.99939%,39.99939%);stroke-opacity:1;stroke-miterlimit:3.25;" d="M 103.980469 146.132813 L 105.605469 146.132813 " transform="matrix(1,0,0,1,-74,-13)"/>
<path style="fill:none;stroke-width:0.2;stroke-linecap:butt;stroke-linejoin:miter;stroke:rgb(39.99939%,39.99939%,39.99939%);stroke-opacity:1;stroke-miterlimit:3.25;" d="M 103.980469 139.785156 L 105.605469 139.785156 " transform="matrix(1,0,0,1,-74,-13)"/>
<path style="fill:none;stroke-width:0.2;stroke-linecap:butt;stroke-linejoin:miter;stroke:rgb(39.99939%,39.99939%,39.99939%);stroke-opacity:1;stroke-miterlimit:3.25;" d="M 103.980469 133.4375 L 105.605469 133.4375 " transform="matrix(1,0,0,1,-74,-13)"/>
<path style="fill:none;stroke-width:0.2;stroke-linecap:butt;stroke-linejoin:miter;stroke:rgb(39.99939%,39.99939%,39.99939%);stroke-opacity:1;stroke-miterlimit:3.25;" d="M 103.980469 127.089844 L 106.691406 127.089844 " transform="matrix(1,0,0,1,-74,-13)"/>
<g style="fill:rgb(39.99939%,39.99939%,39.99939%);fill-opacity:1;">
  <use xlink:href="#glyph1-1" x="6.98" y="117.590339"/>
</g>
<g style="fill:rgb(39.99939%,39.99939%,39.99939%);fill-opacity:1;">
  <use xlink:href="#glyph0-8" x="12.98" y="117.590339"/>
  <use xlink:href="#glyph0-7" x="18.541523" y="117.590339"/>
  <use xlink:href="#glyph0-5" x="21.319844" y="117.590339"/>
</g>
<path style="fill:none;stroke-width:0.2;stroke-linecap:butt;stroke-linejoin:miter;stroke:rgb(39.99939%,39.99939%,39.99939%);stroke-opacity:1;stroke-miterlimit:3.25;" d="M 103.980469 120.742188 L 105.605469 120.742188 " transform="matrix(1,0,0,1,-74,-13)"/>
<path style="fill:none;stroke-width:0.2;stroke-linecap:butt;stroke-linejoin:miter;stroke:rgb(39.99939%,39.99939%,39.99939%);stroke-opacity:1;stroke-miterlimit:3.25;" d="M 103.980469 114.394531 L 105.605469 114.394531 " transform="matrix(1,0,0,1,-74,-13)"/>
<path style="fill:none;stroke-width:0.2;stroke-linecap:butt;stroke-linejoin:miter;stroke:rgb(39.99939%,39.99939%,39.99939%);stroke-opacity:1;stroke-miterlimit:3.25;" d="M 103.980469 108.046875 L 105.605469 108.046875 " transform="matrix(1,0,0,1,-74,-13)"/>
<path style="fill:none;stroke-width:0.2;stroke-linecap:butt;stroke-linejoin:miter;stroke:rgb(39.99939%,39.99939%,39.99939%);stroke-opacity:1;stroke-miterlimit:3.25;" d="M 103.980469 101.699219 L 105.605469 101.699219 " transform="matrix(1,0,0,1,-74,-13)"/>
<path style="fill:none;stroke-width:0.2;stroke-linecap:butt;stroke-linejoin:miter;stroke:rgb(39.99939%,39.99939%,39.99939%);stroke-opacity:1;stroke-miterlimit:3.25;" d="M 103.980469 95.351563 L 106.691406 95.351563 " transform="matrix(1,0,0,1,-74,-13)"/>
<path style="fill:none;stroke-width:0.2;stroke-linecap:butt;stroke-linejoin:miter;stroke:rgb(39.99939%,39.99939%,39.99939%);stroke-opacity:1;stroke-miterlimit:3.25;" d="M 103.980469 89.003906 L 105.605469 89.003906 " transform="matrix(1,0,0,1,-74,-13)"/>
<path style="fill:none;stroke-width:0.2;stroke-linecap:butt;stroke-linejoin:miter;stroke:rgb(39.99939%,39.99939%,39.99939%);stroke-opacity:1;stroke-miterlimit:3.25;" d="M 103.980469 82.65625 L 105.605469 82.65625 " transform="matrix(1,0,0,1,-74,-13)"/>
<path style="fill:none;stroke-width:0.2;stroke-linecap:butt;stroke-linejoin:miter;stroke:rgb(39.99939%,39.99939%,39.99939%);stroke-opacity:1;stroke-miterlimit:3.25;" d="M 103.980469 76.308594 L 105.605469 76.308594 " transform="matrix(1,0,0,1,-74,-13)"/>
<path style="fill:none;stroke-width:0.2;stroke-linecap:butt;stroke-linejoin:miter;stroke:rgb(39.99939%,39.99939%,39.99939%);stroke-opacity:1;stroke-miterlimit:3.25;" d="M 103.980469 69.960938 L 105.605469 69.960938 " transform="matrix(1,0,0,1,-74,-13)"/>
<path style="fill:none;stroke-width:0.2;stroke-linecap:butt;stroke-linejoin:miter;stroke:rgb(39.99939%,39.99939%,39.99939%);stroke-opacity:1;stroke-miterlimit:3.25;" d="M 103.980469 63.613281 L 106.691406 63.613281 " transform="matrix(1,0,0,1,-74,-13)"/>
<g style="fill:rgb(39.99939%,39.99939%,39.99939%);fill-opacity:1;">
  <use xlink:href="#glyph0-8" x="12.98" y="54.112569"/>
  <use xlink:href="#glyph0-7" x="18.541523" y="54.112569"/>
  <use xlink:href="#glyph0-5" x="21.319844" y="54.112569"/>
</g>
<path style="fill:none;stroke-width:0.2;stroke-linecap:butt;stroke-linejoin:miter;stroke:rgb(39.99939%,39.99939%,39.99939%);stroke-opacity:1;stroke-miterlimit:3.25;" d="M 103.980469 57.265625 L 105.605469 57.265625 " transform="matrix(1,0,0,1,-74,-13)"/>
<path style="fill:none;stroke-width:0.2;stroke-linecap:butt;stroke-linejoin:miter;stroke:rgb(39.99939%,39.99939%,39.99939%);stroke-opacity:1;stroke-miterlimit:3.25;" d="M 103.980469 50.917969 L 105.605469 50.917969 " transform="matrix(1,0,0,1,-74,-13)"/>
<path style="fill:none;stroke-width:0.2;stroke-linecap:butt;stroke-linejoin:miter;stroke:rgb(39.99939%,39.99939%,39.99939%);stroke-opacity:1;stroke-miterlimit:3.25;" d="M 103.980469 44.570313 L 105.605469 44.570313 " transform="matrix(1,0,0,1,-74,-13)"/>
<path style="fill:none;stroke-width:0.2;stroke-linecap:butt;stroke-linejoin:miter;stroke:rgb(39.99939%,39.99939%,39.99939%);stroke-opacity:1;stroke-miterlimit:3.25;" d="M 103.980469 38.222656 L 105.605469 38.222656 " transform="matrix(1,0,0,1,-74,-13)"/>
<path style="fill:none;stroke-width:0.2;stroke-linecap:butt;stroke-linejoin:miter;stroke:rgb(39.99939%,39.99939%,39.99939%);stroke-opacity:1;stroke-miterlimit:3.25;" d="M 103.980469 31.875 L 106.691406 31.875 " transform="matrix(1,0,0,1,-74,-13)"/>
<g style="fill:rgb(39.99939%,39.99939%,39.99939%);fill-opacity:1;">
  <use xlink:href="#glyph0-1" x="12.98" y="22.373684"/>
  <use xlink:href="#glyph0-7" x="18.541523" y="22.373684"/>
  <use xlink:href="#glyph0-8" x="21.319844" y="22.373684"/>
</g>
<path style="fill:none;stroke-width:0.2;stroke-linecap:butt;stroke-linejoin:miter;stroke:rgb(39.99939%,39.99939%,39.99939%);stroke-opacity:1;stroke-miterlimit:3.25;" d="M 103.980469 25.527344 L 105.605469 25.527344 " transform="matrix(1,0,0,1,-74,-13)"/>
<path style="fill:none;stroke-width:0.2;stroke-linecap:butt;stroke-linejoin:miter;stroke:rgb(39.99939%,39.99939%,39.99939%);stroke-opacity:1;stroke-miterlimit:3.25;" d="M 103.980469 165.882813 L 103.980469 24.820313 " transform="matrix(1,0,0,1,-74,-13)"/>
<path style="fill-rule:nonzero;fill:rgb(0%,0%,0%);fill-opacity:1;stroke-width:0.03;stroke-linecap:square;stroke-linejoin:miter;stroke:rgb(0%,0%,0%);stroke-opacity:1;stroke-miterlimit:3.239307;" d="M 329.15625 77.28125 L 329.15625 47.378906 L 416.019531 47.378906 L 416.019531 77.28125 Z M 329.15625 77.28125 " transform="matrix(1,0,0,1,-74,-13)"/>
<path style="fill-rule:nonzero;fill:rgb(99.998474%,99.998474%,99.998474%);fill-opacity:1;stroke-width:0.03;stroke-linecap:square;stroke-linejoin:miter;stroke:rgb(99.998474%,99.998474%,99.998474%);stroke-opacity:1;stroke-miterlimit:3.239307;" d="M 329.15625 77.28125 L 329.15625 47.378906 L 416.019531 47.378906 L 416.019531 77.28125 Z M 329.15625 77.28125 " transform="matrix(1,0,0,1,-74,-13)"/>
<path style="fill:none;stroke-width:0.349;stroke-linecap:square;stroke-linejoin:miter;stroke:rgb(0%,0%,0%);stroke-opacity:1;stroke-miterlimit:3.25;" d="M 329.15625 77.28125 L 329.15625 47.378906 L 416.019531 47.378906 L 416.019531 77.28125 Z M 329.15625 77.28125 " transform="matrix(1,0,0,1,-74,-13)"/>
<path style="fill:none;stroke-width:1;stroke-linecap:square;stroke-linejoin:miter;stroke:rgb(0%,0%,0%);stroke-opacity:1;stroke-dasharray:4,4;stroke-miterlimit:3.25;" d="M 333.929688 69.949219 L 336.929688 69.949219 " transform="matrix(1,0,0,1,-74,-13)"/>
<g style="fill:rgb(0%,0%,0%);fill-opacity:1;">
  <use xlink:href="#glyph0-9" x="270.465464" y="59.950422"/>
  <use xlink:href="#glyph0-10" x="277.687144" y="59.950422"/>
  <use xlink:href="#glyph0-11" x="283.248668" y="59.950422"/>
</g>
<g style="fill:rgb(0%,0%,0%);fill-opacity:1;">
  <use xlink:href="#glyph2-1" x="291.465464" y="59.950422"/>
</g>
<path style="fill:none;stroke-width:1;stroke-linecap:square;stroke-linejoin:miter;stroke:rgb(0%,0%,0%);stroke-opacity:1;stroke-dasharray:1,4;stroke-miterlimit:3.25;" d="M 333.929688 55.710938 L 336.929688 55.710938 " transform="matrix(1,0,0,1,-74,-13)"/>
<g style="fill:rgb(0%,0%,0%);fill-opacity:1;">
  <use xlink:href="#glyph0-12" x="270.465464" y="45.710714"/>
  <use xlink:href="#glyph0-13" x="277.135386" y="45.710714"/>
  <use xlink:href="#glyph0-14" x="279.357066" y="45.710714"/>
</g>
<g style="fill:rgb(0%,0%,0%);fill-opacity:1;">
  <use xlink:href="#glyph2-1" x="287.465464" y="45.710714"/>
</g>
</g>
</svg>
