<?xml version="1.0" encoding="UTF-8"?>
<svg xmlns="http://www.w3.org/2000/svg" xmlns:xlink="http://www.w3.org/1999/xlink" width="350pt" height="252pt" viewBox="0 0 350 252" version="1.1">
<defs>
<g>
<symbol overflow="visible" id="glyph0-0">
<path style="stroke:none;" d="M 1.625 0 L 1.625 -8.125 L 8.125 -8.125 L 8.125 0 Z M 1.828125 -0.203125 L 7.921875 -0.203125 L 7.921875 -7.921875 L 1.828125 -7.921875 Z M 1.828125 -0.203125 "/>
</symbol>
<symbol overflow="visible" id="glyph0-1">
<path style="stroke:none;" d="M 3.566406 -9.34375 C 4.464844 -9.339844 5.167969 -9.019531 5.679688 -8.378906 C 6.28125 -7.613281 6.585938 -6.347656 6.589844 -4.589844 C 6.585938 -2.824219 6.28125 -1.558594 5.675781 -0.792969 C 5.167969 -0.15625 4.464844 0.15625 3.566406 0.160156 C 2.660156 0.15625 1.929688 -0.1875 1.378906 -0.882813 C 0.820313 -1.578125 0.542969 -2.820313 0.546875 -4.609375 C 0.542969 -6.355469 0.847656 -7.617188 1.460938 -8.390625 C 1.960938 -9.023438 2.664063 -9.339844 3.566406 -9.34375 Z M 3.566406 -7.863281 C 3.347656 -7.863281 3.15625 -7.792969 2.988281 -7.65625 C 2.816406 -7.519531 2.683594 -7.273438 2.597656 -6.917969 C 2.472656 -6.453125 2.414063 -5.675781 2.414063 -4.589844 C 2.414063 -3.496094 2.46875 -2.746094 2.578125 -2.339844 C 2.6875 -1.925781 2.824219 -1.65625 2.992188 -1.523438 C 3.15625 -1.386719 3.347656 -1.316406 3.566406 -1.320313 C 3.78125 -1.316406 3.972656 -1.386719 4.144531 -1.527344 C 4.308594 -1.664063 4.441406 -1.910156 4.539063 -2.265625 C 4.660156 -2.722656 4.722656 -3.496094 4.722656 -4.589844 C 4.722656 -5.675781 4.664063 -6.425781 4.554688 -6.839844 C 4.441406 -7.246094 4.304688 -7.519531 4.140625 -7.65625 C 3.972656 -7.792969 3.78125 -7.863281 3.566406 -7.863281 Z M 3.566406 -7.863281 "/>
</symbol>
<symbol overflow="visible" id="glyph0-2">
<path style="stroke:none;" d="M 5.117188 0 L 3.332031 0 L 3.332031 -6.722656 C 2.679688 -6.109375 1.910156 -5.660156 1.027344 -5.371094 L 1.027344 -6.988281 C 1.488281 -7.140625 1.996094 -7.429688 2.542969 -7.855469 C 3.089844 -8.277344 3.464844 -8.773438 3.667969 -9.34375 L 5.117188 -9.34375 Z M 5.117188 0 "/>
</symbol>
<symbol overflow="visible" id="glyph0-3">
<path style="stroke:none;" d="M 6.578125 -1.65625 L 6.578125 0 L 0.324219 0 C 0.386719 -0.625 0.589844 -1.214844 0.933594 -1.777344 C 1.269531 -2.335938 1.9375 -3.082031 2.9375 -4.011719 C 3.738281 -4.757813 4.234375 -5.265625 4.417969 -5.535156 C 4.660156 -5.898438 4.78125 -6.261719 4.785156 -6.625 C 4.78125 -7.019531 4.675781 -7.324219 4.464844 -7.542969 C 4.25 -7.753906 3.953125 -7.863281 3.578125 -7.863281 C 3.207031 -7.863281 2.910156 -7.75 2.691406 -7.527344 C 2.464844 -7.300781 2.339844 -6.929688 2.3125 -6.410156 L 0.53125 -6.589844 C 0.636719 -7.570313 0.96875 -8.273438 1.527344 -8.703125 C 2.085938 -9.125 2.785156 -9.339844 3.625 -9.34375 C 4.539063 -9.339844 5.261719 -9.09375 5.789063 -8.601563 C 6.3125 -8.105469 6.574219 -7.488281 6.578125 -6.753906 C 6.574219 -6.332031 6.5 -5.933594 6.351563 -5.554688 C 6.199219 -5.175781 5.960938 -4.777344 5.636719 -4.367188 C 5.417969 -4.085938 5.027344 -3.691406 4.46875 -3.179688 C 3.902344 -2.660156 3.546875 -2.316406 3.398438 -2.152344 C 3.246094 -1.980469 3.125 -1.816406 3.035156 -1.65625 Z M 6.578125 -1.65625 "/>
</symbol>
<symbol overflow="visible" id="glyph0-4">
<path style="stroke:none;" d="M 0.488281 -2.46875 L 2.214844 -2.679688 C 2.269531 -2.234375 2.417969 -1.898438 2.660156 -1.667969 C 2.902344 -1.433594 3.191406 -1.316406 3.535156 -1.320313 C 3.898438 -1.316406 4.210938 -1.457031 4.464844 -1.738281 C 4.714844 -2.015625 4.839844 -2.390625 4.84375 -2.867188 C 4.839844 -3.3125 4.71875 -3.667969 4.480469 -3.933594 C 4.238281 -4.191406 3.945313 -4.324219 3.597656 -4.328125 C 3.371094 -4.324219 3.097656 -4.28125 2.78125 -4.195313 L 2.976563 -5.648438 C 3.457031 -5.632813 3.824219 -5.734375 4.078125 -5.960938 C 4.332031 -6.179688 4.457031 -6.476563 4.460938 -6.847656 C 4.457031 -7.160156 4.363281 -7.410156 4.179688 -7.597656 C 3.992188 -7.78125 3.746094 -7.875 3.441406 -7.878906 C 3.132813 -7.875 2.875 -7.769531 2.660156 -7.558594 C 2.441406 -7.347656 2.308594 -7.039063 2.265625 -6.632813 L 0.621094 -6.914063 C 0.734375 -7.476563 0.90625 -7.925781 1.136719 -8.261719 C 1.367188 -8.597656 1.6875 -8.859375 2.101563 -9.054688 C 2.511719 -9.242188 2.976563 -9.339844 3.492188 -9.34375 C 4.367188 -9.339844 5.066406 -9.0625 5.597656 -8.507813 C 6.03125 -8.046875 6.25 -7.527344 6.253906 -6.957031 C 6.25 -6.136719 5.804688 -5.484375 4.914063 -5 C 5.441406 -4.882813 5.867188 -4.628906 6.191406 -4.234375 C 6.507813 -3.832031 6.667969 -3.351563 6.671875 -2.792969 C 6.667969 -1.972656 6.371094 -1.277344 5.777344 -0.703125 C 5.179688 -0.128906 4.433594 0.15625 3.546875 0.160156 C 2.703125 0.15625 2.007813 -0.0820313 1.453125 -0.566406 C 0.898438 -1.050781 0.574219 -1.683594 0.488281 -2.46875 Z M 0.488281 -2.46875 "/>
</symbol>
<symbol overflow="visible" id="glyph0-5">
<path style="stroke:none;" d="M 4.050781 0 L 4.050781 -1.871094 L 0.242188 -1.871094 L 0.242188 -3.433594 L 4.277344 -9.34375 L 5.777344 -9.34375 L 5.777344 -3.441406 L 6.929688 -3.441406 L 6.929688 -1.871094 L 5.777344 -1.871094 L 5.777344 0 Z M 4.050781 -3.441406 L 4.050781 -6.621094 L 1.910156 -3.441406 Z M 4.050781 -3.441406 "/>
</symbol>
<symbol overflow="visible" id="glyph0-6">
<path style="stroke:none;" d="M 0.578125 -2.394531 L 2.355469 -2.578125 C 2.402344 -2.171875 2.550781 -1.851563 2.804688 -1.621094 C 3.050781 -1.382813 3.339844 -1.265625 3.667969 -1.269531 C 4.039063 -1.265625 4.351563 -1.417969 4.613281 -1.722656 C 4.867188 -2.023438 4.996094 -2.476563 5 -3.089844 C 4.996094 -3.660156 4.871094 -4.089844 4.617188 -4.375 C 4.359375 -4.660156 4.023438 -4.804688 3.617188 -4.804688 C 3.101563 -4.804688 2.644531 -4.578125 2.242188 -4.125 L 0.792969 -4.335938 L 1.707031 -9.179688 L 6.421875 -9.179688 L 6.421875 -7.507813 L 3.058594 -7.507813 L 2.78125 -5.929688 C 3.175781 -6.125 3.582031 -6.222656 4 -6.226563 C 4.789063 -6.222656 5.460938 -5.933594 6.011719 -5.363281 C 6.558594 -4.785156 6.832031 -4.039063 6.835938 -3.125 C 6.832031 -2.351563 6.609375 -1.667969 6.171875 -1.074219 C 5.5625 -0.25 4.722656 0.15625 3.648438 0.160156 C 2.785156 0.15625 2.085938 -0.0703125 1.546875 -0.53125 C 1.003906 -0.992188 0.679688 -1.613281 0.578125 -2.394531 Z M 0.578125 -2.394531 "/>
</symbol>
<symbol overflow="visible" id="glyph0-7">
<path style="stroke:none;" d="M 6.59375 -7.027344 L 4.867188 -6.835938 C 4.824219 -7.191406 4.714844 -7.453125 4.539063 -7.625 C 4.359375 -7.789063 4.128906 -7.875 3.847656 -7.878906 C 3.46875 -7.875 3.148438 -7.707031 2.890625 -7.371094 C 2.625 -7.03125 2.460938 -6.324219 2.398438 -5.257813 C 2.839844 -5.777344 3.394531 -6.039063 4.054688 -6.042969 C 4.796875 -6.039063 5.433594 -5.757813 5.96875 -5.191406 C 6.496094 -4.625 6.761719 -3.890625 6.765625 -2.996094 C 6.761719 -2.039063 6.480469 -1.277344 5.925781 -0.703125 C 5.363281 -0.128906 4.648438 0.15625 3.777344 0.160156 C 2.835938 0.15625 2.0625 -0.203125 1.457031 -0.933594 C 0.851563 -1.660156 0.550781 -2.859375 0.550781 -4.527344 C 0.550781 -6.230469 0.863281 -7.460938 1.496094 -8.214844 C 2.125 -8.964844 2.945313 -9.339844 3.953125 -9.34375 C 4.660156 -9.339844 5.246094 -9.140625 5.710938 -8.75 C 6.171875 -8.351563 6.464844 -7.777344 6.59375 -7.027344 Z M 2.550781 -3.136719 C 2.546875 -2.550781 2.679688 -2.105469 2.949219 -1.792969 C 3.214844 -1.476563 3.523438 -1.316406 3.867188 -1.320313 C 4.195313 -1.316406 4.46875 -1.445313 4.6875 -1.707031 C 4.90625 -1.960938 5.015625 -2.386719 5.019531 -2.976563 C 5.015625 -3.578125 4.898438 -4.019531 4.664063 -4.304688 C 4.425781 -4.585938 4.128906 -4.726563 3.777344 -4.730469 C 3.429688 -4.726563 3.140625 -4.59375 2.90625 -4.324219 C 2.667969 -4.054688 2.546875 -3.65625 2.550781 -3.136719 Z M 2.550781 -3.136719 "/>
</symbol>
<symbol overflow="visible" id="glyph0-8">
<path style="stroke:none;" d="M 0.933594 0 L 0.933594 -1.785156 L 2.71875 -1.785156 L 2.71875 0 Z M 0.933594 0 "/>
</symbol>
<symbol overflow="visible" id="glyph0-9">
<path style="stroke:none;" d="M 0.078125 0 L 2.507813 -3.472656 L 0.179688 -6.742188 L 2.355469 -6.742188 L 3.546875 -4.886719 L 4.804688 -6.742188 L 6.898438 -6.742188 L 4.613281 -3.546875 L 7.109375 0 L 4.917969 0 L 3.546875 -2.089844 L 2.164063 0 Z M 0.078125 0 "/>
</symbol>
<symbol overflow="visible" id="glyph1-0">
<path style="stroke:none;" d="M 0.8125 0 L 0.8125 -10.398438 L 5.6875 -10.398438 L 5.6875 0 Z M 1.625 -0.8125 L 4.875 -0.8125 L 4.875 -9.585938 L 1.625 -9.585938 Z M 1.625 -0.8125 "/>
</symbol>
<symbol overflow="visible" id="glyph1-1">
<path style="stroke:none;" d="M 7.046875 -2.5625 L 0.546875 -2.5625 L 0.546875 -4.203125 L 7.046875 -4.203125 Z M 7.046875 -2.5625 "/>
</symbol>
<symbol overflow="visible" id="glyph2-0">
<path style="stroke:none;" d="M 1.136719 0 L 4.394531 -9.585938 L 11.179688 -9.585938 L 7.921875 0 Z M 2.496094 -1.015625 L 7.257813 -1.015625 L 9.824219 -8.570313 L 5.0625 -8.570313 Z M 2.496094 -1.015625 "/>
</symbol>
<symbol overflow="visible" id="glyph2-1">
<path style="stroke:none;" d="M 12.074219 0.3125 L 0.738281 0.3125 L 1.113281 -0.792969 L 2.726563 -0.792969 L 4.972656 -7.40625 L 6.15625 -7.40625 L 3.90625 -0.792969 L 6.394531 -0.792969 L 9.265625 -9.242188 L 4.296875 -9.242188 L 4.683594 -10.382813 L 15.4375 -10.382813 L 15.050781 -9.242188 L 10.445313 -9.242188 L 9.308594 -5.890625 L 13.453125 -5.890625 L 13.070313 -4.761719 L 8.925781 -4.761719 L 7.574219 -0.792969 L 12.449219 -0.792969 Z M 12.074219 0.3125 "/>
</symbol>
<symbol overflow="visible" id="glyph2-2">
<path style="stroke:none;" d="M 12.097656 0.363281 L 10.828125 0.769531 C 10.886719 0.292969 10.90625 -0.0703125 10.894531 -0.335938 C 8.863281 0.0625 6.914063 0.34375 5.046875 0.519531 L 5.101563 -0.484375 C 6.503906 -1.324219 7.925781 -2.421875 9.371094 -3.78125 C 8.347656 -3.671875 7.429688 -3.585938 6.617188 -3.523438 L 6.675781 -4.5 C 7.714844 -5.25 8.867188 -6.410156 10.132813 -7.980469 L 7.785156 -7.980469 L 8.167969 -9.117188 L 11.050781 -9.117188 C 11.074219 -9.441406 11.007813 -9.910156 10.859375 -10.53125 L 12.152344 -10.789063 C 12.253906 -10.011719 12.296875 -9.457031 12.289063 -9.117188 L 15.265625 -9.117188 L 14.878906 -7.980469 L 11.507813 -7.980469 C 10.476563 -6.707031 9.414063 -5.617188 8.324219 -4.714844 C 9.019531 -4.765625 9.792969 -4.859375 10.644531 -5 L 12.542969 -6.984375 L 13.503906 -6.523438 C 11.105469 -3.929688 8.980469 -2.03125 7.128906 -0.820313 C 8.25 -0.945313 9.507813 -1.136719 10.898438 -1.402344 C 10.871094 -2.066406 10.816406 -2.597656 10.742188 -2.988281 L 11.964844 -3.421875 C 12.171875 -2.035156 12.214844 -0.773438 12.097656 0.363281 Z M 6.382813 -4.8125 C 5.792969 -3.273438 5.347656 -2.15625 5.042969 -1.460938 C 4.734375 -0.757813 4.464844 -0.285156 4.234375 -0.0390625 C 4.003906 0.210938 3.734375 0.386719 3.421875 0.492188 C 3.109375 0.59375 2.535156 0.644531 1.703125 0.648438 C 1.425781 0.644531 1.191406 0.636719 0.996094 0.621094 L 1.03125 -0.507813 C 1.789063 -0.484375 2.328125 -0.472656 2.65625 -0.476563 C 2.882813 -0.472656 3.0625 -0.5 3.1875 -0.550781 C 3.3125 -0.601563 3.414063 -0.675781 3.5 -0.777344 C 3.582031 -0.875 3.761719 -1.226563 4.039063 -1.832031 C 4.3125 -2.4375 4.570313 -3.0625 4.808594 -3.707031 L 2.210938 -3.707031 L 4.035156 -7.707031 L 6.128906 -7.707031 L 6.722656 -9.453125 L 4.054688 -9.453125 L 4.425781 -10.542969 L 8.234375 -10.542969 L 6.894531 -6.601563 L 4.699219 -6.601563 L 3.871094 -4.8125 Z M 6.382813 -4.8125 "/>
</symbol>
<symbol overflow="visible" id="glyph2-3">
<path style="stroke:none;" d="M 11.464844 0.691406 L 10.320313 0.691406 L 10.566406 -0.0234375 L 2.660156 -0.0234375 L 2.417969 0.691406 L 1.261719 0.691406 L 4.519531 -8.894531 L 7.511719 -8.894531 L 8.113281 -10.671875 L 9.28125 -10.671875 L 8.679688 -8.894531 L 10.539063 -8.894531 L 11.140625 -10.671875 L 12.296875 -10.671875 L 11.691406 -8.894531 L 14.722656 -8.894531 Z M 12.300781 -5.136719 L 13.203125 -7.789063 L 11.316406 -7.789063 L 10.417969 -5.136719 Z M 9.261719 -5.136719 L 10.164063 -7.789063 L 8.300781 -7.789063 L 7.402344 -5.136719 Z M 6.234375 -5.136719 L 7.132813 -7.789063 L 5.300781 -7.789063 L 4.398438 -5.136719 Z M 10.949219 -1.15625 L 11.925781 -4.03125 L 10.039063 -4.03125 L 9.0625 -1.15625 Z M 7.910156 -1.15625 L 8.886719 -4.03125 L 7.027344 -4.03125 L 6.046875 -1.15625 Z M 4.878906 -1.15625 L 5.859375 -4.03125 L 4.023438 -4.03125 L 3.046875 -1.15625 Z M 4.878906 -1.15625 "/>
</symbol>
<symbol overflow="visible" id="glyph2-4">
<path style="stroke:none;" d="M 8.160156 -8.175781 C 6.769531 -6.441406 5.308594 -4.863281 3.78125 -3.433594 C 4.328125 -3.574219 5.199219 -3.851563 6.386719 -4.265625 L 6.285156 -3.199219 C 4.742188 -2.675781 3.285156 -2.25 1.917969 -1.921875 L 1.921875 -2.953125 C 2.925781 -3.753906 3.957031 -4.75 5.023438 -5.941406 C 4.347656 -5.785156 3.714844 -5.664063 3.121094 -5.578125 L 3.136719 -6.5625 C 4.316406 -7.640625 5.527344 -9.046875 6.769531 -10.789063 L 7.664063 -10.398438 C 6.765625 -9.121094 5.800781 -7.960938 4.769531 -6.917969 C 5.171875 -6.96875 5.632813 -7.074219 6.152344 -7.230469 C 6.53125 -7.628906 6.921875 -8.109375 7.328125 -8.671875 Z M 12.835938 -1.703125 C 12.046875 -0.101563 11.257813 0.695313 10.464844 0.699219 C 10.160156 0.695313 9.871094 0.542969 9.605469 0.242188 C 9.335938 -0.0625 9.136719 -0.472656 9 -1.003906 C 7.832031 -0.371094 6.472656 0.207031 4.921875 0.742188 L 4.652344 -0.222656 C 6.199219 -0.6875 7.605469 -1.277344 8.878906 -2 C 8.832031 -2.726563 8.921875 -3.5625 9.148438 -4.5 L 6.703125 -4.203125 L 6.941406 -5.273438 L 9.390625 -5.59375 C 9.527344 -6.191406 9.660156 -6.671875 9.785156 -7.03125 L 7.964844 -6.796875 L 8.1875 -7.878906 L 10.101563 -8.113281 L 10.914063 -10.65625 L 12.050781 -10.714844 C 11.859375 -10.179688 11.597656 -9.359375 11.265625 -8.25 L 14.5625 -8.644531 L 14.355469 -7.59375 L 10.949219 -7.171875 C 10.785156 -6.71875 10.65625 -6.234375 10.5625 -5.71875 L 14.160156 -6.164063 L 13.964844 -5.097656 L 10.289063 -4.652344 C 10.109375 -4.015625 10.019531 -3.371094 10.027344 -2.71875 C 10.6875 -3.140625 11.40625 -3.726563 12.179688 -4.476563 L 12.851563 -3.910156 C 12 -3.066406 11.085938 -2.320313 10.105469 -1.664063 C 10.210938 -1.289063 10.332031 -0.996094 10.46875 -0.789063 C 10.601563 -0.578125 10.710938 -0.472656 10.800781 -0.476563 C 10.855469 -0.472656 10.917969 -0.496094 10.980469 -0.539063 C 11.039063 -0.578125 11.183594 -0.769531 11.414063 -1.121094 C 11.640625 -1.464844 11.839844 -1.824219 12.019531 -2.195313 Z M 14.511719 -9.527344 L 13.53125 -8.722656 C 13.199219 -9.128906 12.777344 -9.480469 12.265625 -9.773438 L 13.273438 -10.59375 C 13.773438 -10.265625 14.1875 -9.910156 14.511719 -9.527344 Z M 5.902344 -1.117188 C 4.113281 -0.429688 2.464844 0.105469 0.949219 0.496094 L 0.945313 -0.519531 C 2.179688 -0.808594 3.847656 -1.351563 5.941406 -2.144531 Z M 5.902344 -1.117188 "/>
</symbol>
<symbol overflow="visible" id="glyph3-0">
<path style="stroke:none;" d="M 2.25 0 L 2.25 -11.25 L 11.25 -11.25 L 11.25 0 Z M 2.53125 -0.28125 L 10.96875 -0.28125 L 10.96875 -10.96875 L 2.53125 -10.96875 Z M 2.53125 -0.28125 "/>
</symbol>
<symbol overflow="visible" id="glyph3-1">
<path style="stroke:none;" d="M 4.9375 -12.9375 C 6.183594 -12.9375 7.160156 -12.492188 7.867188 -11.601563 C 8.703125 -10.546875 9.121094 -8.796875 9.125 -6.355469 C 9.121094 -3.914063 8.699219 -2.160156 7.859375 -1.097656 C 7.15625 -0.21875 6.183594 0.214844 4.9375 0.21875 C 3.683594 0.214844 2.671875 -0.261719 1.90625 -1.226563 C 1.136719 -2.1875 0.753906 -3.90625 0.757813 -6.382813 C 0.753906 -8.804688 1.175781 -10.550781 2.023438 -11.617188 C 2.714844 -12.496094 3.6875 -12.9375 4.9375 -12.9375 Z M 4.9375 -10.890625 C 4.636719 -10.886719 4.371094 -10.792969 4.140625 -10.605469 C 3.902344 -10.414063 3.71875 -10.070313 3.59375 -9.578125 C 3.421875 -8.9375 3.339844 -7.863281 3.339844 -6.355469 C 3.339844 -4.839844 3.414063 -3.800781 3.566406 -3.238281 C 3.71875 -2.671875 3.910156 -2.296875 4.144531 -2.109375 C 4.371094 -1.921875 4.636719 -1.828125 4.9375 -1.828125 C 5.234375 -1.828125 5.5 -1.921875 5.738281 -2.113281 C 5.96875 -2.300781 6.152344 -2.640625 6.285156 -3.136719 C 6.453125 -3.765625 6.539063 -4.839844 6.539063 -6.355469 C 6.539063 -7.863281 6.460938 -8.902344 6.308594 -9.46875 C 6.15625 -10.035156 5.964844 -10.414063 5.734375 -10.605469 C 5.5 -10.792969 5.234375 -10.886719 4.9375 -10.890625 Z M 4.9375 -10.890625 "/>
</symbol>
<symbol overflow="visible" id="glyph3-2">
<path style="stroke:none;" d="M 1.292969 0 L 1.292969 -2.46875 L 3.761719 -2.46875 L 3.761719 0 Z M 1.292969 0 "/>
</symbol>
<symbol overflow="visible" id="glyph3-3">
<path style="stroke:none;" d="M 0.800781 -3.3125 L 3.261719 -3.570313 C 3.328125 -3.007813 3.535156 -2.566406 3.882813 -2.246094 C 4.226563 -1.917969 4.625 -1.757813 5.078125 -1.757813 C 5.589844 -1.757813 6.027344 -1.964844 6.386719 -2.386719 C 6.746094 -2.800781 6.925781 -3.433594 6.925781 -4.28125 C 6.925781 -5.070313 6.746094 -5.664063 6.394531 -6.058594 C 6.035156 -6.453125 5.574219 -6.648438 5.007813 -6.652344 C 4.296875 -6.648438 3.660156 -6.335938 3.101563 -5.710938 L 1.097656 -6.003906 L 2.363281 -12.710938 L 8.894531 -12.710938 L 8.894531 -10.398438 L 4.234375 -10.398438 L 3.851563 -8.210938 C 4.398438 -8.480469 4.960938 -8.617188 5.539063 -8.621094 C 6.628906 -8.617188 7.558594 -8.21875 8.320313 -7.425781 C 9.082031 -6.625 9.460938 -5.59375 9.464844 -4.324219 C 9.460938 -3.261719 9.15625 -2.3125 8.542969 -1.484375 C 7.703125 -0.347656 6.539063 0.214844 5.054688 0.21875 C 3.863281 0.214844 2.894531 -0.101563 2.144531 -0.738281 C 1.394531 -1.375 0.945313 -2.230469 0.800781 -3.3125 Z M 0.800781 -3.3125 "/>
</symbol>
<symbol overflow="visible" id="glyph3-4">
<path style="stroke:none;" d="M 0.421875 -2.664063 L 2.898438 -3.039063 C 3.003906 -2.558594 3.21875 -2.195313 3.539063 -1.945313 C 3.859375 -1.695313 4.308594 -1.570313 4.894531 -1.574219 C 5.527344 -1.570313 6.007813 -1.6875 6.335938 -1.925781 C 6.550781 -2.085938 6.660156 -2.304688 6.664063 -2.585938 C 6.660156 -2.769531 6.601563 -2.925781 6.484375 -3.050781 C 6.359375 -3.164063 6.085938 -3.273438 5.660156 -3.375 C 3.667969 -3.8125 2.402344 -4.210938 1.871094 -4.578125 C 1.128906 -5.078125 0.761719 -5.78125 0.765625 -6.679688 C 0.761719 -7.484375 1.082031 -8.164063 1.722656 -8.71875 C 2.359375 -9.269531 3.347656 -9.542969 4.695313 -9.546875 C 5.96875 -9.542969 6.917969 -9.335938 7.539063 -8.921875 C 8.160156 -8.503906 8.589844 -7.886719 8.824219 -7.074219 L 6.496094 -6.644531 C 6.390625 -7.003906 6.199219 -7.28125 5.925781 -7.476563 C 5.644531 -7.671875 5.25 -7.769531 4.738281 -7.769531 C 4.085938 -7.769531 3.621094 -7.675781 3.339844 -7.496094 C 3.152344 -7.363281 3.058594 -7.199219 3.058594 -6.996094 C 3.058594 -6.820313 3.140625 -6.667969 3.304688 -6.546875 C 3.527344 -6.378906 4.296875 -6.148438 5.613281 -5.851563 C 6.925781 -5.550781 7.84375 -5.183594 8.367188 -4.753906 C 8.882813 -4.308594 9.140625 -3.699219 9.140625 -2.917969 C 9.140625 -2.058594 8.78125 -1.320313 8.066406 -0.710938 C 7.351563 -0.09375 6.292969 0.210938 4.894531 0.210938 C 3.621094 0.210938 2.617188 -0.046875 1.875 -0.5625 C 1.132813 -1.078125 0.648438 -1.777344 0.421875 -2.664063 Z M 0.421875 -2.664063 "/>
</symbol>
<symbol overflow="visible" id="glyph3-5">
<path style="stroke:none;" d="M 1.292969 -10.601563 L 1.292969 -12.882813 L 3.761719 -12.882813 L 3.761719 -10.601563 Z M 1.292969 0 L 1.292969 -9.335938 L 3.761719 -9.335938 L 3.761719 0 Z M 1.292969 0 "/>
</symbol>
<symbol overflow="visible" id="glyph3-6">
<path style="stroke:none;" d="M 9.78125 0 L 7.3125 0 L 7.3125 -4.765625 C 7.3125 -5.765625 7.257813 -6.417969 7.152344 -6.71875 C 7.046875 -7.011719 6.875 -7.242188 6.640625 -7.410156 C 6.398438 -7.570313 6.113281 -7.652344 5.78125 -7.65625 C 5.351563 -7.652344 4.96875 -7.535156 4.628906 -7.304688 C 4.289063 -7.066406 4.054688 -6.753906 3.929688 -6.371094 C 3.800781 -5.980469 3.738281 -5.265625 3.742188 -4.226563 L 3.742188 0 L 1.273438 0 L 1.273438 -9.335938 L 3.570313 -9.335938 L 3.570313 -7.960938 C 4.378906 -9.015625 5.40625 -9.542969 6.644531 -9.546875 C 7.1875 -9.542969 7.683594 -9.445313 8.136719 -9.25 C 8.585938 -9.050781 8.925781 -8.800781 9.160156 -8.5 C 9.386719 -8.191406 9.550781 -7.84375 9.644531 -7.460938 C 9.734375 -7.070313 9.777344 -6.519531 9.78125 -5.800781 Z M 9.78125 0 "/>
</symbol>
<symbol overflow="visible" id="glyph3-7">
<path style="stroke:none;" d="M 9.105469 -2.292969 L 9.105469 0 L 0.449219 0 C 0.539063 -0.867188 0.820313 -1.6875 1.292969 -2.464844 C 1.757813 -3.238281 2.683594 -4.269531 4.070313 -5.554688 C 5.179688 -6.589844 5.863281 -7.292969 6.117188 -7.664063 C 6.453125 -8.171875 6.621094 -8.675781 6.625 -9.175781 C 6.621094 -9.722656 6.472656 -10.144531 6.179688 -10.445313 C 5.882813 -10.738281 5.476563 -10.886719 4.957031 -10.890625 C 4.441406 -10.886719 4.03125 -10.730469 3.726563 -10.421875 C 3.421875 -10.109375 3.246094 -9.59375 3.199219 -8.875 L 0.738281 -9.125 C 0.882813 -10.480469 1.339844 -11.457031 2.117188 -12.050781 C 2.886719 -12.640625 3.855469 -12.9375 5.019531 -12.9375 C 6.289063 -12.9375 7.289063 -12.59375 8.015625 -11.910156 C 8.742188 -11.222656 9.105469 -10.371094 9.105469 -9.351563 C 9.105469 -8.769531 9 -8.214844 8.792969 -7.691406 C 8.582031 -7.164063 8.253906 -6.617188 7.804688 -6.046875 C 7.503906 -5.664063 6.964844 -5.113281 6.1875 -4.402344 C 5.40625 -3.683594 4.910156 -3.210938 4.707031 -2.980469 C 4.496094 -2.742188 4.328125 -2.511719 4.203125 -2.292969 Z M 9.105469 -2.292969 "/>
</symbol>
<symbol overflow="visible" id="glyph4-0">
<path style="stroke:none;" d="M 1.125 0 L 1.125 -14.398438 L 7.875 -14.398438 L 7.875 0 Z M 2.25 -1.125 L 6.75 -1.125 L 6.75 -13.273438 L 2.25 -13.273438 Z M 2.25 -1.125 "/>
</symbol>
<symbol overflow="visible" id="glyph4-1">
<path style="stroke:none;" d="M 5.414063 -13.105469 C 5.089844 -12.398438 4.796875 -11.707031 4.542969 -11.03125 C 4.28125 -10.347656 4.0625 -9.660156 3.882813 -8.972656 C 3.699219 -8.277344 3.558594 -7.574219 3.460938 -6.859375 C 3.359375 -6.136719 3.308594 -5.386719 3.3125 -4.605469 C 3.308594 -3.855469 3.359375 -3.121094 3.457031 -2.40625 C 3.550781 -1.691406 3.6875 -0.988281 3.875 -0.296875 C 4.054688 0.394531 4.273438 1.074219 4.527344 1.753906 C 4.777344 2.425781 5.0625 3.101563 5.378906 3.78125 L 3.691406 3.78125 C 3.273438 3.15625 2.894531 2.507813 2.554688 1.835938 C 2.214844 1.160156 1.925781 0.472656 1.6875 -0.238281 C 1.445313 -0.949219 1.257813 -1.675781 1.128906 -2.414063 C 0.992188 -3.152344 0.925781 -3.898438 0.929688 -4.65625 C 0.925781 -5.410156 0.992188 -6.160156 1.125 -6.90625 C 1.253906 -7.648438 1.4375 -8.375 1.683594 -9.089844 C 1.921875 -9.800781 2.214844 -10.496094 2.5625 -11.167969 C 2.902344 -11.839844 3.292969 -12.484375 3.726563 -13.105469 Z M 5.414063 -13.105469 "/>
</symbol>
<symbol overflow="visible" id="glyph4-2">
<path style="stroke:none;" d="M 5.054688 -4.808594 C 5.050781 -4.039063 4.984375 -3.28125 4.859375 -2.53125 C 4.726563 -1.78125 4.542969 -1.042969 4.304688 -0.316406 C 4.0625 0.410156 3.773438 1.113281 3.441406 1.800781 C 3.101563 2.480469 2.722656 3.140625 2.304688 3.78125 L 0.617188 3.78125 C 0.921875 3.121094 1.203125 2.453125 1.460938 1.769531 C 1.710938 1.085938 1.929688 0.398438 2.113281 -0.300781 C 2.289063 -0.996094 2.429688 -1.707031 2.53125 -2.429688 C 2.628906 -3.144531 2.675781 -3.871094 2.679688 -4.605469 C 2.675781 -5.386719 2.628906 -6.136719 2.535156 -6.859375 C 2.4375 -7.574219 2.300781 -8.277344 2.121094 -8.96875 C 1.941406 -9.652344 1.722656 -10.335938 1.46875 -11.019531 C 1.207031 -11.695313 0.917969 -12.390625 0.597656 -13.105469 L 2.265625 -13.105469 C 2.691406 -12.5 3.078125 -11.867188 3.421875 -11.210938 C 3.765625 -10.546875 4.054688 -9.867188 4.296875 -9.167969 C 4.53125 -8.460938 4.71875 -7.742188 4.855469 -7.015625 C 4.984375 -6.28125 5.050781 -5.546875 5.054688 -4.808594 Z M 5.054688 -4.808594 "/>
</symbol>
<symbol overflow="visible" id="glyph5-0">
<path style="stroke:none;" d="M 2.25 0 L 2.25 -11.25 L 11.25 -11.25 L 11.25 0 Z M 2.53125 -0.28125 L 10.96875 -0.28125 L 10.96875 -10.96875 L 2.53125 -10.96875 Z M 2.53125 -0.28125 "/>
</symbol>
<symbol overflow="visible" id="glyph5-1">
<path style="stroke:none;" d="M 5.019531 -2.617188 L 2.699219 0 L -0.394531 0 L 3.921875 -4.78125 L 1.546875 -9.335938 L 4.226563 -9.335938 L 5.589844 -6.671875 L 7.953125 -9.335938 L 11.023438 -9.335938 L 6.6875 -4.492188 L 9.042969 0 L 6.363281 0 Z M 5.019531 -2.617188 "/>
</symbol>
</g>
<clipPath id="clip1">
  <path d="M 29 26 L 330 26 L 330 209 L 29 209 Z M 29 26 "/>
</clipPath>
</defs>
<g id="surface20748">
<rect x="0" y="0" width="350" height="252" style="fill:rgb(99.998474%,99.998474%,99.998474%);fill-opacity:1;stroke:none;"/>
<path style="fill:none;stroke-width:0.03;stroke-linecap:square;stroke-linejoin:miter;stroke:rgb(99.998474%,99.998474%,99.998474%);stroke-opacity:1;stroke-miterlimit:10;" d="M 0 124 L 350 124 L 350 -128 L 0 -128 Z M 0 124 " transform="matrix(1,0,0,1,0,128)"/>
<g clip-path="url(#clip1)" clip-rule="nonzero">
<path style="fill:none;stroke-width:1.6;stroke-linecap:square;stroke-linejoin:miter;stroke:rgb(36.84082%,50.67749%,70.979309%);stroke-opacity:1;stroke-miterlimit:3.25;" d="M 110 130.703125 L 110.089844 130.382813 L 110.175781 130.0625 L 110.351563 129.417969 L 110.707031 128.132813 L 111.414063 125.5625 L 112.828125 120.441406 L 115.652344 110.332031 L 121.78125 89.679688 L 121.871094 89.394531 L 122.140625 88.550781 L 122.496094 87.429688 L 123.210938 85.226563 L 124.644531 80.949219 L 124.730469 80.691406 L 124.820313 80.429688 L 125 79.910156 L 125.359375 78.886719 L 126.074219 76.871094 L 127.503906 73 L 127.589844 72.769531 L 127.679688 72.539063 L 127.855469 72.082031 L 128.207031 71.183594 L 128.90625 69.421875 L 130.308594 66.074219 L 130.398438 65.871094 L 130.484375 65.671875 L 130.660156 65.273438 L 131.011719 64.488281 L 131.710938 62.96875 L 133.113281 60.113281 L 133.210938 59.929688 L 133.304688 59.746094 L 133.496094 59.386719 L 133.875 58.675781 L 134.636719 57.320313 L 134.824219 56.992188 L 135.015625 56.671875 L 135.394531 56.042969 L 136.15625 54.847656 L 136.253906 54.703125 L 136.347656 54.5625 L 136.539063 54.28125 L 136.917969 53.738281 L 137.679688 52.710938 L 137.867188 52.46875 L 138.058594 52.230469 L 138.4375 51.769531 L 139.199219 50.917969 L 139.378906 50.730469 L 139.554688 50.546875 L 139.910156 50.199219 L 140 50.113281 L 140.085938 50.03125 L 140.265625 49.871094 L 140.621094 49.558594 L 140.707031 49.484375 L 140.796875 49.410156 L 140.976563 49.269531 L 141.328125 48.996094 L 141.417969 48.933594 L 141.507813 48.867188 L 141.683594 48.746094 L 142.039063 48.511719 L 142.128906 48.457031 L 142.21875 48.40625 L 142.394531 48.300781 L 142.75 48.109375 L 142.839844 48.0625 L 142.925781 48.019531 L 143.105469 47.933594 L 143.460938 47.78125 L 143.546875 47.746094 L 143.636719 47.714844 L 143.816406 47.648438 L 143.902344 47.621094 L 143.992188 47.589844 L 144.167969 47.535156 L 144.4375 47.464844 L 144.523438 47.441406 L 144.703125 47.402344 L 144.878906 47.371094 L 144.976563 47.355469 L 145.070313 47.339844 L 145.167969 47.324219 L 145.265625 47.3125 L 145.359375 47.304688 L 145.457031 47.292969 L 145.550781 47.285156 L 145.746094 47.277344 L 145.839844 47.273438 L 145.9375 47.269531 L 146.035156 47.269531 L 146.128906 47.273438 L 146.226563 47.273438 L 146.320313 47.277344 L 146.515625 47.292969 L 146.609375 47.300781 L 146.707031 47.308594 L 146.804688 47.320313 L 146.898438 47.335938 L 146.996094 47.347656 L 147.089844 47.363281 L 147.285156 47.402344 L 147.378906 47.421875 L 147.476563 47.445313 L 147.570313 47.464844 L 147.765625 47.519531 L 147.957031 47.574219 L 148.054688 47.605469 L 148.148438 47.636719 L 148.339844 47.707031 L 148.4375 47.742188 L 148.535156 47.78125 L 148.726563 47.859375 L 148.824219 47.902344 L 148.917969 47.945313 L 149.109375 48.039063 L 149.496094 48.238281 L 149.59375 48.292969 L 149.6875 48.347656 L 149.878906 48.464844 L 150.265625 48.710938 L 150.359375 48.777344 L 150.457031 48.84375 L 150.648438 48.980469 L 151.035156 49.277344 L 151.128906 49.351563 L 151.222656 49.429688 L 151.414063 49.585938 L 151.789063 49.917969 L 152.546875 50.648438 L 152.640625 50.746094 L 152.734375 50.847656 L 152.921875 51.046875 L 153.300781 51.46875 L 154.054688 52.371094 L 154.148438 52.492188 L 154.246094 52.613281 L 154.433594 52.855469 L 154.8125 53.359375 L 155.566406 54.433594 L 157.078125 56.828125 L 157.164063 56.976563 L 157.253906 57.128906 L 157.429688 57.433594 L 157.78125 58.054688 L 158.488281 59.351563 L 159.894531 62.140625 L 159.984375 62.324219 L 160.070313 62.507813 L 160.246094 62.882813 L 160.601563 63.636719 L 161.304688 65.191406 L 162.714844 68.492188 L 162.808594 68.722656 L 162.90625 68.957031 L 163.097656 69.425781 L 163.476563 70.378906 L 164.242188 72.335938 L 165.769531 76.4375 L 168.824219 85.34375 L 174.53125 103.996094 L 180.125 123.890625 L 186.195313 145.894531 L 191.859375 165.5 L 191.953125 165.816406 L 192.050781 166.132813 L 192.242188 166.761719 L 192.625 168.015625 L 193.394531 170.496094 L 194.929688 175.3125 L 195.023438 175.605469 L 195.121094 175.902344 L 195.3125 176.488281 L 195.695313 177.648438 L 196.460938 179.929688 L 197.996094 184.328125 L 198.183594 184.851563 L 198.375 185.371094 L 198.75 186.398438 L 199.503906 188.410156 L 201.011719 192.246094 L 201.199219 192.707031 L 201.386719 193.164063 L 201.761719 194.0625 L 202.515625 195.8125 L 204.023438 199.101563 L 204.113281 199.28125 L 204.199219 199.464844 L 204.375 199.824219 L 204.726563 200.53125 L 205.429688 201.898438 L 205.515625 202.066406 L 205.605469 202.230469 L 205.78125 202.558594 L 206.132813 203.199219 L 206.832031 204.429688 L 206.921875 204.582031 L 207.007813 204.726563 L 207.183594 205.019531 L 207.535156 205.59375 L 208.238281 206.6875 L 209.644531 208.65625 L 209.738281 208.777344 L 209.835938 208.898438 L 210.023438 209.140625 L 210.40625 209.601563 L 211.167969 210.460938 L 211.261719 210.5625 L 211.359375 210.660156 L 211.546875 210.855469 L 211.929688 211.230469 L 212.691406 211.910156 L 212.785156 211.992188 L 212.882813 212.066406 L 213.074219 212.21875 L 213.453125 212.503906 L 213.550781 212.570313 L 213.644531 212.636719 L 213.835938 212.765625 L 214.214844 213.003906 L 214.3125 213.0625 L 214.40625 213.117188 L 214.597656 213.222656 L 214.691406 213.273438 L 214.789063 213.320313 L 214.976563 213.414063 L 215.074219 213.460938 L 215.167969 213.503906 L 215.359375 213.585938 L 215.738281 213.734375 L 215.917969 213.796875 L 216.09375 213.851563 L 216.183594 213.878906 L 216.273438 213.902344 L 216.449219 213.949219 L 216.539063 213.96875 L 216.628906 213.992188 L 216.71875 214.007813 L 216.804688 214.027344 L 216.984375 214.058594 L 217.074219 214.070313 L 217.160156 214.082031 L 217.339844 214.105469 L 217.519531 214.121094 L 217.605469 214.128906 L 217.785156 214.136719 L 217.875 214.136719 L 217.960938 214.140625 L 218.050781 214.140625 L 218.140625 214.136719 L 218.230469 214.136719 L 218.316406 214.132813 L 218.40625 214.125 L 218.496094 214.121094 L 218.585938 214.113281 L 218.671875 214.105469 L 218.941406 214.070313 L 219.027344 214.054688 L 219.296875 214.007813 L 219.382813 213.988281 L 219.472656 213.96875 L 219.652344 213.921875 L 219.738281 213.898438 L 219.828125 213.875 L 220.097656 213.792969 L 220.183594 213.761719 L 220.363281 213.695313 L 220.453125 213.664063 L 220.539063 213.628906 L 220.71875 213.554688 L 220.808594 213.515625 L 220.894531 213.472656 L 221.074219 213.390625 L 221.429688 213.207031 L 221.527344 213.15625 L 221.621094 213.101563 L 221.816406 212.988281 L 222.199219 212.742188 L 222.296875 212.679688 L 222.394531 212.613281 L 222.585938 212.476563 L 222.96875 212.183594 L 223.066406 212.109375 L 223.164063 212.03125 L 223.355469 211.871094 L 223.742188 211.535156 L 224.511719 210.792969 L 224.609375 210.695313 L 224.703125 210.59375 L 224.898438 210.390625 L 225.28125 209.960938 L 226.054688 209.042969 L 226.148438 208.921875 L 226.246094 208.796875 L 226.4375 208.546875 L 226.824219 208.03125 L 227.59375 206.933594 L 227.6875 206.792969 L 227.785156 206.652344 L 227.972656 206.363281 L 228.351563 205.773438 L 229.109375 204.53125 L 230.621094 201.804688 L 230.714844 201.625 L 230.808594 201.441406 L 231 201.074219 L 231.378906 200.324219 L 232.132813 198.769531 L 233.648438 195.4375 L 233.734375 195.234375 L 233.824219 195.03125 L 234 194.617188 L 234.351563 193.785156 L 235.058594 192.074219 L 236.472656 188.476563 L 239.292969 180.644531 L 239.390625 180.363281 L 239.484375 180.082031 L 239.675781 179.519531 L 240.058594 178.382813 L 240.824219 176.070313 L 242.355469 171.296875 L 245.417969 161.226563 L 251.132813 141.117188 L 256.738281 120.765625 L 262.816406 99.394531 L 262.90625 99.097656 L 262.992188 98.796875 L 263.171875 98.203125 L 263.523438 97.019531 L 264.234375 94.671875 L 265.652344 90.085938 L 268.488281 81.402344 L 268.585938 81.121094 L 268.679688 80.839844 L 268.875 80.277344 L 269.257813 79.171875 L 270.027344 77 L 271.5625 72.839844 L 271.660156 72.589844 L 271.753906 72.339844 L 271.949219 71.84375 L 272.332031 70.859375 L 273.101563 68.941406 L 274.636719 65.324219 L 274.730469 65.109375 L 274.828125 64.898438 L 275.015625 64.476563 L 275.394531 63.652344 L 276.148438 62.054688 L 277.65625 59.082031 L 277.84375 58.730469 L 278.035156 58.386719 L 278.410156 57.710938 L 279.164063 56.421875 L 280.675781 54.082031 L 280.761719 53.957031 L 280.851563 53.832031 L 281.027344 53.585938 L 281.378906 53.105469 L 282.082031 52.199219 L 282.171875 52.09375 L 282.257813 51.984375 L 282.433594 51.777344 L 282.785156 51.371094 L 283.488281 50.613281 L 283.664063 50.4375 L 283.839844 50.265625 L 284.195313 49.933594 L 284.28125 49.855469 L 284.371094 49.777344 L 284.546875 49.621094 L 284.898438 49.328125 L 284.984375 49.257813 L 285.074219 49.191406 L 285.25 49.054688 L 285.601563 48.800781 L 285.6875 48.742188 L 285.777344 48.683594 L 285.953125 48.566406 L 286.304688 48.351563 L 286.402344 48.296875 L 286.496094 48.242188 L 286.6875 48.140625 L 286.78125 48.089844 L 286.878906 48.042969 L 287.066406 47.953125 L 287.164063 47.910156 L 287.257813 47.867188 L 287.449219 47.785156 L 287.832031 47.644531 L 287.925781 47.613281 L 288.023438 47.582031 L 288.214844 47.523438 L 288.308594 47.496094 L 288.402344 47.472656 L 288.59375 47.425781 L 288.691406 47.40625 L 288.785156 47.386719 L 288.882813 47.371094 L 289.070313 47.339844 L 289.167969 47.324219 L 289.261719 47.3125 L 289.359375 47.304688 L 289.453125 47.292969 L 289.546875 47.285156 L 289.644531 47.28125 L 289.738281 47.277344 L 289.835938 47.273438 L 289.929688 47.269531 L 290.027344 47.269531 L 290.121094 47.273438 L 290.214844 47.273438 L 290.3125 47.277344 L 290.40625 47.285156 L 290.503906 47.289063 L 290.597656 47.300781 L 290.695313 47.308594 L 290.882813 47.332031 L 290.980469 47.347656 L 291.074219 47.363281 L 291.171875 47.378906 L 291.265625 47.398438 L 291.363281 47.417969 L 291.457031 47.4375 L 291.648438 47.484375 L 291.742188 47.511719 L 291.839844 47.539063 L 292.03125 47.597656 L 292.21875 47.660156 L 292.410156 47.730469 L 292.589844 47.800781 L 292.765625 47.878906 L 293.125 48.042969 L 293.210938 48.089844 L 293.300781 48.132813 L 293.480469 48.230469 L 293.835938 48.4375 L 294.015625 48.546875 L 294.191406 48.664063 L 294.546875 48.90625 L 295.261719 49.460938 L 295.351563 49.535156 L 295.4375 49.609375 L 295.617188 49.765625 L 295.972656 50.089844 L 296.6875 50.796875 L 296.773438 50.890625 L 296.863281 50.984375 L 297.042969 51.179688 L 297.398438 51.578125 L 298.109375 52.441406 L 298.199219 52.550781 L 298.285156 52.664063 L 298.460938 52.890625 L 298.808594 53.359375 L 299.507813 54.347656 L 300.90625 56.539063 L 300.992188 56.683594 L 301.078125 56.832031 L 301.253906 57.128906 L 301.601563 57.738281 L 302.300781 59.003906 L 303.699219 61.734375 L 303.886719 62.125 L 304.078125 62.519531 L 304.457031 63.324219 L 305.214844 64.988281 L 306.730469 68.53125 L 309.761719 76.410156 L 309.851563 76.65625 L 309.9375 76.902344 L 310.113281 77.394531 L 310.46875 78.390625 L 311.175781 80.421875 L 312.589844 84.625 L 315.417969 93.535156 L 321.550781 114.609375 L 327.277344 135.351563 L 332.890625 155.414063 L 338.980469 175.476563 L 339.070313 175.746094 L 339.15625 176.019531 L 339.335938 176.558594 L 339.691406 177.636719 L 340.402344 179.75 L 341.820313 183.839844 L 341.910156 184.085938 L 342 184.335938 L 342.175781 184.828125 L 342.53125 185.808594 L 343.242188 187.722656 L 344.664063 191.386719 L 344.761719 191.625 L 344.855469 191.863281 L 345.050781 192.339844 L 345.433594 193.277344 L 346.203125 195.09375 L 347.742188 198.511719 L 347.9375 198.917969 L 348.128906 199.316406 L 348.511719 200.105469 L 349.28125 201.621094 L 350.824219 204.414063 L 350.917969 204.574219 L 351.011719 204.730469 L 351.199219 205.046875 L 351.578125 205.660156 L 352.335938 206.828125 L 352.523438 207.109375 L 352.710938 207.382813 L 353.089844 207.914063 L 353.847656 208.914063 L 353.941406 209.035156 L 354.035156 209.152344 L 354.222656 209.382813 L 354.601563 209.832031 L 355.359375 210.660156 L 355.546875 210.855469 L 355.734375 211.042969 L 356.113281 211.402344 L 356.871094 212.058594 L 356.957031 212.128906 L 357.046875 212.199219 L 357.222656 212.332031 L 357.574219 212.589844 L 357.664063 212.648438 L 357.75 212.710938 L 357.925781 212.824219 L 358.28125 213.042969 L 358.367188 213.09375 L 358.457031 213.144531 L 358.632813 213.242188 L 358.71875 213.285156 L 358.808594 213.332031 L 358.984375 213.417969 L 359.074219 213.460938 L 359.160156 213.5 L 359.335938 213.578125 L 359.691406 213.714844 L 359.777344 213.746094 L 359.867188 213.777344 L 360.042969 213.835938 L 360.128906 213.863281 L 360.21875 213.886719 L 360.394531 213.933594 L 360.484375 213.957031 L 360.570313 213.976563 L 360.660156 213.996094 L 360.746094 214.015625 L 360.835938 214.03125 L 360.921875 214.046875 L 361.011719 214.0625 L 361.101563 214.074219 L 361.1875 214.085938 L 361.277344 214.097656 L 361.363281 214.109375 L 361.453125 214.117188 L 361.539063 214.121094 L 361.628906 214.128906 L 361.71875 214.132813 L 361.804688 214.136719 L 361.894531 214.140625 L 362.070313 214.140625 L 362.15625 214.136719 L 362.246094 214.136719 L 362.332031 214.132813 L 362.511719 214.117188 L 362.605469 214.109375 L 362.703125 214.101563 L 362.890625 214.078125 L 362.988281 214.0625 L 363.082031 214.046875 L 363.179688 214.03125 L 363.273438 214.011719 L 363.371094 213.992188 L 363.464844 213.96875 L 363.65625 213.921875 L 363.753906 213.894531 L 363.847656 213.867188 L 364.039063 213.808594 L 364.132813 213.777344 L 364.230469 213.746094 L 364.421875 213.675781 L 364.515625 213.636719 L 364.613281 213.597656 L 364.804688 213.515625 L 364.898438 213.472656 L 364.996094 213.429688 L 365.1875 213.335938 L 365.566406 213.128906 L 365.664063 213.074219 L 365.757813 213.019531 L 365.949219 212.902344 L 366.332031 212.652344 L 366.429688 212.585938 L 366.523438 212.519531 L 366.714844 212.378906 L 367.097656 212.085938 L 367.191406 212.007813 L 367.289063 211.929688 L 367.480469 211.765625 L 367.863281 211.425781 L 368.625 210.675781 L 368.804688 210.488281 L 368.984375 210.296875 L 369.339844 209.898438 L 370.054688 209.042969 L 370.144531 208.929688 L 370.230469 208.816406 L 370.410156 208.585938 L 370.765625 208.109375 L 371.480469 207.101563 L 371.570313 206.96875 L 371.660156 206.839844 L 371.839844 206.570313 L 372.195313 206.019531 L 372.910156 204.867188 L 374.335938 202.34375 L 374.421875 202.179688 L 374.511719 202.011719 L 374.6875 201.679688 L 375.035156 201.003906 L 375.734375 199.597656 L 377.136719 196.597656 L 377.308594 196.207031 L 377.484375 195.808594 L 377.835938 195.003906 L 378.535156 193.351563 L 379.933594 189.871094 L 380.027344 189.628906 L 380.125 189.382813 L 380.3125 188.890625 L 380.691406 187.890625 L 381.453125 185.847656 L 382.96875 181.582031 L 386.007813 172.402344 L 391.675781 153.445313 L 391.871094 152.75 L 392.070313 152.054688 L 392.464844 150.660156 L 393.253906 147.855469 L 394.835938 142.183594 L 394.9375 141.828125 L 395.035156 141.46875 L 395.230469 140.757813 L 395.628906 139.324219 L 396.417969 136.457031 L 396.515625 136.097656 L 396.617188 135.738281 L 396.8125 135.019531 L 397.210938 133.582031 L 397.40625 132.863281 L 397.605469 132.144531 L 397.800781 131.425781 L 397.902344 131.066406 L 398 130.707031 " transform="matrix(1,0,0,1,-74,-13)"/>
</g>
<path style="fill:none;stroke-width:0.5;stroke-linecap:square;stroke-linejoin:miter;stroke:rgb(39.99939%,39.99939%,39.99939%);stroke-opacity:1;stroke-miterlimit:3.25;" d="M 404 223.410156 L 104 223.410156 " transform="matrix(1,0,0,1,-74,-13)"/>
<path style="fill:none;stroke-width:0.5;stroke-linecap:square;stroke-linejoin:miter;stroke:rgb(39.99939%,39.99939%,39.99939%);stroke-opacity:1;stroke-miterlimit:3.25;" d="M 104 223.410156 L 104 38 " transform="matrix(1,0,0,1,-74,-13)"/>
<path style="fill:none;stroke-width:0.5;stroke-linecap:square;stroke-linejoin:miter;stroke:rgb(39.99939%,39.99939%,39.99939%);stroke-opacity:1;stroke-miterlimit:3.25;" d="M 104 38 L 404 38 " transform="matrix(1,0,0,1,-74,-13)"/>
<path style="fill:none;stroke-width:0.5;stroke-linecap:square;stroke-linejoin:miter;stroke:rgb(39.99939%,39.99939%,39.99939%);stroke-opacity:1;stroke-miterlimit:3.25;" d="M 404 38 L 404 223.410156 " transform="matrix(1,0,0,1,-74,-13)"/>
<path style="fill:none;stroke-width:0.5;stroke-linecap:butt;stroke-linejoin:miter;stroke:rgb(39.99939%,39.99939%,39.99939%);stroke-opacity:1;stroke-miterlimit:3.25;" d="M 110 223.410156 L 110 219.859375 " transform="matrix(1,0,0,1,-74,-13)"/>
<g style="fill:rgb(39.99939%,39.99939%,39.99939%);fill-opacity:1;">
  <use xlink:href="#glyph0-1" x="32.5" y="226.410197"/>
</g>
<path style="fill:none;stroke-width:0.5;stroke-linecap:butt;stroke-linejoin:miter;stroke:rgb(39.99939%,39.99939%,39.99939%);stroke-opacity:1;stroke-miterlimit:3.25;" d="M 119.167969 223.410156 L 119.167969 221.28125 " transform="matrix(1,0,0,1,-74,-13)"/>
<path style="fill:none;stroke-width:0.5;stroke-linecap:butt;stroke-linejoin:miter;stroke:rgb(39.99939%,39.99939%,39.99939%);stroke-opacity:1;stroke-miterlimit:3.25;" d="M 128.335938 223.410156 L 128.335938 221.28125 " transform="matrix(1,0,0,1,-74,-13)"/>
<path style="fill:none;stroke-width:0.5;stroke-linecap:butt;stroke-linejoin:miter;stroke:rgb(39.99939%,39.99939%,39.99939%);stroke-opacity:1;stroke-miterlimit:3.25;" d="M 137.503906 223.410156 L 137.503906 221.28125 " transform="matrix(1,0,0,1,-74,-13)"/>
<path style="fill:none;stroke-width:0.5;stroke-linecap:butt;stroke-linejoin:miter;stroke:rgb(39.99939%,39.99939%,39.99939%);stroke-opacity:1;stroke-miterlimit:3.25;" d="M 146.667969 223.410156 L 146.667969 221.28125 " transform="matrix(1,0,0,1,-74,-13)"/>
<path style="fill:none;stroke-width:0.5;stroke-linecap:butt;stroke-linejoin:miter;stroke:rgb(39.99939%,39.99939%,39.99939%);stroke-opacity:1;stroke-miterlimit:3.25;" d="M 155.835938 223.410156 L 155.835938 219.859375 " transform="matrix(1,0,0,1,-74,-13)"/>
<g style="fill:rgb(39.99939%,39.99939%,39.99939%);fill-opacity:1;">
  <use xlink:href="#glyph0-2" x="78.336624" y="226.410197"/>
</g>
<path style="fill:none;stroke-width:0.5;stroke-linecap:butt;stroke-linejoin:miter;stroke:rgb(39.99939%,39.99939%,39.99939%);stroke-opacity:1;stroke-miterlimit:3.25;" d="M 165.003906 223.410156 L 165.003906 221.28125 " transform="matrix(1,0,0,1,-74,-13)"/>
<path style="fill:none;stroke-width:0.5;stroke-linecap:butt;stroke-linejoin:miter;stroke:rgb(39.99939%,39.99939%,39.99939%);stroke-opacity:1;stroke-miterlimit:3.25;" d="M 174.171875 223.410156 L 174.171875 221.28125 " transform="matrix(1,0,0,1,-74,-13)"/>
<path style="fill:none;stroke-width:0.5;stroke-linecap:butt;stroke-linejoin:miter;stroke:rgb(39.99939%,39.99939%,39.99939%);stroke-opacity:1;stroke-miterlimit:3.25;" d="M 183.339844 223.410156 L 183.339844 221.28125 " transform="matrix(1,0,0,1,-74,-13)"/>
<path style="fill:none;stroke-width:0.5;stroke-linecap:butt;stroke-linejoin:miter;stroke:rgb(39.99939%,39.99939%,39.99939%);stroke-opacity:1;stroke-miterlimit:3.25;" d="M 192.507813 223.410156 L 192.507813 221.28125 " transform="matrix(1,0,0,1,-74,-13)"/>
<path style="fill:none;stroke-width:0.5;stroke-linecap:butt;stroke-linejoin:miter;stroke:rgb(39.99939%,39.99939%,39.99939%);stroke-opacity:1;stroke-miterlimit:3.25;" d="M 201.671875 223.410156 L 201.671875 219.859375 " transform="matrix(1,0,0,1,-74,-13)"/>
<g style="fill:rgb(39.99939%,39.99939%,39.99939%);fill-opacity:1;">
  <use xlink:href="#glyph0-3" x="124.173247" y="226.410197"/>
</g>
<path style="fill:none;stroke-width:0.5;stroke-linecap:butt;stroke-linejoin:miter;stroke:rgb(39.99939%,39.99939%,39.99939%);stroke-opacity:1;stroke-miterlimit:3.25;" d="M 210.839844 223.410156 L 210.839844 221.28125 " transform="matrix(1,0,0,1,-74,-13)"/>
<path style="fill:none;stroke-width:0.5;stroke-linecap:butt;stroke-linejoin:miter;stroke:rgb(39.99939%,39.99939%,39.99939%);stroke-opacity:1;stroke-miterlimit:3.25;" d="M 220.007813 223.410156 L 220.007813 221.28125 " transform="matrix(1,0,0,1,-74,-13)"/>
<path style="fill:none;stroke-width:0.5;stroke-linecap:butt;stroke-linejoin:miter;stroke:rgb(39.99939%,39.99939%,39.99939%);stroke-opacity:1;stroke-miterlimit:3.25;" d="M 229.175781 223.410156 L 229.175781 221.28125 " transform="matrix(1,0,0,1,-74,-13)"/>
<path style="fill:none;stroke-width:0.5;stroke-linecap:butt;stroke-linejoin:miter;stroke:rgb(39.99939%,39.99939%,39.99939%);stroke-opacity:1;stroke-miterlimit:3.25;" d="M 238.34375 223.410156 L 238.34375 221.28125 " transform="matrix(1,0,0,1,-74,-13)"/>
<path style="fill:none;stroke-width:0.5;stroke-linecap:butt;stroke-linejoin:miter;stroke:rgb(39.99939%,39.99939%,39.99939%);stroke-opacity:1;stroke-miterlimit:3.25;" d="M 247.511719 223.410156 L 247.511719 219.859375 " transform="matrix(1,0,0,1,-74,-13)"/>
<g style="fill:rgb(39.99939%,39.99939%,39.99939%);fill-opacity:1;">
  <use xlink:href="#glyph0-4" x="170.009871" y="226.410197"/>
</g>
<path style="fill:none;stroke-width:0.5;stroke-linecap:butt;stroke-linejoin:miter;stroke:rgb(39.99939%,39.99939%,39.99939%);stroke-opacity:1;stroke-miterlimit:3.25;" d="M 256.675781 223.410156 L 256.675781 221.28125 " transform="matrix(1,0,0,1,-74,-13)"/>
<path style="fill:none;stroke-width:0.5;stroke-linecap:butt;stroke-linejoin:miter;stroke:rgb(39.99939%,39.99939%,39.99939%);stroke-opacity:1;stroke-miterlimit:3.25;" d="M 265.84375 223.410156 L 265.84375 221.28125 " transform="matrix(1,0,0,1,-74,-13)"/>
<path style="fill:none;stroke-width:0.5;stroke-linecap:butt;stroke-linejoin:miter;stroke:rgb(39.99939%,39.99939%,39.99939%);stroke-opacity:1;stroke-miterlimit:3.25;" d="M 275.011719 223.410156 L 275.011719 221.28125 " transform="matrix(1,0,0,1,-74,-13)"/>
<path style="fill:none;stroke-width:0.5;stroke-linecap:butt;stroke-linejoin:miter;stroke:rgb(39.99939%,39.99939%,39.99939%);stroke-opacity:1;stroke-miterlimit:3.25;" d="M 284.179688 223.410156 L 284.179688 221.28125 " transform="matrix(1,0,0,1,-74,-13)"/>
<path style="fill:none;stroke-width:0.5;stroke-linecap:butt;stroke-linejoin:miter;stroke:rgb(39.99939%,39.99939%,39.99939%);stroke-opacity:1;stroke-miterlimit:3.25;" d="M 293.347656 223.410156 L 293.347656 219.859375 " transform="matrix(1,0,0,1,-74,-13)"/>
<g style="fill:rgb(39.99939%,39.99939%,39.99939%);fill-opacity:1;">
  <use xlink:href="#glyph0-5" x="215.846494" y="226.410197"/>
</g>
<path style="fill:none;stroke-width:0.5;stroke-linecap:butt;stroke-linejoin:miter;stroke:rgb(39.99939%,39.99939%,39.99939%);stroke-opacity:1;stroke-miterlimit:3.25;" d="M 302.515625 223.410156 L 302.515625 221.28125 " transform="matrix(1,0,0,1,-74,-13)"/>
<path style="fill:none;stroke-width:0.5;stroke-linecap:butt;stroke-linejoin:miter;stroke:rgb(39.99939%,39.99939%,39.99939%);stroke-opacity:1;stroke-miterlimit:3.25;" d="M 311.679688 223.410156 L 311.679688 221.28125 " transform="matrix(1,0,0,1,-74,-13)"/>
<path style="fill:none;stroke-width:0.5;stroke-linecap:butt;stroke-linejoin:miter;stroke:rgb(39.99939%,39.99939%,39.99939%);stroke-opacity:1;stroke-miterlimit:3.25;" d="M 320.847656 223.410156 L 320.847656 221.28125 " transform="matrix(1,0,0,1,-74,-13)"/>
<path style="fill:none;stroke-width:0.5;stroke-linecap:butt;stroke-linejoin:miter;stroke:rgb(39.99939%,39.99939%,39.99939%);stroke-opacity:1;stroke-miterlimit:3.25;" d="M 330.015625 223.410156 L 330.015625 221.28125 " transform="matrix(1,0,0,1,-74,-13)"/>
<path style="fill:none;stroke-width:0.5;stroke-linecap:butt;stroke-linejoin:miter;stroke:rgb(39.99939%,39.99939%,39.99939%);stroke-opacity:1;stroke-miterlimit:3.25;" d="M 339.183594 223.410156 L 339.183594 219.859375 " transform="matrix(1,0,0,1,-74,-13)"/>
<g style="fill:rgb(39.99939%,39.99939%,39.99939%);fill-opacity:1;">
  <use xlink:href="#glyph0-6" x="261.683118" y="226.410197"/>
</g>
<path style="fill:none;stroke-width:0.5;stroke-linecap:butt;stroke-linejoin:miter;stroke:rgb(39.99939%,39.99939%,39.99939%);stroke-opacity:1;stroke-miterlimit:3.25;" d="M 348.351563 223.410156 L 348.351563 221.28125 " transform="matrix(1,0,0,1,-74,-13)"/>
<path style="fill:none;stroke-width:0.5;stroke-linecap:butt;stroke-linejoin:miter;stroke:rgb(39.99939%,39.99939%,39.99939%);stroke-opacity:1;stroke-miterlimit:3.25;" d="M 357.519531 223.410156 L 357.519531 221.28125 " transform="matrix(1,0,0,1,-74,-13)"/>
<path style="fill:none;stroke-width:0.5;stroke-linecap:butt;stroke-linejoin:miter;stroke:rgb(39.99939%,39.99939%,39.99939%);stroke-opacity:1;stroke-miterlimit:3.25;" d="M 366.683594 223.410156 L 366.683594 221.28125 " transform="matrix(1,0,0,1,-74,-13)"/>
<path style="fill:none;stroke-width:0.5;stroke-linecap:butt;stroke-linejoin:miter;stroke:rgb(39.99939%,39.99939%,39.99939%);stroke-opacity:1;stroke-miterlimit:3.25;" d="M 375.851563 223.410156 L 375.851563 221.28125 " transform="matrix(1,0,0,1,-74,-13)"/>
<path style="fill:none;stroke-width:0.5;stroke-linecap:butt;stroke-linejoin:miter;stroke:rgb(39.99939%,39.99939%,39.99939%);stroke-opacity:1;stroke-miterlimit:3.25;" d="M 385.019531 223.410156 L 385.019531 219.859375 " transform="matrix(1,0,0,1,-74,-13)"/>
<g style="fill:rgb(39.99939%,39.99939%,39.99939%);fill-opacity:1;">
  <use xlink:href="#glyph0-7" x="307.519742" y="226.410197"/>
</g>
<path style="fill:none;stroke-width:0.5;stroke-linecap:butt;stroke-linejoin:miter;stroke:rgb(39.99939%,39.99939%,39.99939%);stroke-opacity:1;stroke-miterlimit:3.25;" d="M 394.1875 223.410156 L 394.1875 221.28125 " transform="matrix(1,0,0,1,-74,-13)"/>
<path style="fill:none;stroke-width:0.5;stroke-linecap:butt;stroke-linejoin:miter;stroke:rgb(39.99939%,39.99939%,39.99939%);stroke-opacity:1;stroke-miterlimit:3.25;" d="M 403.355469 223.410156 L 403.355469 221.28125 " transform="matrix(1,0,0,1,-74,-13)"/>
<path style="fill:none;stroke-width:0.5;stroke-linecap:butt;stroke-linejoin:miter;stroke:rgb(39.99939%,39.99939%,39.99939%);stroke-opacity:1;stroke-miterlimit:3.25;" d="M 104 222.484375 L 106.128906 222.484375 " transform="matrix(1,0,0,1,-74,-13)"/>
<path style="fill:none;stroke-width:0.5;stroke-linecap:butt;stroke-linejoin:miter;stroke:rgb(39.99939%,39.99939%,39.99939%);stroke-opacity:1;stroke-miterlimit:3.25;" d="M 104 214.140625 L 106.128906 214.140625 " transform="matrix(1,0,0,1,-74,-13)"/>
<path style="fill:none;stroke-width:0.5;stroke-linecap:butt;stroke-linejoin:miter;stroke:rgb(39.99939%,39.99939%,39.99939%);stroke-opacity:1;stroke-miterlimit:3.25;" d="M 104 205.796875 L 106.128906 205.796875 " transform="matrix(1,0,0,1,-74,-13)"/>
<path style="fill:none;stroke-width:0.5;stroke-linecap:butt;stroke-linejoin:miter;stroke:rgb(39.99939%,39.99939%,39.99939%);stroke-opacity:1;stroke-miterlimit:3.25;" d="M 104 197.453125 L 107.550781 197.453125 " transform="matrix(1,0,0,1,-74,-13)"/>
<g style="fill:rgb(39.99939%,39.99939%,39.99939%);fill-opacity:1;">
  <use xlink:href="#glyph1-1" x="0" y="189.452789"/>
</g>
<g style="fill:rgb(39.99939%,39.99939%,39.99939%);fill-opacity:1;">
  <use xlink:href="#glyph0-1" x="9" y="189.452789"/>
  <use xlink:href="#glyph0-8" x="16.230469" y="189.452789"/>
  <use xlink:href="#glyph0-5" x="19.842773" y="189.452789"/>
</g>
<path style="fill:none;stroke-width:0.5;stroke-linecap:butt;stroke-linejoin:miter;stroke:rgb(39.99939%,39.99939%,39.99939%);stroke-opacity:1;stroke-miterlimit:3.25;" d="M 104 189.109375 L 106.128906 189.109375 " transform="matrix(1,0,0,1,-74,-13)"/>
<path style="fill:none;stroke-width:0.5;stroke-linecap:butt;stroke-linejoin:miter;stroke:rgb(39.99939%,39.99939%,39.99939%);stroke-opacity:1;stroke-miterlimit:3.25;" d="M 104 180.765625 L 106.128906 180.765625 " transform="matrix(1,0,0,1,-74,-13)"/>
<path style="fill:none;stroke-width:0.5;stroke-linecap:butt;stroke-linejoin:miter;stroke:rgb(39.99939%,39.99939%,39.99939%);stroke-opacity:1;stroke-miterlimit:3.25;" d="M 104 172.421875 L 106.128906 172.421875 " transform="matrix(1,0,0,1,-74,-13)"/>
<path style="fill:none;stroke-width:0.5;stroke-linecap:butt;stroke-linejoin:miter;stroke:rgb(39.99939%,39.99939%,39.99939%);stroke-opacity:1;stroke-miterlimit:3.25;" d="M 104 164.078125 L 107.550781 164.078125 " transform="matrix(1,0,0,1,-74,-13)"/>
<g style="fill:rgb(39.99939%,39.99939%,39.99939%);fill-opacity:1;">
  <use xlink:href="#glyph1-1" x="0" y="156.078937"/>
</g>
<g style="fill:rgb(39.99939%,39.99939%,39.99939%);fill-opacity:1;">
  <use xlink:href="#glyph0-1" x="9" y="156.078937"/>
  <use xlink:href="#glyph0-8" x="16.230469" y="156.078937"/>
  <use xlink:href="#glyph0-3" x="19.842773" y="156.078937"/>
</g>
<path style="fill:none;stroke-width:0.5;stroke-linecap:butt;stroke-linejoin:miter;stroke:rgb(39.99939%,39.99939%,39.99939%);stroke-opacity:1;stroke-miterlimit:3.25;" d="M 104 155.734375 L 106.128906 155.734375 " transform="matrix(1,0,0,1,-74,-13)"/>
<path style="fill:none;stroke-width:0.5;stroke-linecap:butt;stroke-linejoin:miter;stroke:rgb(39.99939%,39.99939%,39.99939%);stroke-opacity:1;stroke-miterlimit:3.25;" d="M 104 147.390625 L 106.128906 147.390625 " transform="matrix(1,0,0,1,-74,-13)"/>
<path style="fill:none;stroke-width:0.5;stroke-linecap:butt;stroke-linejoin:miter;stroke:rgb(39.99939%,39.99939%,39.99939%);stroke-opacity:1;stroke-miterlimit:3.25;" d="M 104 139.046875 L 106.128906 139.046875 " transform="matrix(1,0,0,1,-74,-13)"/>
<path style="fill:none;stroke-width:0.5;stroke-linecap:butt;stroke-linejoin:miter;stroke:rgb(39.99939%,39.99939%,39.99939%);stroke-opacity:1;stroke-miterlimit:3.25;" d="M 104 130.707031 L 107.550781 130.707031 " transform="matrix(1,0,0,1,-74,-13)"/>
<g style="fill:rgb(39.99939%,39.99939%,39.99939%);fill-opacity:1;">
  <use xlink:href="#glyph0-1" x="9" y="122.705086"/>
  <use xlink:href="#glyph0-8" x="16.230469" y="122.705086"/>
  <use xlink:href="#glyph0-1" x="19.842773" y="122.705086"/>
</g>
<path style="fill:none;stroke-width:0.5;stroke-linecap:butt;stroke-linejoin:miter;stroke:rgb(39.99939%,39.99939%,39.99939%);stroke-opacity:1;stroke-miterlimit:3.25;" d="M 104 122.363281 L 106.128906 122.363281 " transform="matrix(1,0,0,1,-74,-13)"/>
<path style="fill:none;stroke-width:0.5;stroke-linecap:butt;stroke-linejoin:miter;stroke:rgb(39.99939%,39.99939%,39.99939%);stroke-opacity:1;stroke-miterlimit:3.25;" d="M 104 114.019531 L 106.128906 114.019531 " transform="matrix(1,0,0,1,-74,-13)"/>
<path style="fill:none;stroke-width:0.5;stroke-linecap:butt;stroke-linejoin:miter;stroke:rgb(39.99939%,39.99939%,39.99939%);stroke-opacity:1;stroke-miterlimit:3.25;" d="M 104 105.675781 L 106.128906 105.675781 " transform="matrix(1,0,0,1,-74,-13)"/>
<path style="fill:none;stroke-width:0.5;stroke-linecap:butt;stroke-linejoin:miter;stroke:rgb(39.99939%,39.99939%,39.99939%);stroke-opacity:1;stroke-miterlimit:3.25;" d="M 104 97.332031 L 107.550781 97.332031 " transform="matrix(1,0,0,1,-74,-13)"/>
<g style="fill:rgb(39.99939%,39.99939%,39.99939%);fill-opacity:1;">
  <use xlink:href="#glyph0-1" x="9" y="89.331234"/>
  <use xlink:href="#glyph0-8" x="16.230469" y="89.331234"/>
  <use xlink:href="#glyph0-3" x="19.842773" y="89.331234"/>
</g>
<path style="fill:none;stroke-width:0.5;stroke-linecap:butt;stroke-linejoin:miter;stroke:rgb(39.99939%,39.99939%,39.99939%);stroke-opacity:1;stroke-miterlimit:3.25;" d="M 104 88.988281 L 106.128906 88.988281 " transform="matrix(1,0,0,1,-74,-13)"/>
<path style="fill:none;stroke-width:0.5;stroke-linecap:butt;stroke-linejoin:miter;stroke:rgb(39.99939%,39.99939%,39.99939%);stroke-opacity:1;stroke-miterlimit:3.25;" d="M 104 80.644531 L 106.128906 80.644531 " transform="matrix(1,0,0,1,-74,-13)"/>
<path style="fill:none;stroke-width:0.5;stroke-linecap:butt;stroke-linejoin:miter;stroke:rgb(39.99939%,39.99939%,39.99939%);stroke-opacity:1;stroke-miterlimit:3.25;" d="M 104 72.300781 L 106.128906 72.300781 " transform="matrix(1,0,0,1,-74,-13)"/>
<path style="fill:none;stroke-width:0.5;stroke-linecap:butt;stroke-linejoin:miter;stroke:rgb(39.99939%,39.99939%,39.99939%);stroke-opacity:1;stroke-miterlimit:3.25;" d="M 104 63.957031 L 107.550781 63.957031 " transform="matrix(1,0,0,1,-74,-13)"/>
<g style="fill:rgb(39.99939%,39.99939%,39.99939%);fill-opacity:1;">
  <use xlink:href="#glyph0-1" x="9" y="55.957383"/>
  <use xlink:href="#glyph0-8" x="16.230469" y="55.957383"/>
  <use xlink:href="#glyph0-5" x="19.842773" y="55.957383"/>
</g>
<path style="fill:none;stroke-width:0.5;stroke-linecap:butt;stroke-linejoin:miter;stroke:rgb(39.99939%,39.99939%,39.99939%);stroke-opacity:1;stroke-miterlimit:3.25;" d="M 104 55.613281 L 106.128906 55.613281 " transform="matrix(1,0,0,1,-74,-13)"/>
<path style="fill:none;stroke-width:0.5;stroke-linecap:butt;stroke-linejoin:miter;stroke:rgb(39.99939%,39.99939%,39.99939%);stroke-opacity:1;stroke-miterlimit:3.25;" d="M 104 47.269531 L 106.128906 47.269531 " transform="matrix(1,0,0,1,-74,-13)"/>
<path style="fill:none;stroke-width:0.5;stroke-linecap:butt;stroke-linejoin:miter;stroke:rgb(39.99939%,39.99939%,39.99939%);stroke-opacity:1;stroke-miterlimit:3.25;" d="M 104 38.925781 L 106.128906 38.925781 " transform="matrix(1,0,0,1,-74,-13)"/>
<path style="fill:none;stroke-width:0.1;stroke-linecap:butt;stroke-linejoin:miter;stroke:rgb(39.99939%,39.99939%,39.99939%);stroke-opacity:1;stroke-miterlimit:3.25;" d="M 110 38 L 110 41 " transform="matrix(1,0,0,1,-74,-13)"/>
<path style="fill:none;stroke-width:0.1;stroke-linecap:butt;stroke-linejoin:miter;stroke:rgb(39.99939%,39.99939%,39.99939%);stroke-opacity:1;stroke-miterlimit:3.25;" d="M 201.671875 38 L 201.671875 41 " transform="matrix(1,0,0,1,-74,-13)"/>
<path style="fill:none;stroke-width:0.1;stroke-linecap:butt;stroke-linejoin:miter;stroke:rgb(39.99939%,39.99939%,39.99939%);stroke-opacity:1;stroke-miterlimit:3.25;" d="M 293.347656 38 L 293.347656 41 " transform="matrix(1,0,0,1,-74,-13)"/>
<path style="fill:none;stroke-width:0.1;stroke-linecap:butt;stroke-linejoin:miter;stroke:rgb(39.99939%,39.99939%,39.99939%);stroke-opacity:1;stroke-miterlimit:3.25;" d="M 385.019531 38 L 385.019531 41 " transform="matrix(1,0,0,1,-74,-13)"/>
<path style="fill:none;stroke-width:0.1;stroke-linecap:butt;stroke-linejoin:miter;stroke:rgb(39.99939%,39.99939%,39.99939%);stroke-opacity:1;stroke-miterlimit:3.25;" d="M 132.917969 38 L 132.917969 40.128906 " transform="matrix(1,0,0,1,-74,-13)"/>
<path style="fill:none;stroke-width:0.1;stroke-linecap:butt;stroke-linejoin:miter;stroke:rgb(39.99939%,39.99939%,39.99939%);stroke-opacity:1;stroke-miterlimit:3.25;" d="M 155.835938 38 L 155.835938 40.128906 " transform="matrix(1,0,0,1,-74,-13)"/>
<path style="fill:none;stroke-width:0.1;stroke-linecap:butt;stroke-linejoin:miter;stroke:rgb(39.99939%,39.99939%,39.99939%);stroke-opacity:1;stroke-miterlimit:3.25;" d="M 178.753906 38 L 178.753906 40.128906 " transform="matrix(1,0,0,1,-74,-13)"/>
<path style="fill:none;stroke-width:0.1;stroke-linecap:butt;stroke-linejoin:miter;stroke:rgb(39.99939%,39.99939%,39.99939%);stroke-opacity:1;stroke-miterlimit:3.25;" d="M 224.589844 38 L 224.589844 40.128906 " transform="matrix(1,0,0,1,-74,-13)"/>
<path style="fill:none;stroke-width:0.1;stroke-linecap:butt;stroke-linejoin:miter;stroke:rgb(39.99939%,39.99939%,39.99939%);stroke-opacity:1;stroke-miterlimit:3.25;" d="M 247.511719 38 L 247.511719 40.128906 " transform="matrix(1,0,0,1,-74,-13)"/>
<path style="fill:none;stroke-width:0.1;stroke-linecap:butt;stroke-linejoin:miter;stroke:rgb(39.99939%,39.99939%,39.99939%);stroke-opacity:1;stroke-miterlimit:3.25;" d="M 270.429688 38 L 270.429688 40.128906 " transform="matrix(1,0,0,1,-74,-13)"/>
<path style="fill:none;stroke-width:0.1;stroke-linecap:butt;stroke-linejoin:miter;stroke:rgb(39.99939%,39.99939%,39.99939%);stroke-opacity:1;stroke-miterlimit:3.25;" d="M 316.265625 38 L 316.265625 40.128906 " transform="matrix(1,0,0,1,-74,-13)"/>
<path style="fill:none;stroke-width:0.1;stroke-linecap:butt;stroke-linejoin:miter;stroke:rgb(39.99939%,39.99939%,39.99939%);stroke-opacity:1;stroke-miterlimit:3.25;" d="M 339.183594 38 L 339.183594 40.128906 " transform="matrix(1,0,0,1,-74,-13)"/>
<path style="fill:none;stroke-width:0.1;stroke-linecap:butt;stroke-linejoin:miter;stroke:rgb(39.99939%,39.99939%,39.99939%);stroke-opacity:1;stroke-miterlimit:3.25;" d="M 362.101563 38 L 362.101563 40.128906 " transform="matrix(1,0,0,1,-74,-13)"/>
<path style="fill:none;stroke-width:0.1;stroke-linecap:butt;stroke-linejoin:miter;stroke:rgb(39.99939%,39.99939%,39.99939%);stroke-opacity:1;stroke-miterlimit:3.25;" d="M 404 197.453125 L 401 197.453125 " transform="matrix(1,0,0,1,-74,-13)"/>
<path style="fill:none;stroke-width:0.1;stroke-linecap:butt;stroke-linejoin:miter;stroke:rgb(39.99939%,39.99939%,39.99939%);stroke-opacity:1;stroke-miterlimit:3.25;" d="M 404 164.078125 L 401 164.078125 " transform="matrix(1,0,0,1,-74,-13)"/>
<path style="fill:none;stroke-width:0.1;stroke-linecap:butt;stroke-linejoin:miter;stroke:rgb(39.99939%,39.99939%,39.99939%);stroke-opacity:1;stroke-miterlimit:3.25;" d="M 404 130.707031 L 401 130.707031 " transform="matrix(1,0,0,1,-74,-13)"/>
<path style="fill:none;stroke-width:0.1;stroke-linecap:butt;stroke-linejoin:miter;stroke:rgb(39.99939%,39.99939%,39.99939%);stroke-opacity:1;stroke-miterlimit:3.25;" d="M 404 97.332031 L 401 97.332031 " transform="matrix(1,0,0,1,-74,-13)"/>
<path style="fill:none;stroke-width:0.1;stroke-linecap:butt;stroke-linejoin:miter;stroke:rgb(39.99939%,39.99939%,39.99939%);stroke-opacity:1;stroke-miterlimit:3.25;" d="M 404 63.957031 L 401 63.957031 " transform="matrix(1,0,0,1,-74,-13)"/>
<path style="fill:none;stroke-width:0.1;stroke-linecap:butt;stroke-linejoin:miter;stroke:rgb(39.99939%,39.99939%,39.99939%);stroke-opacity:1;stroke-miterlimit:3.25;" d="M 404 222.484375 L 401.871094 222.484375 " transform="matrix(1,0,0,1,-74,-13)"/>
<path style="fill:none;stroke-width:0.1;stroke-linecap:butt;stroke-linejoin:miter;stroke:rgb(39.99939%,39.99939%,39.99939%);stroke-opacity:1;stroke-miterlimit:3.25;" d="M 404 214.140625 L 401.871094 214.140625 " transform="matrix(1,0,0,1,-74,-13)"/>
<path style="fill:none;stroke-width:0.1;stroke-linecap:butt;stroke-linejoin:miter;stroke:rgb(39.99939%,39.99939%,39.99939%);stroke-opacity:1;stroke-miterlimit:3.25;" d="M 404 205.796875 L 401.871094 205.796875 " transform="matrix(1,0,0,1,-74,-13)"/>
<path style="fill:none;stroke-width:0.1;stroke-linecap:butt;stroke-linejoin:miter;stroke:rgb(39.99939%,39.99939%,39.99939%);stroke-opacity:1;stroke-miterlimit:3.25;" d="M 404 189.109375 L 401.871094 189.109375 " transform="matrix(1,0,0,1,-74,-13)"/>
<path style="fill:none;stroke-width:0.1;stroke-linecap:butt;stroke-linejoin:miter;stroke:rgb(39.99939%,39.99939%,39.99939%);stroke-opacity:1;stroke-miterlimit:3.25;" d="M 404 180.765625 L 401.871094 180.765625 " transform="matrix(1,0,0,1,-74,-13)"/>
<path style="fill:none;stroke-width:0.1;stroke-linecap:butt;stroke-linejoin:miter;stroke:rgb(39.99939%,39.99939%,39.99939%);stroke-opacity:1;stroke-miterlimit:3.25;" d="M 404 172.421875 L 401.871094 172.421875 " transform="matrix(1,0,0,1,-74,-13)"/>
<path style="fill:none;stroke-width:0.1;stroke-linecap:butt;stroke-linejoin:miter;stroke:rgb(39.99939%,39.99939%,39.99939%);stroke-opacity:1;stroke-miterlimit:3.25;" d="M 404 155.734375 L 401.871094 155.734375 " transform="matrix(1,0,0,1,-74,-13)"/>
<path style="fill:none;stroke-width:0.1;stroke-linecap:butt;stroke-linejoin:miter;stroke:rgb(39.99939%,39.99939%,39.99939%);stroke-opacity:1;stroke-miterlimit:3.25;" d="M 404 147.390625 L 401.871094 147.390625 " transform="matrix(1,0,0,1,-74,-13)"/>
<path style="fill:none;stroke-width:0.1;stroke-linecap:butt;stroke-linejoin:miter;stroke:rgb(39.99939%,39.99939%,39.99939%);stroke-opacity:1;stroke-miterlimit:3.25;" d="M 404 139.046875 L 401.871094 139.046875 " transform="matrix(1,0,0,1,-74,-13)"/>
<path style="fill:none;stroke-width:0.1;stroke-linecap:butt;stroke-linejoin:miter;stroke:rgb(39.99939%,39.99939%,39.99939%);stroke-opacity:1;stroke-miterlimit:3.25;" d="M 404 122.363281 L 401.871094 122.363281 " transform="matrix(1,0,0,1,-74,-13)"/>
<path style="fill:none;stroke-width:0.1;stroke-linecap:butt;stroke-linejoin:miter;stroke:rgb(39.99939%,39.99939%,39.99939%);stroke-opacity:1;stroke-miterlimit:3.25;" d="M 404 114.019531 L 401.871094 114.019531 " transform="matrix(1,0,0,1,-74,-13)"/>
<path style="fill:none;stroke-width:0.1;stroke-linecap:butt;stroke-linejoin:miter;stroke:rgb(39.99939%,39.99939%,39.99939%);stroke-opacity:1;stroke-miterlimit:3.25;" d="M 404 105.675781 L 401.871094 105.675781 " transform="matrix(1,0,0,1,-74,-13)"/>
<path style="fill:none;stroke-width:0.1;stroke-linecap:butt;stroke-linejoin:miter;stroke:rgb(39.99939%,39.99939%,39.99939%);stroke-opacity:1;stroke-miterlimit:3.25;" d="M 404 88.988281 L 401.871094 88.988281 " transform="matrix(1,0,0,1,-74,-13)"/>
<path style="fill:none;stroke-width:0.1;stroke-linecap:butt;stroke-linejoin:miter;stroke:rgb(39.99939%,39.99939%,39.99939%);stroke-opacity:1;stroke-miterlimit:3.25;" d="M 404 80.644531 L 401.871094 80.644531 " transform="matrix(1,0,0,1,-74,-13)"/>
<path style="fill:none;stroke-width:0.1;stroke-linecap:butt;stroke-linejoin:miter;stroke:rgb(39.99939%,39.99939%,39.99939%);stroke-opacity:1;stroke-miterlimit:3.25;" d="M 404 72.300781 L 401.871094 72.300781 " transform="matrix(1,0,0,1,-74,-13)"/>
<path style="fill:none;stroke-width:0.1;stroke-linecap:butt;stroke-linejoin:miter;stroke:rgb(39.99939%,39.99939%,39.99939%);stroke-opacity:1;stroke-miterlimit:3.25;" d="M 404 55.613281 L 401.871094 55.613281 " transform="matrix(1,0,0,1,-74,-13)"/>
<path style="fill:none;stroke-width:0.1;stroke-linecap:butt;stroke-linejoin:miter;stroke:rgb(39.99939%,39.99939%,39.99939%);stroke-opacity:1;stroke-miterlimit:3.25;" d="M 404 47.269531 L 401.871094 47.269531 " transform="matrix(1,0,0,1,-74,-13)"/>
<path style="fill:none;stroke-width:0.1;stroke-linecap:butt;stroke-linejoin:miter;stroke:rgb(39.99939%,39.99939%,39.99939%);stroke-opacity:1;stroke-miterlimit:3.25;" d="M 404 38.925781 L 401.871094 38.925781 " transform="matrix(1,0,0,1,-74,-13)"/>
<g style="fill:rgb(39.99939%,39.99939%,39.99939%);fill-opacity:1;">
  <use xlink:href="#glyph2-1" x="153.5" y="248.410197"/>
  <use xlink:href="#glyph2-2" x="166.5" y="248.410197"/>
  <use xlink:href="#glyph2-3" x="179.5" y="248.410197"/>
  <use xlink:href="#glyph2-4" x="192.5" y="248.410197"/>
</g>
<path style="fill:none;stroke-width:0.2;stroke-linecap:butt;stroke-linejoin:miter;stroke:rgb(39.99939%,39.99939%,39.99939%);stroke-opacity:1;stroke-miterlimit:3.25;" d="M 104 130.707031 L 404 130.707031 " transform="matrix(1,0,0,1,-74,-13)"/>
<g style="fill:rgb(39.99939%,39.99939%,39.99939%);fill-opacity:1;">
  <use xlink:href="#glyph0-9" x="342" y="122.705086"/>
</g>
<g style="fill:rgb(39.99939%,39.99939%,39.99939%);fill-opacity:1;">
  <use xlink:href="#glyph3-1" x="135" y="17"/>
  <use xlink:href="#glyph3-2" x="145.010742" y="17"/>
  <use xlink:href="#glyph3-3" x="150.011719" y="17"/>
</g>
<g style="fill:rgb(39.99939%,39.99939%,39.99939%);fill-opacity:1;">
  <use xlink:href="#glyph3-4" x="163" y="17"/>
  <use xlink:href="#glyph3-5" x="173.010742" y="17"/>
  <use xlink:href="#glyph3-6" x="178.011719" y="17"/>
</g>
<g style="fill:rgb(39.99939%,39.99939%,39.99939%);fill-opacity:1;">
  <use xlink:href="#glyph4-1" x="189" y="17"/>
</g>
<g style="fill:rgb(39.99939%,39.99939%,39.99939%);fill-opacity:1;">
  <use xlink:href="#glyph3-7" x="195" y="17"/>
</g>
<g style="fill:rgb(39.99939%,39.99939%,39.99939%);fill-opacity:1;">
  <use xlink:href="#glyph5-1" x="208" y="17"/>
</g>
<g style="fill:rgb(39.99939%,39.99939%,39.99939%);fill-opacity:1;">
  <use xlink:href="#glyph4-2" x="219" y="17"/>
</g>
</g>
</svg>
