<?xml version="1.0" encoding="UTF-8"?>
<svg xmlns="http://www.w3.org/2000/svg" xmlns:xlink="http://www.w3.org/1999/xlink" width="360pt" height="359pt" viewBox="0 0 360 359" version="1.1">
<g id="surface20728">
<rect x="0" y="0" width="360" height="359" style="fill:rgb(99.998474%,99.998474%,99.998474%);fill-opacity:1;stroke:none;"/>
<path style="fill:none;stroke-width:0.03;stroke-linecap:square;stroke-linejoin:miter;stroke:rgb(99.998474%,99.998474%,99.998474%);stroke-opacity:1;stroke-miterlimit:10;" d="M 0 178 L 360 178 L 360 -181 L 0 -181 Z M 0 178 " transform="matrix(1,0,0,1,0,181)"/>
<path style="fill-rule:nonzero;fill:rgb(99.998474%,0%,0%);fill-opacity:1;stroke-width:0.03;stroke-linecap:square;stroke-linejoin:miter;stroke:rgb(99.998474%,0%,0%);stroke-opacity:1;stroke-miterlimit:3.239307;" d="M 81.179688 364.53125 L 81.179688 19.894531 L 115.644531 19.894531 L 115.644531 364.53125 Z M 81.179688 364.53125 " transform="matrix(1,0,0,1,-74,-13)"/>
<path style="fill-rule:nonzero;fill:rgb(99.998474%,60.003662%,0%);fill-opacity:1;stroke-width:0.03;stroke-linecap:square;stroke-linejoin:miter;stroke:rgb(99.998474%,60.003662%,0%);stroke-opacity:1;stroke-miterlimit:3.239307;" d="M 115.644531 364.53125 L 115.644531 19.894531 L 150.109375 19.894531 L 150.109375 364.53125 Z M 115.644531 364.53125 " transform="matrix(1,0,0,1,-74,-13)"/>
<path style="fill-rule:nonzero;fill:rgb(79.998779%,99.998474%,0%);fill-opacity:1;stroke-width:0.03;stroke-linecap:square;stroke-linejoin:miter;stroke:rgb(79.998779%,99.998474%,0%);stroke-opacity:1;stroke-miterlimit:3.239307;" d="M 150.109375 364.53125 L 150.109375 19.894531 L 184.570313 19.894531 L 184.570313 364.53125 Z M 150.109375 364.53125 " transform="matrix(1,0,0,1,-74,-13)"/>
<path style="fill-rule:nonzero;fill:rgb(19.995117%,99.998474%,0%);fill-opacity:1;stroke-width:0.03;stroke-linecap:square;stroke-linejoin:miter;stroke:rgb(19.995117%,99.998474%,0%);stroke-opacity:1;stroke-miterlimit:3.239307;" d="M 184.570313 364.53125 L 184.570313 19.894531 L 219.035156 19.894531 L 219.035156 364.53125 Z M 184.570313 364.53125 " transform="matrix(1,0,0,1,-74,-13)"/>
<path style="fill-rule:nonzero;fill:rgb(0%,99.998474%,39.99939%);fill-opacity:1;stroke-width:0.03;stroke-linecap:square;stroke-linejoin:miter;stroke:rgb(0%,99.998474%,39.99939%);stroke-opacity:1;stroke-miterlimit:3.239307;" d="M 219.035156 364.53125 L 219.035156 19.894531 L 253.5 19.894531 L 253.5 364.53125 Z M 219.035156 364.53125 " transform="matrix(1,0,0,1,-74,-13)"/>
<path style="fill-rule:nonzero;fill:rgb(0%,99.993896%,99.998474%);fill-opacity:1;stroke-width:0.03;stroke-linecap:square;stroke-linejoin:miter;stroke:rgb(0%,99.993896%,99.998474%);stroke-opacity:1;stroke-miterlimit:3.239307;" d="M 253.5 364.53125 L 253.5 19.894531 L 287.964844 19.894531 L 287.964844 364.53125 Z M 253.5 364.53125 " transform="matrix(1,0,0,1,-74,-13)"/>
<path style="fill-rule:nonzero;fill:rgb(0%,39.99939%,99.998474%);fill-opacity:1;stroke-width:0.03;stroke-linecap:square;stroke-linejoin:miter;stroke:rgb(0%,39.99939%,99.998474%);stroke-opacity:1;stroke-miterlimit:3.239307;" d="M 287.964844 364.53125 L 287.964844 19.894531 L 322.429688 19.894531 L 322.429688 364.53125 Z M 287.964844 364.53125 " transform="matrix(1,0,0,1,-74,-13)"/>
<path style="fill-rule:nonzero;fill:rgb(20.004272%,0%,99.998474%);fill-opacity:1;stroke-width:0.03;stroke-linecap:square;stroke-linejoin:miter;stroke:rgb(20.004272%,0%,99.998474%);stroke-opacity:1;stroke-miterlimit:3.239307;" d="M 322.429688 364.53125 L 322.429688 19.894531 L 356.890625 19.894531 L 356.890625 364.53125 Z M 322.429688 364.53125 " transform="matrix(1,0,0,1,-74,-13)"/>
<path style="fill-rule:nonzero;fill:rgb(79.998779%,0%,99.998474%);fill-opacity:1;stroke-width:0.03;stroke-linecap:square;stroke-linejoin:miter;stroke:rgb(79.998779%,0%,99.998474%);stroke-opacity:1;stroke-miterlimit:3.239307;" d="M 356.890625 364.53125 L 356.890625 19.894531 L 391.355469 19.894531 L 391.355469 364.53125 Z M 356.890625 364.53125 " transform="matrix(1,0,0,1,-74,-13)"/>
<path style="fill-rule:nonzero;fill:rgb(99.998474%,0%,59.994507%);fill-opacity:1;stroke-width:0.03;stroke-linecap:square;stroke-linejoin:miter;stroke:rgb(99.998474%,0%,59.994507%);stroke-opacity:1;stroke-miterlimit:3.239307;" d="M 391.355469 364.53125 L 391.355469 19.894531 L 425.820313 19.894531 L 425.820313 364.53125 Z M 391.355469 364.53125 " transform="matrix(1,0,0,1,-74,-13)"/>
</g>
</svg>
