<?xml version="1.0" encoding="UTF-8"?>
<svg xmlns="http://www.w3.org/2000/svg" xmlns:xlink="http://www.w3.org/1999/xlink" width="180pt" height="180pt" viewBox="0 0 180 180" version="1.1">
<g id="surface20724">
<rect x="0" y="0" width="180" height="180" style="fill:rgb(99.998474%,99.998474%,99.998474%);fill-opacity:1;stroke:none;"/>
<path style="fill:none;stroke-width:0.03;stroke-linecap:square;stroke-linejoin:miter;stroke:rgb(99.998474%,99.998474%,99.998474%);stroke-opacity:1;stroke-miterlimit:10;" d="M 0 88 L 180 88 L 180 -92 L 0 -92 Z M 0 88 " transform="matrix(1,0,0,1,0,92)"/>
<path style=" stroke:none;fill-rule:evenodd;fill:rgb(99.998474%,0%,0%);fill-opacity:1;" d="M 52.675781 150.726563 C 52.675781 144.21875 50.089844 137.972656 45.488281 133.371094 C 40.882813 128.765625 34.640625 126.179688 28.128906 126.179688 C 21.617188 126.179688 15.375 128.765625 10.769531 133.371094 C 6.167969 137.972656 3.578125 144.21875 3.578125 150.726563 C 3.578125 157.238281 6.167969 163.484375 10.769531 168.085938 C 15.375 172.691406 21.617188 175.277344 28.128906 175.277344 C 34.640625 175.277344 40.882813 172.691406 45.488281 168.085938 C 50.089844 163.484375 52.675781 157.238281 52.675781 150.726563 Z M 52.675781 150.726563 "/>
<path style="fill-rule:nonzero;fill:rgb(99.998474%,0%,0%);fill-opacity:1;stroke-width:0.03;stroke-linecap:square;stroke-linejoin:miter;stroke:rgb(99.998474%,0%,0%);stroke-opacity:1;stroke-miterlimit:3.239307;" d="M 200.324219 65.535156 L 200.324219 16.4375 L 249.421875 16.4375 L 249.421875 65.535156 Z M 200.324219 65.535156 " transform="matrix(1,0,0,1,-74,-13)"/>
<path style="fill:none;stroke-width:3.58;stroke-linecap:square;stroke-linejoin:miter;stroke:rgb(0%,0%,0%);stroke-opacity:1;stroke-miterlimit:3.25;" d="M 119.3125 146.542969 L 200.324219 65.535156 " transform="matrix(1,0,0,1,-74,-13)"/>
</g>
</svg>
