<?xml version="1.0" encoding="UTF-8" standalone="no"?>
<svg
   xmlns:dc="http://purl.org/dc/elements/1.1/"
   xmlns:cc="http://creativecommons.org/ns#"
   xmlns:rdf="http://www.w3.org/1999/02/22-rdf-syntax-ns#"
   xmlns:svg="http://www.w3.org/2000/svg"
   xmlns="http://www.w3.org/2000/svg"
   viewBox="0 0 152.24001 76.653336"
   height="76.653336"
   width="152.24001"
   xml:space="preserve"
   id="svg2"
   version="1.1"><metadata
     id="metadata8"><rdf:RDF><cc:Work
         rdf:about=""><dc:format>image/svg+xml</dc:format><dc:type
           rdf:resource="http://purl.org/dc/dcmitype/StillImage" /></cc:Work></rdf:RDF></metadata><defs
     id="defs6" /><g
     transform="matrix(1.3333333,0,0,-1.3333333,0,76.653333)"
     id="g10"><g
       transform="translate(72,-14.51)"
       id="g12"><g
         transform="translate(-43.255,43.255)"
         id="g14"><g
           id="g16"><g
             id="g18" /><g
             id="g20"><g
               id="g22"><g
                 id="g24"><path
                   id="path26"
                   style="fill:#8080ff;fill-opacity:1;fill-rule:nonzero;stroke:#8080ff;stroke-width:0.79701;stroke-linecap:butt;stroke-linejoin:miter;stroke-miterlimit:10;stroke-dasharray:none;stroke-opacity:1"
                   d="M 28.3468,0 C 28.3468,15.6557 15.6557,28.3468 0,28.3468 -15.6557,28.3468 -28.3468,15.6557 -28.3468,0 c 0,-15.6557 12.6911,-28.3468 28.3468,-28.3468 15.6557,0 28.3468,12.6911 28.3468,28.3468 z" /></g><g
                 id="g28"><g
                   transform="scale(-1)"
                   id="g30"><g
                     id="g32" /><g
                     transform="rotate(180,-21.6275,21.6275)"
                     id="g34"><g
                       id="g36" /><g
                       id="g38" /><g
                       transform="translate(-43.255,43.255)"
                       id="g40" /></g></g></g></g><g
               id="g42"><g
                 id="g44"><path
                   id="path46"
                   style="fill:#8080ff;fill-opacity:1;fill-rule:nonzero;stroke:#8080ff;stroke-width:0.79701;stroke-linecap:butt;stroke-linejoin:miter;stroke-miterlimit:10;stroke-dasharray:none;stroke-opacity:1"
                   d="m 85.0404,0 c 0,7.82784 -6.34555,14.17339 -14.1734,14.17339 -7.82785,0 -14.17338,-6.34555 -14.17338,-14.17339 0,-7.82784 6.34553,-14.17339 14.17338,-14.17339 7.82785,0 14.1734,6.34555 14.1734,14.17339 z" /></g><g
                 id="g48"><g
                   transform="scale(-1)"
                   id="g50"><g
                     id="g52" /><g
                     transform="rotate(180,-21.6275,21.6275)"
                     id="g54"><g
                       id="g56" /><g
                       transform="translate(70.867)"
                       id="g58" /><g
                       transform="translate(-43.255,43.255)"
                       id="g60" /></g></g></g></g><g
               id="g62"><path
                 id="path64"
                 style="fill:#8080ff;fill-opacity:1;fill-rule:nonzero;stroke:none"
                 d="m 26.6374,9.69533 c 2.27913,-6.26181 2.27913,-13.12885 0,-19.39066 2.42382,6.65933 8.79609,8.45514 15.8828,8.45514 v 2.48038 c -7.08671,0 -13.45898,1.79581 -15.8828,8.45514 z M 42.5202,-1.24019 h 7.08672 V 1.24019 H 42.5202 Z m 15.02811,6.08783 c -1.13957,-3.1309 -1.13957,-6.56438 0,-9.69528 -1.2119,3.32965 -4.39804,3.60745 -7.94139,3.60745 v 2.48038 c 3.54335,0 6.72949,0.2778 7.94139,3.60745 z" /></g></g></g></g></g></g></svg>