<?xml version="1.0" encoding="UTF-8" standalone="no"?>
<svg
   xmlns:dc="http://purl.org/dc/elements/1.1/"
   xmlns:cc="http://creativecommons.org/ns#"
   xmlns:rdf="http://www.w3.org/1999/02/22-rdf-syntax-ns#"
   xmlns:svg="http://www.w3.org/2000/svg"
   xmlns="http://www.w3.org/2000/svg"
   viewBox="0 0 139.58667 105"
   height="105"
   width="139.58667"
   xml:space="preserve"
   id="svg2"
   version="1.1"><metadata
     id="metadata8"><rdf:RDF><cc:Work
         rdf:about=""><dc:format>image/svg+xml</dc:format><dc:type
           rdf:resource="http://purl.org/dc/dcmitype/StillImage" /></cc:Work></rdf:RDF></metadata><defs
     id="defs6"><clipPath
       id="clipPath68"
       clipPathUnits="userSpaceOnUse"><path
         id="path66"
         d="m 18.29909,21.75954 c 5.10457,-4.28328 8.53799,-10.23023 9.69502,-16.79256 -1.2305,6.97894 3.39009,11.72018 9.52727,15.26343 l -1.24015,2.14804 C 30.14406,18.8352 23.7277,17.20435 18.29909,21.75954 Z m 23.99019,4.0876 -6.00805,-3.46869 1.24015,-2.14804 6.00805,3.46869 z m 5.07368,7.09468 c 0.57851,-3.28116 2.29521,-6.25461 4.84749,-8.39624 -2.71431,2.27759 -5.61243,0.92514 -8.68102,-0.84648 l -1.24015,2.14804 c 3.0686,1.77162 5.68895,3.60521 5.07368,7.09468 z" /></clipPath><clipPath
       id="clipPath96"
       clipPathUnits="userSpaceOnUse"><path
         id="path94"
         d="M 0,0 H 100 V 100 H 0 Z" /></clipPath><linearGradient
       id="linearGradient102"
       gradientUnits="userSpaceOnUse"
       y2="0"
       x2="100.00128"
       y1="0"
       x1="0"><stop
         id="stop98"
         offset="0"
         style="stop-opacity:1;stop-color:#ff0000" /><stop
         id="stop100"
         offset="1"
         style="stop-opacity:1;stop-color:#0000ff" /></linearGradient></defs><g
     transform="matrix(1.3333333,0,0,-1.3333333,0,105)"
     id="g10"><g
       transform="translate(72,6.75)"
       id="g12"><g
         transform="translate(-43.255,21.995)"
         id="g14"><g
           id="g16"><g
             id="g18" /><g
             id="g20"><g
               id="g22"><g
                 id="g24"><path
                   id="path26"
                   style="fill:#ff0000;fill-opacity:1;fill-rule:nonzero;stroke:#ff0000;stroke-width:0.79701;stroke-linecap:butt;stroke-linejoin:miter;stroke-miterlimit:10;stroke-dasharray:none;stroke-opacity:1"
                   d="M 28.3468,0 C 28.3468,15.6557 15.6557,28.3468 0,28.3468 -15.6557,28.3468 -28.3468,15.6557 -28.3468,0 c 0,-15.6557 12.6911,-28.3468 28.3468,-28.3468 15.6557,0 28.3468,12.6911 28.3468,28.3468 z" /></g><g
                 id="g28"><g
                   transform="scale(-1)"
                   id="g30"><g
                     id="g32" /><g
                     transform="rotate(180,-21.6275,10.9975)"
                     id="g34"><g
                       id="g36" /><g
                       id="g38" /><g
                       transform="translate(-43.255,21.995)"
                       id="g40" /></g></g></g></g><g
               id="g42"><g
                 id="g44"><path
                   id="path46"
                   style="fill:#0000ff;fill-opacity:1;fill-rule:nonzero;stroke:#0000ff;stroke-width:0.79701;stroke-linecap:butt;stroke-linejoin:miter;stroke-miterlimit:10;stroke-dasharray:none;stroke-opacity:1"
                   d="m 75.54619,35.43349 c 0,7.82785 -6.34555,14.1734 -14.17339,14.1734 -7.82785,0 -14.1734,-6.34555 -14.1734,-14.1734 0,-7.82784 6.34555,-14.17339 14.1734,-14.17339 7.82784,0 14.17339,6.34555 14.17339,14.17339 z" /></g><g
                 id="g48"><g
                   transform="scale(-1)"
                   id="g50"><g
                     id="g52" /><g
                     transform="rotate(180,-21.6275,10.9975)"
                     id="g54"><g
                       id="g56" /><g
                       transform="translate(61.373,35.433)"
                       id="g58" /><g
                       transform="translate(-43.255,21.995)"
                       id="g60" /></g></g></g></g><g
               id="g62"><g
                 clip-path="url(#clipPath68)"
                 id="g64"><g
                   transform="translate(24.62697,14.21924)"
                   id="g70"><path
                     id="path72"
                     style="fill:#ff0000;fill-opacity:1;fill-rule:nonzero;stroke:none"
                     d="m -13.35506,25.12926 -25.4925,-14.719 28.44119,-49.25901 25.49251,14.71899 z" /><path
                     id="path74"
                     style="fill:#0000ff;fill-opacity:1;fill-rule:nonzero;stroke:none"
                     d="M 9.50131,38.32619 22.68033,45.93555 51.12152,-3.32347 37.9425,-10.93283 Z" /><g
                     transform="matrix(0.24588,0.14197,-0.28441,0.49258,12.29416,7.09846)"
                     id="g76"><g
                       id="g78"><g
                         transform="scale(-1)"
                         id="g80"><g
                           id="g82" /><g
                           transform="rotate(180,-21.6275,10.9975)"
                           id="g84"><g
                             id="g86" /><g
                             transform="translate(-93.255,-28.005)"
                             id="g88"><g
                               id="g90"><g
                                 clip-path="url(#clipPath96)"
                                 id="g92"><path
                                   id="path104"
                                   style="fill:url(#linearGradient102);stroke:none"
                                   d="M 0,0 H 100 V 100 H 0 Z" /></g></g></g><g
                             transform="translate(-43.255,21.995)"
                             id="g106" /></g></g></g></g></g></g></g></g></g></g></g></g></svg>