<?xml version="1.0" encoding="UTF-8" standalone="no"?>
<svg
   xmlns:dc="http://purl.org/dc/elements/1.1/"
   xmlns:cc="http://creativecommons.org/ns#"
   xmlns:rdf="http://www.w3.org/1999/02/22-rdf-syntax-ns#"
   xmlns:svg="http://www.w3.org/2000/svg"
   xmlns="http://www.w3.org/2000/svg"
   viewBox="0 0 552.82666 450.60001"
   height="450.60001"
   width="552.82666"
   xml:space="preserve"
   id="svg2"
   version="1.1"><metadata
     id="metadata8"><rdf:RDF><cc:Work
         rdf:about=""><dc:format>image/svg+xml</dc:format><dc:type
           rdf:resource="http://purl.org/dc/dcmitype/StillImage" /></cc:Work></rdf:RDF></metadata><defs
     id="defs6"><clipPath
       id="clipPath80"
       clipPathUnits="userSpaceOnUse"><path
         id="path78"
         d="m 53.27484,19.39066 c 4.55829,-12.52367 4.55829,-26.25765 0,-38.78132 4.84766,13.3187 17.59218,16.60024 31.7656,16.60024 v 5.58084 c -14.17342,0 -26.91794,3.28154 -31.7656,16.60024 z m 31.7656,-22.18108 h 8.85841 V 2.79045 H 85.04044 Z M 111.767,10.90724 c -2.56403,-7.04455 -2.56403,-14.76993 0,-21.81448 -2.72681,7.49176 -9.8956,8.11682 -17.86814,8.11682 v 5.58084 c 7.97254,0 15.14133,0.62506 17.86814,8.11682 z" /></clipPath><clipPath
       id="clipPath108"
       clipPathUnits="userSpaceOnUse"><path
         id="path106"
         d="M 0,0 H 100 V 100 H 0 Z" /></clipPath><linearGradient
       id="linearGradient114"
       gradientUnits="userSpaceOnUse"
       y2="0"
       x2="100.00128"
       y1="0"
       x1="0"><stop
         id="stop110"
         offset="0"
         style="stop-opacity:1;stop-color:#000000" /><stop
         id="stop112"
         offset="1"
         style="stop-opacity:1;stop-color:#008000" /></linearGradient><clipPath
       id="clipPath280"
       clipPathUnits="userSpaceOnUse"><path
         id="path278"
         d="M 43.5182,-36.59792 C 34.95169,-46.8073 23.05788,-53.6743 9.93309,-55.98859 c 13.95798,2.46122 23.17212,-6.93493 30.25882,-19.20929 l 4.83307,2.79042 c -7.0867,12.27436 -10.61711,24.95206 -1.50678,35.80954 z m 5.77729,-43.20613 -4.27051,7.39663 -4.83308,-2.79044 4.2705,-7.39661 z m 15.96334,-11.41563 c -7.38267,-1.30179 -14.07298,-5.16449 -18.89161,-10.90722 5.12456,6.10731 2.08146,12.62812 -1.90482,19.53243 l 4.83307,2.79041 c 3.98628,-6.90431 8.112,-12.80005 15.96336,-11.41562 z" /></clipPath><clipPath
       id="clipPath308"
       clipPathUnits="userSpaceOnUse"><path
         id="path306"
         d="M 0,0 H 100 V 100 H 0 Z" /></clipPath><linearGradient
       id="linearGradient314"
       gradientUnits="userSpaceOnUse"
       y2="0"
       x2="100.00128"
       y1="0"
       x1="0"><stop
         id="stop310"
         offset="0"
         style="stop-opacity:1;stop-color:#000000" /><stop
         id="stop312"
         offset="1"
         style="stop-opacity:1;stop-color:#0000ff" /></linearGradient><clipPath
       id="clipPath412"
       clipPathUnits="userSpaceOnUse"><path
         id="path410"
         d="m -9.93309,-55.98859 c -13.12479,2.31429 -25.0186,9.18129 -33.58511,19.39067 9.11033,-10.85748 5.57992,-23.53518 -1.50678,-35.80954 l 4.83307,-2.79042 c 7.0867,12.27436 16.30084,21.67051 30.25882,19.20929 z m -34.5293,-26.60589 4.27051,7.3966 -4.83308,2.79044 -4.27051,-7.39662 z m -1.90483,-19.53242 c -4.81863,5.74273 -11.50894,9.60543 -18.89161,10.90722 7.85136,-1.38443 11.97708,4.51131 15.96336,11.41562 l 4.83307,-2.79041 c -3.98628,-6.90431 -7.02938,-13.42512 -1.90482,-19.53243 z" /></clipPath><clipPath
       id="clipPath440"
       clipPathUnits="userSpaceOnUse"><path
         id="path438"
         d="M 0,0 H 100 V 100 H 0 Z" /></clipPath><linearGradient
       id="linearGradient446"
       gradientUnits="userSpaceOnUse"
       y2="0"
       x2="100.00128"
       y1="0"
       x1="0"><stop
         id="stop442"
         offset="0"
         style="stop-opacity:1;stop-color:#000000" /><stop
         id="stop444"
         offset="1"
         style="stop-opacity:1;stop-color:#ff0000" /></linearGradient><clipPath
       id="clipPath484"
       clipPathUnits="userSpaceOnUse"><path
         id="path482"
         d="m -53.27484,-19.39066 c -4.55829,12.52367 -4.55829,26.25765 0,38.78132 C -58.1225,6.07196 -70.86702,2.79042 -85.04044,2.79042 v -5.58084 c 14.17342,0 26.91794,-3.28154 31.7656,-16.60024 z m -40.62402,16.60022 h 8.85842 v 5.58086 h -8.85842 z m -17.86814,-8.1168 c 2.56403,7.04455 2.56403,14.76993 0,21.81448 2.72681,-7.49176 9.8956,-8.11682 17.86814,-8.11682 v -5.58084 c -7.97254,0 -15.14133,-0.62506 -17.86814,-8.11682 z" /></clipPath><clipPath
       id="clipPath512"
       clipPathUnits="userSpaceOnUse"><path
         id="path510"
         d="M 0,0 H 100 V 100 H 0 Z" /></clipPath><linearGradient
       id="linearGradient518"
       gradientUnits="userSpaceOnUse"
       y2="0"
       x2="100.00128"
       y1="0"
       x1="0"><stop
         id="stop514"
         offset="0"
         style="stop-opacity:1;stop-color:#000000" /><stop
         id="stop516"
         offset="1"
         style="stop-opacity:1;stop-color:#ff8000" /></linearGradient></defs><g
     transform="matrix(1.3333333,0,0,-1.3333333,0,450.6)"
     id="g10"><g
       transform="translate(72,265.955)"
       id="g12"><g
         transform="translate(102.22,-35.605)"
         id="g14"><g
           id="g16"><g
             id="g18" /><g
             id="g20"><g
               id="g22"><g
                 id="g24"><g
                   id="g26"><path
                     id="path28"
                     style="fill:#000000;fill-opacity:1;fill-rule:nonzero;stroke:#000000;stroke-width:1.19553006;stroke-linecap:butt;stroke-linejoin:miter;stroke-miterlimit:10;stroke-dasharray:none;stroke-opacity:1"
                     d="M 56.69363,0 C 56.69363,31.31142 31.31142,56.69363 0,56.69363 -31.31142,56.69363 -56.69363,31.31142 -56.69363,0 c 0,-31.31142 25.38221,-56.69363 56.69363,-56.69363 31.31142,0 56.69363,25.38221 56.69363,56.69363 z" /></g><g
                   id="g30"><g
                     transform="scale(-1)"
                     id="g32"><g
                       id="g34" /><g
                       transform="rotate(180,51.11,-17.8025)"
                       id="g36"><g
                         id="g38" /><g
                         transform="translate(-49.607,-3.06)"
                         id="g40"><text
                           id="text44"
                           style="font-variant:normal;font-size:12px;font-family:LMRoman12-Regular-Identity;-inkscape-font-specification:LMRoman12-Regular-Identity-H;writing-mode:lr-tb;fill:#ffffff;fill-opacity:1;fill-rule:nonzero;stroke:none"
                           transform="matrix(1,0,0,-1,105.438,-35.605)"><tspan
                             id="tspan42"
                             y="0"
                             x="0 8.4840002 14.364 24.156 30.684 37.212002 41.784 47.004002 55.571999 62.099998 67.32 70.584 75.804001 82.332001 87.552002">ComputerScience</tspan></text>
</g><g
                         transform="translate(102.22,-35.605)"
                         id="g46" /></g></g></g></g><g
                 id="g48"><g
                   id="g50"><g
                     id="g52"><path
                       id="path54"
                       style="fill:#008000;fill-opacity:1;fill-rule:nonzero;stroke:#008000;stroke-width:1.19553006;stroke-linecap:butt;stroke-linejoin:miter;stroke-miterlimit:10;stroke-dasharray:none;stroke-opacity:1"
                       d="m 173.62427,0 c 0,17.61267 -14.27748,31.89015 -31.89017,31.89015 -17.61267,0 -31.89017,-14.27748 -31.89017,-31.89015 0,-17.61267 14.2775,-31.89015 31.89017,-31.89015 17.61269,0 31.89017,14.27748 31.89017,31.89015 z" /></g><g
                     id="g56"><g
                       transform="scale(-1)"
                       id="g58"><g
                         id="g60" /><g
                         transform="rotate(180,51.11,-17.8025)"
                         id="g62"><g
                           id="g64" /><g
                           transform="translate(113.387,-2.25)"
                           id="g66"><text
                             id="text70"
                             style="font-variant:normal;font-size:9px;font-family:LMRoman9-Regular-Identity;-inkscape-font-specification:LMRoman9-Regular-Identity-H;writing-mode:lr-tb;fill:#ffffff;fill-opacity:1;fill-rule:nonzero;stroke:none"
                             transform="matrix(1,0,0,-1,113.075,-35.605)"><tspan
                               id="tspan68"
                               y="0"
                               x="0 5.1389999 8.757 13.383 17.496 21.096001 23.67 27.783001 32.409">practical</tspan></text>
</g><g
                           transform="translate(102.22,-35.605)"
                           id="g72" /></g></g></g></g><g
                   id="g74"><g
                     clip-path="url(#clipPath80)"
                     id="g76"><g
                       transform="translate(56.69363)"
                       id="g82"><path
                         id="path84"
                         style="fill:#000000;fill-opacity:1;fill-rule:nonzero;stroke:none"
                         d="M 0.99628,56.70085 H -56.69363 V -56.70085 H 0.99628 Z" /><path
                         id="path86"
                         style="fill:#008000;fill-opacity:1;fill-rule:nonzero;stroke:none"
                         d="M 52.15402,56.70085 H 85.04047 V -56.70085 H 52.15402 Z" /><g
                         transform="matrix(0.53156,0,0,1.134,26.57808,0)"
                         id="g88"><g
                           id="g90"><g
                             transform="scale(-1)"
                             id="g92"><g
                               id="g94" /><g
                               transform="rotate(180,51.11,-17.8025)"
                               id="g96"><g
                                 id="g98" /><g
                                 transform="translate(52.22,-85.605)"
                                 id="g100"><g
                                   id="g102"><g
                                   clip-path="url(#clipPath108)"
                                   id="g104"><path
                                   id="path116"
                                   style="fill:url(#linearGradient114);stroke:none"
                                   d="M 0,0 H 100 V 100 H 0 Z" /></g></g></g><g
                                 transform="translate(102.22,-35.605)"
                                 id="g118" /></g></g></g></g></g></g></g><g
                   id="g120"><g
                     id="g122"><g
                       id="g124"><path
                         id="path126"
                         style="fill:#008000;fill-opacity:1;fill-rule:nonzero;stroke:#008000;stroke-width:1.19553006;stroke-linecap:butt;stroke-linejoin:miter;stroke-miterlimit:10;stroke-dasharray:none;stroke-opacity:1"
                         d="m 166.53755,82.2056 c 0,13.69874 -11.1047,24.80346 -24.80345,24.80346 -13.69875,0 -24.80345,-11.10472 -24.80345,-24.80346 0,-13.69875 11.1047,-24.80345 24.80345,-24.80345 13.69875,0 24.80345,11.1047 24.80345,24.80345 z" /></g><g
                       id="g128"><g
                         transform="scale(-1)"
                         id="g130"><g
                           id="g132" /><g
                           transform="rotate(180,51.11,-17.8025)"
                           id="g134"><g
                             id="g136" /><g
                             transform="translate(120.474,80.372)"
                             id="g138"><text
                               id="text142"
                               style="font-variant:normal;font-size:7.5px;font-family:LMRoman8-Regular-Identity;-inkscape-font-specification:LMRoman8-Regular-Identity-H;writing-mode:lr-tb;fill:#ffffff;fill-opacity:1;fill-rule:nonzero;stroke:none"
                               transform="matrix(1,0,0,-1,105.09,-35.605)"><tspan
                                 id="tspan140"
                                 y="0"
                                 x="0 3.9825001 6.1950002 10.1775 14.16 17.264999 19.477501 22.575001 27 33.637501">algorithms</tspan></text>
</g><g
                             transform="translate(102.22,-35.605)"
                             id="g144" /></g></g></g></g><g
                     id="g146"><path
                       id="path148"
                       style="fill:#008000;fill-opacity:1;fill-rule:nonzero;stroke:none"
                       d="m 130.82684,29.96709 c 7.04456,2.56402 14.76996,2.56402 21.81452,0 -7.49176,2.72681 -8.73693,9.89561 -8.73693,17.86815 h -4.34065 c 0,-7.97254 -1.24516,-15.14134 -8.73694,-17.86815 z m 8.73693,15.03332 v 2.83483 h 4.34066 v -2.83483 z m -6.31308,13.89746 c 5.47909,-1.99424 11.48773,-1.99424 16.96682,0 -5.8269,-2.12085 -6.31308,-7.69657 -6.31308,-13.89746 h -4.34065 c 0,6.20089 -0.48618,11.77661 -6.31309,13.89746 z" /></g></g><g
                   id="g150"><g
                     id="g152"><g
                       id="g154"><path
                         id="path156"
                         style="fill:#008000;fill-opacity:1;fill-rule:nonzero;stroke:#008000;stroke-width:1.19553006;stroke-linecap:butt;stroke-linejoin:miter;stroke-miterlimit:10;stroke-dasharray:none;stroke-opacity:1"
                         d="m 237.7299,41.1028 c 0,13.69874 -11.10472,24.80345 -24.80346,24.80345 -13.69875,0 -24.80345,-11.10471 -24.80345,-24.80345 0,-13.69875 11.1047,-24.80345 24.80345,-24.80345 13.69874,0 24.80346,11.1047 24.80346,24.80345 z" /></g><g
                       id="g158"><g
                         transform="scale(-1)"
                         id="g160"><g
                           id="g162" /><g
                           transform="rotate(180,51.11,-17.8025)"
                           id="g164"><g
                             id="g166" /><g
                             transform="translate(191.666,44.388)"
                             id="g168"><text
                               id="text174"
                               style="font-variant:normal;font-size:7.5px;font-family:LMRoman8-Regular-Identity;-inkscape-font-specification:LMRoman8-Regular-Identity-H;writing-mode:lr-tb;fill:#ffffff;fill-opacity:1;fill-rule:nonzero;stroke:none"
                               transform="matrix(1,0,0,-1,115.736,-35.605)"><tspan
                                 id="tspan170"
                                 y="0"
                                 x="0 4.4250002 8.4075003 11.505">data</tspan><tspan
                                 id="tspan172"
                                 y="11.7"
                                 x="-9.566 -6.4235001 -3.326 -0.221 4.204 7.744 10.8415 15.2665 18.3715 21.911501">structures</tspan></text>
</g><g
                             transform="translate(102.22,-35.605)"
                             id="g176" /></g></g></g></g><g
                     id="g178"><path
                       id="path180"
                       style="fill:#008000;fill-opacity:1;fill-rule:nonzero;stroke:none"
                       d="m 162.32072,24.48018 c 5.74258,-4.81885 9.60503,-11.50926 10.90658,-18.89195 -1.38416,7.85139 4.20167,12.51391 11.10612,16.49994 l -2.17017,3.7591 c -6.90445,-3.98602 -13.73538,-6.49186 -19.84253,-1.36709 z m 17.22938,-0.14148 2.61314,1.50857 2.17018,-3.75912 -2.61314,-1.50859 z m 8.87922,12.41559 c 1.01232,-5.7421 4.01644,-10.94576 8.48288,-14.69374 -4.74997,3.98591 -9.82179,1.61926 -15.19192,-1.48099 l -2.17017,3.75912 c 5.37012,3.10024 9.95578,6.30898 8.87921,12.41561 z" /></g></g><g
                   id="g182"><g
                     id="g184"><g
                       id="g186"><path
                         id="path188"
                         style="fill:#008000;fill-opacity:1;fill-rule:nonzero;stroke:#008000;stroke-width:1.19553006;stroke-linecap:butt;stroke-linejoin:miter;stroke-miterlimit:10;stroke-dasharray:none;stroke-opacity:1"
                         d="m 239.80183,-41.1028 c 0,14.84306 -12.03233,26.8754 -26.87539,26.8754 -14.84305,0 -26.8754,-12.03234 -26.8754,-26.8754 0,-14.84306 12.03235,-26.8754 26.8754,-26.8754 14.84306,0 26.87539,12.03234 26.87539,26.8754 z" /></g><g
                       id="g190"><g
                         transform="scale(-1)"
                         id="g192"><g
                           id="g194" /><g
                           transform="rotate(180,51.11,-17.8025)"
                           id="g196"><g
                             id="g198" /><g
                             transform="translate(191.666,-30.306)"
                             id="g200"><text
                               id="text208"
                               style="font-variant:normal;font-size:7.5px;font-family:LMRoman8-Regular-Identity;-inkscape-font-specification:LMRoman8-Regular-Identity-H;writing-mode:lr-tb;fill:#ffffff;fill-opacity:1;fill-rule:nonzero;stroke:none"
                               transform="matrix(1,0,0,-1,116.396,-35.605)"><tspan
                                 id="tspan202"
                                 y="0"
                                 x="0 4.4250002 7.5300002 11.5125">pro-</tspan><tspan
                                 id="tspan204"
                                 y="11.7"
                                 x="-10.399 -6.4165001 -3.3115001 0.671 7.3084998 13.946 16.158501 20.5835">gramming</tspan><tspan
                                 id="tspan206"
                                 y="23.4"
                                 x="-9.7539997 -7.5415001 -3.559 0.866 4.8484998 9.2735004 13.256 17.238501 20.7785">languages</tspan></text>
</g><g
                             transform="translate(102.22,-35.605)"
                             id="g210" /></g></g></g></g><g
                     id="g212"><path
                       id="path214"
                       style="fill:#008000;fill-opacity:1;fill-rule:nonzero;stroke:none"
                       d="m 173.22696,-5.58878 c -1.30133,-7.38261 -5.16354,-14.07302 -10.9059,-18.89195 6.1069,5.12485 12.84717,2.46222 19.75162,-1.52356 l 2.35132,4.07314 c -6.90445,3.98578 -12.58097,8.49105 -11.19704,16.34237 z m 5.88184,-13.274 5.31521,-3.06834 -2.35133,-4.07315 -5.31522,3.06836 z m 16.46075,-1.60426 c -4.83935,-4.06113 -8.09424,-9.69945 -9.19093,-15.92116 1.16632,6.61667 -3.80246,10.09326 -9.62116,13.45229 l 2.35132,4.07311 c 5.81871,-3.359 11.31419,-5.92318 16.46077,-1.60424 z" /></g></g><g
                   id="g216"><g
                     id="g218"><g
                       id="g220"><path
                         id="path222"
                         style="fill:#008000;fill-opacity:1;fill-rule:nonzero;stroke:#008000;stroke-width:1.19553006;stroke-linecap:butt;stroke-linejoin:miter;stroke-miterlimit:10;stroke-dasharray:none;stroke-opacity:1"
                         d="m 166.53755,-82.2056 c 0,13.69875 -11.1047,24.80345 -24.80345,24.80345 -13.69875,0 -24.80345,-11.1047 -24.80345,-24.80345 0,-13.69874 11.1047,-24.80346 24.80345,-24.80346 13.69875,0 24.80345,11.10472 24.80345,24.80346 z" /></g><g
                       id="g224"><g
                         transform="scale(-1)"
                         id="g226"><g
                           id="g228" /><g
                           transform="rotate(180,51.11,-17.8025)"
                           id="g230"><g
                             id="g232" /><g
                             transform="translate(120.474,-78.227)"
                             id="g234"><text
                               id="text240"
                               style="font-variant:normal;font-size:7.5px;font-family:LMRoman8-Regular-Identity;-inkscape-font-specification:LMRoman8-Regular-Identity-H;writing-mode:lr-tb;fill:#ffffff;fill-opacity:1;fill-rule:nonzero;stroke:none"
                               transform="matrix(1,0,0,-1,109.185,-35.605)"><tspan
                                 id="tspan236"
                                 y="0"
                                 x="0 3.1424999 7.125 9.5625 12.435 17.9625 21.945 25.049999">software</tspan><tspan
                                 id="tspan238"
                                 y="11.7"
                                 x="-5.4000001 -1.86 2.5650001 6.5475001 8.7600002 13.185 16.725 20.264999 23.370001 25.5825 30.0075">engineering</tspan></text>
</g><g
                             transform="translate(102.22,-35.605)"
                             id="g242" /></g></g></g></g><g
                     id="g244"><path
                       id="path246"
                       style="fill:#008000;fill-opacity:1;fill-rule:nonzero;stroke:none"
                       d="m 152.64136,-29.96709 c -7.04456,-2.56402 -14.76996,-2.56402 -21.81452,0 7.49178,-2.72681 8.73694,-9.89561 8.73694,-17.86815 h 4.34065 c 0,7.97254 1.24517,15.14134 8.73693,17.86815 z m -8.73691,-15.03332 v -2.83483 h -4.34067 v 2.83483 z m 6.31306,-13.89746 c -5.47909,1.99424 -11.48773,1.99424 -16.96682,0 5.82691,2.12085 6.31309,7.69657 6.31309,13.89746 h 4.34065 c 0,-6.20089 0.48618,-11.77661 6.31308,-13.89746 z" /></g></g></g><g
                 id="g248"><g
                   id="g250"><g
                     id="g252"><path
                       id="path254"
                       style="fill:#0000ff;fill-opacity:1;fill-rule:nonzero;stroke:#0000ff;stroke-width:1.19553006;stroke-linecap:butt;stroke-linejoin:miter;stroke-miterlimit:10;stroke-dasharray:none;stroke-opacity:1"
                       d="m 102.7572,-122.74568 c 0,17.61268 -14.27748,31.89017 -31.89017,31.89017 -17.61267,0 -31.89015,-14.27749 -31.89015,-31.89017 0,-17.61267 14.27748,-31.89015 31.89015,-31.89015 17.61269,0 31.89017,14.27748 31.89017,31.89015 z" /></g><g
                     id="g256"><g
                       transform="scale(-1)"
                       id="g258"><g
                         id="g260" /><g
                         transform="rotate(180,51.11,-17.8025)"
                         id="g262"><g
                           id="g264" /><g
                           transform="translate(42.52,-124.996)"
                           id="g266"><text
                             id="text270"
                             style="font-variant:normal;font-size:9px;font-family:LMRoman9-Regular-Identity;-inkscape-font-specification:LMRoman9-Regular-Identity-H;writing-mode:lr-tb;fill:#ffffff;fill-opacity:1;fill-rule:nonzero;stroke:none"
                             transform="matrix(1,0,0,-1,115.914,-35.605)"><tspan
                               id="tspan268"
                               y="0"
                               x="0 4.6259999 9.7650003 14.904 17.478001 20.052 24.165001">applied</tspan></text>
</g><g
                           transform="translate(102.22,-35.605)"
                           id="g272" /></g></g></g></g><g
                   id="g274"><g
                     clip-path="url(#clipPath280)"
                     id="g276"><g
                       transform="translate(28.43677,-49.25397)"
                       id="g282"><path
                         id="path284"
                         style="fill:#000000;fill-opacity:1;fill-rule:nonzero;stroke:none"
                         d="M 49.75952,27.57414 20.82303,77.69365 -77.69658,20.81427 -48.76009,-29.30522 Z" /><path
                         id="path286"
                         style="fill:#0000ff;fill-opacity:1;fill-rule:nonzero;stroke:none"
                         d="m 75.36285,-16.77217 16.49541,-28.57088 -98.51959,-56.87939 -16.49541,28.57089 z" /><g
                         transform="matrix(0.26605,-0.46082,0.98518,0.56879,13.30276,-23.04105)"
                         id="g288"><g
                           id="g290"><g
                             transform="scale(-1)"
                             id="g292"><g
                               id="g294" /><g
                               transform="rotate(180,51.11,-17.8025)"
                               id="g296"><g
                                 id="g298" /><g
                                 transform="translate(52.22,-85.605)"
                                 id="g300"><g
                                   id="g302"><g
                                   clip-path="url(#clipPath308)"
                                   id="g304"><path
                                   id="path316"
                                   style="fill:url(#linearGradient314);stroke:none"
                                   d="M 0,0 H 100 V 100 H 0 Z" /></g></g></g><g
                                 transform="translate(102.22,-35.605)"
                                 id="g318" /></g></g></g></g></g></g></g><g
                   id="g320"><g
                     id="g322"><g
                       id="g324"><path
                         id="path326"
                         style="fill:#0000ff;fill-opacity:1;fill-rule:nonzero;stroke:#0000ff;stroke-width:1.19553006;stroke-linecap:butt;stroke-linejoin:miter;stroke-miterlimit:10;stroke-dasharray:none;stroke-opacity:1"
                         d="m 166.86284,-163.84848 c 0,13.69875 -11.10472,24.80345 -24.80347,24.80345 -13.69874,0 -24.80345,-11.1047 -24.80345,-24.80345 0,-13.69875 11.10471,-24.80345 24.80345,-24.80345 13.69875,0 24.80347,11.1047 24.80347,24.80345 z" /></g><g
                       id="g328"><g
                         transform="scale(-1)"
                         id="g330"><g
                           id="g332" /><g
                           transform="rotate(180,51.11,-17.8025)"
                           id="g334"><g
                             id="g336" /><g
                             transform="translate(120.799,-166.414)"
                             id="g338"><text
                               id="text342"
                               style="font-variant:normal;font-size:7.5px;font-family:LMRoman8-Regular-Identity;-inkscape-font-specification:LMRoman8-Regular-Identity-H;writing-mode:lr-tb;fill:#ffffff;fill-opacity:1;fill-rule:nonzero;stroke:none"
                               transform="matrix(1,0,0,-1,106.62,-35.605)"><tspan
                                 id="tspan340"
                                 y="0"
                                 x="0 4.4250002 8.4075003 11.505 15.4875 19.9125 23.895 27.0375 30.577499">databases</tspan></text>
</g><g
                             transform="translate(102.22,-35.605)"
                             id="g344" /></g></g></g></g><g
                     id="g346"><path
                       id="path348"
                       style="fill:#0000ff;fill-opacity:1;fill-rule:nonzero;stroke:none"
                       d="m 102.36023,-128.33391 c -1.30154,-7.38269 -5.164,-14.0731 -10.90657,-18.89195 6.10714,5.12477 12.93808,2.61891 19.84253,-1.3671 l 2.17016,3.75911 c -6.90445,3.98603 -12.49028,8.64855 -11.10612,16.49994 z m 8.493,-14.99132 2.61314,-1.50859 -2.17018,-3.75912 -2.61315,1.50857 z m 15.19192,-1.481 c -4.46646,-3.74798 -7.47058,-8.95164 -8.48289,-14.69374 1.07656,6.10663 -3.50908,9.31535 -8.87922,12.4156 l 2.17017,3.75913 c 5.37013,-3.10025 10.44196,-5.46692 15.19194,-1.48099 z" /></g></g><g
                   id="g350"><g
                     id="g352"><g
                       id="g354"><path
                         id="path356"
                         style="fill:#0000ff;fill-opacity:1;fill-rule:nonzero;stroke:#0000ff;stroke-width:1.19553006;stroke-linecap:butt;stroke-linejoin:miter;stroke-miterlimit:10;stroke-dasharray:none;stroke-opacity:1"
                         d="m 95.6705,-204.9513 c 0,13.69877 -11.10472,24.80347 -24.80347,24.80347 -13.69874,0 -24.80345,-11.1047 -24.80345,-24.80347 0,-13.69874 11.10471,-24.80345 24.80345,-24.80345 13.69875,0 24.80347,11.10471 24.80347,24.80345 z" /></g><g
                       id="g358"><g
                         transform="scale(-1)"
                         id="g360"><g
                           id="g362" /><g
                           transform="rotate(180,51.11,-17.8025)"
                           id="g364"><g
                             id="g366" /><g
                             transform="translate(49.607,-207.434)"
                             id="g368"><text
                               id="text372"
                               style="font-variant:normal;font-size:7.5px;font-family:LMRoman8-Regular-Identity;-inkscape-font-specification:LMRoman8-Regular-Identity-H;writing-mode:lr-tb;fill:#ffffff;fill-opacity:1;fill-rule:nonzero;stroke:none"
                               transform="matrix(1,0,0,-1,111.206,-35.605)"><tspan
                                 id="tspan370"
                                 y="0"
                                 x="0 8.1824999 16.365">WWW</tspan></text>
</g><g
                             transform="translate(102.22,-35.605)"
                             id="g374" /></g></g></g></g><g
                     id="g376"><path
                       id="path378"
                       style="fill:#0000ff;fill-opacity:1;fill-rule:nonzero;stroke:none"
                       d="m 81.77429,-152.71277 c -7.04455,-2.56403 -14.76996,-2.56403 -21.81449,0 7.49175,-2.72682 8.73692,-9.89561 8.73692,-17.86815 h 4.34065 c 0,7.97254 1.24516,15.14133 8.73692,17.86815 z m -8.73691,-15.03333 v -2.83482 h -4.34066 v 2.83482 z m 6.31308,-13.89745 c -5.47909,1.99425 -11.48774,1.99425 -16.96684,0 5.82692,2.12085 6.3131,7.69657 6.3131,13.89745 h 4.34065 c 0,-6.20088 0.48617,-11.7766 6.31309,-13.89745 z" /></g></g></g><g
                 id="g380"><g
                   id="g382"><g
                     id="g384"><path
                       id="path386"
                       style="fill:#ff0000;fill-opacity:1;fill-rule:nonzero;stroke:#ff0000;stroke-width:1.19553006;stroke-linecap:butt;stroke-linejoin:miter;stroke-miterlimit:10;stroke-dasharray:none;stroke-opacity:1"
                       d="m -38.97688,-122.74568 c 0,17.61268 -14.27748,31.89017 -31.89015,31.89017 -17.61269,0 -31.89017,-14.27749 -31.89017,-31.89017 0,-17.61267 14.27748,-31.89015 31.89017,-31.89015 17.61267,0 31.89015,14.27748 31.89015,31.89015 z" /></g><g
                     id="g388"><g
                       transform="scale(-1)"
                       id="g390"><g
                         id="g392" /><g
                         transform="rotate(180,51.11,-17.8025)"
                         id="g394"><g
                           id="g396" /><g
                           transform="translate(-99.214,-125.819)"
                           id="g398"><text
                             id="text402"
                             style="font-variant:normal;font-size:9px;font-family:LMRoman9-Regular-Identity;-inkscape-font-specification:LMRoman9-Regular-Identity-H;writing-mode:lr-tb;fill:#ffffff;fill-opacity:1;fill-rule:nonzero;stroke:none"
                             transform="matrix(1,0,0,-1,112.701,-35.605)"><tspan
                               id="tspan400"
                               y="0"
                               x="0 3.5999999 7.7129998 11.574 16.712999 21.851999 24.426001 28.539 33.165001">technical</tspan></text>
</g><g
                           transform="translate(102.22,-35.605)"
                           id="g404" /></g></g></g></g><g
                   id="g406"><g
                     clip-path="url(#clipPath412)"
                     id="g408"><g
                       transform="translate(-28.43677,-49.25397)"
                       id="g414"><path
                         id="path416"
                         style="fill:#000000;fill-opacity:1;fill-rule:nonzero;stroke:none"
                         d="M 48.76009,-29.30522 77.69658,20.81427 -20.82303,77.69365 -49.75952,27.57414 Z" /><path
                         id="path418"
                         style="fill:#ff0000;fill-opacity:1;fill-rule:nonzero;stroke:none"
                         d="m 23.15674,-73.65155 -16.49541,-28.57089 -98.51959,56.87939 16.49541,28.57088 z" /><g
                         transform="matrix(-0.26605,-0.46082,0.98518,-0.56879,-13.30276,-23.04105)"
                         id="g420"><g
                           id="g422"><g
                             transform="scale(-1)"
                             id="g424"><g
                               id="g426" /><g
                               transform="rotate(180,51.11,-17.8025)"
                               id="g428"><g
                                 id="g430" /><g
                                 transform="translate(52.22,-85.605)"
                                 id="g432"><g
                                   id="g434"><g
                                   clip-path="url(#clipPath440)"
                                   id="g436"><path
                                   id="path448"
                                   style="fill:url(#linearGradient446);stroke:none"
                                   d="M 0,0 H 100 V 100 H 0 Z" /></g></g></g><g
                                 transform="translate(102.22,-35.605)"
                                 id="g450" /></g></g></g></g></g></g></g></g><g
                 id="g452"><g
                   id="g454"><g
                     id="g456"><path
                       id="path458"
                       style="fill:#ff8000;fill-opacity:1;fill-rule:nonzero;stroke:#ff8000;stroke-width:1.19553006;stroke-linecap:butt;stroke-linejoin:miter;stroke-miterlimit:10;stroke-dasharray:none;stroke-opacity:1"
                       d="m -109.84393,0 c 0,17.61267 -14.2775,31.89015 -31.89017,31.89015 -17.61269,0 -31.89017,-14.27748 -31.89017,-31.89015 0,-17.61267 14.27748,-31.89015 31.89017,-31.89015 17.61267,0 31.89017,14.27748 31.89017,31.89015 z" /></g><g
                     id="g460"><g
                       transform="scale(-1)"
                       id="g462"><g
                         id="g464" /><g
                         transform="rotate(180,51.11,-17.8025)"
                         id="g466"><g
                           id="g468" /><g
                           transform="translate(-170.081,-3.074)"
                           id="g470"><text
                             id="text474"
                             style="font-variant:normal;font-size:9px;font-family:LMRoman9-Regular-Identity;-inkscape-font-specification:LMRoman9-Regular-Identity-H;writing-mode:lr-tb;fill:#ffffff;fill-opacity:1;fill-rule:nonzero;stroke:none"
                             transform="matrix(1,0,0,-1,109.218,-35.605)"><tspan
                               id="tspan472"
                               y="0"
                               x="0 3.5999999 8.7390003 12.852 17.478001 21.096001 25.209 28.809 31.382999 35.495998 40.122002">theoretical</tspan></text>
</g><g
                           transform="translate(102.22,-35.605)"
                           id="g476" /></g></g></g></g><g
                   id="g478"><g
                     clip-path="url(#clipPath484)"
                     id="g480"><g
                       transform="translate(-56.69363)"
                       id="g486"><path
                         id="path488"
                         style="fill:#000000;fill-opacity:1;fill-rule:nonzero;stroke:none"
                         d="M -0.99628,-56.70085 H 56.69363 V 56.70085 H -0.99628 Z" /><path
                         id="path490"
                         style="fill:#ff8000;fill-opacity:1;fill-rule:nonzero;stroke:none"
                         d="m -52.15402,-56.70085 h -32.88645 v 113.4017 h 32.88645 z" /><g
                         transform="matrix(-0.53156,0,0,-1.134,-26.57808,0)"
                         id="g492"><g
                           id="g494"><g
                             transform="scale(-1)"
                             id="g496"><g
                               id="g498" /><g
                               transform="rotate(180,51.11,-17.8025)"
                               id="g500"><g
                                 id="g502" /><g
                                 transform="translate(52.22,-85.605)"
                                 id="g504"><g
                                   id="g506"><g
                                   clip-path="url(#clipPath512)"
                                   id="g508"><path
                                   id="path520"
                                   style="fill:url(#linearGradient518);stroke:none"
                                   d="M 0,0 H 100 V 100 H 0 Z" /></g></g></g><g
                                 transform="translate(102.22,-35.605)"
                                 id="g522" /></g></g></g></g></g></g></g></g></g></g></g></g></g></g></svg>