<?xml version="1.0" encoding="UTF-8" standalone="no"?>
<svg
   xmlns:dc="http://purl.org/dc/elements/1.1/"
   xmlns:cc="http://creativecommons.org/ns#"
   xmlns:rdf="http://www.w3.org/1999/02/22-rdf-syntax-ns#"
   xmlns:svg="http://www.w3.org/2000/svg"
   xmlns="http://www.w3.org/2000/svg"
   viewBox="0 0 297.49332 152.77333"
   height="152.77333"
   width="297.49332"
   xml:space="preserve"
   id="svg2"
   version="1.1"><metadata
     id="metadata8"><rdf:RDF><cc:Work
         rdf:about=""><dc:format>image/svg+xml</dc:format><dc:type
           rdf:resource="http://purl.org/dc/dcmitype/StillImage" /></cc:Work></rdf:RDF></metadata><defs
     id="defs6" /><g
     transform="matrix(1.3333333,0,0,-1.3333333,0,152.77333)"
     id="g10"><g
       transform="translate(72,42.581)"
       id="g12"><g
         transform="translate(-14.709,14.709)"
         id="g14"><g
           id="g16"><g
             id="g18" /><g
             id="g20"><g
               id="g22"><g
                 id="g24"><path
                   id="path26"
                   style="fill:#3333ff;fill-opacity:1;fill-rule:nonzero;stroke:#3333ff;stroke-width:1.19553006;stroke-linecap:butt;stroke-linejoin:miter;stroke-miterlimit:10;stroke-dasharray:none;stroke-opacity:1"
                   d="M 56.69363,0 C 56.69363,31.31142 31.31142,56.69363 0,56.69363 -31.31142,56.69363 -56.69363,31.31142 -56.69363,0 c 0,-31.31142 25.38221,-56.69363 56.69363,-56.69363 31.31142,0 56.69363,25.38221 56.69363,56.69363 z" /></g><g
                 id="g28"><g
                   transform="scale(-1)"
                   id="g30"><g
                     id="g32" /><g
                     transform="rotate(180,-7.3545,7.3545)"
                     id="g34"><g
                       id="g36" /><g
                       transform="translate(-49.607,-2.934)"
                       id="g38"><text
                         id="text42"
                         style="font-variant:normal;font-size:12px;font-family:LMRoman12-Regular-Identity;-inkscape-font-specification:LMRoman12-Regular-Identity-H;writing-mode:lr-tb;fill:#000000;fill-opacity:1;fill-rule:nonzero;stroke:none"
                         transform="matrix(1,0,0,-1,0.659,14.709)"><tspan
                           id="tspan40"
                           y="0"
                           x="0 8.6520004 14.856 20.736 29.304001 34.523998 40.403999 46.931999 52.152 57.372002 63.900002">Rootconcept</tspan></text>
</g><g
                       transform="translate(-14.709,14.709)"
                       id="g44" /></g></g></g></g><g
               id="g46"><g
                 id="g48"><path
                   id="path50"
                   style="fill:#ffcccc;fill-opacity:1;fill-rule:nonzero;stroke:none"
                   d="M 161.84372,9.56673 H 64.93074 c -2.20094,0 -3.98511,-1.78417 -3.98511,-3.98511 V -5.58162 c 0,-2.20094 1.78417,-3.98511 3.98511,-3.98511 h 96.91298 c 2.20094,0 3.98511,1.78417 3.98511,3.98511 V 5.58162 c 0,2.20094 -1.78417,3.98511 -3.98511,3.98511 z" /></g><g
                 id="g52"><g
                   transform="scale(-1)"
                   id="g54"><g
                     id="g56" /><g
                     transform="rotate(180,-7.3545,7.3545)"
                     id="g58"><g
                       id="g60" /><g
                       transform="translate(63.78,2.915)"
                       id="g62"><text
                         id="text68"
                         style="font-variant:normal;font-size:5.5px;font-family:LMRoman6-Regular-Identity;-inkscape-font-specification:LMRoman6-Regular-Identity-H;writing-mode:lr-tb;fill:#000000;fill-opacity:1;fill-rule:nonzero;stroke:none"
                         transform="matrix(1,0,0,-1,-14.709,14.709)"><tspan
                           id="tspan64"
                           y="0"
                           x="0 4.7849998 8.5030003 13.794 16.439501 19.976 23.3365 28.275499 31.2785 34.639 38.356998 41.360001 44.362999 48.081001 53.02 54.956001 57.639999 61.869499 63.8055 69.817001 73.177498 76.180496 79.898499 82.901497 85.546997 88.907501 90.843498">Therootconceptis,ingeneral,</tspan><tspan
                           id="tspan66"
                           y="8.5799999"
                           x="0 2.6454999 6.3635001 11.6545 17.154499 20.514999 23.198999 28.138 30.073999 35.574001 39.467999 42.828499 45.473999 48.119499 51.48 55.0275 59.960999 62.964001 66.324501 70.042503 73.045502 76.0485 79.766502 82.412003">themostimportantconcept.</tspan></text>
</g><g
                       transform="translate(-14.709,14.709)"
                       id="g70" /></g></g></g></g></g></g></g></g></g></svg>