<?xml version="1.0" encoding="UTF-8" standalone="no"?>
<svg
   xmlns:dc="http://purl.org/dc/elements/1.1/"
   xmlns:cc="http://creativecommons.org/ns#"
   xmlns:rdf="http://www.w3.org/1999/02/22-rdf-syntax-ns#"
   xmlns:svg="http://www.w3.org/2000/svg"
   xmlns="http://www.w3.org/2000/svg"
   viewBox="0 0 151.18668 75.58667"
   height="75.58667"
   width="151.18668"
   xml:space="preserve"
   id="svg2"
   version="1.1"><metadata
     id="metadata8"><rdf:RDF><cc:Work
         rdf:about=""><dc:format>image/svg+xml</dc:format><dc:type
           rdf:resource="http://purl.org/dc/dcmitype/StillImage" /></cc:Work></rdf:RDF></metadata><defs
     id="defs6" /><g
     transform="matrix(1.3333333,0,0,-1.3333333,0,75.586667)"
     id="g10"><g
       transform="translate(72,-15.307)"
       id="g12"><g
         transform="translate(-43.654,43.654)"
         id="g14"><g
           id="g16"><g
             id="g18" /><g
             id="g20"><g
               id="g22"><path
                 id="path24"
                 style="fill:#ccccff;fill-opacity:1;fill-rule:nonzero;stroke:none"
                 d="M 28.3468,0 C 28.3468,15.6557 15.6557,28.3468 0,28.3468 -15.6557,28.3468 -28.3468,15.6557 -28.3468,0 c 0,-15.6557 12.6911,-28.3468 28.3468,-28.3468 15.6557,0 28.3468,12.6911 28.3468,28.3468 z" /></g><g
               id="g26"><path
                 id="path28"
                 style="fill:#ffcccc;fill-opacity:1;fill-rule:nonzero;stroke:none"
                 d="m 85.0404,0 c 0,7.82784 -6.34555,14.17339 -14.1734,14.17339 -7.82785,0 -14.17338,-6.34555 -14.17338,-14.17339 0,-7.82784 6.34553,-14.17339 14.17338,-14.17339 7.82785,0 14.1734,6.34555 14.1734,14.17339 z" /></g><g
               id="g30"><path
                 id="path32"
                 style="fill:#000000;fill-opacity:1;fill-rule:nonzero;stroke:#ff0000;stroke-width:0.3985;stroke-linecap:butt;stroke-linejoin:miter;stroke-miterlimit:10;stroke-dasharray:none;stroke-opacity:1"
                 d="m 24.5491,14.17339 c 5.06307,-8.76952 5.06307,-19.57726 0,-28.34678 3.54334,6.13727 10.88439,11.33873 17.9711,11.33873 v 5.66932 c -7.08671,0 -14.42776,5.20146 -17.9711,11.33873 z M 42.5202,-2.83466 h 7.08672 V 2.83468 H 42.5202 Z m 16.07227,9.92135 c -2.53153,-4.38476 -2.53153,-9.78862 0,-14.17338 -1.77168,3.06864 -5.4422,4.25203 -8.98555,4.25203 v 5.66932 c 3.54335,0 7.21387,1.18339 8.98555,4.25203 z" /></g></g></g></g></g></g></svg>