<?xml version="1.0" encoding="UTF-8"?>
<svg xmlns="http://www.w3.org/2000/svg" xmlns:xlink="http://www.w3.org/1999/xlink" width="200pt" height="200pt" viewBox="0 0 200 200" version="1.1">
<g id="surface20752">
<rect x="0" y="0" width="200" height="200" style="fill:rgb(99.998474%,99.998474%,99.998474%);fill-opacity:1;stroke:none;"/>
<path style="fill:none;stroke-width:0.03;stroke-linecap:square;stroke-linejoin:miter;stroke:rgb(99.998474%,99.998474%,99.998474%);stroke-opacity:1;stroke-miterlimit:10;" d="M 0 98 L 200 98 L 200 -102 L 0 -102 Z M 0 98 " transform="matrix(1,0,0,1,0,102)"/>
<path style="fill:none;stroke-width:1;stroke-linecap:butt;stroke-linejoin:miter;stroke:rgb(0%,0%,0%);stroke-opacity:1;stroke-miterlimit:3.25;" d="M 77.539063 208.460938 L 247.503906 38.496094 " transform="matrix(1,0,0,1,-74,-13)"/>
<path style=" stroke:none;fill-rule:evenodd;fill:rgb(0%,0%,0%);fill-opacity:1;" d="M 178.199219 20.800781 C 176.953125 19.554688 175.265625 18.855469 173.503906 18.855469 C 171.746094 18.855469 170.054688 19.554688 168.8125 20.800781 C 167.566406 22.046875 166.867188 23.734375 166.867188 25.496094 C 166.867188 27.253906 167.566406 28.945313 168.8125 30.1875 C 170.054688 31.433594 171.746094 32.132813 173.503906 32.132813 C 175.265625 32.132813 176.953125 31.433594 178.199219 30.1875 C 179.445313 28.945313 180.144531 27.253906 180.144531 25.496094 C 180.144531 23.734375 179.445313 22.046875 178.199219 20.800781 Z M 178.199219 20.800781 "/>
<path style="fill:none;stroke-width:1;stroke-linecap:square;stroke-linejoin:miter;stroke:rgb(0%,0%,0%);stroke-opacity:1;stroke-miterlimit:3.25;" d="M 71.28125 214.71875 L 83.800781 202.199219 " transform="matrix(1,0,0,1,-74,-13)"/>
<path style="fill:none;stroke-width:1;stroke-linecap:square;stroke-linejoin:miter;stroke:rgb(0%,0%,0%);stroke-opacity:1;stroke-miterlimit:3.25;" d="M 85.050781 215.96875 L 70.03125 200.949219 " transform="matrix(1,0,0,1,-74,-13)"/>
<path style="fill:none;stroke-width:1;stroke-linecap:square;stroke-linejoin:miter;stroke:rgb(0%,0%,0%);stroke-opacity:1;stroke-miterlimit:3.25;" d="M 87.554688 213.464844 L 72.535156 198.445313 " transform="matrix(1,0,0,1,-74,-13)"/>
</g>
</svg>
