<?xml version="1.0" encoding="UTF-8"?>
<svg xmlns="http://www.w3.org/2000/svg" xmlns:xlink="http://www.w3.org/1999/xlink" width="360pt" height="189pt" viewBox="0 0 360 189" version="1.1">
<defs>
<g>
<symbol overflow="visible" id="glyph0-0">
<path style="stroke:none;" d="M 1.046875 0 L 1.046875 -8.847656 L 7.3125 -8.847656 L 7.3125 0 Z M 1.75 -0.703125 L 6.617188 -0.703125 L 6.617188 -8.144531 L 1.75 -8.144531 Z M 1.75 -0.703125 "/>
</symbol>
<symbol overflow="visible" id="glyph0-1">
<path style="stroke:none;" d="M 11.3125 0.132813 L 10.886719 0.671875 C 9.597656 -0.152344 8.566406 -1.101563 7.796875 -2.1875 C 7.023438 -3.265625 6.449219 -4.609375 6.070313 -6.21875 C 5.585938 -3.40625 3.949219 -1.125 1.164063 0.640625 L 0.757813 0.09375 C 1.460938 -0.351563 2.144531 -0.890625 2.800781 -1.523438 C 3.457031 -2.152344 4 -2.8125 4.429688 -3.511719 C 4.859375 -4.207031 5.191406 -5.167969 5.425781 -6.386719 L 0.972656 -6.386719 L 0.972656 -7.007813 L 5.542969 -7.007813 C 5.667969 -7.992188 5.734375 -8.964844 5.75 -9.925781 L 6.433594 -9.925781 C 6.394531 -8.878906 6.316406 -7.90625 6.203125 -7.007813 L 11.121094 -7.007813 L 11.121094 -6.386719 L 6.671875 -6.386719 C 7.101563 -4.667969 7.695313 -3.324219 8.449219 -2.355469 C 9.199219 -1.386719 10.152344 -0.558594 11.3125 0.132813 Z M 11.3125 0.132813 "/>
</symbol>
<symbol overflow="visible" id="glyph0-2">
<path style="stroke:none;" d="M 6.503906 -0.25 C 6.503906 -0.046875 6.4375 0.128906 6.304688 0.28125 C 6.171875 0.429688 6.023438 0.527344 5.863281 0.574219 C 5.703125 0.621094 5.40625 0.644531 4.976563 0.644531 C 4.625 0.644531 4.347656 0.636719 4.140625 0.621094 L 3.890625 -0.0117188 C 4.941406 0.015625 5.53125 0 5.667969 -0.0625 C 5.796875 -0.121094 5.863281 -0.246094 5.867188 -0.433594 L 5.867188 -9.878906 L 6.503906 -9.878906 Z M 11.265625 -1.957031 L 10.65625 -1.695313 C 10.101563 -3.617188 9.421875 -5.476563 8.613281 -7.273438 L 9.226563 -7.523438 C 9.953125 -5.898438 10.632813 -4.042969 11.265625 -1.957031 Z M 3.597656 -7.351563 C 2.96875 -4.640625 2.1875 -2.742188 1.257813 -1.65625 L 0.742188 -2.039063 C 1.644531 -3.15625 2.390625 -4.984375 2.976563 -7.523438 Z M 3.597656 -7.351563 "/>
</symbol>
<symbol overflow="visible" id="glyph0-3">
<path style="stroke:none;" d="M 1.1875 0.585938 L 0.8125 0.046875 C 1.898438 -0.585938 2.84375 -1.410156 3.652344 -2.425781 C 4.457031 -3.4375 4.945313 -4.792969 5.109375 -6.492188 L 0.9375 -6.492188 L 0.9375 -7.101563 L 5.148438 -7.101563 C 5.203125 -8.136719 5.21875 -9.054688 5.195313 -9.859375 L 5.867188 -9.859375 C 5.863281 -8.898438 5.839844 -7.980469 5.796875 -7.101563 L 10.671875 -7.101563 C 10.664063 -5.867188 10.632813 -4.574219 10.578125 -3.222656 C 10.515625 -1.871094 10.449219 -0.976563 10.375 -0.539063 C 10.292969 -0.101563 10.136719 0.199219 9.90625 0.363281 C 9.667969 0.527344 9.402344 0.609375 9.105469 0.609375 C 8.398438 0.609375 7.90625 0.605469 7.632813 0.597656 L 7.382813 -0.046875 L 9.105469 -0.0234375 C 9.289063 -0.0234375 9.4375 -0.0703125 9.554688 -0.171875 C 9.667969 -0.265625 9.742188 -0.429688 9.773438 -0.65625 C 9.804688 -0.878906 9.855469 -1.617188 9.925781 -2.878906 C 9.996094 -4.132813 10.03125 -5.339844 10.03125 -6.492188 L 5.75 -6.492188 C 5.523438 -3.539063 4.003906 -1.179688 1.1875 0.585938 Z M 4.203125 -8.039063 L 3.757813 -7.582031 C 3.101563 -8.207031 2.441406 -8.726563 1.773438 -9.148438 L 2.21875 -9.640625 C 2.851563 -9.230469 3.511719 -8.699219 4.203125 -8.039063 Z M 6.320313 -4.703125 C 7.121094 -4.105469 7.929688 -3.335938 8.75 -2.390625 L 8.304688 -1.945313 C 7.40625 -2.945313 6.601563 -3.707031 5.882813 -4.234375 Z M 6.320313 -4.703125 "/>
</symbol>
<symbol overflow="visible" id="glyph0-4">
<path style="stroke:none;" d="M 4.96875 0.367188 L 4.367188 0.367188 L 4.367188 -0.664063 L 1.773438 -0.664063 L 1.773438 0.609375 L 1.164063 0.609375 L 1.164063 -7.898438 L 2.28125 -7.898438 C 2.578125 -8.433594 2.863281 -9.121094 3.132813 -9.960938 L 3.734375 -9.835938 C 3.589844 -9.410156 3.320313 -8.765625 2.917969 -7.898438 L 4.96875 -7.898438 Z M 4.367188 -4.71875 L 4.367188 -7.296875 L 1.773438 -7.296875 L 1.773438 -4.71875 Z M 4.367188 -1.273438 L 4.367188 -4.113281 L 1.773438 -4.113281 L 1.773438 -1.273438 Z M 10.980469 -7.886719 C 10.933594 -6.089844 10.84375 -4.417969 10.71875 -2.875 C 10.589844 -1.332031 10.464844 -0.425781 10.335938 -0.152344 C 10.203125 0.121094 10.035156 0.3125 9.839844 0.429688 C 9.636719 0.539063 9.257813 0.597656 8.695313 0.601563 C 8.449219 0.597656 8.125 0.59375 7.726563 0.585938 L 7.535156 -0.0234375 C 7.863281 -0.0117188 8.214844 -0.00390625 8.59375 -0.0078125 C 8.949219 -0.00390625 9.175781 -0.0078125 9.277344 -0.0195313 C 9.375 -0.0234375 9.480469 -0.0742188 9.59375 -0.167969 C 9.699219 -0.257813 9.777344 -0.363281 9.828125 -0.488281 C 9.871094 -0.605469 9.933594 -1.066406 10.015625 -1.867188 C 10.089844 -2.660156 10.15625 -3.539063 10.207031 -4.5 C 10.253906 -5.460938 10.289063 -6.390625 10.320313 -7.296875 L 7.1875 -7.296875 C 6.769531 -6.460938 6.285156 -5.671875 5.734375 -4.921875 L 5.242188 -5.265625 C 6.292969 -6.644531 7.039063 -8.183594 7.476563 -9.878906 L 8.085938 -9.71875 C 7.890625 -9.074219 7.671875 -8.464844 7.429688 -7.886719 Z M 8.773438 -2.507813 L 8.265625 -2.148438 C 7.878906 -3.035156 7.300781 -3.96875 6.527344 -4.945313 L 7.042969 -5.28125 C 7.761719 -4.40625 8.335938 -3.484375 8.773438 -2.507813 Z M 8.773438 -2.507813 "/>
</symbol>
<symbol overflow="visible" id="glyph0-5">
<path style="stroke:none;" d="M 11.351563 0.273438 L 10.867188 0.6875 C 9.792969 -1.027344 9.164063 -2.679688 8.976563 -4.28125 C 8.75 -2.445313 8.089844 -0.792969 6.996094 0.6875 L 6.503906 0.289063 C 7.765625 -1.410156 8.449219 -3.441406 8.554688 -5.820313 L 6.859375 -5.820313 L 6.859375 -6.421875 L 8.566406 -6.421875 C 8.613281 -7.597656 8.628906 -8.726563 8.613281 -9.8125 L 9.25 -9.8125 C 9.246094 -8.710938 9.230469 -7.582031 9.203125 -6.421875 L 11.257813 -6.421875 L 11.257813 -5.820313 L 9.320313 -5.820313 C 9.472656 -3.5625 10.148438 -1.535156 11.351563 0.273438 Z M 6.8125 -2.257813 L 0.8125 -2.257813 L 0.8125 -2.820313 L 3.550781 -2.820313 L 3.550781 -3.8125 L 1.089844 -3.8125 L 1.089844 -4.394531 L 3.550781 -4.394531 L 3.550781 -5.4375 L 1.367188 -5.4375 L 1.367188 -9.5625 L 6.296875 -9.5625 L 6.296875 -5.4375 L 4.15625 -5.4375 L 4.15625 -4.394531 L 6.550781 -4.394531 L 6.550781 -3.8125 L 4.15625 -3.8125 L 4.15625 -2.820313 L 6.8125 -2.820313 Z M 5.703125 -6.011719 L 5.703125 -9 L 4.15625 -9 L 4.15625 -6.011719 Z M 5.496094 -8.121094 C 5.363281 -7.476563 5.183594 -6.910156 4.957031 -6.421875 L 4.464844 -6.671875 C 4.714844 -7.214844 4.886719 -7.777344 4.980469 -8.359375 Z M 3.550781 -6.011719 L 3.550781 -9 L 1.96875 -9 L 1.96875 -6.011719 Z M 3.195313 -6.664063 L 2.703125 -6.410156 C 2.546875 -7.144531 2.390625 -7.71875 2.234375 -8.140625 L 2.703125 -8.425781 C 2.960938 -7.746094 3.125 -7.15625 3.195313 -6.664063 Z M 11.148438 -7.394531 L 10.582031 -7.101563 C 10.488281 -7.5 10.234375 -8.0625 9.828125 -8.796875 L 10.367188 -9.070313 C 10.753906 -8.417969 11.015625 -7.859375 11.148438 -7.394531 Z M 6.527344 -0.457031 L 5.976563 -0.203125 C 5.84375 -0.667969 5.636719 -1.152344 5.359375 -1.65625 L 5.917969 -1.886719 C 6.191406 -1.386719 6.394531 -0.910156 6.527344 -0.457031 Z M 2.195313 -1.59375 C 2.035156 -0.757813 1.769531 -0.0078125 1.394531 0.664063 L 0.851563 0.359375 C 1.226563 -0.359375 1.492188 -1.082031 1.648438 -1.820313 Z M 5.1875 0.117188 L 4.582031 0.3125 C 4.472656 -0.3125 4.296875 -0.929688 4.054688 -1.546875 L 4.605469 -1.742188 C 4.824219 -1.257813 5.015625 -0.640625 5.1875 0.117188 Z M 3.5625 0.457031 L 2.953125 0.574219 C 2.960938 -0.144531 2.902344 -0.859375 2.78125 -1.570313 L 3.359375 -1.679688 C 3.523438 -0.777344 3.59375 -0.0664063 3.5625 0.457031 Z M 3.5625 0.457031 "/>
</symbol>
<symbol overflow="visible" id="glyph0-6">
<path style="stroke:none;" d="M 11.402344 0.195313 L 10.957031 0.6875 C 9.324219 -0.921875 8.210938 -2.796875 7.617188 -4.945313 C 7.214844 -2.78125 6.050781 -0.898438 4.132813 0.710938 L 3.671875 0.226563 C 4.714844 -0.664063 5.496094 -1.558594 6.011719 -2.460938 C 6.527344 -3.359375 6.871094 -4.292969 7.050781 -5.269531 C 7.222656 -6.238281 7.320313 -7.777344 7.34375 -9.878906 L 7.957031 -9.878906 C 7.964844 -9.292969 7.953125 -8.695313 7.929688 -8.089844 C 7.898438 -7.480469 7.886719 -7.144531 7.890625 -7.085938 C 7.886719 -6.023438 8.195313 -4.8125 8.8125 -3.449219 C 9.425781 -2.085938 10.289063 -0.875 11.402344 0.195313 Z M 3.71875 -7.820313 L 3.226563 -7.441406 C 2.675781 -8.222656 2.105469 -8.898438 1.511719 -9.46875 L 2.003906 -9.859375 C 2.691406 -9.148438 3.261719 -8.46875 3.71875 -7.820313 Z M 4.96875 -2.164063 C 4.109375 -1.351563 3.328125 -0.707031 2.632813 -0.226563 L 2.289063 -0.78125 C 2.386719 -0.882813 2.4375 -1.015625 2.4375 -1.179688 L 2.4375 -5.929688 L 0.8125 -5.929688 L 0.8125 -6.550781 L 3.070313 -6.550781 L 3.070313 -1.351563 C 3.449219 -1.625 3.992188 -2.085938 4.703125 -2.734375 Z M 4.96875 -2.164063 "/>
</symbol>
<symbol overflow="visible" id="glyph0-7">
<path style="stroke:none;" d="M 10.773438 -5.851563 L 10.140625 -5.851563 L 10.140625 -8.039063 L 1.957031 -8.039063 L 1.957031 -5.851563 L 1.320313 -5.851563 L 1.320313 -8.664063 L 5.851563 -8.664063 C 5.746094 -8.917969 5.542969 -9.242188 5.242188 -9.640625 L 5.820313 -9.9375 C 6.09375 -9.554688 6.347656 -9.128906 6.574219 -8.664063 L 10.773438 -8.664063 Z M 11.265625 -2.84375 L 6.386719 -2.84375 L 6.386719 -0.265625 C 6.386719 0.046875 6.285156 0.269531 6.082031 0.410156 C 5.878906 0.550781 5.386719 0.621094 4.609375 0.625 C 4.398438 0.621094 4.179688 0.617188 3.949219 0.609375 L 3.71875 -0.0703125 C 4.042969 -0.0390625 4.367188 -0.0234375 4.695313 -0.0234375 C 5.195313 -0.0234375 5.496094 -0.046875 5.589844 -0.101563 C 5.679688 -0.148438 5.722656 -0.230469 5.726563 -0.34375 L 5.726563 -2.84375 L 0.828125 -2.84375 L 0.828125 -3.480469 L 5.726563 -3.480469 L 5.726563 -4.257813 C 6.78125 -4.878906 7.609375 -5.414063 8.210938 -5.867188 L 2.757813 -5.867188 L 2.757813 -6.492188 L 9.242188 -6.492188 L 9.242188 -5.867188 C 8.476563 -5.253906 7.527344 -4.613281 6.386719 -3.9375 L 6.386719 -3.480469 L 11.265625 -3.480469 Z M 11.265625 -2.84375 "/>
</symbol>
<symbol overflow="visible" id="glyph0-8">
<path style="stroke:none;" d="M 3.859375 -9.695313 C 3.714844 -9.285156 3.519531 -8.804688 3.273438 -8.257813 L 2.90625 -7.476563 L 2.90625 0.585938 L 2.265625 0.585938 L 2.265625 -6.320313 C 1.902344 -5.761719 1.492188 -5.210938 1.03125 -4.671875 L 0.6875 -5.265625 C 1.714844 -6.445313 2.582031 -8.003906 3.289063 -9.9375 Z M 11.3125 -2.335938 L 10.898438 -1.84375 C 9.5 -3.074219 8.417969 -4.652344 7.65625 -6.574219 L 7.65625 -2.0625 L 9.902344 -2.0625 L 9.902344 -1.441406 L 7.65625 -1.441406 L 7.65625 0.597656 L 7.03125 0.597656 L 7.03125 -1.441406 L 4.71875 -1.441406 L 4.71875 -2.0625 L 7.03125 -2.0625 L 7.03125 -6.550781 C 6.21875 -4.597656 5.171875 -3.019531 3.890625 -1.820313 L 3.398438 -2.242188 C 4.78125 -3.527344 5.875 -5.199219 6.6875 -7.257813 L 3.835938 -7.257813 L 3.835938 -7.886719 L 7.03125 -7.886719 L 7.03125 -9.878906 L 7.65625 -9.878906 L 7.65625 -7.886719 L 11.015625 -7.886719 L 11.015625 -7.257813 L 7.980469 -7.257813 C 8.777344 -5.199219 9.886719 -3.558594 11.3125 -2.335938 Z M 11.3125 -2.335938 "/>
</symbol>
<symbol overflow="visible" id="glyph1-0">
<path style="stroke:none;" d="M 1.5 0 L 1.5 -7.5 L 7.5 -7.5 L 7.5 0 Z M 1.6875 -0.1875 L 7.3125 -0.1875 L 7.3125 -7.3125 L 1.6875 -7.3125 Z M 1.6875 -0.1875 "/>
</symbol>
<symbol overflow="visible" id="glyph1-1">
<path style="stroke:none;" d="M 4.46875 0 L 3.414063 0 L 3.414063 -6.71875 C 3.160156 -6.476563 2.828125 -6.234375 2.414063 -5.996094 C 2 -5.75 1.628906 -5.570313 1.304688 -5.449219 L 1.304688 -6.46875 C 1.894531 -6.742188 2.410156 -7.078125 2.851563 -7.476563 C 3.292969 -7.871094 3.605469 -8.253906 3.789063 -8.625 L 4.46875 -8.625 Z M 4.46875 0 "/>
</symbol>
<symbol overflow="visible" id="glyph1-2">
<path style="stroke:none;" d="M 6.039063 -1.015625 L 6.039063 0 L 0.363281 0 C 0.355469 -0.253906 0.394531 -0.496094 0.484375 -0.734375 C 0.628906 -1.117188 0.859375 -1.5 1.179688 -1.875 C 1.492188 -2.25 1.953125 -2.683594 2.5625 -3.175781 C 3.492188 -3.941406 4.125 -4.546875 4.453125 -4.992188 C 4.78125 -5.4375 4.945313 -5.859375 4.945313 -6.265625 C 4.945313 -6.679688 4.792969 -7.03125 4.496094 -7.320313 C 4.191406 -7.601563 3.804688 -7.746094 3.328125 -7.75 C 2.820313 -7.746094 2.414063 -7.59375 2.109375 -7.292969 C 1.804688 -6.984375 1.648438 -6.5625 1.648438 -6.03125 L 0.5625 -6.140625 C 0.632813 -6.945313 0.910156 -7.558594 1.398438 -7.988281 C 1.878906 -8.410156 2.53125 -8.625 3.351563 -8.625 C 4.171875 -8.625 4.824219 -8.394531 5.308594 -7.9375 C 5.789063 -7.480469 6.027344 -6.914063 6.03125 -6.242188 C 6.027344 -5.894531 5.957031 -5.558594 5.820313 -5.226563 C 5.675781 -4.890625 5.441406 -4.539063 5.117188 -4.175781 C 4.789063 -3.804688 4.25 -3.300781 3.492188 -2.664063 C 2.859375 -2.128906 2.453125 -1.769531 2.273438 -1.582031 C 2.09375 -1.394531 1.945313 -1.203125 1.828125 -1.015625 Z M 6.039063 -1.015625 "/>
</symbol>
<symbol overflow="visible" id="glyph2-0">
<path style="stroke:none;" d="M 1.398438 0 L 5.40625 -11.796875 L 13.757813 -11.796875 L 9.75 0 Z M 2.65625 -0.9375 L 9.140625 -0.9375 L 12.511719 -10.859375 L 6.027344 -10.859375 Z M 2.65625 -0.9375 "/>
</symbol>
<symbol overflow="visible" id="glyph2-1">
<path style="stroke:none;" d="M 15.023438 0.179688 L 14.210938 0.898438 C 12.859375 -0.203125 11.917969 -1.472656 11.382813 -2.917969 C 10.84375 -4.363281 10.6875 -6.152344 10.910156 -8.289063 C 8.988281 -4.542969 5.773438 -1.5 1.265625 0.851563 L 0.964844 0.125 C 2.109375 -0.476563 3.261719 -1.191406 4.421875 -2.03125 C 5.582031 -2.867188 6.605469 -3.75 7.496094 -4.683594 C 8.382813 -5.609375 9.261719 -6.886719 10.128906 -8.515625 L 4.191406 -8.515625 L 4.472656 -9.34375 L 10.566406 -9.34375 C 11.175781 -10.652344 11.707031 -11.949219 12.160156 -13.234375 L 13.074219 -13.234375 C 12.542969 -11.835938 12.003906 -10.539063 11.449219 -9.34375 L 18.003906 -9.34375 L 17.722656 -8.515625 L 11.792969 -8.515625 C 11.585938 -6.226563 11.765625 -4.4375 12.332031 -3.144531 C 12.898438 -1.847656 13.796875 -0.742188 15.023438 0.179688 Z M 15.023438 0.179688 "/>
</symbol>
<symbol overflow="visible" id="glyph2-2">
<path style="stroke:none;" d="M 8.785156 -0.335938 C 8.691406 -0.0625 8.523438 0.171875 8.277344 0.375 C 8.03125 0.578125 7.792969 0.707031 7.558594 0.769531 C 7.324219 0.824219 6.917969 0.855469 6.339844 0.859375 C 5.875 0.855469 5.507813 0.84375 5.242188 0.828125 L 5.191406 -0.015625 C 6.582031 0.0195313 7.378906 -0.00390625 7.582031 -0.0859375 C 7.785156 -0.167969 7.929688 -0.332031 8.015625 -0.578125 L 12.296875 -13.171875 L 13.148438 -13.171875 Z M 15.910156 -2.609375 L 14.976563 -2.257813 C 15.109375 -4.820313 15.042969 -7.300781 14.78125 -9.695313 L 15.714844 -10.03125 C 15.945313 -7.863281 16.007813 -5.386719 15.910156 -2.609375 Z M 8.128906 -9.804688 C 6.058594 -6.1875 4.160156 -3.65625 2.429688 -2.210938 L 1.917969 -2.71875 C 3.628906 -4.210938 5.449219 -6.648438 7.378906 -10.03125 Z M 8.128906 -9.804688 "/>
</symbol>
<symbol overflow="visible" id="glyph2-3">
<path style="stroke:none;" d="M 1.320313 0.78125 L 1.066406 0.0625 C 2.800781 -0.785156 4.433594 -1.882813 5.96875 -3.234375 C 7.5 -4.582031 8.761719 -6.386719 9.753906 -8.65625 L 4.191406 -8.65625 L 4.46875 -9.46875 L 10.085938 -9.46875 C 10.625 -10.847656 11.0625 -12.074219 11.398438 -13.148438 L 12.289063 -13.148438 C 11.851563 -11.867188 11.40625 -10.640625 10.945313 -9.46875 L 17.445313 -9.46875 C 16.875 -7.820313 16.25 -6.09375 15.566406 -4.296875 C 14.875 -2.492188 14.378906 -1.300781 14.078125 -0.71875 C 13.773438 -0.136719 13.429688 0.261719 13.042969 0.484375 C 12.65625 0.699219 12.261719 0.808594 11.863281 0.8125 C 10.917969 0.808594 10.265625 0.804688 9.910156 0.796875 L 9.863281 -0.0625 L 12.152344 -0.03125 C 12.394531 -0.0273438 12.613281 -0.09375 12.816406 -0.230469 C 13.011719 -0.359375 13.183594 -0.574219 13.328125 -0.875 C 13.46875 -1.167969 13.871094 -2.15625 14.539063 -3.835938 C 15.199219 -5.511719 15.792969 -7.117188 16.316406 -8.65625 L 10.605469 -8.65625 C 8.96875 -4.714844 5.871094 -1.574219 1.320313 0.78125 Z M 9.246094 -10.71875 L 8.445313 -10.109375 C 7.851563 -10.9375 7.207031 -11.632813 6.511719 -12.195313 L 7.328125 -12.851563 C 7.984375 -12.304688 8.625 -11.59375 9.246094 -10.71875 Z M 10.5625 -6.273438 C 11.355469 -5.472656 12.082031 -4.445313 12.746094 -3.1875 L 11.953125 -2.59375 C 11.210938 -3.925781 10.480469 -4.945313 9.761719 -5.648438 Z M 10.5625 -6.273438 "/>
</symbol>
<symbol overflow="visible" id="glyph2-4">
<path style="stroke:none;" d="M 6.457031 0.492188 L 5.652344 0.492188 L 6.121094 -0.882813 L 2.667969 -0.882813 L 2.089844 0.8125 L 1.277344 0.8125 L 5.132813 -10.53125 L 6.617188 -10.53125 C 7.257813 -11.242188 7.949219 -12.160156 8.691406 -13.28125 L 9.433594 -13.117188 C 9.054688 -12.550781 8.398438 -11.6875 7.46875 -10.53125 L 10.203125 -10.53125 Z M 7.957031 -6.289063 L 9.125 -9.726563 L 5.671875 -9.726563 L 4.503906 -6.289063 Z M 6.398438 -1.695313 L 7.683594 -5.484375 L 4.230469 -5.484375 L 2.945313 -1.695313 Z M 18.214844 -10.515625 C 17.335938 -8.117188 16.460938 -5.890625 15.59375 -3.835938 C 14.722656 -1.777344 14.140625 -0.566406 13.847656 -0.203125 C 13.550781 0.160156 13.246094 0.417969 12.925781 0.574219 C 12.605469 0.726563 12.070313 0.800781 11.320313 0.804688 C 10.992188 0.800781 10.5625 0.792969 10.039063 0.78125 L 10.058594 -0.03125 C 10.488281 -0.0117188 10.957031 -0.00390625 11.464844 -0.0078125 C 11.9375 -0.00390625 12.242188 -0.0117188 12.378906 -0.0234375 C 12.511719 -0.03125 12.671875 -0.0976563 12.863281 -0.222656 C 13.046875 -0.34375 13.199219 -0.484375 13.320313 -0.652344 C 13.4375 -0.8125 13.730469 -1.425781 14.195313 -2.492188 C 14.660156 -3.550781 15.144531 -4.722656 15.648438 -6.003906 C 16.148438 -7.28125 16.621094 -8.523438 17.0625 -9.726563 L 12.890625 -9.726563 C 11.953125 -8.617188 10.949219 -7.5625 9.878906 -6.5625 L 9.378906 -7.023438 C 11.402344 -8.859375 13.089844 -10.910156 14.445313 -13.171875 L 15.1875 -12.960938 C 14.632813 -12.105469 14.0625 -11.289063 13.480469 -10.515625 Z M 12.832031 -3.34375 L 11.996094 -2.867188 C 11.878906 -4.050781 11.53125 -5.292969 10.945313 -6.59375 L 11.78125 -7.039063 C 12.347656 -5.878906 12.699219 -4.648438 12.832031 -3.34375 Z M 12.832031 -3.34375 "/>
</symbol>
<symbol overflow="visible" id="glyph2-5">
<path style="stroke:none;" d="M 11.894531 -9.570313 L 11.03125 -8.960938 C 10.578125 -9.960938 9.953125 -10.910156 9.160156 -11.804688 C 7.730469 -10.5 6.089844 -9.292969 4.234375 -8.179688 L 4.046875 -8.898438 C 6.265625 -10.234375 8.097656 -11.675781 9.546875 -13.21875 L 10.257813 -12.945313 L 9.839844 -12.476563 C 10.730469 -11.492188 11.417969 -10.523438 11.894531 -9.570313 Z M 16.226563 -3.539063 L 14.730469 -3.28125 L 13.328125 0.851563 L 12.476563 0.851563 L 13.824219 -3.117188 L 9.308594 -2.398438 L 9.449219 -3.1875 L 14.105469 -3.9375 L 17.253906 -13.203125 L 18.105469 -13.203125 L 15.003906 -4.078125 L 16.421875 -4.304688 Z M 15.117188 -9.3125 L 14.246094 -8.765625 C 13.964844 -9.472656 13.4375 -10.304688 12.65625 -11.265625 L 13.4375 -11.820313 C 14.039063 -11.171875 14.601563 -10.335938 15.117188 -9.3125 Z M 10.128906 -5.28125 L 7.183594 -5.28125 L 5.582031 -0.5625 C 5.472656 -0.25 5.277344 0.03125 4.992188 0.28125 C 4.707031 0.53125 4.035156 0.628906 2.976563 0.578125 L 2.953125 -0.257813 C 3.191406 -0.226563 3.433594 -0.210938 3.6875 -0.210938 C 4.046875 -0.210938 4.304688 -0.234375 4.460938 -0.289063 C 4.609375 -0.335938 4.726563 -0.480469 4.808594 -0.71875 L 6.355469 -5.28125 L 3.011719 -5.28125 L 3.273438 -6.046875 L 6.617188 -6.046875 L 7.238281 -7.875 L 5.316406 -7.875 L 5.585938 -8.671875 L 10.429688 -8.671875 L 10.160156 -7.875 L 8.066406 -7.875 L 7.445313 -6.046875 L 10.390625 -6.046875 Z M 13.457031 -5.648438 L 12.65625 -5.039063 C 12.320313 -5.871094 11.769531 -6.714844 11.003906 -7.570313 L 11.792969 -8.195313 C 12.511719 -7.386719 13.066406 -6.539063 13.457031 -5.648438 Z M 4.992188 -4.046875 C 3.933594 -2.554688 2.875 -1.34375 1.820313 -0.414063 L 1.335938 -0.914063 C 2.472656 -1.949219 3.5 -3.140625 4.425781 -4.492188 Z M 8.917969 -1.523438 L 8.027344 -0.976563 C 7.964844 -2 7.769531 -2.996094 7.441406 -3.96875 L 8.296875 -4.460938 C 8.664063 -3.164063 8.871094 -2.1875 8.917969 -1.523438 Z M 8.917969 -1.523438 "/>
</symbol>
<symbol overflow="visible" id="glyph2-6">
<path style="stroke:none;" d="M 9.542969 -12.929688 C 9.167969 -12.378906 8.691406 -11.738281 8.109375 -11.007813 L 7.261719 -9.96875 L 3.609375 0.78125 L 2.757813 0.78125 L 5.886719 -8.429688 C 5.148438 -7.683594 4.351563 -6.949219 3.492188 -6.226563 L 3.300781 -7.023438 C 5.207031 -8.59375 7.070313 -10.667969 8.886719 -13.25 Z M 16.144531 -3.117188 L 15.367188 -2.460938 C 14.058594 -4.105469 13.332031 -6.207031 13.191406 -8.765625 L 11.144531 -2.75 L 14.136719 -2.75 L 13.855469 -1.921875 L 10.863281 -1.921875 L 9.941406 0.796875 L 9.105469 0.796875 L 10.027344 -1.921875 L 6.941406 -1.921875 L 7.222656 -2.75 L 10.308594 -2.75 L 12.34375 -8.734375 C 10.375 -6.132813 8.265625 -4.03125 6.011719 -2.429688 L 5.546875 -2.992188 C 7.972656 -4.703125 10.191406 -6.933594 12.203125 -9.679688 L 8.40625 -9.679688 L 8.691406 -10.515625 L 12.949219 -10.515625 L 13.851563 -13.171875 L 14.6875 -13.171875 L 13.785156 -10.515625 L 18.261719 -10.515625 L 17.976563 -9.679688 L 13.929688 -9.679688 C 14.0625 -6.933594 14.800781 -4.746094 16.144531 -3.117188 Z M 16.144531 -3.117188 "/>
</symbol>
<symbol overflow="visible" id="glyph2-7">
<path style="stroke:none;" d="M 17.019531 -7.804688 L 16.175781 -7.804688 L 17.167969 -10.71875 L 6.253906 -10.71875 L 5.261719 -7.804688 L 4.410156 -7.804688 L 5.683594 -11.554688 L 11.730469 -11.554688 C 11.703125 -11.890625 11.578125 -12.320313 11.359375 -12.851563 L 12.261719 -13.25 C 12.453125 -12.734375 12.597656 -12.171875 12.691406 -11.554688 L 18.292969 -11.554688 Z M 16.3125 -3.789063 L 9.804688 -3.789063 L 8.636719 -0.351563 C 8.496094 0.0585938 8.257813 0.359375 7.921875 0.550781 C 7.585938 0.738281 6.898438 0.832031 5.863281 0.835938 C 5.578125 0.832031 5.285156 0.824219 4.988281 0.8125 L 4.992188 -0.09375 C 5.410156 -0.0507813 5.835938 -0.0273438 6.269531 -0.03125 C 6.945313 -0.0273438 7.355469 -0.0625 7.5 -0.136719 C 7.640625 -0.203125 7.734375 -0.3125 7.789063 -0.460938 L 8.921875 -3.789063 L 2.390625 -3.789063 L 2.679688 -4.640625 L 9.210938 -4.640625 L 9.5625 -5.679688 C 11.257813 -6.507813 12.601563 -7.222656 13.601563 -7.820313 L 6.335938 -7.820313 L 6.621094 -8.65625 L 15.261719 -8.65625 L 14.976563 -7.820313 C 13.683594 -7.003906 12.125 -6.148438 10.300781 -5.25 L 10.09375 -4.640625 L 16.601563 -4.640625 Z M 16.3125 -3.789063 "/>
</symbol>
<symbol overflow="visible" id="glyph3-0">
<path style="stroke:none;" d="M 2 0 L 2 -10 L 10 -10 L 10 0 Z M 2.25 -0.25 L 9.75 -0.25 L 9.75 -9.75 L 2.25 -9.75 Z M 2.25 -0.25 "/>
</symbol>
<symbol overflow="visible" id="glyph3-1">
<path style="stroke:none;" d="M 3.851563 0 L 5.664063 -8.648438 C 4.878906 -8.03125 3.78125 -7.539063 2.367188 -7.171875 L 2.632813 -8.453125 C 3.332031 -8.730469 4.027344 -9.097656 4.714844 -9.554688 C 5.398438 -10.003906 5.914063 -10.398438 6.257813 -10.742188 C 6.464844 -10.945313 6.660156 -11.199219 6.851563 -11.5 L 7.671875 -11.5 L 5.273438 0 Z M 3.851563 0 "/>
</symbol>
<symbol overflow="visible" id="glyph3-2">
<path style="stroke:none;" d="M 3.21875 -6.640625 C 3.609375 -6.964844 4.003906 -7.210938 4.402344 -7.378906 C 4.792969 -7.539063 5.183594 -7.621094 5.570313 -7.625 C 6.4375 -7.621094 7.15625 -7.324219 7.726563 -6.734375 C 8.292969 -6.136719 8.578125 -5.339844 8.578125 -4.335938 C 8.578125 -3.039063 8.15625 -1.925781 7.3125 -1 C 6.582031 -0.203125 5.695313 0.191406 4.65625 0.195313 C 3.707031 0.191406 2.917969 -0.152344 2.285156 -0.847656 C 1.652344 -1.539063 1.335938 -2.53125 1.335938 -3.820313 C 1.335938 -4.96875 1.539063 -6.15625 1.945313 -7.390625 C 2.257813 -8.328125 2.644531 -9.105469 3.105469 -9.722656 C 3.566406 -10.332031 4.054688 -10.78125 4.574219 -11.070313 C 5.089844 -11.351563 5.675781 -11.496094 6.328125 -11.5 C 7.109375 -11.496094 7.746094 -11.253906 8.242188 -10.769531 C 8.734375 -10.28125 9.015625 -9.582031 9.085938 -8.679688 L 7.773438 -8.554688 C 7.699219 -9.171875 7.523438 -9.617188 7.246094 -9.898438 C 6.964844 -10.171875 6.625 -10.3125 6.226563 -10.3125 C 5.800781 -10.3125 5.375 -10.148438 4.953125 -9.820313 C 4.523438 -9.492188 4.15625 -9.003906 3.851563 -8.363281 C 3.539063 -7.714844 3.328125 -7.140625 3.21875 -6.640625 Z M 2.726563 -3.21875 C 2.722656 -2.570313 2.925781 -2.027344 3.328125 -1.589844 C 3.726563 -1.144531 4.179688 -0.925781 4.6875 -0.929688 C 5.039063 -0.925781 5.414063 -1.058594 5.8125 -1.332031 C 6.207031 -1.597656 6.542969 -2.007813 6.820313 -2.554688 C 7.09375 -3.101563 7.230469 -3.644531 7.234375 -4.1875 C 7.230469 -4.882813 7.039063 -5.441406 6.660156 -5.863281 C 6.273438 -6.28125 5.8125 -6.492188 5.273438 -6.492188 C 4.648438 -6.492188 4.066406 -6.183594 3.53125 -5.574219 C 2.992188 -4.957031 2.722656 -4.171875 2.726563 -3.21875 Z M 2.726563 -3.21875 "/>
</symbol>
<symbol overflow="visible" id="glyph4-0">
<path style="stroke:none;" d="M 1.222656 0 L 1.222656 -10.320313 L 8.53125 -10.320313 L 8.53125 0 Z M 2.316406 -1.09375 L 7.445313 -1.09375 L 7.445313 -9.226563 L 2.316406 -9.226563 Z M 2.316406 -1.09375 "/>
</symbol>
<symbol overflow="visible" id="glyph4-1">
<path style="stroke:none;" d="M 13.214844 -0.199219 L 12.460938 0.8125 C 9.691406 -0.949219 7.894531 -3.292969 7.070313 -6.226563 C 6.195313 -3.410156 4.375 -1.101563 1.613281 0.710938 L 0.867188 -0.375 C 3.726563 -2.238281 5.464844 -4.519531 6.089844 -7.226563 L 1.164063 -7.226563 L 1.148438 -8.484375 L 6.253906 -8.484375 C 6.351563 -9.460938 6.410156 -10.457031 6.425781 -11.476563 L 7.683594 -11.476563 C 7.667969 -10.257813 7.628906 -9.261719 7.5625 -8.484375 L 13.035156 -8.484375 L 13.035156 -7.226563 L 7.964844 -7.226563 C 8.644531 -4.214844 10.394531 -1.875 13.214844 -0.199219 Z M 13.214844 -0.199219 "/>
</symbol>
<symbol overflow="visible" id="glyph4-2">
<path style="stroke:none;" d="M 7.894531 -0.992188 C 7.890625 0.15625 7.429688 0.726563 6.507813 0.726563 C 5.617188 0.726563 5.066406 0.71875 4.859375 0.710938 L 4.382813 -0.617188 C 4.734375 -0.578125 5.316406 -0.5625 6.132813 -0.5625 C 6.421875 -0.5625 6.566406 -0.691406 6.570313 -0.949219 L 6.570313 -11.492188 L 7.894531 -11.492188 Z M 13.199219 -2.203125 L 12.023438 -1.578125 C 11.5625 -3.625 10.792969 -5.949219 9.714844 -8.550781 L 10.863281 -8.988281 C 11.796875 -6.890625 12.574219 -4.628906 13.199219 -2.203125 Z M 4.554688 -8.613281 C 3.882813 -5.636719 3 -3.320313 1.90625 -1.667969 L 0.839844 -2.445313 C 1.871094 -3.984375 2.703125 -6.167969 3.328125 -8.988281 Z M 4.554688 -8.613281 "/>
</symbol>
<symbol overflow="visible" id="glyph4-3">
<path style="stroke:none;" d="M 12.726563 -8.550781 C 12.742188 -7.980469 12.75 -7.398438 12.75 -6.796875 C 12.75 -5.308594 12.703125 -3.878906 12.609375 -2.511719 C 12.515625 -1.140625 12.378906 -0.328125 12.203125 -0.0742188 C 12.023438 0.179688 11.8125 0.371094 11.566406 0.503906 C 11.316406 0.636719 10.683594 0.703125 9.671875 0.703125 C 9.394531 0.703125 9.109375 0.695313 8.820313 0.683594 L 8.359375 -0.5625 C 8.835938 -0.53125 9.300781 -0.515625 9.753906 -0.519531 C 10.40625 -0.515625 10.800781 -0.550781 10.9375 -0.625 C 11.070313 -0.691406 11.160156 -0.792969 11.210938 -0.929688 C 11.257813 -1.0625 11.3125 -1.828125 11.375 -3.230469 C 11.429688 -4.628906 11.464844 -5.992188 11.476563 -7.320313 L 7.082031 -7.320313 C 6.757813 -3.972656 4.921875 -1.265625 1.578125 0.8125 L 0.800781 -0.265625 C 3.941406 -2.152344 5.605469 -4.503906 5.796875 -7.320313 L 1.066406 -7.320313 L 1.066406 -8.550781 L 5.867188 -8.550781 C 5.898438 -9.152344 5.917969 -10.148438 5.921875 -11.539063 L 7.199219 -11.523438 C 7.195313 -10.550781 7.179688 -9.558594 7.15625 -8.550781 Z M 5.011719 -9.828125 L 4.183594 -8.875 C 3.433594 -9.480469 2.601563 -10.015625 1.695313 -10.484375 L 2.507813 -11.464844 C 3.390625 -11.007813 4.222656 -10.460938 5.011719 -9.828125 Z M 10.753906 -2.789063 L 9.871094 -2.003906 C 9.125 -3.089844 8.253906 -4.144531 7.253906 -5.167969 L 8.109375 -5.960938 C 9.144531 -4.9375 10.023438 -3.882813 10.753906 -2.789063 Z M 10.753906 -2.789063 "/>
</symbol>
<symbol overflow="visible" id="glyph4-4">
<path style="stroke:none;" d="M 13.007813 -9.390625 C 13 -8.050781 12.949219 -6.3125 12.863281 -4.179688 C 12.773438 -2.039063 12.648438 -0.78125 12.480469 -0.402344 C 12.3125 -0.0195313 12.054688 0.257813 11.710938 0.441406 C 11.363281 0.617188 10.527344 0.714844 9.203125 0.726563 L 8.734375 -0.507813 L 10.609375 -0.519531 C 10.785156 -0.515625 10.972656 -0.589844 11.175781 -0.742188 C 11.371094 -0.890625 11.523438 -1.90625 11.625 -3.785156 C 11.726563 -5.660156 11.773438 -7.121094 11.773438 -8.175781 L 8.960938 -8.175781 C 8.519531 -7.058594 8.027344 -6.113281 7.476563 -5.332031 L 6.523438 -6.1875 C 7.519531 -7.808594 8.226563 -9.617188 8.640625 -11.621094 L 9.871094 -11.355469 C 9.777344 -10.878906 9.613281 -10.222656 9.378906 -9.390625 Z M 6.242188 0.585938 L 5.039063 0.585938 L 5.039063 -0.335938 L 2.507813 -0.335938 L 2.507813 0.726563 L 1.273438 0.726563 L 1.273438 -9.460938 L 2.523438 -9.460938 C 2.871094 -10.105469 3.144531 -10.816406 3.34375 -11.59375 L 4.632813 -11.382813 C 4.5625 -10.9375 4.34375 -10.296875 3.976563 -9.460938 L 6.242188 -9.460938 Z M 5.039063 -5.652344 L 5.039063 -8.242188 L 2.507813 -8.242188 L 2.507813 -5.652344 Z M 5.039063 -1.539063 L 5.039063 -4.476563 L 2.507813 -4.476563 L 2.507813 -1.539063 Z M 10.976563 -3.136719 L 9.882813 -2.433594 C 9.28125 -3.632813 8.636719 -4.640625 7.949219 -5.449219 L 9.042969 -6.132813 C 9.96875 -4.96875 10.613281 -3.96875 10.976563 -3.136719 Z M 10.976563 -3.136719 "/>
</symbol>
<symbol overflow="visible" id="glyph4-5">
<path style="stroke:none;" d="M 6.035156 -5.933594 L 4.183594 -5.933594 L 4.183594 0.695313 L 2.992188 0.695313 L 2.992188 -5.933594 L 0.976563 -5.933594 L 0.976563 -7.136719 L 2.992188 -7.136719 L 2.992188 -11.523438 L 4.183594 -11.523438 L 4.183594 -7.136719 L 6.035156 -7.136719 Z M 13.199219 0.347656 L 5.824219 0.347656 L 5.824219 -0.882813 L 6.652344 -0.882813 L 6.652344 -11.210938 L 12.359375 -11.210938 L 12.359375 -0.882813 L 13.199219 -0.882813 Z M 11.140625 -7.894531 L 11.140625 -9.992188 L 7.882813 -9.992188 L 7.882813 -7.894531 Z M 11.140625 -4.476563 L 11.140625 -6.734375 L 7.882813 -6.734375 L 7.882813 -4.476563 Z M 11.140625 -0.882813 L 11.140625 -3.300781 L 7.882813 -3.300781 L 7.882813 -0.882813 Z M 2.6875 -8.054688 L 1.667969 -7.617188 C 1.507813 -8.40625 1.246094 -9.289063 0.882813 -10.273438 L 1.90625 -10.765625 C 2.246094 -9.804688 2.507813 -8.902344 2.6875 -8.054688 Z M 6.199219 -10.363281 C 6.105469 -9.453125 5.863281 -8.53125 5.476563 -7.601563 L 4.476563 -8.023438 C 4.789063 -8.851563 5.027344 -9.75 5.195313 -10.710938 Z M 2.742188 -5.210938 C 2.632813 -3.792969 2.371094 -2.414063 1.960938 -1.066406 L 0.9375 -1.613281 C 1.335938 -2.996094 1.578125 -4.277344 1.667969 -5.449219 Z M 6.316406 -2.296875 L 5.265625 -1.886719 C 5.113281 -2.941406 4.855469 -4.003906 4.492188 -5.078125 L 5.542969 -5.433594 C 5.957031 -4.207031 6.214844 -3.164063 6.316406 -2.296875 Z M 6.316406 -2.296875 "/>
</symbol>
<symbol overflow="visible" id="glyph4-6">
<path style="stroke:none;" d="M 4.621094 -11.367188 C 4.496094 -10.878906 4.289063 -10.273438 4 -9.550781 L 3.570313 -8.496094 L 3.570313 0.683594 L 2.335938 0.683594 L 2.335938 -6.199219 C 2.003906 -5.777344 1.691406 -5.429688 1.402344 -5.15625 L 0.785156 -6.480469 C 1.882813 -7.730469 2.753906 -9.453125 3.40625 -11.648438 Z M 13.34375 -2.925781 L 12.679688 -1.820313 C 11.4375 -2.816406 10.265625 -4.429688 9.167969 -6.664063 L 9.167969 -2.5625 L 11.4375 -2.5625 L 11.4375 -1.375 L 9.167969 -1.375 L 9.167969 0.683594 L 7.921875 0.683594 L 7.921875 -1.375 L 5.640625 -1.375 L 5.640625 -2.5625 L 7.921875 -2.5625 L 7.921875 -6.636719 C 6.929688 -4.53125 5.804688 -2.90625 4.554688 -1.765625 L 3.847656 -2.898438 C 5.148438 -3.941406 6.328125 -5.691406 7.390625 -8.148438 L 4.339844 -8.148438 L 4.339844 -9.367188 L 7.921875 -9.367188 L 7.921875 -11.492188 L 9.167969 -11.492188 L 9.167969 -9.367188 L 12.835938 -9.367188 L 12.835938 -8.148438 L 9.6875 -8.148438 C 10.671875 -5.984375 11.890625 -4.242188 13.34375 -2.925781 Z M 13.34375 -2.925781 "/>
</symbol>
<symbol overflow="visible" id="glyph4-7">
<path style="stroke:none;" d="M 12.703125 -6.917969 L 11.410156 -6.917969 L 11.410156 -8.988281 L 2.6875 -8.988281 L 2.6875 -6.90625 L 1.414063 -6.90625 L 1.414063 -10.207031 L 6.535156 -10.207031 C 6.378906 -10.546875 6.21875 -10.84375 6.050781 -11.101563 L 7.292969 -11.578125 C 7.570313 -11.132813 7.796875 -10.675781 7.976563 -10.207031 L 12.703125 -10.207031 Z M 13.171875 -3.109375 L 7.574219 -3.109375 L 7.574219 -0.390625 C 7.570313 -0.128906 7.492188 0.109375 7.339844 0.335938 C 7.183594 0.554688 6.90625 0.683594 6.507813 0.71875 C 6.105469 0.746094 5.710938 0.761719 5.324219 0.765625 C 5.03125 0.761719 4.789063 0.753906 4.59375 0.746094 L 4.074219 -0.453125 C 5.347656 -0.449219 6.035156 -0.46875 6.136719 -0.507813 C 6.234375 -0.542969 6.285156 -0.625 6.289063 -0.757813 L 6.289063 -3.109375 L 0.910156 -3.109375 L 0.910156 -4.300781 L 6.289063 -4.300781 L 6.289063 -5.222656 C 7.097656 -5.636719 7.8125 -6.0625 8.429688 -6.492188 L 3.316406 -6.492188 L 3.316406 -7.683594 L 10.726563 -7.683594 L 10.726563 -6.492188 C 9.683594 -5.746094 8.632813 -5.078125 7.574219 -4.492188 L 7.574219 -4.300781 L 13.171875 -4.300781 Z M 13.171875 -3.109375 "/>
</symbol>
<symbol overflow="visible" id="glyph4-8">
<path style="stroke:none;" d="M 13.1875 -2.550781 L 0.9375 -2.550781 L 0.9375 -3.625 L 6.46875 -3.625 L 6.46875 -4.566406 L 1.84375 -4.566406 L 1.84375 -5.640625 L 6.46875 -5.640625 L 6.46875 -6.523438 L 2.113281 -6.523438 L 2.113281 -11.328125 L 12.039063 -11.328125 L 12.039063 -6.523438 L 7.683594 -6.523438 L 7.683594 -5.640625 L 12.375 -5.640625 L 12.375 -4.566406 L 7.683594 -4.566406 L 7.683594 -3.625 L 13.1875 -3.625 Z M 10.820313 -7.601563 L 10.820313 -10.246094 L 7.683594 -10.246094 L 7.683594 -7.601563 Z M 10.34375 -9.523438 C 10.019531 -8.882813 9.652344 -8.285156 9.242188 -7.726563 L 8.203125 -8.296875 C 8.644531 -8.851563 9.011719 -9.410156 9.3125 -9.980469 Z M 6.46875 -7.601563 L 6.46875 -10.246094 L 3.363281 -10.246094 L 3.363281 -7.601563 Z M 5.878906 -8.320313 L 4.875 -7.800781 C 4.578125 -8.355469 4.195313 -8.925781 3.726563 -9.507813 L 4.757813 -10.023438 C 5.21875 -9.417969 5.589844 -8.851563 5.878906 -8.320313 Z M 3.953125 -1.789063 C 3.285156 -0.765625 2.585938 0.078125 1.859375 0.757813 L 0.828125 -0.0273438 C 1.480469 -0.621094 2.128906 -1.371094 2.773438 -2.28125 Z M 13.132813 0.320313 L 11.941406 0.800781 C 11.519531 -0.109375 11.054688 -0.921875 10.554688 -1.640625 L 11.773438 -2.085938 C 12.390625 -1.140625 12.84375 -0.339844 13.132813 0.320313 Z M 6.546875 0.53125 L 5.304688 0.773438 C 5.191406 -0.0390625 4.988281 -0.925781 4.6875 -1.886719 L 5.945313 -2.070313 C 6.203125 -1.242188 6.402344 -0.378906 6.546875 0.53125 Z M 9.980469 0.429688 L 8.722656 0.695313 C 8.492188 -0.0546875 8.144531 -0.890625 7.683594 -1.820313 L 8.960938 -2.015625 C 9.390625 -1.175781 9.730469 -0.363281 9.980469 0.429688 Z M 9.980469 0.429688 "/>
</symbol>
<symbol overflow="visible" id="glyph4-9">
<path style="stroke:none;" d="M 13.144531 -9.214844 L 3.109375 -9.214844 L 3.109375 -4.96875 C 3.105469 -2.632813 2.742188 -0.714844 2.015625 0.785156 L 0.976563 0 C 1.550781 -1.25 1.839844 -2.988281 1.84375 -5.222656 L 1.84375 -10.363281 L 6.917969 -10.363281 C 6.867188 -10.523438 6.71875 -10.84375 6.46875 -11.328125 L 7.757813 -11.664063 C 7.917969 -11.335938 8.109375 -10.902344 8.332031 -10.363281 L 13.132813 -10.363281 Z M 13.304688 -2.269531 C 13.140625 -1.167969 12.933594 -0.382813 12.6875 0.09375 C 12.433594 0.570313 12.054688 0.808594 11.546875 0.8125 C 11.046875 0.808594 10.496094 0.351563 9.894531 -0.570313 C 9.289063 -1.488281 8.800781 -2.824219 8.429688 -4.578125 L 5.488281 -4.578125 L 5.488281 -2.324219 C 6.554688 -2.527344 7.492188 -2.777344 8.296875 -3.070313 L 8.441406 -1.921875 C 7.234375 -1.53125 5.828125 -1.210938 4.226563 -0.964844 L 3.953125 -1.886719 C 4.164063 -2.023438 4.269531 -2.226563 4.273438 -2.496094 L 4.273438 -8.09375 C 7.351563 -8.144531 9.8125 -8.394531 11.648438 -8.84375 L 12.320313 -7.839844 C 11.785156 -7.667969 10.769531 -7.484375 9.269531 -7.292969 L 9.445313 -5.714844 L 12.835938 -5.714844 L 12.835938 -4.578125 L 9.660156 -4.578125 C 9.90625 -3.441406 10.242188 -2.484375 10.667969 -1.703125 C 11.085938 -0.917969 11.386719 -0.527344 11.574219 -0.53125 C 11.820313 -0.527344 11.988281 -1.296875 12.078125 -2.84375 Z M 8.21875 -5.714844 L 8.054688 -7.171875 C 6.960938 -7.074219 6.105469 -7.023438 5.488281 -7.027344 L 5.488281 -5.714844 Z M 9.335938 0.546875 L 4.171875 0.546875 L 4.171875 -0.5625 L 9.335938 -0.5625 Z M 9.335938 0.546875 "/>
</symbol>
<symbol overflow="visible" id="glyph4-10">
<path style="stroke:none;" d="M 12.222656 0.710938 L 10.929688 0.710938 L 10.929688 -0.347656 L 3.246094 -0.347656 L 3.246094 0.710938 L 1.960938 0.710938 L 1.960938 -9.421875 L 4.621094 -9.421875 C 5.054688 -10.089844 5.421875 -10.832031 5.726563 -11.648438 L 7.070313 -11.382813 C 6.832031 -10.742188 6.503906 -10.089844 6.089844 -9.421875 L 12.222656 -9.421875 Z M 10.929688 -5.558594 L 10.929688 -8.230469 L 3.246094 -8.230469 L 3.246094 -5.558594 Z M 10.929688 -1.566406 L 10.929688 -4.3125 L 3.246094 -4.3125 L 3.246094 -1.566406 Z M 10.929688 -1.566406 "/>
</symbol>
<symbol overflow="visible" id="glyph5-0">
<path style="stroke:none;" d="M 1.75 0 L 1.75 -8.75 L 8.75 -8.75 L 8.75 0 Z M 1.96875 -0.21875 L 8.53125 -0.21875 L 8.53125 -8.53125 L 1.96875 -8.53125 Z M 1.96875 -0.21875 "/>
</symbol>
<symbol overflow="visible" id="glyph5-1">
<path style="stroke:none;" d="M 5.507813 0 L 3.589844 0 L 3.589844 -7.238281 C 2.882813 -6.578125 2.054688 -6.09375 1.109375 -5.78125 L 1.109375 -7.527344 C 1.605469 -7.6875 2.152344 -8 2.742188 -8.460938 C 3.328125 -8.917969 3.730469 -9.449219 3.953125 -10.0625 L 5.507813 -10.0625 Z M 5.507813 0 "/>
</symbol>
<symbol overflow="visible" id="glyph5-2">
<path style="stroke:none;" d="M 4.359375 0 L 4.359375 -2.015625 L 0.257813 -2.015625 L 0.257813 -3.699219 L 4.609375 -10.0625 L 6.21875 -10.0625 L 6.21875 -3.703125 L 7.464844 -3.703125 L 7.464844 -2.015625 L 6.21875 -2.015625 L 6.21875 0 Z M 4.359375 -3.703125 L 4.359375 -7.128906 L 2.058594 -3.703125 Z M 4.359375 -3.703125 "/>
</symbol>
<symbol overflow="visible" id="glyph6-0">
<path style="stroke:none;" d="M 1.222656 0 L 1.222656 -10.320313 L 8.53125 -10.320313 L 8.53125 0 Z M 2.042969 -0.820313 L 7.71875 -0.820313 L 7.71875 -9.5 L 2.042969 -9.5 Z M 2.042969 -0.820313 "/>
</symbol>
<symbol overflow="visible" id="glyph6-1">
<path style="stroke:none;" d="M 13.199219 0.15625 L 12.703125 0.785156 C 11.195313 -0.175781 9.992188 -1.285156 9.09375 -2.550781 C 8.195313 -3.8125 7.523438 -5.382813 7.082031 -7.253906 C 6.515625 -3.972656 4.609375 -1.308594 1.359375 0.746094 L 0.882813 0.109375 C 1.703125 -0.414063 2.496094 -1.039063 3.265625 -1.777344 C 4.027344 -2.507813 4.664063 -3.28125 5.167969 -4.097656 C 5.667969 -4.910156 6.054688 -6.03125 6.328125 -7.453125 L 1.132813 -7.453125 L 1.132813 -8.175781 L 6.46875 -8.175781 C 6.613281 -9.320313 6.691406 -10.457031 6.707031 -11.578125 L 7.507813 -11.578125 C 7.457031 -10.359375 7.367188 -9.222656 7.238281 -8.175781 L 12.976563 -8.175781 L 12.976563 -7.453125 L 7.785156 -7.453125 C 8.285156 -5.449219 8.976563 -3.878906 9.855469 -2.75 C 10.734375 -1.617188 11.847656 -0.652344 13.199219 0.15625 Z M 13.199219 0.15625 "/>
</symbol>
<symbol overflow="visible" id="glyph6-2">
<path style="stroke:none;" d="M 7.585938 -0.292969 C 7.582031 -0.0585938 7.503906 0.148438 7.355469 0.328125 C 7.199219 0.503906 7.03125 0.617188 6.84375 0.671875 C 6.65625 0.722656 6.308594 0.75 5.804688 0.75 C 5.394531 0.75 5.070313 0.742188 4.832031 0.726563 L 4.539063 -0.015625 C 5.761719 0.0195313 6.453125 0 6.609375 -0.0742188 C 6.765625 -0.144531 6.84375 -0.289063 6.84375 -0.507813 L 6.84375 -11.523438 L 7.585938 -11.523438 Z M 13.144531 -2.28125 L 12.433594 -1.976563 C 11.785156 -4.21875 10.988281 -6.390625 10.046875 -8.484375 L 10.765625 -8.777344 C 11.609375 -6.878906 12.402344 -4.710938 13.144531 -2.28125 Z M 4.195313 -8.578125 C 3.460938 -5.414063 2.550781 -3.199219 1.46875 -1.933594 L 0.867188 -2.378906 C 1.921875 -3.683594 2.789063 -5.816406 3.472656 -8.777344 Z M 4.195313 -8.578125 "/>
</symbol>
<symbol overflow="visible" id="glyph6-3">
<path style="stroke:none;" d="M 1.386719 0.683594 L 0.949219 0.0546875 C 2.214844 -0.6875 3.316406 -1.644531 4.261719 -2.828125 C 5.199219 -4.007813 5.765625 -5.589844 5.960938 -7.574219 L 1.09375 -7.574219 L 1.09375 -8.285156 L 6.007813 -8.285156 C 6.070313 -9.492188 6.089844 -10.5625 6.0625 -11.503906 L 6.84375 -11.503906 C 6.84375 -10.378906 6.816406 -9.308594 6.761719 -8.285156 L 12.449219 -8.285156 C 12.441406 -6.84375 12.40625 -5.332031 12.339844 -3.757813 C 12.273438 -2.179688 12.195313 -1.136719 12.105469 -0.628906 C 12.011719 -0.117188 11.828125 0.230469 11.558594 0.421875 C 11.28125 0.613281 10.96875 0.707031 10.625 0.710938 C 9.796875 0.707031 9.226563 0.703125 8.90625 0.695313 L 8.613281 -0.0546875 L 10.625 -0.0273438 C 10.835938 -0.0234375 11.011719 -0.0820313 11.144531 -0.199219 C 11.277344 -0.316406 11.363281 -0.503906 11.402344 -0.765625 C 11.4375 -1.023438 11.496094 -1.886719 11.578125 -3.355469 C 11.660156 -4.820313 11.699219 -6.226563 11.703125 -7.574219 L 6.707031 -7.574219 C 6.445313 -4.125 4.671875 -1.375 1.386719 0.683594 Z M 4.902344 -9.378906 L 4.382813 -8.84375 C 3.621094 -9.570313 2.847656 -10.179688 2.070313 -10.671875 L 2.589844 -11.246094 C 3.328125 -10.769531 4.097656 -10.148438 4.902344 -9.378906 Z M 7.375 -5.488281 C 8.308594 -4.789063 9.253906 -3.890625 10.207031 -2.789063 L 9.6875 -2.269531 C 8.640625 -3.433594 7.699219 -4.324219 6.863281 -4.941406 Z M 7.375 -5.488281 "/>
</symbol>
<symbol overflow="visible" id="glyph6-4">
<path style="stroke:none;" d="M 5.796875 0.429688 L 5.09375 0.429688 L 5.09375 -0.773438 L 2.070313 -0.773438 L 2.070313 0.710938 L 1.359375 0.710938 L 1.359375 -9.214844 L 2.660156 -9.214844 C 3.011719 -9.835938 3.34375 -10.636719 3.65625 -11.621094 L 4.355469 -11.476563 C 4.1875 -10.980469 3.871094 -10.226563 3.40625 -9.214844 L 5.796875 -9.214844 Z M 5.09375 -5.503906 L 5.09375 -8.511719 L 2.070313 -8.511719 L 2.070313 -5.503906 Z M 5.09375 -1.484375 L 5.09375 -4.796875 L 2.070313 -4.796875 L 2.070313 -1.484375 Z M 12.8125 -9.203125 C 12.753906 -7.101563 12.652344 -5.152344 12.503906 -3.355469 C 12.355469 -1.554688 12.207031 -0.496094 12.058594 -0.175781 C 11.90625 0.140625 11.710938 0.363281 11.480469 0.5 C 11.242188 0.632813 10.796875 0.703125 10.144531 0.703125 C 9.855469 0.703125 9.480469 0.695313 9.015625 0.683594 L 8.789063 -0.0273438 C 9.171875 -0.0117188 9.582031 -0.00390625 10.027344 -0.0078125 C 10.4375 -0.00390625 10.703125 -0.0078125 10.824219 -0.0195313 C 10.9375 -0.0273438 11.0625 -0.0859375 11.191406 -0.195313 C 11.316406 -0.296875 11.40625 -0.421875 11.464844 -0.570313 C 11.515625 -0.710938 11.589844 -1.25 11.683594 -2.179688 C 11.773438 -3.109375 11.847656 -4.132813 11.90625 -5.25 C 11.964844 -6.367188 12.007813 -7.453125 12.039063 -8.511719 L 8.386719 -8.511719 C 7.894531 -7.539063 7.332031 -6.617188 6.691406 -5.742188 L 6.117188 -6.144531 C 7.34375 -7.75 8.210938 -9.542969 8.722656 -11.523438 L 9.433594 -11.339844 C 9.207031 -10.589844 8.949219 -9.878906 8.667969 -9.203125 Z M 10.234375 -2.925781 L 9.644531 -2.507813 C 9.191406 -3.546875 8.515625 -4.632813 7.617188 -5.769531 L 8.21875 -6.160156 C 9.054688 -5.144531 9.726563 -4.066406 10.234375 -2.925781 Z M 10.234375 -2.925781 "/>
</symbol>
<symbol overflow="visible" id="glyph6-5">
<path style="stroke:none;" d="M 12.570313 -6.828125 L 11.832031 -6.828125 L 11.832031 -9.378906 L 2.28125 -9.378906 L 2.28125 -6.828125 L 1.539063 -6.828125 L 1.539063 -10.109375 L 6.828125 -10.109375 C 6.703125 -10.402344 6.46875 -10.78125 6.117188 -11.246094 L 6.789063 -11.59375 C 7.109375 -11.144531 7.402344 -10.648438 7.671875 -10.109375 L 12.570313 -10.109375 Z M 13.144531 -3.316406 L 7.453125 -3.316406 L 7.453125 -0.308594 C 7.453125 0.0546875 7.332031 0.316406 7.097656 0.480469 C 6.855469 0.644531 6.285156 0.726563 5.378906 0.730469 C 5.132813 0.726563 4.875 0.71875 4.609375 0.710938 L 4.339844 -0.0820313 C 4.714844 -0.0429688 5.09375 -0.0234375 5.476563 -0.0273438 C 6.066406 -0.0234375 6.414063 -0.0546875 6.519531 -0.117188 C 6.625 -0.179688 6.679688 -0.273438 6.679688 -0.402344 L 6.679688 -3.316406 L 0.964844 -3.316406 L 0.964844 -4.0625 L 6.679688 -4.0625 L 6.679688 -4.96875 C 7.914063 -5.695313 8.878906 -6.320313 9.578125 -6.84375 L 3.21875 -6.84375 L 3.21875 -7.574219 L 10.78125 -7.574219 L 10.78125 -6.84375 C 9.890625 -6.132813 8.78125 -5.382813 7.453125 -4.59375 L 7.453125 -4.0625 L 13.144531 -4.0625 Z M 13.144531 -3.316406 "/>
</symbol>
<symbol overflow="visible" id="glyph6-6">
<path style="stroke:none;" d="M 4.503906 -11.3125 C 4.335938 -10.832031 4.109375 -10.273438 3.820313 -9.632813 L 3.390625 -8.722656 L 3.390625 0.683594 L 2.644531 0.683594 L 2.644531 -7.375 C 2.214844 -6.722656 1.734375 -6.082031 1.203125 -5.449219 L 0.800781 -6.144531 C 2 -7.519531 3.011719 -9.335938 3.835938 -11.59375 Z M 13.199219 -2.726563 L 12.714844 -2.152344 C 11.082031 -3.589844 9.820313 -5.429688 8.933594 -7.671875 L 8.933594 -2.40625 L 11.554688 -2.40625 L 11.554688 -1.679688 L 8.933594 -1.679688 L 8.933594 0.695313 L 8.203125 0.695313 L 8.203125 -1.679688 L 5.503906 -1.679688 L 5.503906 -2.40625 L 8.203125 -2.40625 L 8.203125 -7.640625 C 7.253906 -5.367188 6.03125 -3.527344 4.539063 -2.125 L 3.964844 -2.617188 C 5.574219 -4.113281 6.851563 -6.0625 7.800781 -8.46875 L 4.476563 -8.46875 L 4.476563 -9.203125 L 8.203125 -9.203125 L 8.203125 -11.523438 L 8.933594 -11.523438 L 8.933594 -9.203125 L 12.851563 -9.203125 L 12.851563 -8.46875 L 9.3125 -8.46875 C 10.242188 -6.0625 11.539063 -4.148438 13.199219 -2.726563 Z M 13.199219 -2.726563 "/>
</symbol>
<symbol overflow="visible" id="glyph6-7">
<path style="stroke:none;" d="M 5.234375 -8.875 C 4.152344 -6.519531 3.144531 -4.625 2.203125 -3.191406 C 3.023438 -3.40625 3.941406 -3.761719 4.957031 -4.257813 L 5.179688 -3.582031 C 4.003906 -3.050781 2.71875 -2.582031 1.332031 -2.167969 L 1.003906 -2.828125 C 1.929688 -3.953125 2.773438 -5.3125 3.527344 -6.90625 C 2.816406 -6.636719 2.121094 -6.410156 1.441406 -6.226563 L 1.148438 -6.800781 C 1.929688 -7.976563 2.632813 -9.59375 3.261719 -11.648438 L 3.917969 -11.328125 C 3.34375 -9.605469 2.75 -8.222656 2.140625 -7.171875 C 2.667969 -7.28125 3.261719 -7.476563 3.917969 -7.757813 C 4.164063 -8.273438 4.390625 -8.765625 4.59375 -9.242188 Z M 12.878906 -8.484375 L 12.195313 -8.484375 L 12.195313 -9.550781 L 6.1875 -9.550781 L 6.1875 -8.523438 L 5.476563 -8.523438 L 5.476563 -10.21875 L 8.832031 -10.21875 C 8.621094 -10.683594 8.425781 -11.050781 8.242188 -11.328125 L 8.976563 -11.566406 C 9.238281 -11.105469 9.457031 -10.65625 9.632813 -10.21875 L 12.878906 -10.21875 Z M 7.617188 -8.578125 L 6.90625 -6.707031 L 6.90625 0.710938 L 6.1875 0.710938 L 6.1875 -5.320313 C 5.949219 -4.882813 5.679688 -4.46875 5.386719 -4.085938 L 4.929688 -4.675781 C 5.828125 -5.949219 6.523438 -7.34375 7.015625 -8.859375 Z M 13.1875 -7.363281 L 10.902344 -7.363281 C 10.8125 -6.9375 10.691406 -6.484375 10.539063 -6.007813 L 12.515625 -6.007813 L 12.515625 0.757813 L 11.796875 0.757813 L 11.796875 -0.199219 L 8.84375 -0.199219 L 8.84375 0.726563 L 8.132813 0.726563 L 8.132813 -6.007813 L 9.789063 -6.007813 C 9.9375 -6.363281 10.066406 -6.816406 10.179688 -7.363281 L 7.683594 -7.363281 L 7.683594 -8.023438 L 13.1875 -8.023438 Z M 11.796875 -3.5 L 11.796875 -5.332031 L 8.84375 -5.332031 L 8.84375 -3.5 Z M 11.796875 -0.910156 L 11.796875 -2.828125 L 8.84375 -2.828125 L 8.84375 -0.910156 Z M 5.289063 -1.148438 C 3.753906 -0.476563 2.378906 0.0625 1.164063 0.476563 L 0.867188 -0.15625 C 2.355469 -0.636719 3.746094 -1.179688 5.039063 -1.789063 Z M 5.289063 -1.148438 "/>
</symbol>
<symbol overflow="visible" id="glyph7-0">
<path style="stroke:none;" d="M 1.75 0 L 1.75 -8.75 L 8.75 -8.75 L 8.75 0 Z M 1.96875 -0.21875 L 8.53125 -0.21875 L 8.53125 -8.53125 L 1.96875 -8.53125 Z M 1.96875 -0.21875 "/>
</symbol>
<symbol overflow="visible" id="glyph7-1">
<path style="stroke:none;" d="M 5.214844 0 L 3.984375 0 L 3.984375 -7.839844 C 3.6875 -7.558594 3.296875 -7.273438 2.816406 -6.992188 C 2.335938 -6.707031 1.90625 -6.496094 1.523438 -6.359375 L 1.523438 -7.546875 C 2.210938 -7.867188 2.8125 -8.257813 3.328125 -8.722656 C 3.84375 -9.179688 4.207031 -9.625 4.421875 -10.0625 L 5.214844 -10.0625 Z M 5.214844 0 "/>
</symbol>
<symbol overflow="visible" id="glyph7-2">
<path style="stroke:none;" d="M 4.523438 0 L 4.523438 -2.398438 L 0.179688 -2.398438 L 0.179688 -3.527344 L 4.75 -10.023438 L 5.757813 -10.023438 L 5.757813 -3.527344 L 7.109375 -3.527344 L 7.109375 -2.398438 L 5.757813 -2.398438 L 5.757813 0 Z M 4.523438 -3.527344 L 4.523438 -8.046875 L 1.386719 -3.527344 Z M 4.523438 -3.527344 "/>
</symbol>
<symbol overflow="visible" id="glyph7-3">
<path style="stroke:none;" d="M -0.0195313 0 L 3.828125 -10.023438 L 5.257813 -10.023438 L 9.359375 0 L 7.847656 0 L 6.679688 -3.035156 L 2.488281 -3.035156 L 1.386719 0 Z M 2.871094 -4.117188 L 6.269531 -4.117188 L 5.222656 -6.890625 C 4.898438 -7.734375 4.664063 -8.425781 4.511719 -8.96875 C 4.382813 -8.324219 4.203125 -7.6875 3.972656 -7.054688 Z M 2.871094 -4.117188 "/>
</symbol>
<symbol overflow="visible" id="glyph7-4">
<path style="stroke:none;" d="M 0.910156 0 L 0.910156 -7.257813 L 2.015625 -7.257813 L 2.015625 -6.160156 C 2.296875 -6.667969 2.554688 -7.007813 2.796875 -7.175781 C 3.03125 -7.335938 3.296875 -7.417969 3.589844 -7.421875 C 4 -7.417969 4.421875 -7.285156 4.851563 -7.027344 L 4.429688 -5.886719 C 4.125 -6.0625 3.824219 -6.152344 3.527344 -6.152344 C 3.257813 -6.152344 3.015625 -6.070313 2.800781 -5.910156 C 2.585938 -5.746094 2.433594 -5.519531 2.34375 -5.234375 C 2.207031 -4.792969 2.136719 -4.316406 2.140625 -3.800781 L 2.140625 0 Z M 0.910156 0 "/>
</symbol>
<symbol overflow="visible" id="glyph7-5">
<path style="stroke:none;" d="M 0.929688 -8.605469 L 0.929688 -10.023438 L 2.160156 -10.023438 L 2.160156 -8.605469 Z M 0.929688 0 L 0.929688 -7.257813 L 2.160156 -7.257813 L 2.160156 0 Z M 0.929688 0 "/>
</symbol>
<symbol overflow="visible" id="glyph7-6">
<path style="stroke:none;" d="M 5.660156 -0.894531 C 5.203125 -0.503906 4.761719 -0.230469 4.34375 -0.0742188 C 3.917969 0.0859375 3.46875 0.164063 2.988281 0.164063 C 2.1875 0.164063 1.574219 -0.0273438 1.148438 -0.417969 C 0.71875 -0.804688 0.503906 -1.304688 0.507813 -1.914063 C 0.503906 -2.265625 0.585938 -2.589844 0.75 -2.886719 C 0.910156 -3.179688 1.121094 -3.414063 1.382813 -3.59375 C 1.644531 -3.769531 1.9375 -3.90625 2.269531 -4 C 2.507813 -4.058594 2.875 -4.121094 3.363281 -4.183594 C 4.355469 -4.300781 5.085938 -4.441406 5.558594 -4.609375 C 5.558594 -4.773438 5.558594 -4.878906 5.5625 -4.929688 C 5.558594 -5.425781 5.445313 -5.78125 5.214844 -5.988281 C 4.898438 -6.265625 4.429688 -6.402344 3.8125 -6.40625 C 3.230469 -6.402344 2.804688 -6.300781 2.53125 -6.101563 C 2.253906 -5.894531 2.050781 -5.535156 1.921875 -5.023438 L 0.71875 -5.1875 C 0.824219 -5.699219 1.003906 -6.117188 1.257813 -6.433594 C 1.503906 -6.75 1.867188 -6.992188 2.34375 -7.164063 C 2.816406 -7.332031 3.363281 -7.417969 3.992188 -7.421875 C 4.609375 -7.417969 5.113281 -7.34375 5.503906 -7.203125 C 5.886719 -7.054688 6.171875 -6.871094 6.359375 -6.652344 C 6.539063 -6.429688 6.667969 -6.152344 6.742188 -5.816406 C 6.777344 -5.605469 6.796875 -5.226563 6.800781 -4.683594 L 6.800781 -3.042969 C 6.796875 -1.894531 6.824219 -1.171875 6.878906 -0.871094 C 6.933594 -0.566406 7.035156 -0.277344 7.191406 0 L 5.90625 0 C 5.777344 -0.253906 5.695313 -0.550781 5.660156 -0.894531 Z M 5.558594 -3.644531 C 5.109375 -3.460938 4.4375 -3.304688 3.546875 -3.179688 C 3.039063 -3.105469 2.683594 -3.023438 2.472656 -2.933594 C 2.261719 -2.839844 2.097656 -2.707031 1.988281 -2.53125 C 1.871094 -2.355469 1.816406 -2.160156 1.820313 -1.949219 C 1.816406 -1.617188 1.941406 -1.34375 2.191406 -1.128906 C 2.4375 -0.90625 2.800781 -0.796875 3.28125 -0.800781 C 3.753906 -0.796875 4.175781 -0.898438 4.546875 -1.109375 C 4.914063 -1.3125 5.183594 -1.597656 5.359375 -1.960938 C 5.488281 -2.238281 5.554688 -2.648438 5.558594 -3.191406 Z M 5.558594 -3.644531 "/>
</symbol>
<symbol overflow="visible" id="glyph7-7">
<path style="stroke:none;" d="M 0.894531 0 L 0.894531 -10.023438 L 2.125 -10.023438 L 2.125 0 Z M 0.894531 0 "/>
</symbol>
</g>
<clipPath id="clip1">
  <path d="M 237 138 L 255 138 L 255 152 L 237 152 Z M 237 138 "/>
</clipPath>
</defs>
<g id="surface20740">
<rect x="0" y="0" width="360" height="189" style="fill:rgb(99.998474%,99.998474%,99.998474%);fill-opacity:1;stroke:none;"/>
<path style="fill:none;stroke-width:0.03;stroke-linecap:square;stroke-linejoin:miter;stroke:rgb(99.998474%,99.998474%,99.998474%);stroke-opacity:1;stroke-miterlimit:10;" d="M 0 92 L 360 92 L 360 -97 L 0 -97 Z M 0 92 " transform="matrix(1,0,0,1,0,97)"/>
<g style="fill:rgb(0%,0%,0%);fill-opacity:1;">
  <use xlink:href="#glyph0-1" x="125" y="12"/>
  <use xlink:href="#glyph0-2" x="137" y="12"/>
  <use xlink:href="#glyph0-3" x="149" y="12"/>
</g>
<g style="fill:rgb(0%,0%,0%);fill-opacity:1;">
  <use xlink:href="#glyph1-1" x="161" y="12"/>
  <use xlink:href="#glyph1-2" x="167.673828" y="12"/>
</g>
<g style="fill:rgb(0%,0%,0%);fill-opacity:1;">
  <use xlink:href="#glyph0-4" x="174.347656" y="12"/>
  <use xlink:href="#glyph0-5" x="186.347656" y="12"/>
  <use xlink:href="#glyph0-6" x="198.347656" y="12"/>
  <use xlink:href="#glyph0-7" x="210.347656" y="12"/>
  <use xlink:href="#glyph0-8" x="222.347656" y="12"/>
</g>
<g style="fill:rgb(0%,0%,0%);fill-opacity:1;">
  <use xlink:href="#glyph2-1" x="105.5" y="48.464"/>
  <use xlink:href="#glyph2-2" x="121.5" y="48.464"/>
  <use xlink:href="#glyph2-3" x="137.5" y="48.464"/>
</g>
<g style="fill:rgb(0%,0%,0%);fill-opacity:1;">
  <use xlink:href="#glyph3-1" x="153.5" y="48.464"/>
  <use xlink:href="#glyph3-2" x="162.398438" y="48.464"/>
</g>
<g style="fill:rgb(0%,0%,0%);fill-opacity:1;">
  <use xlink:href="#glyph2-4" x="171.296875" y="48.464"/>
  <use xlink:href="#glyph2-5" x="187.296875" y="48.464"/>
  <use xlink:href="#glyph2-6" x="203.296875" y="48.464"/>
  <use xlink:href="#glyph2-7" x="219.296875" y="48.464"/>
  <use xlink:href="#glyph2-6" x="235.296875" y="48.464"/>
</g>
<g style="fill:rgb(0%,0%,0%);fill-opacity:1;">
  <use xlink:href="#glyph4-1" x="115.5" y="81.428"/>
  <use xlink:href="#glyph4-2" x="129.5" y="81.428"/>
  <use xlink:href="#glyph4-3" x="143.5" y="81.428"/>
</g>
<g style="fill:rgb(0%,0%,0%);fill-opacity:1;">
  <use xlink:href="#glyph5-1" x="157.5" y="81.428"/>
  <use xlink:href="#glyph5-2" x="165.286133" y="81.428"/>
</g>
<g style="fill:rgb(0%,0%,0%);fill-opacity:1;">
  <use xlink:href="#glyph4-4" x="173.072266" y="81.428"/>
  <use xlink:href="#glyph4-5" x="187.072266" y="81.428"/>
  <use xlink:href="#glyph4-6" x="201.072266" y="81.428"/>
  <use xlink:href="#glyph4-7" x="215.072266" y="81.428"/>
  <use xlink:href="#glyph4-6" x="229.072266" y="81.428"/>
</g>
<g style="fill:rgb(0%,0%,0%);fill-opacity:1;">
  <use xlink:href="#glyph6-1" x="113.5" y="115.892"/>
  <use xlink:href="#glyph6-2" x="127.5" y="115.892"/>
  <use xlink:href="#glyph6-3" x="141.5" y="115.892"/>
</g>
<g style="fill:rgb(0%,0%,0%);fill-opacity:1;">
  <use xlink:href="#glyph7-1" x="155.5" y="115.892"/>
  <use xlink:href="#glyph7-2" x="163.286133" y="115.892"/>
</g>
<g style="fill:rgb(0%,0%,0%);fill-opacity:1;">
  <use xlink:href="#glyph6-4" x="171.072266" y="115.892"/>
</g>
<g style="fill:rgb(0%,0%,0%);fill-opacity:1;">
  <use xlink:href="#glyph7-3" x="185.072266" y="115.892"/>
  <use xlink:href="#glyph7-4" x="194.410156" y="115.892"/>
  <use xlink:href="#glyph7-5" x="199.072266" y="115.892"/>
  <use xlink:href="#glyph7-6" x="202.182617" y="115.892"/>
  <use xlink:href="#glyph7-7" x="209.96875" y="115.892"/>
</g>
<g style="fill:rgb(0%,0%,0%);fill-opacity:1;">
  <use xlink:href="#glyph6-5" x="213.079102" y="115.892"/>
  <use xlink:href="#glyph6-6" x="227.079102" y="115.892"/>
</g>
<g style="fill:rgb(0%,0%,0%);fill-opacity:1;">
  <use xlink:href="#glyph6-1" x="105" y="150.356"/>
  <use xlink:href="#glyph6-2" x="117.740234" y="150.356"/>
  <use xlink:href="#glyph6-3" x="130.480469" y="150.356"/>
</g>
<g style="fill:rgb(0%,0%,0%);fill-opacity:1;">
  <use xlink:href="#glyph7-1" x="144.480469" y="150.356"/>
  <use xlink:href="#glyph7-2" x="151.006836" y="150.356"/>
</g>
<g style="fill:rgb(0%,0%,0%);fill-opacity:1;">
  <use xlink:href="#glyph6-4" x="158.792969" y="150.356"/>
</g>
<g style="fill:rgb(0%,0%,0%);fill-opacity:1;">
  <use xlink:href="#glyph7-3" x="172.792969" y="150.356"/>
  <use xlink:href="#glyph7-4" x="180.871094" y="150.356"/>
  <use xlink:href="#glyph7-5" x="184.273438" y="150.356"/>
  <use xlink:href="#glyph7-6" x="186.124023" y="150.356"/>
</g>
<g style="fill:rgb(0%,0%,0%);fill-opacity:1;">
  <use xlink:href="#glyph6-4" x="193.910156" y="150.356"/>
  <use xlink:href="#glyph6-7" x="206.650391" y="150.356"/>
  <use xlink:href="#glyph6-2" x="219.390625" y="150.356"/>
</g>
<g style="fill:rgb(0%,0%,0%);fill-opacity:1;">
  <use xlink:href="#glyph7-7" x="233.390625" y="150.356"/>
</g>
<g clip-path="url(#clip1)" clip-rule="nonzero">
<g style="fill:rgb(0%,0%,0%);fill-opacity:1;">
  <use xlink:href="#glyph6-5" x="236.500977" y="150.356"/>
  <use xlink:href="#glyph6-6" x="249.241211" y="150.356"/>
</g>
</g>
<path style="fill-rule:nonzero;fill:rgb(0%,0%,0%);fill-opacity:1;stroke-width:0.03;stroke-linecap:square;stroke-linejoin:miter;stroke:rgb(0%,0%,0%);stroke-opacity:1;stroke-miterlimit:10;" d="M 0 13.000313 L 128 13.000313 L 128 2.000313 L 0 2.000313 Z M 0 13.000313 " transform="matrix(1,0,0,1,115.5,171.82)"/>
<g style="fill:rgb(99.998474%,99.998474%,99.998474%);fill-opacity:1;">
  <use xlink:href="#glyph4-1" x="115.5" y="184.82"/>
  <use xlink:href="#glyph4-2" x="129.5" y="184.82"/>
  <use xlink:href="#glyph4-3" x="143.5" y="184.82"/>
</g>
<g style="fill:rgb(99.998474%,99.998474%,99.998474%);fill-opacity:1;">
  <use xlink:href="#glyph5-1" x="157.5" y="184.82"/>
  <use xlink:href="#glyph5-2" x="165.286133" y="184.82"/>
</g>
<g style="fill:rgb(99.998474%,99.998474%,99.998474%);fill-opacity:1;">
  <use xlink:href="#glyph4-4" x="173.072266" y="184.82"/>
  <use xlink:href="#glyph4-8" x="187.072266" y="184.82"/>
  <use xlink:href="#glyph4-9" x="201.072266" y="184.82"/>
  <use xlink:href="#glyph4-10" x="215.072266" y="184.82"/>
  <use xlink:href="#glyph4-7" x="229.072266" y="184.82"/>
</g>
</g>
</svg>
