<?xml version="1.0" encoding="UTF-8"?>
<svg xmlns="http://www.w3.org/2000/svg" xmlns:xlink="http://www.w3.org/1999/xlink" width="644pt" height="624pt" viewBox="0 0 644 624" version="1.1">
<defs>
<g>
<symbol overflow="visible" id="glyph0-0">
<path style="stroke:none;" d="M 2.25 0 L 2.25 -11.25 L 11.25 -11.25 L 11.25 0 Z M 2.53125 -0.28125 L 10.96875 -0.28125 L 10.96875 -10.96875 L 2.53125 -10.96875 Z M 2.53125 -0.28125 "/>
</symbol>
<symbol overflow="visible" id="glyph0-1">
<path style="stroke:none;" d="M 6.707031 0 L 5.125 0 L 5.125 -10.082031 C 4.742188 -9.714844 4.242188 -9.351563 3.625 -8.988281 C 3.003906 -8.625 2.449219 -8.351563 1.960938 -8.171875 L 1.960938 -9.703125 C 2.84375 -10.117188 3.617188 -10.621094 4.28125 -11.214844 C 4.941406 -11.804688 5.410156 -12.378906 5.6875 -12.9375 L 6.707031 -12.9375 Z M 6.707031 0 "/>
</symbol>
<symbol overflow="visible" id="glyph0-2">
<path style="stroke:none;" d="M 9.0625 -1.519531 L 9.0625 0 L 0.546875 0 C 0.53125 -0.378906 0.59375 -0.742188 0.730469 -1.097656 C 0.945313 -1.675781 1.292969 -2.25 1.769531 -2.8125 C 2.246094 -3.375 2.933594 -4.023438 3.839844 -4.765625 C 5.238281 -5.90625 6.1875 -6.816406 6.679688 -7.492188 C 7.171875 -8.160156 7.417969 -8.792969 7.417969 -9.394531 C 7.417969 -10.019531 7.191406 -10.550781 6.746094 -10.980469 C 6.292969 -11.410156 5.710938 -11.625 4.992188 -11.628906 C 4.230469 -11.625 3.621094 -11.394531 3.164063 -10.941406 C 2.703125 -10.480469 2.46875 -9.847656 2.46875 -9.042969 L 0.84375 -9.210938 C 0.953125 -10.421875 1.371094 -11.34375 2.101563 -11.984375 C 2.824219 -12.617188 3.800781 -12.9375 5.027344 -12.9375 C 6.261719 -12.9375 7.238281 -12.59375 7.960938 -11.910156 C 8.679688 -11.222656 9.039063 -10.371094 9.042969 -9.359375 C 9.039063 -8.839844 8.933594 -8.335938 8.726563 -7.839844 C 8.511719 -7.339844 8.164063 -6.8125 7.675781 -6.265625 C 7.1875 -5.710938 6.375 -4.957031 5.238281 -4 C 4.285156 -3.199219 3.675781 -2.660156 3.410156 -2.378906 C 3.140625 -2.09375 2.917969 -1.804688 2.742188 -1.519531 Z M 9.0625 -1.519531 "/>
</symbol>
<symbol overflow="visible" id="glyph0-3">
<path style="stroke:none;" d="M 0.757813 -3.402344 L 2.335938 -3.613281 C 2.515625 -2.710938 2.824219 -2.0625 3.265625 -1.671875 C 3.699219 -1.273438 4.230469 -1.078125 4.859375 -1.082031 C 5.601563 -1.078125 6.230469 -1.335938 6.746094 -1.855469 C 7.253906 -2.367188 7.511719 -3.003906 7.515625 -3.769531 C 7.511719 -4.492188 7.273438 -5.09375 6.800781 -5.566406 C 6.324219 -6.035156 5.722656 -6.269531 4.992188 -6.273438 C 4.691406 -6.269531 4.316406 -6.210938 3.875 -6.101563 L 4.050781 -7.488281 C 4.152344 -7.472656 4.238281 -7.464844 4.304688 -7.46875 C 4.976563 -7.464844 5.582031 -7.640625 6.125 -7.996094 C 6.660156 -8.34375 6.929688 -8.886719 6.933594 -9.625 C 6.929688 -10.199219 6.734375 -10.679688 6.34375 -11.0625 C 5.949219 -11.445313 5.441406 -11.636719 4.824219 -11.636719 C 4.207031 -11.636719 3.695313 -11.441406 3.285156 -11.054688 C 2.875 -10.667969 2.613281 -10.089844 2.496094 -9.316406 L 0.914063 -9.597656 C 1.105469 -10.65625 1.542969 -11.476563 2.230469 -12.0625 C 2.914063 -12.644531 3.765625 -12.9375 4.789063 -12.9375 C 5.488281 -12.9375 6.136719 -12.785156 6.730469 -12.484375 C 7.320313 -12.179688 7.773438 -11.769531 8.089844 -11.25 C 8.402344 -10.726563 8.558594 -10.171875 8.5625 -9.589844 C 8.558594 -9.03125 8.410156 -8.523438 8.113281 -8.066406 C 7.8125 -7.609375 7.371094 -7.246094 6.785156 -6.976563 C 7.546875 -6.800781 8.136719 -6.4375 8.5625 -5.882813 C 8.980469 -5.328125 9.191406 -4.632813 9.195313 -3.804688 C 9.191406 -2.675781 8.78125 -1.722656 7.964844 -0.945313 C 7.140625 -0.164063 6.105469 0.222656 4.851563 0.226563 C 3.71875 0.222656 2.777344 -0.109375 2.035156 -0.78125 C 1.285156 -1.453125 0.859375 -2.328125 0.757813 -3.402344 Z M 0.757813 -3.402344 "/>
</symbol>
<symbol overflow="visible" id="glyph0-4">
<path style="stroke:none;" d="M 5.820313 0 L 5.820313 -3.085938 L 0.226563 -3.085938 L 0.226563 -4.535156 L 6.109375 -12.882813 L 7.398438 -12.882813 L 7.398438 -4.535156 L 9.140625 -4.535156 L 9.140625 -3.085938 L 7.398438 -3.085938 L 7.398438 0 Z M 5.820313 -4.535156 L 5.820313 -10.34375 L 1.785156 -4.535156 Z M 5.820313 -4.535156 "/>
</symbol>
<symbol overflow="visible" id="glyph0-5">
<path style="stroke:none;" d="M 0.746094 -3.375 L 2.40625 -3.515625 C 2.527344 -2.707031 2.8125 -2.097656 3.265625 -1.691406 C 3.710938 -1.28125 4.253906 -1.078125 4.886719 -1.082031 C 5.648438 -1.078125 6.292969 -1.363281 6.820313 -1.941406 C 7.34375 -2.511719 7.605469 -3.273438 7.609375 -4.226563 C 7.605469 -5.125 7.351563 -5.839844 6.847656 -6.363281 C 6.339844 -6.882813 5.675781 -7.140625 4.859375 -7.144531 C 4.34375 -7.140625 3.886719 -7.027344 3.480469 -6.796875 C 3.070313 -6.566406 2.746094 -6.265625 2.515625 -5.898438 L 1.027344 -6.089844 L 2.277344 -12.710938 L 8.683594 -12.710938 L 8.683594 -11.195313 L 3.542969 -11.195313 L 2.847656 -7.734375 C 3.621094 -8.273438 4.429688 -8.542969 5.28125 -8.542969 C 6.402344 -8.542969 7.351563 -8.152344 8.128906 -7.371094 C 8.898438 -6.589844 9.285156 -5.585938 9.289063 -4.367188 C 9.285156 -3.195313 8.945313 -2.1875 8.269531 -1.34375 C 7.441406 -0.300781 6.316406 0.214844 4.886719 0.21875 C 3.714844 0.214844 2.757813 -0.109375 2.015625 -0.765625 C 1.273438 -1.417969 0.847656 -2.289063 0.746094 -3.375 Z M 0.746094 -3.375 "/>
</symbol>
<symbol overflow="visible" id="glyph0-6">
<path style="stroke:none;" d="M 8.957031 -9.730469 L 7.382813 -9.605469 C 7.242188 -10.222656 7.042969 -10.675781 6.785156 -10.960938 C 6.355469 -11.410156 5.828125 -11.636719 5.203125 -11.636719 C 4.695313 -11.636719 4.25 -11.496094 3.875 -11.214844 C 3.375 -10.851563 2.984375 -10.320313 2.695313 -9.625 C 2.40625 -8.925781 2.257813 -7.933594 2.25 -6.644531 C 2.628906 -7.222656 3.09375 -7.652344 3.644531 -7.9375 C 4.195313 -8.214844 4.773438 -8.355469 5.378906 -8.359375 C 6.433594 -8.355469 7.328125 -7.96875 8.070313 -7.195313 C 8.808594 -6.417969 9.179688 -5.414063 9.183594 -4.183594 C 9.179688 -3.371094 9.007813 -2.617188 8.660156 -1.925781 C 8.3125 -1.230469 7.832031 -0.699219 7.226563 -0.332031 C 6.613281 0.0351563 5.921875 0.214844 5.148438 0.21875 C 3.828125 0.214844 2.753906 -0.265625 1.921875 -1.234375 C 1.089844 -2.199219 0.671875 -3.796875 0.675781 -6.03125 C 0.671875 -8.515625 1.132813 -10.328125 2.054688 -11.460938 C 2.855469 -12.445313 3.9375 -12.9375 5.300781 -12.9375 C 6.3125 -12.9375 7.140625 -12.652344 7.789063 -12.085938 C 8.433594 -11.515625 8.824219 -10.730469 8.957031 -9.730469 Z M 2.496094 -4.175781 C 2.496094 -3.628906 2.609375 -3.105469 2.84375 -2.609375 C 3.070313 -2.109375 3.394531 -1.730469 3.8125 -1.472656 C 4.226563 -1.207031 4.664063 -1.078125 5.125 -1.082031 C 5.789063 -1.078125 6.363281 -1.347656 6.84375 -1.890625 C 7.324219 -2.425781 7.5625 -3.15625 7.566406 -4.085938 C 7.5625 -4.972656 7.328125 -5.675781 6.855469 -6.191406 C 6.378906 -6.703125 5.78125 -6.960938 5.0625 -6.960938 C 4.347656 -6.960938 3.738281 -6.703125 3.242188 -6.191406 C 2.742188 -5.675781 2.496094 -5.003906 2.496094 -4.175781 Z M 2.496094 -4.175781 "/>
</symbol>
<symbol overflow="visible" id="glyph0-7">
<path style="stroke:none;" d="M 1.632813 0 L 1.632813 -1.800781 L 3.4375 -1.800781 L 3.4375 0 Z M 1.632813 0 "/>
</symbol>
<symbol overflow="visible" id="glyph0-8">
<path style="stroke:none;" d="M 0.746094 -6.355469 C 0.742188 -7.875 0.898438 -9.101563 1.214844 -10.03125 C 1.527344 -10.960938 1.996094 -11.675781 2.613281 -12.179688 C 3.230469 -12.683594 4.007813 -12.9375 4.949219 -12.9375 C 5.636719 -12.9375 6.242188 -12.796875 6.765625 -12.519531 C 7.285156 -12.238281 7.714844 -11.835938 8.058594 -11.316406 C 8.394531 -10.789063 8.664063 -10.152344 8.859375 -9.398438 C 9.050781 -8.644531 9.144531 -7.628906 9.148438 -6.355469 C 9.144531 -4.839844 8.992188 -3.617188 8.683594 -2.691406 C 8.371094 -1.761719 7.90625 -1.046875 7.289063 -0.539063 C 6.671875 -0.0351563 5.890625 0.214844 4.949219 0.21875 C 3.703125 0.214844 2.726563 -0.226563 2.023438 -1.117188 C 1.167969 -2.1875 0.742188 -3.933594 0.746094 -6.355469 Z M 2.375 -6.355469 C 2.371094 -4.234375 2.621094 -2.824219 3.117188 -2.128906 C 3.609375 -1.425781 4.21875 -1.078125 4.949219 -1.082031 C 5.671875 -1.078125 6.28125 -1.429688 6.78125 -2.136719 C 7.273438 -2.835938 7.523438 -4.242188 7.523438 -6.355469 C 7.523438 -8.472656 7.273438 -9.882813 6.78125 -10.582031 C 6.28125 -11.277344 5.664063 -11.625 4.929688 -11.628906 C 4.199219 -11.625 3.621094 -11.316406 3.191406 -10.703125 C 2.644531 -9.917969 2.371094 -8.46875 2.375 -6.355469 Z M 2.375 -6.355469 "/>
</symbol>
<symbol overflow="visible" id="glyph0-9">
<path style="stroke:none;" d="M 7.277344 -3.417969 L 8.832031 -3.21875 C 8.660156 -2.140625 8.226563 -1.300781 7.527344 -0.699219 C 6.824219 -0.0898438 5.964844 0.210938 4.949219 0.210938 C 3.667969 0.210938 2.640625 -0.203125 1.867188 -1.039063 C 1.089844 -1.871094 0.703125 -3.070313 0.703125 -4.632813 C 0.703125 -5.636719 0.867188 -6.519531 1.203125 -7.277344 C 1.53125 -8.03125 2.039063 -8.597656 2.726563 -8.976563 C 3.40625 -9.355469 4.152344 -9.542969 4.957031 -9.546875 C 5.96875 -9.542969 6.796875 -9.289063 7.441406 -8.777344 C 8.085938 -8.261719 8.5 -7.53125 8.683594 -6.59375 L 7.144531 -6.355469 C 6.996094 -6.980469 6.738281 -7.453125 6.367188 -7.769531 C 5.992188 -8.082031 5.542969 -8.238281 5.019531 -8.242188 C 4.21875 -8.238281 3.570313 -7.953125 3.074219 -7.386719 C 2.574219 -6.8125 2.324219 -5.910156 2.328125 -4.675781 C 2.324219 -3.421875 2.566406 -2.507813 3.046875 -1.941406 C 3.527344 -1.371094 4.152344 -1.089844 4.929688 -1.089844 C 5.546875 -1.089844 6.066406 -1.277344 6.484375 -1.660156 C 6.898438 -2.039063 7.164063 -2.625 7.277344 -3.417969 Z M 7.277344 -3.417969 "/>
</symbol>
<symbol overflow="visible" id="glyph0-10">
<path style="stroke:none;" d="M 0.597656 -4.667969 C 0.597656 -6.390625 1.078125 -7.671875 2.039063 -8.507813 C 2.839844 -9.199219 3.816406 -9.542969 4.976563 -9.546875 C 6.253906 -9.542969 7.304688 -9.125 8.121094 -8.285156 C 8.933594 -7.441406 9.339844 -6.277344 9.34375 -4.796875 C 9.339844 -3.59375 9.160156 -2.648438 8.800781 -1.960938 C 8.441406 -1.269531 7.914063 -0.734375 7.226563 -0.359375 C 6.535156 0.0234375 5.785156 0.210938 4.976563 0.210938 C 3.664063 0.210938 2.609375 -0.207031 1.804688 -1.046875 C 1 -1.882813 0.597656 -3.089844 0.597656 -4.667969 Z M 2.222656 -4.667969 C 2.21875 -3.46875 2.480469 -2.574219 3.003906 -1.980469 C 3.523438 -1.386719 4.179688 -1.089844 4.976563 -1.089844 C 5.757813 -1.089844 6.410156 -1.386719 6.933594 -1.984375 C 7.453125 -2.582031 7.714844 -3.492188 7.71875 -4.71875 C 7.714844 -5.871094 7.453125 -6.746094 6.929688 -7.34375 C 6.402344 -7.933594 5.75 -8.230469 4.976563 -8.234375 C 4.179688 -8.230469 3.523438 -7.9375 3.003906 -7.347656 C 2.480469 -6.753906 2.21875 -5.859375 2.222656 -4.667969 Z M 2.222656 -4.667969 "/>
</symbol>
<symbol overflow="visible" id="glyph0-11">
<path style="stroke:none;" d="M 0.554688 -2.785156 L 2.117188 -3.03125 C 2.203125 -2.402344 2.449219 -1.921875 2.851563 -1.589844 C 3.25 -1.253906 3.8125 -1.089844 4.535156 -1.089844 C 5.261719 -1.089844 5.800781 -1.234375 6.152344 -1.53125 C 6.503906 -1.824219 6.679688 -2.171875 6.679688 -2.574219 C 6.679688 -2.925781 6.523438 -3.207031 6.214844 -3.417969 C 5.996094 -3.554688 5.457031 -3.734375 4.597656 -3.953125 C 3.433594 -4.246094 2.628906 -4.5 2.183594 -4.714844 C 1.734375 -4.925781 1.394531 -5.222656 1.164063 -5.601563 C 0.929688 -5.980469 0.8125 -6.398438 0.816406 -6.855469 C 0.8125 -7.269531 0.910156 -7.652344 1.101563 -8.011719 C 1.292969 -8.363281 1.550781 -8.660156 1.882813 -8.894531 C 2.125 -9.074219 2.460938 -9.226563 2.886719 -9.355469 C 3.308594 -9.480469 3.765625 -9.542969 4.253906 -9.546875 C 4.984375 -9.542969 5.625 -9.4375 6.183594 -9.230469 C 6.734375 -9.015625 7.144531 -8.730469 7.410156 -8.371094 C 7.671875 -8.007813 7.851563 -7.527344 7.953125 -6.925781 L 6.40625 -6.714844 C 6.332031 -7.195313 6.128906 -7.570313 5.792969 -7.839844 C 5.453125 -8.105469 4.976563 -8.238281 4.367188 -8.242188 C 3.636719 -8.238281 3.121094 -8.117188 2.8125 -7.882813 C 2.5 -7.640625 2.34375 -7.359375 2.347656 -7.039063 C 2.34375 -6.832031 2.40625 -6.648438 2.539063 -6.484375 C 2.664063 -6.3125 2.867188 -6.171875 3.148438 -6.0625 C 3.300781 -6.003906 3.765625 -5.871094 4.542969 -5.660156 C 5.660156 -5.359375 6.441406 -5.113281 6.886719 -4.925781 C 7.324219 -4.734375 7.671875 -4.457031 7.925781 -4.09375 C 8.175781 -3.730469 8.300781 -3.28125 8.304688 -2.742188 C 8.300781 -2.214844 8.148438 -1.71875 7.84375 -1.253906 C 7.535156 -0.785156 7.089844 -0.421875 6.511719 -0.171875 C 5.925781 0.0859375 5.269531 0.210938 4.542969 0.210938 C 3.328125 0.210938 2.40625 -0.0390625 1.769531 -0.542969 C 1.132813 -1.046875 0.726563 -1.792969 0.554688 -2.785156 Z M 0.554688 -2.785156 "/>
</symbol>
<symbol overflow="visible" id="glyph0-12">
<path style="stroke:none;" d="M 0.132813 0 L 3.542969 -4.851563 L 0.386719 -9.335938 L 2.363281 -9.335938 L 3.796875 -7.144531 C 4.066406 -6.726563 4.28125 -6.378906 4.445313 -6.101563 C 4.703125 -6.484375 4.941406 -6.828125 5.160156 -7.128906 L 6.734375 -9.335938 L 8.621094 -9.335938 L 5.398438 -4.9375 L 8.867188 0 L 6.925781 0 L 5.007813 -2.898438 L 4.5 -3.683594 L 2.046875 0 Z M 0.132813 0 "/>
</symbol>
<symbol overflow="visible" id="glyph0-13">
<path style="stroke:none;" d="M 0.808594 -4.140625 L 2.417969 -4.28125 C 2.492188 -3.632813 2.667969 -3.101563 2.949219 -2.691406 C 3.222656 -2.277344 3.65625 -1.945313 4.246094 -1.691406 C 4.828125 -1.433594 5.488281 -1.304688 6.222656 -1.308594 C 6.871094 -1.304688 7.445313 -1.402344 7.945313 -1.597656 C 8.441406 -1.789063 8.808594 -2.054688 9.054688 -2.394531 C 9.296875 -2.726563 9.421875 -3.09375 9.421875 -3.5 C 9.421875 -3.898438 9.304688 -4.25 9.070313 -4.554688 C 8.835938 -4.851563 8.449219 -5.105469 7.910156 -5.316406 C 7.5625 -5.449219 6.796875 -5.660156 5.613281 -5.945313 C 4.429688 -6.226563 3.601563 -6.496094 3.128906 -6.75 C 2.511719 -7.070313 2.050781 -7.46875 1.753906 -7.949219 C 1.449219 -8.421875 1.300781 -8.957031 1.300781 -9.554688 C 1.300781 -10.203125 1.484375 -10.8125 1.851563 -11.378906 C 2.21875 -11.941406 2.757813 -12.367188 3.46875 -12.664063 C 4.179688 -12.953125 4.96875 -13.101563 5.835938 -13.105469 C 6.789063 -13.101563 7.628906 -12.945313 8.363281 -12.640625 C 9.089844 -12.328125 9.652344 -11.878906 10.042969 -11.285156 C 10.433594 -10.6875 10.644531 -10.007813 10.679688 -9.253906 L 9.042969 -9.132813 C 8.953125 -9.941406 8.65625 -10.554688 8.152344 -10.976563 C 7.640625 -11.390625 6.894531 -11.601563 5.90625 -11.601563 C 4.875 -11.601563 4.121094 -11.410156 3.652344 -11.035156 C 3.175781 -10.652344 2.941406 -10.199219 2.945313 -9.667969 C 2.941406 -9.203125 3.109375 -8.820313 3.445313 -8.523438 C 3.773438 -8.222656 4.628906 -7.917969 6.015625 -7.605469 C 7.398438 -7.292969 8.347656 -7.019531 8.867188 -6.785156 C 9.613281 -6.4375 10.167969 -5.996094 10.527344 -5.46875 C 10.882813 -4.9375 11.0625 -4.328125 11.066406 -3.640625 C 11.0625 -2.949219 10.867188 -2.304688 10.476563 -1.699219 C 10.082031 -1.089844 9.515625 -0.617188 8.78125 -0.285156 C 8.042969 0.0507813 7.214844 0.214844 6.300781 0.21875 C 5.132813 0.214844 4.15625 0.0507813 3.371094 -0.289063 C 2.578125 -0.625 1.960938 -1.136719 1.515625 -1.824219 C 1.066406 -2.503906 0.832031 -3.277344 0.808594 -4.140625 Z M 0.808594 -4.140625 "/>
</symbol>
<symbol overflow="visible" id="glyph0-14">
<path style="stroke:none;" d="M 1.195313 -11.066406 L 1.195313 -12.882813 L 2.777344 -12.882813 L 2.777344 -11.066406 Z M 1.195313 0 L 1.195313 -9.335938 L 2.777344 -9.335938 L 2.777344 0 Z M 1.195313 0 "/>
</symbol>
<symbol overflow="visible" id="glyph0-15">
<path style="stroke:none;" d="M 1.1875 0 L 1.1875 -9.335938 L 2.609375 -9.335938 L 2.609375 -8.007813 C 3.292969 -9.03125 4.285156 -9.542969 5.582031 -9.546875 C 6.140625 -9.542969 6.65625 -9.441406 7.132813 -9.242188 C 7.601563 -9.035156 7.957031 -8.769531 8.191406 -8.445313 C 8.425781 -8.113281 8.589844 -7.726563 8.683594 -7.277344 C 8.742188 -6.980469 8.769531 -6.464844 8.773438 -5.738281 L 8.773438 0 L 7.1875 0 L 7.1875 -5.679688 C 7.183594 -6.320313 7.121094 -6.800781 7.003906 -7.121094 C 6.878906 -7.4375 6.660156 -7.695313 6.347656 -7.886719 C 6.03125 -8.074219 5.664063 -8.167969 5.246094 -8.171875 C 4.566406 -8.167969 3.984375 -7.953125 3.5 -7.53125 C 3.007813 -7.101563 2.765625 -6.292969 2.769531 -5.097656 L 2.769531 0 Z M 1.1875 0 "/>
</symbol>
<symbol overflow="visible" id="glyph0-16">
<path style="stroke:none;" d="M 7.578125 -3.007813 L 9.210938 -2.804688 C 8.953125 -1.847656 8.472656 -1.105469 7.777344 -0.578125 C 7.078125 -0.0507813 6.1875 0.210938 5.105469 0.210938 C 3.738281 0.210938 2.65625 -0.207031 1.859375 -1.050781 C 1.054688 -1.886719 0.65625 -3.066406 0.660156 -4.585938 C 0.65625 -6.15625 1.058594 -7.375 1.871094 -8.246094 C 2.675781 -9.109375 3.726563 -9.542969 5.019531 -9.546875 C 6.265625 -9.542969 7.285156 -9.117188 8.078125 -8.269531 C 8.867188 -7.417969 9.261719 -6.222656 9.265625 -4.683594 C 9.261719 -4.585938 9.257813 -4.445313 9.253906 -4.261719 L 2.292969 -4.261719 C 2.347656 -3.234375 2.640625 -2.449219 3.164063 -1.90625 C 3.683594 -1.359375 4.332031 -1.089844 5.117188 -1.089844 C 5.691406 -1.089844 6.1875 -1.242188 6.597656 -1.546875 C 7.007813 -1.851563 7.332031 -2.335938 7.578125 -3.007813 Z M 2.382813 -5.5625 L 7.59375 -5.5625 C 7.523438 -6.34375 7.324219 -6.933594 6.996094 -7.328125 C 6.492188 -7.933594 5.835938 -8.238281 5.035156 -8.242188 C 4.304688 -8.238281 3.695313 -7.996094 3.203125 -7.511719 C 2.707031 -7.027344 2.433594 -6.375 2.382813 -5.5625 Z M 2.382813 -5.5625 "/>
</symbol>
<symbol overflow="visible" id="glyph1-0">
<path style="stroke:none;" d="M 1.125 0 L 1.125 -14.398438 L 7.875 -14.398438 L 7.875 0 Z M 2.25 -1.125 L 6.75 -1.125 L 6.75 -13.273438 L 2.25 -13.273438 Z M 2.25 -1.125 "/>
</symbol>
<symbol overflow="visible" id="glyph1-1">
<path style="stroke:none;" d="M 9.519531 -3.945313 L 0.992188 -3.945313 L 0.992188 -5.421875 L 9.519531 -5.421875 Z M 9.519531 -3.945313 "/>
</symbol>
</g>
<clipPath id="clip1">
  <path d="M 46 22 L 451 22 L 451 273 L 46 273 Z M 46 22 "/>
</clipPath>
<clipPath id="clip2">
  <path d="M 59 360 L 464 360 L 464 611 L 59 611 Z M 59 360 "/>
</clipPath>
</defs>
<g id="surface20720">
<g clip-path="url(#clip1)" clip-rule="nonzero">
<path style="fill:none;stroke-width:2.88;stroke-linecap:square;stroke-linejoin:miter;stroke:rgb(0%,0%,0%);stroke-opacity:1;stroke-dasharray:1.8,7.2;stroke-miterlimit:3.25;" d="M 54.980469 147.007813 L 55.097656 146.789063 L 55.21875 146.574219 L 55.453125 146.140625 L 55.929688 145.277344 L 56.878906 143.550781 L 58.777344 140.101563 L 62.574219 133.222656 L 70.804688 118.519531 L 78.488281 105.246094 L 86.023438 92.863281 L 94.195313 80.351563 L 101.824219 69.730469 L 110.089844 59.5625 L 110.21875 59.417969 L 110.34375 59.273438 L 111.105469 58.417969 L 112.121094 57.300781 L 114.148438 55.136719 L 118.207031 51.109375 L 118.324219 51 L 118.445313 50.886719 L 118.679688 50.667969 L 119.152344 50.230469 L 120.101563 49.371094 L 121.992188 47.730469 L 122.109375 47.628906 L 122.230469 47.53125 L 122.464844 47.332031 L 122.9375 46.941406 L 123.886719 46.179688 L 125.777344 44.722656 L 125.90625 44.628906 L 126.035156 44.53125 L 126.289063 44.34375 L 126.804688 43.972656 L 127.828125 43.253906 L 129.882813 41.902344 L 130.011719 41.820313 L 130.136719 41.738281 L 130.394531 41.582031 L 130.90625 41.269531 L 131.933594 40.664063 L 133.988281 39.546875 L 134.105469 39.484375 L 134.226563 39.421875 L 134.464844 39.300781 L 134.945313 39.066406 L 135.902344 38.609375 L 136.023438 38.554688 L 136.140625 38.5 L 136.382813 38.390625 L 136.859375 38.179688 L 137.816406 37.777344 L 137.9375 37.730469 L 138.058594 37.679688 L 138.296875 37.585938 L 138.777344 37.402344 L 139.734375 37.050781 L 139.855469 37.011719 L 139.972656 36.96875 L 140.214844 36.886719 L 140.691406 36.730469 L 141.648438 36.433594 L 141.882813 36.363281 L 142.121094 36.296875 L 142.589844 36.167969 L 142.824219 36.105469 L 143.527344 35.929688 L 143.996094 35.820313 L 144.46875 35.71875 L 145.523438 35.507813 L 145.640625 35.488281 L 145.875 35.445313 L 146.34375 35.371094 L 146.460938 35.351563 L 146.582031 35.332031 L 146.816406 35.300781 L 147.285156 35.234375 L 147.402344 35.21875 L 147.519531 35.207031 L 147.753906 35.175781 L 147.988281 35.152344 L 148.222656 35.125 L 148.457031 35.101563 L 148.691406 35.082031 L 148.808594 35.070313 L 148.929688 35.0625 L 149.164063 35.042969 L 149.289063 35.035156 L 149.417969 35.023438 L 149.542969 35.015625 L 149.800781 35 L 149.925781 34.996094 L 150.179688 34.984375 L 150.308594 34.976563 L 150.4375 34.972656 L 150.5625 34.96875 L 150.691406 34.964844 L 150.816406 34.960938 L 151.074219 34.953125 L 151.328125 34.953125 L 151.457031 34.949219 L 151.964844 34.949219 L 152.09375 34.953125 L 152.21875 34.953125 L 152.347656 34.957031 L 152.472656 34.957031 L 152.730469 34.964844 L 152.855469 34.96875 L 152.984375 34.972656 L 153.109375 34.980469 L 153.238281 34.984375 L 153.367188 34.992188 L 153.492188 34.996094 L 153.621094 35.003906 L 153.746094 35.011719 L 154.003906 35.027344 L 154.257813 35.046875 L 154.382813 35.058594 L 154.511719 35.066406 L 154.765625 35.089844 L 155.277344 35.140625 L 155.402344 35.15625 L 155.53125 35.167969 L 155.785156 35.199219 L 156.296875 35.265625 L 156.421875 35.28125 L 156.550781 35.300781 L 156.804688 35.335938 L 157.3125 35.417969 L 157.433594 35.4375 L 157.550781 35.457031 L 157.789063 35.5 L 158.265625 35.589844 L 158.382813 35.613281 L 158.503906 35.636719 L 158.738281 35.6875 L 159.214844 35.789063 L 159.335938 35.816406 L 159.453125 35.839844 L 159.691406 35.898438 L 160.167969 36.011719 L 161.117188 36.261719 L 161.234375 36.296875 L 161.355469 36.332031 L 161.59375 36.398438 L 162.066406 36.539063 L 163.019531 36.84375 L 164.917969 37.53125 L 165.433594 37.734375 L 165.949219 37.945313 L 166.980469 38.394531 L 169.042969 39.375 L 169.558594 39.640625 L 170.074219 39.914063 L 171.101563 40.480469 L 173.164063 41.703125 L 173.289063 41.785156 L 173.417969 41.863281 L 173.671875 42.023438 L 174.175781 42.347656 L 175.1875 43.019531 L 177.210938 44.449219 L 181.257813 47.636719 L 181.375 47.738281 L 181.492188 47.835938 L 181.730469 48.035156 L 182.203125 48.441406 L 183.144531 49.269531 L 185.03125 50.996094 L 188.804688 54.71875 L 189.0625 54.984375 L 189.316406 55.25 L 189.828125 55.789063 L 190.851563 56.882813 L 192.898438 59.144531 L 196.992188 63.960938 L 204.636719 73.914063 L 212.914063 85.964844 L 221.042969 98.867188 L 228.628906 111.667969 L 236.851563 126.144531 L 244.527344 140 L 252.054688 153.691406 L 260.21875 168.425781 L 267.839844 181.839844 L 276.097656 195.773438 L 284.203125 208.597656 L 291.765625 219.605469 L 299.96875 230.296875 L 300.085938 230.445313 L 300.207031 230.589844 L 300.445313 230.878906 L 300.921875 231.453125 L 301.878906 232.589844 L 303.792969 234.796875 L 307.621094 238.953125 L 308.089844 239.4375 L 308.558594 239.917969 L 309.496094 240.863281 L 311.375 242.683594 L 311.492188 242.792969 L 311.609375 242.90625 L 312.3125 243.5625 L 313.25 244.417969 L 315.125 246.058594 L 315.253906 246.167969 L 315.378906 246.273438 L 315.636719 246.488281 L 316.144531 246.910156 L 317.160156 247.738281 L 319.199219 249.304688 L 319.324219 249.398438 L 319.453125 249.492188 L 319.707031 249.679688 L 320.214844 250.046875 L 321.234375 250.761719 L 323.269531 252.105469 L 323.386719 252.179688 L 323.507813 252.253906 L 323.742188 252.402344 L 324.21875 252.691406 L 325.167969 253.253906 L 327.066406 254.300781 L 327.1875 254.363281 L 327.304688 254.425781 L 327.542969 254.546875 L 328.019531 254.785156 L 328.96875 255.246094 L 330.867188 256.089844 L 330.996094 256.144531 L 331.125 256.195313 L 331.382813 256.300781 L 331.894531 256.503906 L 332.925781 256.886719 L 333.054688 256.933594 L 333.183594 256.976563 L 333.441406 257.066406 L 333.957031 257.238281 L 334.984375 257.558594 L 335.242188 257.636719 L 335.5 257.710938 L 336.015625 257.851563 L 336.144531 257.882813 L 336.273438 257.917969 L 336.527344 257.984375 L 337.171875 258.140625 L 337.300781 258.167969 L 337.558594 258.226563 L 338.074219 258.339844 L 339.101563 258.535156 L 339.222656 258.554688 L 339.34375 258.578125 L 339.582031 258.617188 L 340.0625 258.691406 L 340.183594 258.707031 L 340.304688 258.726563 L 340.542969 258.757813 L 341.027344 258.820313 L 341.144531 258.835938 L 341.265625 258.847656 L 341.507813 258.875 L 341.625 258.886719 L 341.988281 258.921875 L 342.105469 258.933594 L 342.226563 258.941406 L 342.46875 258.960938 L 342.585938 258.972656 L 343.070313 259.003906 L 343.1875 259.011719 L 343.308594 259.015625 L 343.429688 259.023438 L 343.550781 259.027344 L 343.667969 259.035156 L 344.03125 259.046875 L 344.148438 259.050781 L 344.269531 259.054688 L 344.390625 259.054688 L 344.511719 259.058594 L 344.628906 259.058594 L 344.75 259.0625 L 345.351563 259.0625 L 345.472656 259.058594 L 345.710938 259.058594 L 346.074219 259.046875 L 346.191406 259.042969 L 346.554688 259.03125 L 346.792969 259.019531 L 346.910156 259.011719 L 347.027344 259.007813 L 347.265625 258.992188 L 347.5 258.976563 L 347.734375 258.957031 L 347.855469 258.949219 L 347.972656 258.9375 L 348.207031 258.917969 L 348.679688 258.871094 L 348.796875 258.859375 L 348.914063 258.84375 L 349.148438 258.816406 L 349.621094 258.757813 L 349.855469 258.726563 L 350.09375 258.691406 L 350.5625 258.617188 L 350.679688 258.597656 L 350.800781 258.578125 L 351.035156 258.539063 L 351.507813 258.453125 L 351.976563 258.359375 L 352.449219 258.261719 L 352.683594 258.207031 L 352.917969 258.15625 L 353.390625 258.042969 L 354.332031 257.800781 L 354.460938 257.765625 L 354.589844 257.726563 L 354.84375 257.65625 L 355.355469 257.503906 L 356.378906 257.179688 L 356.507813 257.136719 L 356.632813 257.09375 L 356.890625 257.007813 L 357.402344 256.824219 L 358.421875 256.441406 L 358.679688 256.339844 L 358.933594 256.238281 L 359.445313 256.023438 L 360.46875 255.578125 L 362.511719 254.597656 L 362.632813 254.539063 L 362.75 254.476563 L 362.988281 254.355469 L 363.464844 254.101563 L 364.421875 253.578125 L 366.328125 252.453125 L 366.449219 252.378906 L 366.566406 252.304688 L 366.804688 252.15625 L 367.28125 251.851563 L 368.238281 251.226563 L 370.144531 249.902344 L 370.402344 249.714844 L 370.664063 249.523438 L 371.179688 249.140625 L 372.214844 248.351563 L 374.28125 246.691406 L 378.417969 243.027344 L 378.542969 242.910156 L 378.671875 242.789063 L 378.925781 242.550781 L 379.433594 242.0625 L 380.445313 241.070313 L 382.476563 239.011719 L 386.539063 234.597656 L 394.113281 225.355469 L 402.328125 214 L 409.996094 202.320313 L 417.515625 190.039063 L 425.671875 175.992188 L 433.28125 162.421875 L 433.546875 161.945313 L 434.34375 160.503906 L 435.40625 158.585938 L 437.53125 154.734375 L 437.796875 154.25 L 438.0625 153.769531 L 438.59375 152.804688 L 439.652344 150.871094 L 439.917969 150.386719 L 440.183594 149.90625 L 440.714844 148.9375 L 440.847656 148.699219 L 441.644531 147.246094 L 441.777344 147.007813 "/>
<path style="fill:none;stroke-width:2.88;stroke-linecap:square;stroke-linejoin:miter;stroke:rgb(0%,0%,0%);stroke-opacity:1;stroke-dasharray:7.2,7.2;stroke-miterlimit:3.25;" d="M 54.980469 34.949219 L 55.21875 34.949219 L 55.335938 34.953125 L 55.574219 34.953125 L 55.808594 34.960938 L 55.929688 34.960938 L 56.046875 34.964844 L 56.167969 34.96875 L 56.285156 34.972656 L 56.402344 34.980469 L 56.523438 34.984375 L 56.640625 34.988281 L 56.878906 35.003906 L 56.996094 35.007813 L 57.117188 35.015625 L 57.351563 35.03125 L 57.472656 35.042969 L 57.589844 35.050781 L 57.828125 35.070313 L 57.945313 35.078125 L 58.0625 35.089844 L 58.300781 35.113281 L 58.777344 35.164063 L 58.894531 35.175781 L 59.011719 35.191406 L 59.25 35.21875 L 59.726563 35.28125 L 59.84375 35.300781 L 59.960938 35.316406 L 60.199219 35.351563 L 60.675781 35.429688 L 60.910156 35.46875 L 61.148438 35.511719 L 61.625 35.601563 L 62.574219 35.800781 L 62.699219 35.828125 L 62.828125 35.859375 L 63.085938 35.917969 L 63.601563 36.046875 L 64.628906 36.324219 L 64.757813 36.359375 L 64.886719 36.398438 L 65.144531 36.472656 L 65.660156 36.632813 L 66.6875 36.96875 L 66.816406 37.015625 L 66.945313 37.058594 L 67.203125 37.152344 L 67.714844 37.339844 L 68.746094 37.738281 L 70.804688 38.628906 L 70.921875 38.6875 L 71.042969 38.742188 L 71.285156 38.855469 L 71.765625 39.089844 L 72.726563 39.574219 L 74.644531 40.617188 L 74.886719 40.757813 L 75.125 40.898438 L 75.605469 41.179688 L 76.566406 41.769531 L 78.488281 43.019531 L 78.722656 43.183594 L 78.960938 43.34375 L 79.429688 43.671875 L 80.371094 44.347656 L 82.257813 45.769531 L 86.023438 48.898438 L 86.152344 49.011719 L 86.277344 49.121094 L 86.535156 49.351563 L 87.046875 49.808594 L 88.066406 50.75 L 90.109375 52.707031 L 94.195313 56.929688 L 101.824219 65.855469 L 110.089844 76.933594 L 118.207031 89.035156 L 125.777344 101.238281 L 133.988281 115.242188 L 141.648438 128.832031 L 149.164063 142.425781 L 157.3125 157.246094 L 164.917969 170.921875 L 173.164063 185.324219 L 181.257813 198.800781 L 188.804688 210.5625 L 196.992188 222.238281 L 204.636719 231.941406 L 204.765625 232.097656 L 205.152344 232.554688 L 205.671875 233.160156 L 206.703125 234.351563 L 208.773438 236.664063 L 212.914063 240.976563 L 213.042969 241.101563 L 213.167969 241.226563 L 213.421875 241.476563 L 213.929688 241.972656 L 214.949219 242.941406 L 216.980469 244.800781 L 217.105469 244.914063 L 217.234375 245.023438 L 217.488281 245.25 L 217.996094 245.691406 L 219.011719 246.550781 L 221.042969 248.195313 L 221.164063 248.289063 L 221.28125 248.382813 L 221.519531 248.5625 L 221.992188 248.925781 L 222.941406 249.632813 L 224.835938 250.96875 L 224.953125 251.046875 L 225.074219 251.128906 L 225.308594 251.285156 L 225.785156 251.597656 L 226.734375 252.207031 L 228.628906 253.34375 L 228.886719 253.492188 L 229.140625 253.636719 L 229.65625 253.921875 L 230.683594 254.464844 L 230.941406 254.597656 L 231.199219 254.726563 L 231.710938 254.980469 L 232.738281 255.464844 L 233.253906 255.699219 L 233.765625 255.921875 L 234.796875 256.347656 L 236.851563 257.105469 L 236.972656 257.144531 L 237.089844 257.183594 L 237.332031 257.261719 L 237.8125 257.414063 L 238.769531 257.699219 L 239.011719 257.769531 L 239.25 257.832031 L 239.730469 257.957031 L 240.691406 258.191406 L 240.808594 258.214844 L 240.929688 258.242188 L 241.167969 258.296875 L 241.648438 258.394531 L 241.890625 258.441406 L 242.128906 258.484375 L 242.609375 258.570313 L 242.730469 258.589844 L 242.847656 258.609375 L 243.089844 258.648438 L 243.570313 258.722656 L 243.6875 258.738281 L 243.808594 258.753906 L 244.046875 258.785156 L 244.527344 258.84375 L 244.644531 258.855469 L 244.761719 258.871094 L 245 258.894531 L 245.234375 258.917969 L 245.46875 258.9375 L 245.585938 258.949219 L 245.703125 258.957031 L 245.9375 258.976563 L 246.058594 258.984375 L 246.175781 258.992188 L 246.410156 259.003906 L 246.644531 259.019531 L 246.761719 259.023438 L 246.878906 259.03125 L 247.113281 259.039063 L 247.234375 259.042969 L 247.585938 259.054688 L 247.703125 259.054688 L 247.820313 259.058594 L 247.9375 259.058594 L 248.054688 259.0625 L 248.761719 259.0625 L 248.878906 259.058594 L 248.996094 259.058594 L 249.230469 259.050781 L 249.347656 259.050781 L 249.46875 259.046875 L 249.585938 259.042969 L 249.703125 259.035156 L 249.9375 259.027344 L 250.171875 259.015625 L 250.289063 259.007813 L 250.40625 259.003906 L 250.644531 258.988281 L 250.761719 258.980469 L 250.878906 258.96875 L 251.113281 258.953125 L 251.230469 258.941406 L 251.347656 258.933594 L 251.582031 258.910156 L 252.054688 258.863281 L 252.183594 258.847656 L 252.308594 258.835938 L 252.566406 258.804688 L 253.074219 258.738281 L 253.332031 258.699219 L 253.585938 258.664063 L 254.09375 258.578125 L 254.222656 258.558594 L 254.351563 258.535156 L 254.605469 258.488281 L 255.117188 258.390625 L 256.136719 258.175781 L 256.265625 258.144531 L 256.390625 258.113281 L 256.648438 258.054688 L 257.15625 257.925781 L 258.179688 257.644531 L 258.304688 257.609375 L 258.433594 257.570313 L 258.6875 257.496094 L 259.199219 257.335938 L 260.21875 256.996094 L 260.339844 256.953125 L 260.457031 256.914063 L 260.695313 256.828125 L 261.171875 256.652344 L 262.125 256.28125 L 264.027344 255.460938 L 264.148438 255.40625 L 264.265625 255.351563 L 264.980469 255.011719 L 265.933594 254.539063 L 267.839844 253.511719 L 268.355469 253.214844 L 268.871094 252.910156 L 269.902344 252.28125 L 271.96875 250.9375 L 272.097656 250.847656 L 272.226563 250.761719 L 272.484375 250.582031 L 273 250.21875 L 274.03125 249.472656 L 276.097656 247.894531 L 276.222656 247.792969 L 276.351563 247.695313 L 276.605469 247.488281 L 277.109375 247.078125 L 278.125 246.234375 L 280.152344 244.46875 L 284.203125 240.617188 L 284.324219 240.5 L 284.441406 240.378906 L 284.675781 240.140625 L 285.148438 239.660156 L 286.09375 238.683594 L 287.984375 236.660156 L 291.765625 232.367188 L 299.96875 221.964844 L 307.621094 211.058594 L 315.125 199.402344 L 323.269531 185.878906 L 330.867188 172.644531 L 339.101563 157.867188 L 346.792969 143.882813 L 354.332031 130.222656 L 362.511719 115.695313 L 370.144531 102.628906 L 378.417969 89.246094 L 386.539063 77.117188 L 394.113281 66.894531 L 402.328125 57.183594 L 402.449219 57.050781 L 402.566406 56.921875 L 402.808594 56.664063 L 403.285156 56.148438 L 404.246094 55.140625 L 406.160156 53.1875 L 409.996094 49.554688 L 410.464844 49.132813 L 410.9375 48.722656 L 411.875 47.910156 L 413.753906 46.359375 L 413.988281 46.171875 L 414.226563 45.988281 L 414.695313 45.621094 L 415.632813 44.902344 L 417.515625 43.542969 L 417.640625 43.453125 L 417.769531 43.363281 L 418.023438 43.1875 L 418.535156 42.84375 L 419.554688 42.171875 L 421.59375 40.917969 L 421.71875 40.84375 L 421.847656 40.769531 L 422.101563 40.625 L 422.613281 40.335938 L 423.632813 39.78125 L 425.671875 38.761719 L 425.789063 38.707031 L 425.910156 38.652344 L 426.144531 38.542969 L 426.621094 38.328125 L 427.574219 37.917969 L 427.691406 37.871094 L 427.8125 37.820313 L 428.050781 37.722656 L 428.523438 37.535156 L 429.476563 37.179688 L 429.59375 37.136719 L 429.714844 37.09375 L 429.953125 37.011719 L 430.425781 36.847656 L 431.378906 36.542969 L 431.496094 36.507813 L 431.617188 36.472656 L 431.855469 36.402344 L 432.332031 36.265625 L 433.28125 36.015625 L 433.414063 35.980469 L 433.8125 35.886719 L 434.34375 35.765625 L 434.476563 35.738281 L 434.609375 35.707031 L 434.875 35.652344 L 435.40625 35.550781 L 435.539063 35.523438 L 435.9375 35.453125 L 436.46875 35.367188 L 436.601563 35.34375 L 437 35.285156 L 437.53125 35.214844 L 438.0625 35.152344 L 438.195313 35.140625 L 438.328125 35.125 L 438.59375 35.097656 L 438.859375 35.074219 L 439.121094 35.054688 L 439.253906 35.042969 L 439.386719 35.035156 L 439.652344 35.015625 L 440.050781 34.992188 L 440.183594 34.988281 L 440.316406 34.980469 L 440.449219 34.976563 L 440.582031 34.96875 L 440.980469 34.957031 L 441.113281 34.957031 L 441.246094 34.953125 L 441.378906 34.953125 L 441.511719 34.949219 L 441.777344 34.949219 "/>
</g>
<path style="fill:none;stroke-width:0.36;stroke-linecap:butt;stroke-linejoin:miter;stroke:rgb(39.99939%,39.99939%,39.99939%);stroke-opacity:1;stroke-miterlimit:3.25;" d="M 54.980469 147.007813 L 54.980469 143.007813 "/>
<path style="fill:none;stroke-width:0.36;stroke-linecap:butt;stroke-linejoin:miter;stroke:rgb(39.99939%,39.99939%,39.99939%);stroke-opacity:1;stroke-miterlimit:3.25;" d="M 67.292969 147.007813 L 67.292969 144.605469 "/>
<path style="fill:none;stroke-width:0.36;stroke-linecap:butt;stroke-linejoin:miter;stroke:rgb(39.99939%,39.99939%,39.99939%);stroke-opacity:1;stroke-miterlimit:3.25;" d="M 79.605469 147.007813 L 79.605469 144.605469 "/>
<path style="fill:none;stroke-width:0.36;stroke-linecap:butt;stroke-linejoin:miter;stroke:rgb(39.99939%,39.99939%,39.99939%);stroke-opacity:1;stroke-miterlimit:3.25;" d="M 91.917969 147.007813 L 91.917969 144.605469 "/>
<path style="fill:none;stroke-width:0.36;stroke-linecap:butt;stroke-linejoin:miter;stroke:rgb(39.99939%,39.99939%,39.99939%);stroke-opacity:1;stroke-miterlimit:3.25;" d="M 104.230469 147.007813 L 104.230469 144.605469 "/>
<path style="fill:none;stroke-width:0.36;stroke-linecap:butt;stroke-linejoin:miter;stroke:rgb(39.99939%,39.99939%,39.99939%);stroke-opacity:1;stroke-miterlimit:3.25;" d="M 116.539063 147.007813 L 116.539063 143.007813 "/>
<g style="fill:rgb(39.99939%,39.99939%,39.99939%);fill-opacity:1;">
  <use xlink:href="#glyph0-1" x="111.540825" y="169.406089"/>
</g>
<path style="fill:none;stroke-width:0.36;stroke-linecap:butt;stroke-linejoin:miter;stroke:rgb(39.99939%,39.99939%,39.99939%);stroke-opacity:1;stroke-miterlimit:3.25;" d="M 128.851563 147.007813 L 128.851563 144.605469 "/>
<path style="fill:none;stroke-width:0.36;stroke-linecap:butt;stroke-linejoin:miter;stroke:rgb(39.99939%,39.99939%,39.99939%);stroke-opacity:1;stroke-miterlimit:3.25;" d="M 141.164063 147.007813 L 141.164063 144.605469 "/>
<path style="fill:none;stroke-width:0.36;stroke-linecap:butt;stroke-linejoin:miter;stroke:rgb(39.99939%,39.99939%,39.99939%);stroke-opacity:1;stroke-miterlimit:3.25;" d="M 153.476563 147.007813 L 153.476563 144.605469 "/>
<path style="fill:none;stroke-width:0.36;stroke-linecap:butt;stroke-linejoin:miter;stroke:rgb(39.99939%,39.99939%,39.99939%);stroke-opacity:1;stroke-miterlimit:3.25;" d="M 165.789063 147.007813 L 165.789063 144.605469 "/>
<path style="fill:none;stroke-width:0.36;stroke-linecap:butt;stroke-linejoin:miter;stroke:rgb(39.99939%,39.99939%,39.99939%);stroke-opacity:1;stroke-miterlimit:3.25;" d="M 178.101563 147.007813 L 178.101563 143.007813 "/>
<g style="fill:rgb(39.99939%,39.99939%,39.99939%);fill-opacity:1;">
  <use xlink:href="#glyph0-2" x="173.10165" y="169.406089"/>
</g>
<path style="fill:none;stroke-width:0.36;stroke-linecap:butt;stroke-linejoin:miter;stroke:rgb(39.99939%,39.99939%,39.99939%);stroke-opacity:1;stroke-miterlimit:3.25;" d="M 190.414063 147.007813 L 190.414063 144.605469 "/>
<path style="fill:none;stroke-width:0.36;stroke-linecap:butt;stroke-linejoin:miter;stroke:rgb(39.99939%,39.99939%,39.99939%);stroke-opacity:1;stroke-miterlimit:3.25;" d="M 202.726563 147.007813 L 202.726563 144.605469 "/>
<path style="fill:none;stroke-width:0.36;stroke-linecap:butt;stroke-linejoin:miter;stroke:rgb(39.99939%,39.99939%,39.99939%);stroke-opacity:1;stroke-miterlimit:3.25;" d="M 215.039063 147.007813 L 215.039063 144.605469 "/>
<path style="fill:none;stroke-width:0.36;stroke-linecap:butt;stroke-linejoin:miter;stroke:rgb(39.99939%,39.99939%,39.99939%);stroke-opacity:1;stroke-miterlimit:3.25;" d="M 227.351563 147.007813 L 227.351563 144.605469 "/>
<path style="fill:none;stroke-width:0.36;stroke-linecap:butt;stroke-linejoin:miter;stroke:rgb(39.99939%,39.99939%,39.99939%);stroke-opacity:1;stroke-miterlimit:3.25;" d="M 239.664063 147.007813 L 239.664063 143.007813 "/>
<g style="fill:rgb(39.99939%,39.99939%,39.99939%);fill-opacity:1;">
  <use xlink:href="#glyph0-3" x="234.662475" y="169.406089"/>
</g>
<path style="fill:none;stroke-width:0.36;stroke-linecap:butt;stroke-linejoin:miter;stroke:rgb(39.99939%,39.99939%,39.99939%);stroke-opacity:1;stroke-miterlimit:3.25;" d="M 251.976563 147.007813 L 251.976563 144.605469 "/>
<path style="fill:none;stroke-width:0.36;stroke-linecap:butt;stroke-linejoin:miter;stroke:rgb(39.99939%,39.99939%,39.99939%);stroke-opacity:1;stroke-miterlimit:3.25;" d="M 264.285156 147.007813 L 264.285156 144.605469 "/>
<path style="fill:none;stroke-width:0.36;stroke-linecap:butt;stroke-linejoin:miter;stroke:rgb(39.99939%,39.99939%,39.99939%);stroke-opacity:1;stroke-miterlimit:3.25;" d="M 276.597656 147.007813 L 276.597656 144.605469 "/>
<path style="fill:none;stroke-width:0.36;stroke-linecap:butt;stroke-linejoin:miter;stroke:rgb(39.99939%,39.99939%,39.99939%);stroke-opacity:1;stroke-miterlimit:3.25;" d="M 288.910156 147.007813 L 288.910156 144.605469 "/>
<path style="fill:none;stroke-width:0.36;stroke-linecap:butt;stroke-linejoin:miter;stroke:rgb(39.99939%,39.99939%,39.99939%);stroke-opacity:1;stroke-miterlimit:3.25;" d="M 301.222656 147.007813 L 301.222656 143.007813 "/>
<g style="fill:rgb(39.99939%,39.99939%,39.99939%);fill-opacity:1;">
  <use xlink:href="#glyph0-4" x="296.2233" y="169.406089"/>
</g>
<path style="fill:none;stroke-width:0.36;stroke-linecap:butt;stroke-linejoin:miter;stroke:rgb(39.99939%,39.99939%,39.99939%);stroke-opacity:1;stroke-miterlimit:3.25;" d="M 313.535156 147.007813 L 313.535156 144.605469 "/>
<path style="fill:none;stroke-width:0.36;stroke-linecap:butt;stroke-linejoin:miter;stroke:rgb(39.99939%,39.99939%,39.99939%);stroke-opacity:1;stroke-miterlimit:3.25;" d="M 325.847656 147.007813 L 325.847656 144.605469 "/>
<path style="fill:none;stroke-width:0.36;stroke-linecap:butt;stroke-linejoin:miter;stroke:rgb(39.99939%,39.99939%,39.99939%);stroke-opacity:1;stroke-miterlimit:3.25;" d="M 338.160156 147.007813 L 338.160156 144.605469 "/>
<path style="fill:none;stroke-width:0.36;stroke-linecap:butt;stroke-linejoin:miter;stroke:rgb(39.99939%,39.99939%,39.99939%);stroke-opacity:1;stroke-miterlimit:3.25;" d="M 350.472656 147.007813 L 350.472656 144.605469 "/>
<path style="fill:none;stroke-width:0.36;stroke-linecap:butt;stroke-linejoin:miter;stroke:rgb(39.99939%,39.99939%,39.99939%);stroke-opacity:1;stroke-miterlimit:3.25;" d="M 362.785156 147.007813 L 362.785156 143.007813 "/>
<g style="fill:rgb(39.99939%,39.99939%,39.99939%);fill-opacity:1;">
  <use xlink:href="#glyph0-5" x="357.784124" y="169.406089"/>
</g>
<path style="fill:none;stroke-width:0.36;stroke-linecap:butt;stroke-linejoin:miter;stroke:rgb(39.99939%,39.99939%,39.99939%);stroke-opacity:1;stroke-miterlimit:3.25;" d="M 375.097656 147.007813 L 375.097656 144.605469 "/>
<path style="fill:none;stroke-width:0.36;stroke-linecap:butt;stroke-linejoin:miter;stroke:rgb(39.99939%,39.99939%,39.99939%);stroke-opacity:1;stroke-miterlimit:3.25;" d="M 387.410156 147.007813 L 387.410156 144.605469 "/>
<path style="fill:none;stroke-width:0.36;stroke-linecap:butt;stroke-linejoin:miter;stroke:rgb(39.99939%,39.99939%,39.99939%);stroke-opacity:1;stroke-miterlimit:3.25;" d="M 399.71875 147.007813 L 399.71875 144.605469 "/>
<path style="fill:none;stroke-width:0.36;stroke-linecap:butt;stroke-linejoin:miter;stroke:rgb(39.99939%,39.99939%,39.99939%);stroke-opacity:1;stroke-miterlimit:3.25;" d="M 412.03125 147.007813 L 412.03125 144.605469 "/>
<path style="fill:none;stroke-width:0.36;stroke-linecap:butt;stroke-linejoin:miter;stroke:rgb(39.99939%,39.99939%,39.99939%);stroke-opacity:1;stroke-miterlimit:3.25;" d="M 424.34375 147.007813 L 424.34375 143.007813 "/>
<g style="fill:rgb(39.99939%,39.99939%,39.99939%);fill-opacity:1;">
  <use xlink:href="#glyph0-6" x="419.344949" y="169.406089"/>
</g>
<path style="fill:none;stroke-width:0.36;stroke-linecap:butt;stroke-linejoin:miter;stroke:rgb(39.99939%,39.99939%,39.99939%);stroke-opacity:1;stroke-miterlimit:3.25;" d="M 436.65625 147.007813 L 436.65625 144.605469 "/>
<path style="fill:none;stroke-width:0.36;stroke-linecap:butt;stroke-linejoin:miter;stroke:rgb(39.99939%,39.99939%,39.99939%);stroke-opacity:1;stroke-miterlimit:3.25;" d="M 448.96875 147.007813 L 448.96875 144.605469 "/>
<path style="fill:none;stroke-width:0.36;stroke-linecap:butt;stroke-linejoin:miter;stroke:rgb(39.99939%,39.99939%,39.99939%);stroke-opacity:1;stroke-miterlimit:3.25;" d="M 46.921875 147.007813 L 449.835938 147.007813 "/>
<path style="fill:none;stroke-width:0.36;stroke-linecap:butt;stroke-linejoin:miter;stroke:rgb(39.99939%,39.99939%,39.99939%);stroke-opacity:1;stroke-miterlimit:3.25;" d="M 54.980469 270.269531 L 57.378906 270.269531 "/>
<path style="fill:none;stroke-width:0.36;stroke-linecap:butt;stroke-linejoin:miter;stroke:rgb(39.99939%,39.99939%,39.99939%);stroke-opacity:1;stroke-miterlimit:3.25;" d="M 54.980469 259.0625 L 58.980469 259.0625 "/>
<g style="fill:rgb(39.99939%,39.99939%,39.99939%);fill-opacity:1;">
  <use xlink:href="#glyph1-1" x="12.58" y="265.562825"/>
</g>
<g style="fill:rgb(39.99939%,39.99939%,39.99939%);fill-opacity:1;">
  <use xlink:href="#glyph0-1" x="24.58" y="265.562825"/>
  <use xlink:href="#glyph0-7" x="34.590742" y="265.562825"/>
  <use xlink:href="#glyph0-8" x="39.591719" y="265.562825"/>
</g>
<path style="fill:none;stroke-width:0.36;stroke-linecap:butt;stroke-linejoin:miter;stroke:rgb(39.99939%,39.99939%,39.99939%);stroke-opacity:1;stroke-miterlimit:3.25;" d="M 54.980469 247.855469 L 57.378906 247.855469 "/>
<path style="fill:none;stroke-width:0.36;stroke-linecap:butt;stroke-linejoin:miter;stroke:rgb(39.99939%,39.99939%,39.99939%);stroke-opacity:1;stroke-miterlimit:3.25;" d="M 54.980469 236.652344 L 57.378906 236.652344 "/>
<path style="fill:none;stroke-width:0.36;stroke-linecap:butt;stroke-linejoin:miter;stroke:rgb(39.99939%,39.99939%,39.99939%);stroke-opacity:1;stroke-miterlimit:3.25;" d="M 54.980469 225.445313 L 57.378906 225.445313 "/>
<path style="fill:none;stroke-width:0.36;stroke-linecap:butt;stroke-linejoin:miter;stroke:rgb(39.99939%,39.99939%,39.99939%);stroke-opacity:1;stroke-miterlimit:3.25;" d="M 54.980469 214.238281 L 57.378906 214.238281 "/>
<path style="fill:none;stroke-width:0.36;stroke-linecap:butt;stroke-linejoin:miter;stroke:rgb(39.99939%,39.99939%,39.99939%);stroke-opacity:1;stroke-miterlimit:3.25;" d="M 54.980469 203.035156 L 58.980469 203.035156 "/>
<g style="fill:rgb(39.99939%,39.99939%,39.99939%);fill-opacity:1;">
  <use xlink:href="#glyph1-1" x="12.58" y="209.534457"/>
</g>
<g style="fill:rgb(39.99939%,39.99939%,39.99939%);fill-opacity:1;">
  <use xlink:href="#glyph0-8" x="24.58" y="209.534457"/>
  <use xlink:href="#glyph0-7" x="34.590742" y="209.534457"/>
  <use xlink:href="#glyph0-5" x="39.591719" y="209.534457"/>
</g>
<path style="fill:none;stroke-width:0.36;stroke-linecap:butt;stroke-linejoin:miter;stroke:rgb(39.99939%,39.99939%,39.99939%);stroke-opacity:1;stroke-miterlimit:3.25;" d="M 54.980469 191.828125 L 57.378906 191.828125 "/>
<path style="fill:none;stroke-width:0.36;stroke-linecap:butt;stroke-linejoin:miter;stroke:rgb(39.99939%,39.99939%,39.99939%);stroke-opacity:1;stroke-miterlimit:3.25;" d="M 54.980469 180.625 L 57.378906 180.625 "/>
<path style="fill:none;stroke-width:0.36;stroke-linecap:butt;stroke-linejoin:miter;stroke:rgb(39.99939%,39.99939%,39.99939%);stroke-opacity:1;stroke-miterlimit:3.25;" d="M 54.980469 169.417969 L 57.378906 169.417969 "/>
<path style="fill:none;stroke-width:0.36;stroke-linecap:butt;stroke-linejoin:miter;stroke:rgb(39.99939%,39.99939%,39.99939%);stroke-opacity:1;stroke-miterlimit:3.25;" d="M 54.980469 158.210938 L 57.378906 158.210938 "/>
<path style="fill:none;stroke-width:0.36;stroke-linecap:butt;stroke-linejoin:miter;stroke:rgb(39.99939%,39.99939%,39.99939%);stroke-opacity:1;stroke-miterlimit:3.25;" d="M 54.980469 147.007813 L 58.980469 147.007813 "/>
<path style="fill:none;stroke-width:0.36;stroke-linecap:butt;stroke-linejoin:miter;stroke:rgb(39.99939%,39.99939%,39.99939%);stroke-opacity:1;stroke-miterlimit:3.25;" d="M 54.980469 135.800781 L 57.378906 135.800781 "/>
<path style="fill:none;stroke-width:0.36;stroke-linecap:butt;stroke-linejoin:miter;stroke:rgb(39.99939%,39.99939%,39.99939%);stroke-opacity:1;stroke-miterlimit:3.25;" d="M 54.980469 124.59375 L 57.378906 124.59375 "/>
<path style="fill:none;stroke-width:0.36;stroke-linecap:butt;stroke-linejoin:miter;stroke:rgb(39.99939%,39.99939%,39.99939%);stroke-opacity:1;stroke-miterlimit:3.25;" d="M 54.980469 113.390625 L 57.378906 113.390625 "/>
<path style="fill:none;stroke-width:0.36;stroke-linecap:butt;stroke-linejoin:miter;stroke:rgb(39.99939%,39.99939%,39.99939%);stroke-opacity:1;stroke-miterlimit:3.25;" d="M 54.980469 102.183594 L 57.378906 102.183594 "/>
<path style="fill:none;stroke-width:0.36;stroke-linecap:butt;stroke-linejoin:miter;stroke:rgb(39.99939%,39.99939%,39.99939%);stroke-opacity:1;stroke-miterlimit:3.25;" d="M 54.980469 90.976563 L 58.980469 90.976563 "/>
<g style="fill:rgb(39.99939%,39.99939%,39.99939%);fill-opacity:1;">
  <use xlink:href="#glyph0-8" x="24.58" y="97.477722"/>
  <use xlink:href="#glyph0-7" x="34.590742" y="97.477722"/>
  <use xlink:href="#glyph0-5" x="39.591719" y="97.477722"/>
</g>
<path style="fill:none;stroke-width:0.36;stroke-linecap:butt;stroke-linejoin:miter;stroke:rgb(39.99939%,39.99939%,39.99939%);stroke-opacity:1;stroke-miterlimit:3.25;" d="M 54.980469 79.773438 L 57.378906 79.773438 "/>
<path style="fill:none;stroke-width:0.36;stroke-linecap:butt;stroke-linejoin:miter;stroke:rgb(39.99939%,39.99939%,39.99939%);stroke-opacity:1;stroke-miterlimit:3.25;" d="M 54.980469 68.566406 L 57.378906 68.566406 "/>
<path style="fill:none;stroke-width:0.36;stroke-linecap:butt;stroke-linejoin:miter;stroke:rgb(39.99939%,39.99939%,39.99939%);stroke-opacity:1;stroke-miterlimit:3.25;" d="M 54.980469 57.359375 L 57.378906 57.359375 "/>
<path style="fill:none;stroke-width:0.36;stroke-linecap:butt;stroke-linejoin:miter;stroke:rgb(39.99939%,39.99939%,39.99939%);stroke-opacity:1;stroke-miterlimit:3.25;" d="M 54.980469 46.15625 L 57.378906 46.15625 "/>
<path style="fill:none;stroke-width:0.36;stroke-linecap:butt;stroke-linejoin:miter;stroke:rgb(39.99939%,39.99939%,39.99939%);stroke-opacity:1;stroke-miterlimit:3.25;" d="M 54.980469 34.949219 L 58.980469 34.949219 "/>
<g style="fill:rgb(39.99939%,39.99939%,39.99939%);fill-opacity:1;">
  <use xlink:href="#glyph0-1" x="24.58" y="41.449354"/>
  <use xlink:href="#glyph0-7" x="34.590742" y="41.449354"/>
  <use xlink:href="#glyph0-8" x="39.591719" y="41.449354"/>
</g>
<path style="fill:none;stroke-width:0.36;stroke-linecap:butt;stroke-linejoin:miter;stroke:rgb(39.99939%,39.99939%,39.99939%);stroke-opacity:1;stroke-miterlimit:3.25;" d="M 54.980469 23.742188 L 57.378906 23.742188 "/>
<path style="fill:none;stroke-width:0.36;stroke-linecap:butt;stroke-linejoin:miter;stroke:rgb(39.99939%,39.99939%,39.99939%);stroke-opacity:1;stroke-miterlimit:3.25;" d="M 54.980469 271.511719 L 54.980469 22.5 "/>
<path style="fill-rule:nonzero;fill:rgb(0%,0%,0%);fill-opacity:1;stroke-width:0.03;stroke-linecap:square;stroke-linejoin:miter;stroke:rgb(0%,0%,0%);stroke-opacity:1;stroke-miterlimit:3.239307;" d="M 462.714844 125.726563 L 462.714844 91.632813 L 616.421875 91.632813 L 616.421875 125.726563 Z M 462.714844 125.726563 "/>
<path style="fill-rule:nonzero;fill:rgb(99.998474%,99.998474%,99.998474%);fill-opacity:1;stroke-width:0.03;stroke-linecap:square;stroke-linejoin:miter;stroke:rgb(99.998474%,99.998474%,99.998474%);stroke-opacity:1;stroke-miterlimit:3.239307;" d="M 451.738281 114.75 L 451.738281 80.652344 L 605.441406 80.652344 L 605.441406 114.75 Z M 451.738281 114.75 "/>
<path style="fill:none;stroke-width:0.629;stroke-linecap:square;stroke-linejoin:miter;stroke:rgb(0%,0%,0%);stroke-opacity:1;stroke-miterlimit:3.25;" d="M 451.738281 114.75 L 451.738281 80.652344 L 605.441406 80.652344 L 605.441406 114.75 Z M 451.738281 114.75 "/>
<path style="fill:none;stroke-width:1.8;stroke-linecap:square;stroke-linejoin:miter;stroke:rgb(0%,0%,0%);stroke-opacity:1;stroke-dasharray:7.2,7.2;stroke-miterlimit:3.25;" d="M 455.070313 106.144531 L 461.214844 106.144531 "/>
<g style="fill:rgb(0%,0%,0%);fill-opacity:1;">
  <use xlink:href="#glyph0-9" x="469.461117" y="112.144797"/>
  <use xlink:href="#glyph0-10" x="478.461117" y="112.144797"/>
  <use xlink:href="#glyph0-11" x="488.471859" y="112.144797"/>
</g>
<g style="fill:rgb(0%,0%,0%);fill-opacity:1;">
  <use xlink:href="#glyph0-2" x="502.461117" y="112.144797"/>
</g>
<g style="fill:rgb(0%,0%,0%);fill-opacity:1;">
  <use xlink:href="#glyph0-12" x="512.461117" y="112.144797"/>
</g>
<path style="fill:none;stroke-width:1.8;stroke-linecap:square;stroke-linejoin:miter;stroke:rgb(0%,0%,0%);stroke-opacity:1;stroke-dasharray:1.8,7.2;stroke-miterlimit:3.25;" d="M 455.070313 90.449219 L 461.214844 90.449219 "/>
<g style="fill:rgb(0%,0%,0%);fill-opacity:1;">
  <use xlink:href="#glyph0-13" x="469.461117" y="96.449596"/>
  <use xlink:href="#glyph0-14" x="481.466976" y="96.449596"/>
  <use xlink:href="#glyph0-15" x="485.465999" y="96.449596"/>
</g>
<g style="fill:rgb(0%,0%,0%);fill-opacity:1;">
  <use xlink:href="#glyph0-12" x="500.461117" y="96.449596"/>
</g>
<g clip-path="url(#clip2)" clip-rule="nonzero">
<path style="fill:none;stroke-width:2.88;stroke-linecap:square;stroke-linejoin:miter;stroke:rgb(0%,0%,0%);stroke-opacity:1;stroke-dasharray:1.8,7.2;stroke-miterlimit:3.25;" d="M 68.34375 485.007813 L 68.464844 484.789063 L 68.582031 484.574219 L 68.820313 484.140625 L 69.292969 483.277344 L 70.242188 481.550781 L 72.140625 478.101563 L 75.9375 471.222656 L 84.167969 456.519531 L 91.855469 443.246094 L 99.390625 430.863281 L 107.5625 418.351563 L 115.191406 407.730469 L 123.457031 397.5625 L 123.582031 397.417969 L 123.710938 397.273438 L 124.472656 396.417969 L 125.484375 395.300781 L 127.515625 393.136719 L 131.574219 389.109375 L 131.691406 389 L 131.808594 388.886719 L 132.046875 388.667969 L 132.519531 388.230469 L 133.464844 387.371094 L 135.359375 385.730469 L 135.476563 385.628906 L 135.59375 385.53125 L 135.832031 385.332031 L 136.304688 384.941406 L 137.25 384.179688 L 139.144531 382.722656 L 139.269531 382.628906 L 139.398438 382.53125 L 139.65625 382.34375 L 140.167969 381.972656 L 141.195313 381.253906 L 143.246094 379.902344 L 143.503906 379.738281 L 143.761719 379.582031 L 144.273438 379.269531 L 145.300781 378.664063 L 147.351563 377.546875 L 147.472656 377.484375 L 147.589844 377.421875 L 147.832031 377.300781 L 148.308594 377.066406 L 149.265625 376.609375 L 149.507813 376.5 L 149.746094 376.390625 L 150.226563 376.179688 L 151.183594 375.777344 L 151.304688 375.730469 L 151.421875 375.679688 L 151.664063 375.585938 L 152.140625 375.402344 L 153.097656 375.050781 L 153.21875 375.011719 L 153.339844 374.96875 L 153.578125 374.886719 L 154.058594 374.730469 L 155.015625 374.433594 L 155.25 374.363281 L 155.484375 374.296875 L 155.953125 374.167969 L 156.1875 374.105469 L 156.421875 374.046875 L 156.894531 373.929688 L 157.363281 373.820313 L 157.832031 373.71875 L 158.769531 373.53125 L 158.890625 373.507813 L 159.007813 373.488281 L 159.242188 373.445313 L 159.710938 373.371094 L 159.945313 373.332031 L 160.179688 373.300781 L 160.648438 373.234375 L 160.765625 373.21875 L 160.882813 373.207031 L 161.121094 373.175781 L 161.355469 373.152344 L 161.589844 373.125 L 161.824219 373.101563 L 162.058594 373.082031 L 162.175781 373.070313 L 162.292969 373.0625 L 162.527344 373.042969 L 162.65625 373.035156 L 162.78125 373.023438 L 163.039063 373.007813 L 163.164063 373 L 163.292969 372.996094 L 163.546875 372.984375 L 163.675781 372.976563 L 163.800781 372.972656 L 163.929688 372.96875 L 164.054688 372.964844 L 164.3125 372.957031 L 164.4375 372.953125 L 164.691406 372.953125 L 164.820313 372.949219 L 165.328125 372.949219 L 165.457031 372.953125 L 165.585938 372.953125 L 165.710938 372.957031 L 165.839844 372.957031 L 165.964844 372.960938 L 166.222656 372.96875 L 166.347656 372.972656 L 166.476563 372.980469 L 166.601563 372.984375 L 166.730469 372.992188 L 166.859375 372.996094 L 166.984375 373.003906 L 167.242188 373.019531 L 167.367188 373.027344 L 167.621094 373.046875 L 167.75 373.058594 L 167.878906 373.066406 L 168.132813 373.089844 L 168.640625 373.140625 L 168.769531 373.15625 L 168.894531 373.167969 L 169.152344 373.199219 L 169.660156 373.265625 L 169.789063 373.28125 L 169.914063 373.300781 L 170.167969 373.335938 L 170.679688 373.417969 L 170.796875 373.4375 L 170.917969 373.457031 L 171.15625 373.5 L 171.628906 373.589844 L 171.75 373.613281 L 171.867188 373.636719 L 172.582031 373.789063 L 172.699219 373.816406 L 172.820313 373.839844 L 173.054688 373.898438 L 173.53125 374.011719 L 174.480469 374.261719 L 174.601563 374.296875 L 174.71875 374.332031 L 174.957031 374.398438 L 175.433594 374.539063 L 176.382813 374.84375 L 178.285156 375.53125 L 178.800781 375.734375 L 179.316406 375.945313 L 180.347656 376.394531 L 182.40625 377.375 L 182.921875 377.640625 L 183.4375 377.914063 L 184.46875 378.480469 L 186.53125 379.703125 L 186.65625 379.785156 L 186.78125 379.863281 L 187.035156 380.023438 L 187.542969 380.347656 L 188.554688 381.019531 L 190.578125 382.449219 L 194.625 385.636719 L 194.742188 385.738281 L 194.859375 385.835938 L 195.09375 386.035156 L 195.566406 386.441406 L 196.511719 387.269531 L 198.398438 388.996094 L 202.171875 392.71875 L 202.300781 392.851563 L 202.425781 392.984375 L 202.683594 393.25 L 203.195313 393.789063 L 204.21875 394.882813 L 206.265625 397.144531 L 210.359375 401.960938 L 218 411.914063 L 226.28125 423.964844 L 234.410156 436.867188 L 241.992188 449.667969 L 250.214844 464.144531 L 257.894531 478 L 265.417969 491.691406 L 273.585938 506.425781 L 281.203125 519.839844 L 289.460938 533.773438 L 297.570313 546.597656 L 305.132813 557.605469 L 313.332031 568.296875 L 313.453125 568.445313 L 313.570313 568.589844 L 313.808594 568.878906 L 314.289063 569.453125 L 315.246094 570.589844 L 317.160156 572.796875 L 320.988281 576.953125 L 321.457031 577.4375 L 321.925781 577.917969 L 322.863281 578.863281 L 324.738281 580.683594 L 324.855469 580.792969 L 324.972656 580.90625 L 325.675781 581.5625 L 326.617188 582.417969 L 328.617188 584.167969 L 328.746094 584.273438 L 329 584.488281 L 329.507813 584.910156 L 330.527344 585.738281 L 332.5625 587.304688 L 332.691406 587.398438 L 332.816406 587.492188 L 333.070313 587.679688 L 333.582031 588.046875 L 334.597656 588.761719 L 336.632813 590.105469 L 336.753906 590.179688 L 336.871094 590.253906 L 337.109375 590.402344 L 337.585938 590.691406 L 338.535156 591.253906 L 340.433594 592.300781 L 340.550781 592.363281 L 340.671875 592.425781 L 340.90625 592.546875 L 341.382813 592.785156 L 342.332031 593.246094 L 344.230469 594.089844 L 344.359375 594.144531 L 344.488281 594.195313 L 344.746094 594.300781 L 345.261719 594.503906 L 346.289063 594.886719 L 346.417969 594.933594 L 346.546875 594.976563 L 346.804688 595.066406 L 347.320313 595.238281 L 348.351563 595.558594 L 348.480469 595.597656 L 348.605469 595.636719 L 348.863281 595.710938 L 349.378906 595.851563 L 349.507813 595.882813 L 349.636719 595.917969 L 349.894531 595.984375 L 350.539063 596.140625 L 350.667969 596.167969 L 350.925781 596.226563 L 351.4375 596.339844 L 352.46875 596.535156 L 352.589844 596.554688 L 352.707031 596.578125 L 352.949219 596.617188 L 353.429688 596.691406 L 353.550781 596.707031 L 353.667969 596.726563 L 353.910156 596.757813 L 354.390625 596.820313 L 354.511719 596.835938 L 354.632813 596.847656 L 354.871094 596.875 L 355.113281 596.898438 L 355.351563 596.921875 L 355.472656 596.933594 L 355.59375 596.941406 L 355.832031 596.960938 L 355.953125 596.972656 L 356.074219 596.980469 L 356.3125 596.996094 L 356.554688 597.011719 L 356.675781 597.015625 L 356.792969 597.023438 L 356.914063 597.027344 L 357.035156 597.035156 L 357.15625 597.039063 L 357.273438 597.042969 L 357.636719 597.054688 L 357.753906 597.054688 L 357.875 597.058594 L 357.996094 597.058594 L 358.117188 597.0625 L 358.714844 597.0625 L 358.835938 597.058594 L 359.078125 597.058594 L 359.199219 597.054688 L 359.316406 597.050781 L 359.679688 597.039063 L 359.796875 597.035156 L 359.917969 597.03125 L 360.160156 597.019531 L 360.277344 597.011719 L 360.394531 597.007813 L 360.746094 596.984375 L 360.867188 596.976563 L 361.101563 596.957031 L 361.21875 596.949219 L 361.335938 596.9375 L 361.574219 596.917969 L 362.160156 596.859375 L 362.28125 596.84375 L 362.515625 596.816406 L 362.984375 596.757813 L 363.105469 596.742188 L 363.222656 596.726563 L 363.457031 596.691406 L 363.929688 596.617188 L 364.398438 596.539063 L 364.871094 596.453125 L 365.105469 596.40625 L 365.34375 596.359375 L 365.8125 596.261719 L 365.929688 596.234375 L 366.050781 596.207031 L 366.285156 596.15625 L 366.757813 596.042969 L 367.699219 595.800781 L 367.828125 595.765625 L 367.953125 595.726563 L 368.210938 595.65625 L 368.722656 595.503906 L 369.742188 595.179688 L 370 595.09375 L 370.253906 595.007813 L 370.765625 594.824219 L 371.789063 594.441406 L 371.914063 594.390625 L 372.300781 594.238281 L 372.808594 594.023438 L 373.832031 593.578125 L 375.878906 592.597656 L 375.996094 592.539063 L 376.117188 592.476563 L 376.355469 592.355469 L 376.832031 592.101563 L 377.785156 591.578125 L 379.695313 590.453125 L 379.8125 590.378906 L 379.933594 590.304688 L 380.171875 590.15625 L 380.648438 589.851563 L 381.601563 589.226563 L 383.511719 587.902344 L 383.769531 587.714844 L 384.542969 587.140625 L 385.578125 586.351563 L 387.644531 584.691406 L 391.78125 581.027344 L 391.910156 580.910156 L 392.035156 580.789063 L 392.289063 580.550781 L 392.796875 580.0625 L 393.8125 579.070313 L 395.84375 577.011719 L 399.902344 572.597656 L 407.480469 563.355469 L 415.691406 552 L 423.363281 540.320313 L 430.878906 528.039063 L 439.035156 513.992188 L 446.648438 500.421875 L 446.914063 499.945313 L 447.710938 498.503906 L 448.769531 496.585938 L 450.894531 492.734375 L 451.160156 492.25 L 451.425781 491.769531 L 451.957031 490.804688 L 453.019531 488.871094 L 453.285156 488.386719 L 453.550781 487.90625 L 454.082031 486.9375 L 454.214844 486.699219 L 455.011719 485.246094 L 455.144531 485.007813 "/>
<path style="fill:none;stroke-width:2.88;stroke-linecap:square;stroke-linejoin:miter;stroke:rgb(0%,0%,0%);stroke-opacity:1;stroke-dasharray:7.2,7.2;stroke-miterlimit:3.25;" d="M 68.34375 372.949219 L 68.582031 372.949219 L 68.699219 372.953125 L 68.9375 372.953125 L 69.058594 372.957031 L 69.175781 372.960938 L 69.292969 372.960938 L 69.414063 372.964844 L 69.648438 372.972656 L 69.769531 372.980469 L 69.886719 372.984375 L 70.007813 372.988281 L 70.242188 373.003906 L 70.363281 373.007813 L 70.480469 373.015625 L 70.71875 373.03125 L 70.835938 373.042969 L 70.957031 373.050781 L 71.191406 373.070313 L 71.3125 373.078125 L 71.429688 373.089844 L 71.667969 373.113281 L 72.140625 373.164063 L 72.261719 373.175781 L 72.378906 373.191406 L 72.617188 373.21875 L 73.089844 373.28125 L 73.210938 373.300781 L 73.328125 373.316406 L 73.566406 373.351563 L 74.039063 373.429688 L 74.15625 373.449219 L 74.277344 373.46875 L 74.515625 373.511719 L 74.988281 373.601563 L 75.9375 373.800781 L 76.066406 373.828125 L 76.195313 373.859375 L 76.453125 373.917969 L 76.964844 374.046875 L 77.996094 374.324219 L 78.125 374.359375 L 78.253906 374.398438 L 78.507813 374.472656 L 79.023438 374.632813 L 80.054688 374.96875 L 80.183594 375.015625 L 80.308594 375.058594 L 81.082031 375.339844 L 82.109375 375.738281 L 84.167969 376.628906 L 84.289063 376.6875 L 84.410156 376.742188 L 84.648438 376.855469 L 85.128906 377.089844 L 86.089844 377.574219 L 88.011719 378.617188 L 88.132813 378.6875 L 88.25 378.757813 L 88.492188 378.898438 L 88.972656 379.179688 L 89.933594 379.769531 L 91.855469 381.019531 L 92.089844 381.183594 L 92.324219 381.34375 L 92.796875 381.671875 L 93.738281 382.347656 L 95.621094 383.769531 L 99.390625 386.898438 L 99.515625 387.011719 L 99.644531 387.121094 L 99.898438 387.351563 L 100.410156 387.808594 L 101.433594 388.75 L 103.476563 390.707031 L 107.5625 394.929688 L 115.191406 403.855469 L 123.457031 414.933594 L 131.574219 427.035156 L 139.144531 439.238281 L 147.351563 453.242188 L 155.015625 466.832031 L 162.527344 480.425781 L 170.679688 495.246094 L 178.285156 508.921875 L 186.53125 523.324219 L 194.625 536.800781 L 202.171875 548.5625 L 210.359375 560.238281 L 218 569.941406 L 218.128906 570.097656 L 218.257813 570.25 L 218.519531 570.554688 L 219.035156 571.160156 L 220.070313 572.351563 L 222.140625 574.664063 L 226.28125 578.976563 L 226.40625 579.101563 L 226.535156 579.226563 L 226.789063 579.476563 L 227.296875 579.972656 L 228.3125 580.941406 L 230.34375 582.800781 L 230.472656 582.914063 L 230.597656 583.023438 L 230.851563 583.25 L 231.359375 583.691406 L 232.378906 584.550781 L 234.410156 586.195313 L 234.527344 586.289063 L 234.648438 586.382813 L 234.882813 586.5625 L 235.359375 586.925781 L 236.304688 587.632813 L 238.203125 588.96875 L 238.320313 589.046875 L 238.4375 589.128906 L 238.675781 589.285156 L 239.148438 589.597656 L 240.097656 590.207031 L 241.992188 591.34375 L 242.25 591.492188 L 242.507813 591.636719 L 243.019531 591.921875 L 244.050781 592.464844 L 244.179688 592.53125 L 244.304688 592.597656 L 244.5625 592.726563 L 245.078125 592.980469 L 246.105469 593.464844 L 246.363281 593.582031 L 246.617188 593.699219 L 247.132813 593.921875 L 248.160156 594.347656 L 250.214844 595.105469 L 250.457031 595.183594 L 250.695313 595.261719 L 251.175781 595.414063 L 252.136719 595.699219 L 252.253906 595.734375 L 252.375 595.769531 L 252.617188 595.832031 L 253.09375 595.957031 L 254.054688 596.191406 L 254.175781 596.214844 L 254.292969 596.242188 L 254.535156 596.296875 L 255.015625 596.394531 L 255.132813 596.417969 L 255.253906 596.441406 L 255.496094 596.484375 L 255.972656 596.570313 L 256.214844 596.609375 L 256.453125 596.648438 L 256.933594 596.722656 L 257.054688 596.738281 L 257.171875 596.753906 L 257.414063 596.785156 L 257.894531 596.84375 L 258.011719 596.855469 L 258.128906 596.871094 L 258.597656 596.917969 L 258.835938 596.9375 L 258.953125 596.949219 L 259.070313 596.957031 L 259.304688 596.976563 L 259.539063 596.992188 L 259.773438 597.003906 L 259.890625 597.011719 L 260.011719 597.019531 L 260.128906 597.023438 L 260.246094 597.03125 L 260.949219 597.054688 L 261.070313 597.054688 L 261.1875 597.058594 L 261.304688 597.058594 L 261.421875 597.0625 L 262.125 597.0625 L 262.246094 597.058594 L 262.363281 597.058594 L 262.597656 597.050781 L 262.714844 597.050781 L 262.949219 597.042969 L 263.066406 597.035156 L 263.183594 597.03125 L 263.304688 597.027344 L 263.539063 597.015625 L 263.65625 597.007813 L 263.773438 597.003906 L 264.125 596.980469 L 264.242188 596.96875 L 264.480469 596.953125 L 264.597656 596.941406 L 264.714844 596.933594 L 265.417969 596.863281 L 265.546875 596.847656 L 265.675781 596.835938 L 265.929688 596.804688 L 266.441406 596.738281 L 266.566406 596.71875 L 266.695313 596.699219 L 266.949219 596.664063 L 267.460938 596.578125 L 267.589844 596.558594 L 267.714844 596.535156 L 267.972656 596.488281 L 268.480469 596.390625 L 269.503906 596.175781 L 269.628906 596.144531 L 269.757813 596.113281 L 270.011719 596.054688 L 270.523438 595.925781 L 271.542969 595.644531 L 271.671875 595.609375 L 271.796875 595.570313 L 272.054688 595.496094 L 272.5625 595.335938 L 273.585938 594.996094 L 273.703125 594.953125 L 273.824219 594.914063 L 274.0625 594.828125 L 274.535156 594.652344 L 275.488281 594.28125 L 277.394531 593.460938 L 277.511719 593.40625 L 277.632813 593.351563 L 278.347656 593.011719 L 279.300781 592.539063 L 281.203125 591.511719 L 281.71875 591.214844 L 282.238281 590.910156 L 283.269531 590.28125 L 285.332031 588.9375 L 285.460938 588.847656 L 285.589844 588.761719 L 285.847656 588.582031 L 286.367188 588.21875 L 287.398438 587.472656 L 289.460938 585.894531 L 289.589844 585.792969 L 289.714844 585.695313 L 289.96875 585.488281 L 290.476563 585.078125 L 291.488281 584.234375 L 293.515625 582.46875 L 297.570313 578.617188 L 297.6875 578.5 L 297.804688 578.378906 L 298.042969 578.140625 L 298.515625 577.660156 L 299.460938 576.683594 L 301.351563 574.660156 L 305.132813 570.367188 L 313.332031 559.964844 L 320.988281 549.058594 L 328.492188 537.402344 L 336.632813 523.878906 L 344.230469 510.644531 L 352.46875 495.867188 L 360.160156 481.882813 L 367.699219 468.222656 L 375.878906 453.695313 L 383.511719 440.628906 L 391.78125 427.246094 L 399.902344 415.117188 L 407.480469 404.894531 L 415.691406 395.183594 L 415.8125 395.050781 L 415.933594 394.921875 L 416.171875 394.664063 L 416.652344 394.148438 L 417.609375 393.140625 L 419.527344 391.1875 L 423.363281 387.554688 L 423.832031 387.132813 L 424.300781 386.722656 L 425.242188 385.910156 L 427.121094 384.359375 L 427.355469 384.171875 L 428.058594 383.621094 L 429 382.902344 L 430.878906 381.542969 L 431.007813 381.453125 L 431.132813 381.363281 L 431.390625 381.1875 L 431.898438 380.84375 L 432.917969 380.171875 L 434.957031 378.917969 L 435.085938 378.84375 L 435.210938 378.769531 L 435.46875 378.625 L 435.976563 378.335938 L 436.996094 377.78125 L 439.035156 376.761719 L 439.15625 376.707031 L 439.273438 376.652344 L 439.511719 376.542969 L 439.988281 376.328125 L 440.9375 375.917969 L 441.058594 375.871094 L 441.175781 375.820313 L 441.414063 375.722656 L 441.890625 375.535156 L 442.839844 375.179688 L 442.960938 375.136719 L 443.078125 375.09375 L 443.792969 374.847656 L 444.746094 374.542969 L 444.980469 374.472656 L 445.21875 374.402344 L 445.695313 374.265625 L 446.648438 374.015625 L 446.78125 373.980469 L 447.179688 373.886719 L 447.710938 373.765625 L 447.84375 373.738281 L 447.972656 373.707031 L 448.238281 373.652344 L 448.769531 373.550781 L 448.902344 373.523438 L 449.300781 373.453125 L 449.832031 373.367188 L 449.964844 373.34375 L 450.363281 373.285156 L 450.894531 373.214844 L 451.425781 373.152344 L 451.558594 373.140625 L 451.691406 373.125 L 451.957031 373.097656 L 452.222656 373.074219 L 452.488281 373.054688 L 452.621094 373.042969 L 452.753906 373.035156 L 453.019531 373.015625 L 453.417969 372.992188 L 453.550781 372.988281 L 453.683594 372.980469 L 453.816406 372.976563 L 453.949219 372.96875 L 454.347656 372.957031 L 454.480469 372.957031 L 454.613281 372.953125 L 454.746094 372.953125 L 454.878906 372.949219 L 455.144531 372.949219 "/>
</g>
<path style="fill:none;stroke-width:0.36;stroke-linecap:butt;stroke-linejoin:miter;stroke:rgb(39.99939%,39.99939%,39.99939%);stroke-opacity:1;stroke-miterlimit:3.25;" d="M 68.34375 485.007813 L 68.34375 481.007813 "/>
<path style="fill:none;stroke-width:0.36;stroke-linecap:butt;stroke-linejoin:miter;stroke:rgb(39.99939%,39.99939%,39.99939%);stroke-opacity:1;stroke-miterlimit:3.25;" d="M 80.65625 485.007813 L 80.65625 482.605469 "/>
<path style="fill:none;stroke-width:0.36;stroke-linecap:butt;stroke-linejoin:miter;stroke:rgb(39.99939%,39.99939%,39.99939%);stroke-opacity:1;stroke-miterlimit:3.25;" d="M 92.96875 485.007813 L 92.96875 482.605469 "/>
<path style="fill:none;stroke-width:0.36;stroke-linecap:butt;stroke-linejoin:miter;stroke:rgb(39.99939%,39.99939%,39.99939%);stroke-opacity:1;stroke-miterlimit:3.25;" d="M 105.28125 485.007813 L 105.28125 482.605469 "/>
<path style="fill:none;stroke-width:0.36;stroke-linecap:butt;stroke-linejoin:miter;stroke:rgb(39.99939%,39.99939%,39.99939%);stroke-opacity:1;stroke-miterlimit:3.25;" d="M 117.59375 485.007813 L 117.59375 482.605469 "/>
<path style="fill:none;stroke-width:0.36;stroke-linecap:butt;stroke-linejoin:miter;stroke:rgb(39.99939%,39.99939%,39.99939%);stroke-opacity:1;stroke-miterlimit:3.25;" d="M 129.90625 485.007813 L 129.90625 481.007813 "/>
<g style="fill:rgb(39.99939%,39.99939%,39.99939%);fill-opacity:1;">
  <use xlink:href="#glyph0-1" x="124.906059" y="507.406089"/>
</g>
<path style="fill:none;stroke-width:0.36;stroke-linecap:butt;stroke-linejoin:miter;stroke:rgb(39.99939%,39.99939%,39.99939%);stroke-opacity:1;stroke-miterlimit:3.25;" d="M 142.21875 485.007813 L 142.21875 482.605469 "/>
<path style="fill:none;stroke-width:0.36;stroke-linecap:butt;stroke-linejoin:miter;stroke:rgb(39.99939%,39.99939%,39.99939%);stroke-opacity:1;stroke-miterlimit:3.25;" d="M 154.53125 485.007813 L 154.53125 482.605469 "/>
<path style="fill:none;stroke-width:0.36;stroke-linecap:butt;stroke-linejoin:miter;stroke:rgb(39.99939%,39.99939%,39.99939%);stroke-opacity:1;stroke-miterlimit:3.25;" d="M 166.84375 485.007813 L 166.84375 482.605469 "/>
<path style="fill:none;stroke-width:0.36;stroke-linecap:butt;stroke-linejoin:miter;stroke:rgb(39.99939%,39.99939%,39.99939%);stroke-opacity:1;stroke-miterlimit:3.25;" d="M 179.15625 485.007813 L 179.15625 482.605469 "/>
<path style="fill:none;stroke-width:0.36;stroke-linecap:butt;stroke-linejoin:miter;stroke:rgb(39.99939%,39.99939%,39.99939%);stroke-opacity:1;stroke-miterlimit:3.25;" d="M 191.46875 485.007813 L 191.46875 481.007813 "/>
<g style="fill:rgb(39.99939%,39.99939%,39.99939%);fill-opacity:1;">
  <use xlink:href="#glyph0-2" x="186.466884" y="507.406089"/>
</g>
<path style="fill:none;stroke-width:0.36;stroke-linecap:butt;stroke-linejoin:miter;stroke:rgb(39.99939%,39.99939%,39.99939%);stroke-opacity:1;stroke-miterlimit:3.25;" d="M 203.777344 485.007813 L 203.777344 482.605469 "/>
<path style="fill:none;stroke-width:0.36;stroke-linecap:butt;stroke-linejoin:miter;stroke:rgb(39.99939%,39.99939%,39.99939%);stroke-opacity:1;stroke-miterlimit:3.25;" d="M 216.089844 485.007813 L 216.089844 482.605469 "/>
<path style="fill:none;stroke-width:0.36;stroke-linecap:butt;stroke-linejoin:miter;stroke:rgb(39.99939%,39.99939%,39.99939%);stroke-opacity:1;stroke-miterlimit:3.25;" d="M 228.402344 485.007813 L 228.402344 482.605469 "/>
<path style="fill:none;stroke-width:0.36;stroke-linecap:butt;stroke-linejoin:miter;stroke:rgb(39.99939%,39.99939%,39.99939%);stroke-opacity:1;stroke-miterlimit:3.25;" d="M 240.714844 485.007813 L 240.714844 482.605469 "/>
<path style="fill:none;stroke-width:0.36;stroke-linecap:butt;stroke-linejoin:miter;stroke:rgb(39.99939%,39.99939%,39.99939%);stroke-opacity:1;stroke-miterlimit:3.25;" d="M 253.027344 485.007813 L 253.027344 481.007813 "/>
<g style="fill:rgb(39.99939%,39.99939%,39.99939%);fill-opacity:1;">
  <use xlink:href="#glyph0-3" x="248.027709" y="507.406089"/>
</g>
<path style="fill:none;stroke-width:0.36;stroke-linecap:butt;stroke-linejoin:miter;stroke:rgb(39.99939%,39.99939%,39.99939%);stroke-opacity:1;stroke-miterlimit:3.25;" d="M 265.339844 485.007813 L 265.339844 482.605469 "/>
<path style="fill:none;stroke-width:0.36;stroke-linecap:butt;stroke-linejoin:miter;stroke:rgb(39.99939%,39.99939%,39.99939%);stroke-opacity:1;stroke-miterlimit:3.25;" d="M 277.652344 485.007813 L 277.652344 482.605469 "/>
<path style="fill:none;stroke-width:0.36;stroke-linecap:butt;stroke-linejoin:miter;stroke:rgb(39.99939%,39.99939%,39.99939%);stroke-opacity:1;stroke-miterlimit:3.25;" d="M 289.964844 485.007813 L 289.964844 482.605469 "/>
<path style="fill:none;stroke-width:0.36;stroke-linecap:butt;stroke-linejoin:miter;stroke:rgb(39.99939%,39.99939%,39.99939%);stroke-opacity:1;stroke-miterlimit:3.25;" d="M 302.277344 485.007813 L 302.277344 482.605469 "/>
<path style="fill:none;stroke-width:0.36;stroke-linecap:butt;stroke-linejoin:miter;stroke:rgb(39.99939%,39.99939%,39.99939%);stroke-opacity:1;stroke-miterlimit:3.25;" d="M 314.589844 485.007813 L 314.589844 481.007813 "/>
<g style="fill:rgb(39.99939%,39.99939%,39.99939%);fill-opacity:1;">
  <use xlink:href="#glyph0-4" x="309.588534" y="507.406089"/>
</g>
<path style="fill:none;stroke-width:0.36;stroke-linecap:butt;stroke-linejoin:miter;stroke:rgb(39.99939%,39.99939%,39.99939%);stroke-opacity:1;stroke-miterlimit:3.25;" d="M 326.902344 485.007813 L 326.902344 482.605469 "/>
<path style="fill:none;stroke-width:0.36;stroke-linecap:butt;stroke-linejoin:miter;stroke:rgb(39.99939%,39.99939%,39.99939%);stroke-opacity:1;stroke-miterlimit:3.25;" d="M 339.210938 485.007813 L 339.210938 482.605469 "/>
<path style="fill:none;stroke-width:0.36;stroke-linecap:butt;stroke-linejoin:miter;stroke:rgb(39.99939%,39.99939%,39.99939%);stroke-opacity:1;stroke-miterlimit:3.25;" d="M 351.523438 485.007813 L 351.523438 482.605469 "/>
<path style="fill:none;stroke-width:0.36;stroke-linecap:butt;stroke-linejoin:miter;stroke:rgb(39.99939%,39.99939%,39.99939%);stroke-opacity:1;stroke-miterlimit:3.25;" d="M 363.835938 485.007813 L 363.835938 482.605469 "/>
<path style="fill:none;stroke-width:0.36;stroke-linecap:butt;stroke-linejoin:miter;stroke:rgb(39.99939%,39.99939%,39.99939%);stroke-opacity:1;stroke-miterlimit:3.25;" d="M 376.148438 485.007813 L 376.148438 481.007813 "/>
<g style="fill:rgb(39.99939%,39.99939%,39.99939%);fill-opacity:1;">
  <use xlink:href="#glyph0-5" x="371.149359" y="507.406089"/>
</g>
<path style="fill:none;stroke-width:0.36;stroke-linecap:butt;stroke-linejoin:miter;stroke:rgb(39.99939%,39.99939%,39.99939%);stroke-opacity:1;stroke-miterlimit:3.25;" d="M 388.460938 485.007813 L 388.460938 482.605469 "/>
<path style="fill:none;stroke-width:0.36;stroke-linecap:butt;stroke-linejoin:miter;stroke:rgb(39.99939%,39.99939%,39.99939%);stroke-opacity:1;stroke-miterlimit:3.25;" d="M 400.773438 485.007813 L 400.773438 482.605469 "/>
<path style="fill:none;stroke-width:0.36;stroke-linecap:butt;stroke-linejoin:miter;stroke:rgb(39.99939%,39.99939%,39.99939%);stroke-opacity:1;stroke-miterlimit:3.25;" d="M 413.085938 485.007813 L 413.085938 482.605469 "/>
<path style="fill:none;stroke-width:0.36;stroke-linecap:butt;stroke-linejoin:miter;stroke:rgb(39.99939%,39.99939%,39.99939%);stroke-opacity:1;stroke-miterlimit:3.25;" d="M 425.398438 485.007813 L 425.398438 482.605469 "/>
<path style="fill:none;stroke-width:0.36;stroke-linecap:butt;stroke-linejoin:miter;stroke:rgb(39.99939%,39.99939%,39.99939%);stroke-opacity:1;stroke-miterlimit:3.25;" d="M 437.710938 485.007813 L 437.710938 481.007813 "/>
<g style="fill:rgb(39.99939%,39.99939%,39.99939%);fill-opacity:1;">
  <use xlink:href="#glyph0-6" x="432.710184" y="507.406089"/>
</g>
<path style="fill:none;stroke-width:0.36;stroke-linecap:butt;stroke-linejoin:miter;stroke:rgb(39.99939%,39.99939%,39.99939%);stroke-opacity:1;stroke-miterlimit:3.25;" d="M 450.023438 485.007813 L 450.023438 482.605469 "/>
<path style="fill:none;stroke-width:0.36;stroke-linecap:butt;stroke-linejoin:miter;stroke:rgb(39.99939%,39.99939%,39.99939%);stroke-opacity:1;stroke-miterlimit:3.25;" d="M 462.335938 485.007813 L 462.335938 482.605469 "/>
<path style="fill:none;stroke-width:0.36;stroke-linecap:butt;stroke-linejoin:miter;stroke:rgb(39.99939%,39.99939%,39.99939%);stroke-opacity:1;stroke-miterlimit:3.25;" d="M 60.285156 485.007813 L 463.203125 485.007813 "/>
<path style="fill:none;stroke-width:0.36;stroke-linecap:butt;stroke-linejoin:miter;stroke:rgb(39.99939%,39.99939%,39.99939%);stroke-opacity:1;stroke-miterlimit:3.25;" d="M 68.34375 608.269531 L 70.746094 608.269531 "/>
<path style="fill:none;stroke-width:0.36;stroke-linecap:butt;stroke-linejoin:miter;stroke:rgb(39.99939%,39.99939%,39.99939%);stroke-opacity:1;stroke-miterlimit:3.25;" d="M 68.34375 597.0625 L 72.34375 597.0625 "/>
<g style="fill:rgb(39.99939%,39.99939%,39.99939%);fill-opacity:1;">
  <use xlink:href="#glyph1-1" x="25.945234" y="603.562825"/>
</g>
<g style="fill:rgb(39.99939%,39.99939%,39.99939%);fill-opacity:1;">
  <use xlink:href="#glyph0-1" x="37.945234" y="603.562825"/>
  <use xlink:href="#glyph0-7" x="47.955977" y="603.562825"/>
  <use xlink:href="#glyph0-8" x="52.956953" y="603.562825"/>
</g>
<path style="fill:none;stroke-width:0.36;stroke-linecap:butt;stroke-linejoin:miter;stroke:rgb(39.99939%,39.99939%,39.99939%);stroke-opacity:1;stroke-miterlimit:3.25;" d="M 68.34375 585.855469 L 70.746094 585.855469 "/>
<path style="fill:none;stroke-width:0.36;stroke-linecap:butt;stroke-linejoin:miter;stroke:rgb(39.99939%,39.99939%,39.99939%);stroke-opacity:1;stroke-miterlimit:3.25;" d="M 68.34375 574.652344 L 70.746094 574.652344 "/>
<path style="fill:none;stroke-width:0.36;stroke-linecap:butt;stroke-linejoin:miter;stroke:rgb(39.99939%,39.99939%,39.99939%);stroke-opacity:1;stroke-miterlimit:3.25;" d="M 68.34375 563.445313 L 70.746094 563.445313 "/>
<path style="fill:none;stroke-width:0.36;stroke-linecap:butt;stroke-linejoin:miter;stroke:rgb(39.99939%,39.99939%,39.99939%);stroke-opacity:1;stroke-miterlimit:3.25;" d="M 68.34375 552.238281 L 70.746094 552.238281 "/>
<path style="fill:none;stroke-width:0.36;stroke-linecap:butt;stroke-linejoin:miter;stroke:rgb(39.99939%,39.99939%,39.99939%);stroke-opacity:1;stroke-miterlimit:3.25;" d="M 68.34375 541.035156 L 72.34375 541.035156 "/>
<g style="fill:rgb(39.99939%,39.99939%,39.99939%);fill-opacity:1;">
  <use xlink:href="#glyph1-1" x="25.945234" y="547.534457"/>
</g>
<g style="fill:rgb(39.99939%,39.99939%,39.99939%);fill-opacity:1;">
  <use xlink:href="#glyph0-8" x="37.945234" y="547.534457"/>
  <use xlink:href="#glyph0-7" x="47.955977" y="547.534457"/>
  <use xlink:href="#glyph0-5" x="52.956953" y="547.534457"/>
</g>
<path style="fill:none;stroke-width:0.36;stroke-linecap:butt;stroke-linejoin:miter;stroke:rgb(39.99939%,39.99939%,39.99939%);stroke-opacity:1;stroke-miterlimit:3.25;" d="M 68.34375 529.828125 L 70.746094 529.828125 "/>
<path style="fill:none;stroke-width:0.36;stroke-linecap:butt;stroke-linejoin:miter;stroke:rgb(39.99939%,39.99939%,39.99939%);stroke-opacity:1;stroke-miterlimit:3.25;" d="M 68.34375 518.625 L 70.746094 518.625 "/>
<path style="fill:none;stroke-width:0.36;stroke-linecap:butt;stroke-linejoin:miter;stroke:rgb(39.99939%,39.99939%,39.99939%);stroke-opacity:1;stroke-miterlimit:3.25;" d="M 68.34375 507.417969 L 70.746094 507.417969 "/>
<path style="fill:none;stroke-width:0.36;stroke-linecap:butt;stroke-linejoin:miter;stroke:rgb(39.99939%,39.99939%,39.99939%);stroke-opacity:1;stroke-miterlimit:3.25;" d="M 68.34375 496.210938 L 70.746094 496.210938 "/>
<path style="fill:none;stroke-width:0.36;stroke-linecap:butt;stroke-linejoin:miter;stroke:rgb(39.99939%,39.99939%,39.99939%);stroke-opacity:1;stroke-miterlimit:3.25;" d="M 68.34375 485.007813 L 72.34375 485.007813 "/>
<path style="fill:none;stroke-width:0.36;stroke-linecap:butt;stroke-linejoin:miter;stroke:rgb(39.99939%,39.99939%,39.99939%);stroke-opacity:1;stroke-miterlimit:3.25;" d="M 68.34375 473.800781 L 70.746094 473.800781 "/>
<path style="fill:none;stroke-width:0.36;stroke-linecap:butt;stroke-linejoin:miter;stroke:rgb(39.99939%,39.99939%,39.99939%);stroke-opacity:1;stroke-miterlimit:3.25;" d="M 68.34375 462.59375 L 70.746094 462.59375 "/>
<path style="fill:none;stroke-width:0.36;stroke-linecap:butt;stroke-linejoin:miter;stroke:rgb(39.99939%,39.99939%,39.99939%);stroke-opacity:1;stroke-miterlimit:3.25;" d="M 68.34375 451.390625 L 70.746094 451.390625 "/>
<path style="fill:none;stroke-width:0.36;stroke-linecap:butt;stroke-linejoin:miter;stroke:rgb(39.99939%,39.99939%,39.99939%);stroke-opacity:1;stroke-miterlimit:3.25;" d="M 68.34375 440.183594 L 70.746094 440.183594 "/>
<path style="fill:none;stroke-width:0.36;stroke-linecap:butt;stroke-linejoin:miter;stroke:rgb(39.99939%,39.99939%,39.99939%);stroke-opacity:1;stroke-miterlimit:3.25;" d="M 68.34375 428.976563 L 72.34375 428.976563 "/>
<g style="fill:rgb(39.99939%,39.99939%,39.99939%);fill-opacity:1;">
  <use xlink:href="#glyph0-8" x="37.945234" y="435.477722"/>
  <use xlink:href="#glyph0-7" x="47.955977" y="435.477722"/>
  <use xlink:href="#glyph0-5" x="52.956953" y="435.477722"/>
</g>
<path style="fill:none;stroke-width:0.36;stroke-linecap:butt;stroke-linejoin:miter;stroke:rgb(39.99939%,39.99939%,39.99939%);stroke-opacity:1;stroke-miterlimit:3.25;" d="M 68.34375 417.773438 L 70.746094 417.773438 "/>
<path style="fill:none;stroke-width:0.36;stroke-linecap:butt;stroke-linejoin:miter;stroke:rgb(39.99939%,39.99939%,39.99939%);stroke-opacity:1;stroke-miterlimit:3.25;" d="M 68.34375 406.566406 L 70.746094 406.566406 "/>
<path style="fill:none;stroke-width:0.36;stroke-linecap:butt;stroke-linejoin:miter;stroke:rgb(39.99939%,39.99939%,39.99939%);stroke-opacity:1;stroke-miterlimit:3.25;" d="M 68.34375 395.359375 L 70.746094 395.359375 "/>
<path style="fill:none;stroke-width:0.36;stroke-linecap:butt;stroke-linejoin:miter;stroke:rgb(39.99939%,39.99939%,39.99939%);stroke-opacity:1;stroke-miterlimit:3.25;" d="M 68.34375 384.15625 L 70.746094 384.15625 "/>
<path style="fill:none;stroke-width:0.36;stroke-linecap:butt;stroke-linejoin:miter;stroke:rgb(39.99939%,39.99939%,39.99939%);stroke-opacity:1;stroke-miterlimit:3.25;" d="M 68.34375 372.949219 L 72.34375 372.949219 "/>
<g style="fill:rgb(39.99939%,39.99939%,39.99939%);fill-opacity:1;">
  <use xlink:href="#glyph0-1" x="37.945234" y="379.449354"/>
  <use xlink:href="#glyph0-7" x="47.955977" y="379.449354"/>
  <use xlink:href="#glyph0-8" x="52.956953" y="379.449354"/>
</g>
<path style="fill:none;stroke-width:0.36;stroke-linecap:butt;stroke-linejoin:miter;stroke:rgb(39.99939%,39.99939%,39.99939%);stroke-opacity:1;stroke-miterlimit:3.25;" d="M 68.34375 361.742188 L 70.746094 361.742188 "/>
<path style="fill:none;stroke-width:0.36;stroke-linecap:butt;stroke-linejoin:miter;stroke:rgb(39.99939%,39.99939%,39.99939%);stroke-opacity:1;stroke-miterlimit:3.25;" d="M 68.34375 609.511719 L 68.34375 360.5 "/>
<path style="fill-rule:nonzero;fill:rgb(0%,0%,0%);fill-opacity:1;stroke-width:0.03;stroke-linecap:square;stroke-linejoin:miter;stroke:rgb(0%,0%,0%);stroke-opacity:1;stroke-miterlimit:3.239307;" d="M 476.082031 463.726563 L 476.082031 402.824219 L 629.785156 402.824219 L 629.785156 463.726563 Z M 476.082031 463.726563 "/>
<path style="fill-rule:nonzero;fill:rgb(99.998474%,99.998474%,99.998474%);fill-opacity:1;stroke-width:0.03;stroke-linecap:square;stroke-linejoin:miter;stroke:rgb(99.998474%,99.998474%,99.998474%);stroke-opacity:1;stroke-miterlimit:3.239307;" d="M 465.101563 452.75 L 465.101563 391.847656 L 618.804688 391.847656 L 618.804688 452.75 Z M 465.101563 452.75 "/>
<path style="fill:none;stroke-width:0.629;stroke-linecap:square;stroke-linejoin:miter;stroke:rgb(0%,0%,0%);stroke-opacity:1;stroke-miterlimit:3.25;" d="M 465.101563 452.75 L 465.101563 391.847656 L 618.804688 391.847656 L 618.804688 452.75 Z M 465.101563 452.75 "/>
<path style="fill:none;stroke-width:1.8;stroke-linecap:square;stroke-linejoin:miter;stroke:rgb(0%,0%,0%);stroke-opacity:1;stroke-dasharray:7.2,7.2;stroke-miterlimit:3.25;" d="M 470.351563 436.816406 L 481.707031 436.816406 "/>
<g style="fill:rgb(0%,0%,0%);fill-opacity:1;">
  <use xlink:href="#glyph0-9" x="496.760905" y="442.815123"/>
  <use xlink:href="#glyph0-10" x="505.760905" y="442.815123"/>
  <use xlink:href="#glyph0-11" x="515.771647" y="442.815123"/>
  <use xlink:href="#glyph0-14" x="524.771647" y="442.815123"/>
  <use xlink:href="#glyph0-15" x="528.770671" y="442.815123"/>
  <use xlink:href="#glyph0-16" x="538.781413" y="442.815123"/>
</g>
<path style="fill:none;stroke-width:1.8;stroke-linecap:square;stroke-linejoin:miter;stroke:rgb(0%,0%,0%);stroke-opacity:1;stroke-dasharray:1.8,7.2;stroke-miterlimit:3.25;" d="M 470.351563 408.78125 L 481.707031 408.78125 "/>
<g style="fill:rgb(0%,0%,0%);fill-opacity:1;">
  <use xlink:href="#glyph0-11" x="496.760905" y="414.780927"/>
  <use xlink:href="#glyph0-14" x="505.760905" y="414.780927"/>
  <use xlink:href="#glyph0-15" x="509.759928" y="414.780927"/>
  <use xlink:href="#glyph0-16" x="519.770671" y="414.780927"/>
</g>
</g>
</svg>
